<?xml version="1.0" encoding="UTF-8"?>
<svg version="1.1" xmlns="http://www.w3.org/2000/svg" width="100" height="100">
<path d="M0 0 C0.99 0 1.98 0 3 0 C3 2.64 3 5.28 3 8 C4.65 8 6.3 8 8 8 C8 11.3 8 14.6 8 18 C8.99 18 9.98 18 11 18 C11 21.3 11 24.6 11 28 C12.65 28 14.3 28 16 28 C16.33 36.25 16.66 44.5 17 53 C18.65 38.81 20.3 24.62 22 10 C22.99 10 23.98 10 25 10 C25 8.35 25 6.7 25 5 C27.64 5 30.28 5 33 5 C33 3.35 33 1.7 33 0 C33.99 0 34.98 0 36 0 C36 1.65 36 3.3 36 5 C38.31 5 40.62 5 43 5 C43 6.65 43 8.3 43 10 C43.99 10 44.98 10 46 10 C47.66666667 21.66666667 49.33333333 33.33333333 51 45 C53.65206116 41.95189771 54.37479409 39.95198452 54.5625 35.9375 C54.74461241 32.26765906 54.88259316 31.17611026 57 28 C57.37882861 26.01605112 57.37882861 26.01605112 57.5 23.9375 C58 20 58 20 60 18 C60.99 18 61.98 18 63 18 C63 15.36 63 12.72 63 10 C63.99 10 64.98 10 66 10 C66 12.64 66 15.28 66 18 C66.639375 18.309375 67.27875 18.61875 67.9375 18.9375 C70 20 70 20 71 21 C72.59106587 26.45685871 73.25420528 31.87662659 73.4609375 37.54296875 C73.86809624 40.20980475 73.86809624 40.20980475 76.00927734 42.67944336 C78.39812739 46.66408274 78.46441691 48.97394337 78.390625 53.5859375 C78.38496521 54.28772125 78.37930542 54.989505 78.37347412 55.71255493 C78.35124483 57.93409087 78.30108056 60.15395923 78.25 62.375 C78.22991731 63.88929947 78.21166964 65.40362446 78.1953125 66.91796875 C78.15142633 70.61251268 78.08249577 74.30609333 78 78 C78.99 78 79.98 78 81 78 C81 83.94 81 89.88 81 96 C49.32 96 17.64 96 -15 96 C-15 88.41 -15 80.82 -15 73 C-14.01 73 -13.02 73 -12 73 C-12 58.15 -12 43.3 -12 28 C-10.35 28 -8.7 28 -7 28 C-7 24.7 -7 21.4 -7 18 C-6.34 18 -5.68 18 -5 18 C-5 14.7 -5 11.4 -5 8 C-3.35 8 -1.7 8 0 8 C0 5.36 0 2.72 0 0 Z " fill="#7E92A2" transform="translate(17,2)"/>
<path d="M0 0 C0.99 0 1.98 0 3 0 C3 2.64 3 5.28 3 8 C4.65 8 6.3 8 8 8 C8 11.3 8 14.6 8 18 C8.99 18 9.98 18 11 18 C11 21.3 11 24.6 11 28 C12.65 28 14.3 28 16 28 C16 42.85 16 57.7 16 73 C16.66 73 17.32 73 18 73 C18 80.59 18 88.18 18 96 C7.11 96 -3.78 96 -15 96 C-15 88.41 -15 80.82 -15 73 C-14.01 73 -13.02 73 -12 73 C-12 58.15 -12 43.3 -12 28 C-10.35 28 -8.7 28 -7 28 C-7 24.7 -7 21.4 -7 18 C-6.34 18 -5.68 18 -5 18 C-5 14.7 -5 11.4 -5 8 C-3.35 8 -1.7 8 0 8 C0 5.36 0 2.72 0 0 Z " fill="#9A7E47" transform="translate(17,2)"/>
<path d="M0 0 C1.32 0 2.64 0 4 0 C4 0.66 4 1.32 4 2 C6.75031587 1.85888117 9.50015418 1.71228835 12.25 1.5625 C13.02730469 1.52318359 13.80460937 1.48386719 14.60546875 1.44335938 C15.35957031 1.40146484 16.11367188 1.35957031 16.890625 1.31640625 C17.58188477 1.27974854 18.27314453 1.24309082 18.98535156 1.20532227 C21.35620639 1.0121859 21.35620639 1.0121859 25 0 C25 14.52 25 29.04 25 44 C16.75 44 8.5 44 0 44 C0 29.48 0 14.96 0 0 Z " fill="#E2BD77" transform="translate(6,31)"/>
<path d="M0 0 C6.27 0 12.54 0 19 0 C17.88113205 17.81355551 16.48134008 35.59358254 14.9375 53.375 C14.84964233 54.39394348 14.76178467 55.41288696 14.67126465 56.46270752 C14.4173739 59.39983443 14.16045889 62.3366791 13.90234375 65.2734375 C13.82634445 66.15159119 13.75034515 67.02974487 13.67204285 67.93450928 C13.25258326 72.65125612 12.71797361 77.31914401 12 82 C10.02 82 8.04 82 6 82 C5.93958023 81.25577286 5.87916046 80.51154572 5.81690979 79.74476624 C5.24461739 72.69842653 4.67104051 65.6521928 4.09605503 58.60607243 C3.8005621 54.9844269 3.50554937 51.36274364 3.21166992 47.7409668 C2.92753825 44.23954828 2.64209836 40.73823856 2.35578728 37.2369976 C2.19484258 35.26476543 2.03521967 33.29242554 1.87562561 31.32008362 C1.45185348 26.14903967 1.02056264 20.98522612 0.43164062 15.83007812 C-0.16686893 10.51932142 -0.06139104 5.34102089 0 0 Z " fill="#C0E6FD" transform="translate(42,14)"/>
<path d="M0 0 C0.86753906 0.01095703 1.73507813 0.02191406 2.62890625 0.03320312 C3.49644531 0.00935547 4.36398438 -0.01449219 5.2578125 -0.0390625 C6.50884766 -0.03616211 6.50884766 -0.03616211 7.78515625 -0.03320312 C8.54634766 -0.03392822 9.30753906 -0.03465332 10.09179688 -0.03540039 C12.12890625 0.59570312 12.12890625 0.59570312 13.88208008 2.69433594 C15.39779886 6.22141682 15.47082272 8.81224644 15.421875 12.64648438 C15.41763016 13.30529099 15.41338531 13.9640976 15.40901184 14.64286804 C15.39231821 16.73174197 15.35468683 18.81962452 15.31640625 20.90820312 C15.30134722 22.33071516 15.28766094 23.75324243 15.27539062 25.17578125 C15.24244628 28.64940663 15.19073033 32.12245799 15.12890625 35.59570312 C12.15890625 35.59570312 9.18890625 35.59570312 6.12890625 35.59570312 C6.12890625 37.24570313 6.12890625 38.89570312 6.12890625 40.59570312 C3.81890625 40.59570312 1.50890625 40.59570312 -0.87109375 40.59570312 C-0.87109375 38.94570312 -0.87109375 37.29570313 -0.87109375 35.59570312 C-3.51109375 35.59570312 -6.15109375 35.59570312 -8.87109375 35.59570312 C-9.73874609 28.80142551 -10.08415655 22.13043737 -10.12109375 15.28320312 C-10.14171875 14.30802734 -10.16234375 13.33285156 -10.18359375 12.328125 C-10.18875 11.38904297 -10.19390625 10.44996094 -10.19921875 9.48242188 C-10.20856445 8.63897217 -10.21791016 7.79552246 -10.22753906 6.92651367 C-9.24685568 0.51378476 -5.64870937 0.06547963 0 0 Z " fill="#CDD8E1" transform="translate(78.87109375,44.404296875)"/>
<path d="M0 0 C4.95 0 9.9 0 15 0 C15 1.32 15 2.64 15 4 C15.66 4.33 16.32 4.66 17 5 C10.73 5 4.46 5 -2 5 C-1.71125 7.95582031 -1.4225 10.91164063 -1.125 13.95703125 C-0.84485543 16.88953117 -0.56779879 19.82230807 -0.29101562 22.75512695 C-0.10021379 24.75966672 0.0936874 26.76391443 0.29101562 28.76782227 C1.51697514 41.24321135 2.17724295 53.50626471 2.01074219 66.03921509 C1.98759764 70.2638176 2.23092638 74.47322525 2.5 78.6875 C2.54769531 79.50798828 2.59539063 80.32847656 2.64453125 81.17382812 C2.75811898 83.11617828 2.87822639 85.05814586 3 87 C-0.96 87 -4.92 87 -9 87 C-10.86848313 65.68819239 -8.66031495 45.7162269 -5.64990234 24.63525391 C-4.6751487 17.76853531 -3.83711707 10.88461761 -3 4 C-2.01 4 -1.02 4 0 4 C0 2.68 0 1.36 0 0 Z " fill="#86B2EB" transform="translate(44,9)"/>
<path d="M0 0 C0.33 0 0.66 0 1 0 C1 1.65 1 3.3 1 5 C1.66 5 2.32 5 3 5 C3.14622803 6.24088379 3.29245605 7.48176758 3.44311523 8.76025391 C3.98773266 13.37858925 4.53423564 17.99669988 5.08129883 22.61474609 C5.317488 24.61077932 5.55317067 26.60687254 5.78833008 28.60302734 C6.12707448 31.47769974 6.46765964 34.35214908 6.80859375 37.2265625 C6.91280136 38.11429352 7.01700897 39.00202454 7.12437439 39.91665649 C7.97908822 47.56818804 7.97908822 47.56818804 9.5625 55.08984375 C10.07229235 57.31563357 10.06013457 59.28114482 10 61.5625 C9.9339853 67.09948258 10.43521533 72.49334946 11 78 C5.72 78 0.44 78 -5 78 C-5.42307753 60.93234747 -4.0942887 44.17148959 -2.5 27.1875 C-2.25718532 24.53728149 -2.01736085 21.88680268 -1.77734375 19.23632812 C-1.19475625 12.82328373 -0.6016847 6.4112794 0 0 Z " fill="#84B0E9" transform="translate(60,18)"/>
<path d="M0 0 C9.9 0 19.8 0 30 0 C30 6.6 30 13.2 30 20 C20.1 20 10.2 20 0 20 C0 13.4 0 6.8 0 0 Z " fill="#E1BC77" transform="translate(4,76)"/>
<path d="M0 0 C1.65 0 3.3 0 5 0 C5 1.65 5 3.3 5 5 C8.3 5 11.6 5 15 5 C15 3.35 15 1.7 15 0 C18.3 0 21.6 0 25 0 C25 4.95 25 9.9 25 15 C17.41 15 9.82 15 2 15 C2 14.01 2 13.02 2 12 C2.66 12 3.32 12 4 12 C4 11.01 4 10.02 4 9 C2.68 9 1.36 9 0 9 C0 6.03 0 3.06 0 0 Z " fill="#D7E2EA" transform="translate(71,81)"/>
<path d="M0 0 C0.99 0 1.98 0 3 0 C3 2.64 3 5.28 3 8 C4.65 8 6.3 8 8 8 C8 11.3 8 14.6 8 18 C8.99 18 9.98 18 11 18 C11 21.3 11 24.6 11 28 C12.65 28 14.3 28 16 28 C16 42.85 16 57.7 16 73 C16.66 73 17.32 73 18 73 C18 80.59 18 88.18 18 96 C7.11 96 -3.78 96 -15 96 C-15 88.41 -15 80.82 -15 73 C-14.67 73 -14.34 73 -14 73 C-14 79.93 -14 86.86 -14 94 C-3.77 94 6.46 94 17 94 C17 87.4 17 80.8 17 74 C7.43 74 -2.14 74 -12 74 C-12 73.67 -12 73.34 -12 73 C-3.42 73 5.16 73 14 73 C14 58.48 14 43.96 14 29 C12.68 29 11.36 29 10 29 C10 25.7 10 22.4 10 19 C9.01 19.33 8.02 19.66 7 20 C7 16.37 7 12.74 7 9 C3.37 9 -0.26 9 -4 9 C-4 12.3 -4 15.6 -4 19 C-4.66 18.67 -5.32 18.34 -6 18 C-5.67 14.7 -5.34 11.4 -5 8 C-3.35 8 -1.7 8 0 8 C0 5.36 0 2.72 0 0 Z " fill="#9D814A" transform="translate(17,2)"/>
<path d="M0 0 C0.99 0 1.98 0 3 0 C3 1.65 3 3.3 3 5 C5.31 5 7.62 5 10 5 C10 6.65 10 8.3 10 10 C10.99 10 11.98 10 13 10 C14.80486519 21.82762724 16.37515364 33.66960919 17.6875 45.5625 C17.81874268 46.71395508 17.94998535 47.86541016 18.08520508 49.05175781 C18.87405773 56.39745211 19.15832795 63.61387568 19 71 C18.67 71 18.34 71 18 71 C17.27981362 65.4875096 16.56805968 59.97401658 15.86376953 54.45947266 C15.62351682 52.5874364 15.38104636 50.71568326 15.13623047 48.84423828 C14.78275632 46.13907901 14.43752959 43.43296885 14.09375 40.7265625 C13.9843811 39.90322418 13.87501221 39.07988586 13.7623291 38.2315979 C13.04061821 32.46335626 12.87894142 26.81033133 13 21 C12.34 21 11.68 21 11 21 C11 17.7 11 14.4 11 11 C10.34 11 9.68 11 9 11 C9 9.68 9 8.36 9 7 C4.05 7 -0.9 7 -6 7 C-6 8.32 -6 9.64 -6 11 C-6.99 11 -7.98 11 -9 11 C-9.03665771 11.8765625 -9.07331543 12.753125 -9.11108398 13.65625 C-9.75546882 26.19666385 -11.38440967 38.56182037 -13.0625 51 C-13.34750879 53.14316226 -13.63201742 55.28639109 -13.91601562 57.4296875 C-14.60492391 62.62057183 -15.29995947 67.81060585 -16 73 C-16.33 73 -16.66 73 -17 73 C-17.17314664 64.77622146 -16.70365329 56.82963972 -15.6875 48.671875 C-15.55432373 47.55685608 -15.42114746 46.44183716 -15.28393555 45.29302979 C-14.86256598 41.77785233 -14.4314617 38.26395147 -14 34.75 C-13.71028929 32.34773433 -13.4212209 29.94539111 -13.1328125 27.54296875 C-12.42928992 21.69439634 -11.71779971 15.84683641 -11 10 C-10.01 10 -9.02 10 -8 10 C-8 8.35 -8 6.7 -8 5 C-5.36 5 -2.72 5 0 5 C0 3.35 0 1.7 0 0 Z " fill="#517DB8" transform="translate(50,2)"/>
<path d="M0 0 C2.875 1.875 2.875 1.875 5 5 C5.41588778 8.44818349 5.23299002 11.50514965 5 15 C0.05 15 -4.9 15 -10 15 C-10.48556876 4.80305603 -10.48556876 4.80305603 -8.375 1.3125 C-5.22091596 -0.43054644 -3.55483933 -0.65292967 0 0 Z " fill="#CFDBE3" transform="translate(84,29)"/>
<path d="M0 0 C3.125 0.375 3.125 0.375 6 1 C6.33 3.31 6.66 5.62 7 8 C5 9 5 9 2.0625 8.875 C-0.9162501 8.72098874 -0.9162501 8.72098874 -2.6484375 10.15234375 C-4.4843114 12.66207888 -4.50627887 14.60674085 -4.6875 17.6875 C-4.8421875 20.3171875 -4.8421875 20.3171875 -5 23 C-0.71 23 3.58 23 8 23 C8 23.33 8 23.66 8 24 C6.94039062 24.03738281 5.88078125 24.07476562 4.7890625 24.11328125 C3.40100576 24.17893258 2.01298651 24.24538021 0.625 24.3125 C-0.07367188 24.33505859 -0.77234375 24.35761719 -1.4921875 24.38085938 C-3.77288941 24.46984296 -3.77288941 24.46984296 -7 25 C-9.26954631 28.40431947 -9.36549949 30.16524202 -9.625 34.1875 C-9.69976562 35.27417969 -9.77453125 36.36085937 -9.8515625 37.48046875 C-9.90054688 38.31191406 -9.94953125 39.14335938 -10 40 C-10.33 40 -10.66 40 -11 40 C-12.12699375 32.42954197 -12.68180961 28.334213 -8 22 C-7.59364846 19.43875395 -7.43970823 16.95839301 -7.37109375 14.3671875 C-6.92215103 11.50340552 -5.80883623 10.22202217 -4 8 C-3.32136945 6.0040278 -2.65358081 4.00431449 -2 2 C-1.34 1.34 -0.68 0.68 0 0 Z " fill="#7F92A1" transform="translate(79,21)"/>
<path d="M0 0 C0.33 0 0.66 0 1 0 C2.26699248 10.71287388 3.34910893 21.1970182 3 32 C4.98 32 6.96 32 9 32 C9.33 27.05 9.66 22.1 10 17 C10.33 17 10.66 17 11 17 C11.02693575 19.12493141 11.04636628 21.24995912 11.0625 23.375 C11.07410156 24.55835937 11.08570312 25.74171875 11.09765625 26.9609375 C11 30 11 30 10 32 C15.28 32 20.56 32 26 32 C26.33 30.68 26.66 29.36 27 28 C27 29.98 27 31.96 27 34 C14.79 34 2.58 34 -10 34 C-10 33.34 -10 32.68 -10 32 C-6.04 32 -2.08 32 2 32 C1.855625 30.77925781 1.71125 29.55851562 1.5625 28.30078125 C0.47907409 18.81163111 -0.30900519 9.56199405 0 0 Z " fill="#5B85BE" transform="translate(45,64)"/>
<path d="M0 0 C0.33 0 0.66 0 1 0 C1 3.3 1 6.6 1 10 C-3.95 10 -8.9 10 -14 10 C-14 7.36 -14 4.72 -14 2 C-9.38 2 -4.76 2 0 2 C0 1.34 0 0.68 0 0 Z " fill="#E9C37D" transform="translate(25,21)"/>
<path d="M0 0 C0.99 0 1.98 0 3 0 C3 2.64 3 5.28 3 8 C4.65 8 6.3 8 8 8 C8 11.3 8 14.6 8 18 C8.99 18 9.98 18 11 18 C11 21.3 11 24.6 11 28 C12.65 28 14.3 28 16 28 C16 42.85 16 57.7 16 73 C15.67 73 15.34 73 15 73 C15 58.48 15 43.96 15 29 C13.35 29 11.7 29 10 29 C10 25.7 10 22.4 10 19 C9.01 19.33 8.02 19.66 7 20 C7 16.37 7 12.74 7 9 C3.37 9 -0.26 9 -4 9 C-4 12.3 -4 15.6 -4 19 C-4.66 18.67 -5.32 18.34 -6 18 C-5.67 14.7 -5.34 11.4 -5 8 C-3.35 8 -1.7 8 0 8 C0 5.36 0 2.72 0 0 Z " fill="#957943" transform="translate(17,2)"/>
<path d="M0 0 C0.99 0 1.98 0 3 0 C3 2.64 3 5.28 3 8 C3.639375 8.309375 4.27875 8.61875 4.9375 8.9375 C7 10 7 10 8 11 C9.36434236 15.67926795 10.06602879 20.33223808 10.375 25.1875 C10.76447586 29.9126505 12.12595119 32.29154992 15 36 C15 36.66 15 37.32 15 38 C14.34 38 13.68 38 13 38 C12.7525 37.195625 12.505 36.39125 12.25 35.5625 C11.27761141 32.828919 11.27761141 32.828919 8.875 32.1875 C7.946875 32.0946875 7.946875 32.0946875 7 32 C7.66 32 8.32 32 9 32 C8.6665004 26.07750712 8.16431411 22.09041836 5 17 C4.8125 13.1875 4.8125 13.1875 5 10 C2.08347826 9.83318891 2.08347826 9.83318891 -1 10 C-3.35953094 12.35953094 -3.49141413 13.77895617 -4 17 C-4.33 17 -4.66 17 -5 17 C-5.125 13.625 -5.125 13.625 -5 10 C-4.34 9.34 -3.68 8.68 -3 8 C-2.01 8 -1.02 8 0 8 C0 5.36 0 2.72 0 0 Z " fill="#7A8D9D" transform="translate(80,12)"/>
<path d="M0 0 C3.3 0 6.6 0 10 0 C10 3.3 10 6.6 10 10 C6.7 10 3.4 10 0 10 C0 6.7 0 3.4 0 0 Z " fill="#EAC47D" transform="translate(14,11)"/>
<path d="M0 0 C4.95 0 9.9 0 15 0 C15 1.32 15 2.64 15 4 C15.66 4.33 16.32 4.66 17 5 C10.73 5 4.46 5 -2 5 C-2 9.95 -2 14.9 -2 20 C-2.33 20 -2.66 20 -3 20 C-3.19672365 18.27185839 -3.38196799 16.54240803 -3.5625 14.8125 C-3.71912109 13.36810547 -3.71912109 13.36810547 -3.87890625 11.89453125 C-3.99758751 9.05766623 -3.67765639 6.74576329 -3 4 C-2.01 4 -1.02 4 0 4 C0 2.68 0 1.36 0 0 Z " fill="#648FC5" transform="translate(44,9)"/>
<path d="M0 0 C0.33 0 0.66 0 1 0 C1 1.65 1 3.3 1 5 C3.64 5 6.28 5 9 5 C9 6.65 9 8.3 9 10 C11.31 10 13.62 10 16 10 C16 8.35 16 6.7 16 5 C18.31 5 20.62 5 23 5 C23 5.33 23 5.66 23 6 C21.02 6 19.04 6 17 6 C17 7.65 17 9.3 17 11 C13.7 11 10.4 11 7 11 C7 9.35 7 7.7 7 6 C5.35 6 3.7 6 2 6 C2 8.97 2 11.94 2 15 C3.32 15 4.64 15 6 15 C6 15.99 6 16.98 6 18 C5.34 18 4.68 18 4 18 C3.67 18.99 3.34 19.98 3 21 C3 19.68 3 18.36 3 17 C2.34 17 1.68 17 1 17 C0.00749455 11.29309366 -0.10477512 5.78591511 0 0 Z " fill="#7B91A7" transform="translate(69,75)"/>
<path d="M0 0 C0.33 2.31 0.66 4.62 1 7 C0.01 6.67 -0.98 6.34 -2 6 C-2 5.01 -2 4.02 -2 3 C-2.99 3 -3.98 3 -5 3 C-5 3.99 -5 4.98 -5 6 C-6.32 6.33 -7.64 6.66 -9 7 C-9.22417836 4.2351335 -9.32233508 2.53722513 -7.875 0.125 C-5.07848948 -1.55290631 -3.06309468 -0.74875648 0 0 Z " fill="#D6E1E9" transform="translate(85,22)"/>
<path d="M0 0 C4.95 0 9.9 0 15 0 C15 0.99 15 1.98 15 3 C10.05 3 5.1 3 0 3 C0 2.01 0 1.02 0 0 Z " fill="#8AB6EF" transform="translate(44,9)"/>
<path d="M0 0 C0.33 0 0.66 0 1 0 C1.19401633 1.81181405 1.38004375 3.62448532 1.5625 5.4375 C1.66691406 6.44683594 1.77132813 7.45617187 1.87890625 8.49609375 C1.91886719 9.32238281 1.95882813 10.14867187 2 11 C1 12 1 12 -2.81640625 12.09765625 C-4.39846682 12.09098089 -5.98051159 12.07901875 -7.5625 12.0625 C-8.36880859 12.05798828 -9.17511719 12.05347656 -10.00585938 12.04882812 C-12.00393756 12.03700518 -14.00197783 12.01906914 -16 12 C-15.67 11.34 -15.34 10.68 -15 10 C-10.05 10 -5.1 10 0 10 C0 6.7 0 3.4 0 0 Z " fill="#B59559" transform="translate(26,21)"/>
<path d="M0 0 C0.33 0 0.66 0 1 0 C1 3.3 1 6.6 1 10 C4.3 10 7.6 10 11 10 C11.33 10.66 11.66 11.32 12 12 C7.38 12 2.76 12 -2 12 C-2 11.34 -2 10.68 -2 10 C-1.34 10 -0.68 10 0 10 C0 6.7 0 3.4 0 0 Z " fill="#B7975A" transform="translate(13,11)"/>
<path d="M0 0 C0.66 0 1.32 0 2 0 C2 2.97 2 5.94 2 9 C3.32 9 4.64 9 6 9 C6 9.99 6 10.98 6 12 C5.34 12 4.68 12 4 12 C3.67 12.99 3.34 13.98 3 15 C3 13.68 3 12.36 3 11 C2.34 11 1.68 11 1 11 C0.67 7.37 0.34 3.74 0 0 Z " fill="#809FC5" transform="translate(69,81)"/>
<path d="M0 0 C0.99 0 1.98 0 3 0 C3 0.99 3 1.98 3 3 C3.66 3 4.32 3 5 3 C4.67 3.66 4.34 4.32 4 5 C2.63875 4.9071875 2.63875 4.9071875 1.25 4.8125 C-2.28982642 5.01672076 -3.44931155 5.64551835 -6 8 C-6 7.01 -6 6.02 -6 5 C-3 3 -3 3 0 3 C0 2.01 0 1.02 0 0 Z " fill="#8A9CAB" transform="translate(80,25)"/>
</svg>
