<?xml version="1.0" encoding="UTF-8"?>
<svg version="1.1" xmlns="http://www.w3.org/2000/svg" width="512" height="512">
<path d="M0 0 C0.81797562 -0.0127597 1.63595123 -0.02551941 2.47871399 -0.03866577 C3.3548082 -0.04089142 4.2309024 -0.04311707 5.13354492 -0.04541016 C6.49850349 -0.05539536 6.49850349 -0.05539536 7.89103699 -0.06558228 C9.81503278 -0.07569811 11.73906358 -0.08039963 13.66308594 -0.08007812 C16.59328728 -0.08444179 19.52197027 -0.12074591 22.4519043 -0.15869141 C24.32494605 -0.16456185 26.19799492 -0.16852972 28.07104492 -0.17041016 C29.37607719 -0.19196671 29.37607719 -0.19196671 30.70747375 -0.21395874 C36.5758485 -0.17031814 39.99457238 0.8712801 44.80151367 4.29052734 C48.17630173 8.64222774 49.91326794 12.09429441 49.96264648 17.58740234 C49.97225403 18.45260498 49.98186157 19.31780762 49.99176025 20.20922852 C49.99813507 21.61072144 49.99813507 21.61072144 50.00463867 23.04052734 C50.01033875 24.00901611 50.01603882 24.97750488 50.02191162 25.9753418 C50.03136402 28.02977405 50.03789655 30.08422149 50.04174805 32.13867188 C50.05139048 35.25076671 50.08238527 38.36218305 50.11401367 41.47412109 C50.12055045 43.47541928 50.12579827 45.47672217 50.12963867 47.47802734 C50.14198547 48.39616211 50.15433228 49.31429687 50.16705322 50.26025391 C50.13268929 60.45596391 48.12065998 69.83615431 40.80151367 77.29052734 C39.53112015 78.08289958 38.26028853 78.87456988 36.98901367 79.66552734 C34.8282419 81.34083938 33.93639926 82.616426 33.39819336 85.30615234 C32.81024146 90.62634628 32.76227509 95.942869 32.80151367 101.29052734 C33.61233398 101.25572266 34.4231543 101.22091797 35.25854492 101.18505859 C47.61390925 100.88300661 57.42639128 102.78712686 66.80151367 111.29052734 C74.29362779 120.09455174 76.94798282 130.01674589 76.89916992 141.43896484 C76.8970475 142.42505234 76.8970475 142.42505234 76.8948822 143.43106079 C76.8893313 145.50926466 76.87678832 147.58735662 76.86401367 149.66552734 C76.85899231 151.08349453 76.85443052 152.50146342 76.8503418 153.91943359 C76.83937804 157.37650056 76.82214789 160.83350301 76.80151367 164.29052734 C78.78151367 164.29052734 80.76151367 164.29052734 82.80151367 164.29052734 C83.14218872 162.85713013 83.14218872 162.85713013 83.48974609 161.39477539 C85.25535613 154.08790729 87.16666418 146.85930844 89.41479492 139.68505859 C89.74602859 138.62470901 89.74602859 138.62470901 90.08395386 137.54293823 C90.98945362 134.65537133 91.90027601 131.76966253 92.82421875 128.88793945 C93.51057464 126.74007998 94.18240907 124.58810204 94.85229492 122.43505859 C95.25101807 121.18055908 95.64974121 119.92605957 96.06054688 118.63354492 C96.80329601 115.28248597 96.89825486 113.50590952 95.80151367 110.29052734 C94.091831 108.01772339 92.38939685 105.95229816 90.48901367 103.85302734 C89.39244677 102.60842308 88.29609881 101.36362588 87.19995117 100.11865234 C86.63630859 99.48507813 86.07266602 98.85150391 85.49194336 98.19873047 C81.82008715 94.05383905 78.23499243 89.8340262 74.64916992 85.61474609 C72.81606054 83.45898953 70.95088576 81.3415077 69.04760742 79.24755859 C62.25453189 71.54023502 62.25453189 71.54023502 61.92651367 66.85302734 C62.80151367 63.29052734 62.80151367 63.29052734 64.86401367 60.72802734 C68.90231921 58.75183527 70.52571071 58.84110261 74.80151367 60.29052734 C80.57455951 64.75312719 84.97687899 70.84852944 89.51635742 76.50146484 C91.70612168 79.1741002 93.97262565 81.73887612 96.30151367 84.29052734 C100.29544468 88.67547258 104.07777146 93.19770433 107.78198242 97.82958984 C109.40444787 99.8066754 111.07784685 101.59414033 112.86401367 103.41552734 C115.50601345 107.33591411 115.24745324 110.74273714 114.80151367 115.29052734 C114.01386543 119.05967444 112.91631865 122.70501378 111.77416992 126.38037109 C111.46579697 127.40610733 111.15742401 128.43184357 110.83970642 129.48866272 C109.85935246 132.73874603 108.86175913 135.98324634 107.86401367 139.22802734 C107.19690281 141.43407665 106.53087613 143.64045412 105.8659668 145.84716797 C104.65038719 149.86401509 103.43306944 153.88026928 102.20019531 157.8918457 C101.95370743 158.69520859 101.70721954 159.49857147 101.45326233 160.32627869 C100.80151367 162.29052734 100.80151367 162.29052734 99.80151367 164.29052734 C100.7425293 164.25572266 101.68354492 164.22091797 102.65307617 164.18505859 C104.52092773 164.14445312 104.52092773 164.14445312 106.42651367 164.10302734 C107.6562793 164.06822266 108.88604492 164.03341797 110.15307617 163.99755859 C114.14799373 164.31834962 116.45659515 165.10799253 119.80151367 167.29052734 C122.43795027 170.66822293 122.16844713 174.50625263 122.23901367 178.66552734 C122.27897461 179.95201172 122.31893555 181.23849609 122.36010742 182.56396484 C121.80151367 186.29052734 121.80151367 186.29052734 116.80151367 192.29052734 C108.22151367 192.29052734 99.64151367 192.29052734 90.80151367 192.29052734 C90.80151367 235.52052734 90.80151367 278.75052734 90.80151367 323.29052734 C98.39151367 323.29052734 105.98151367 323.29052734 113.80151367 323.29052734 C123.30594908 328.04274505 129.36039121 331.34236121 132.73901367 341.29052734 C133.11356509 342.61827847 133.47568781 343.94998666 133.80151367 345.29052734 C134.44217773 345.08556641 135.0828418 344.88060547 135.74291992 344.66943359 C145.30508213 341.6910552 153.79592109 341.1873769 163.80151367 341.29052734 C163.80151367 334.36052734 163.80151367 327.43052734 163.80151367 320.29052734 C162.48151367 319.63052734 161.16151367 318.97052734 159.80151367 318.29052734 C150.96723065 311.95288953 146.87358067 303.99944021 145.06680298 293.3581543 C144.23278078 286.85790443 144.40336725 280.25494886 144.46533203 273.71435547 C144.48909708 271.03111021 144.48584879 268.34885258 144.47924805 265.66552734 C144.48482171 263.93114651 144.49192963 262.19676979 144.50073242 260.46240234 C144.49982101 259.67468445 144.49890961 258.88696655 144.49797058 258.07537842 C144.61789544 248.53637874 146.2889015 241.41875957 152.80151367 234.29052734 C158.73474803 228.66156141 164.83674146 226.82349358 172.86010742 226.85693359 C173.60809097 226.85169174 174.35607452 226.84644989 175.12672424 226.84104919 C176.69905361 226.83466382 178.27143098 226.83592053 179.84375 226.84448242 C182.22963756 226.8529939 184.61312742 226.8241843 186.9987793 226.79248047 C194.7734812 226.75714253 201.15762107 226.7851905 207.80151367 231.29052734 C208.68838867 231.86802734 209.57526367 232.44552734 210.48901367 233.04052734 C215.18014213 237.60486855 218.51898404 242.93804778 218.94868469 249.55775452 C218.9585289 250.38617355 218.96837311 251.21459259 218.97851562 252.06811523 C218.99135086 253.01332535 219.0041861 253.95853546 219.01741028 254.93238831 C219.02849068 256.45738197 219.02849068 256.45738197 219.03979492 258.01318359 C219.04786667 259.0690416 219.05593842 260.1248996 219.06425476 261.2127533 C219.07808136 263.44951748 219.08880988 265.68630263 219.09667969 267.9230957 C219.10817266 270.19724767 219.12858155 272.47137324 219.15820312 274.74536133 C219.20115001 278.04315398 219.21708902 281.34014498 219.22729492 284.63818359 C219.25355705 286.14192284 219.25355705 286.14192284 219.28034973 287.67604065 C219.24899693 298.04216227 216.2058787 307.78373456 208.80151367 315.29052734 C207.43371334 316.17079 206.05299679 317.03126491 204.66088867 317.87255859 C202.17419843 319.69759733 200.99357503 320.6801189 200.06030273 323.64624023 C199.79194081 326.34783468 199.74344231 328.95165882 199.80151367 331.66552734 C199.78411133 333.05578125 199.78411133 333.05578125 199.76635742 334.47412109 C199.74290998 336.74852263 199.75558955 339.01664533 199.80151367 341.29052734 C201.01774414 341.25572266 201.01774414 341.25572266 202.25854492 341.22021484 C212.43053909 341.05443147 221.58191026 341.78316567 230.80151367 346.29052734 C230.84276367 345.32115234 230.88401367 344.35177734 230.92651367 343.35302734 C231.8416783 337.24368511 235.36493434 332.3097687 240.05932617 328.41943359 C248.11271443 322.87774563 255.14117551 323.04591398 264.70800781 322.99536133 C266.21982201 322.98387264 267.73159664 322.96347005 269.24316406 322.93383789 C279.37548668 322.73546911 286.85061617 323.50359257 295.55151367 329.04052734 C300.65967904 334.14869271 303.8858992 339.84108081 303.99438477 347.12231445 C304.01044769 348.10441391 304.02651062 349.08651337 304.0430603 350.09837341 C304.08779643 354.61464625 304.12862688 359.13077346 304.15161133 363.6472168 C304.16810153 366.01841087 304.19529851 368.38955668 304.23364258 370.76049805 C304.28888069 374.1965489 304.31036346 377.63143379 304.32495117 381.06787109 C304.34762054 382.11208725 304.37028992 383.15630341 304.39364624 384.23216248 C304.36377463 394.82301913 300.88168249 403.72773944 293.74291992 411.57177734 C291.80151367 413.29052734 291.80151367 413.29052734 288.63354492 414.86865234 C285.43580943 417.60326752 285.35166233 418.08017733 284.99682617 422.05615234 C284.94385493 423.88366004 284.92139247 425.71225928 284.92651367 427.54052734 C284.90588867 428.47638672 284.88526367 429.41224609 284.86401367 430.37646484 C284.81696108 432.68204174 284.79706692 434.98456896 284.80151367 437.29052734 C285.52854492 437.26732422 286.25557617 437.24412109 287.00463867 437.22021484 C301.54034898 436.95931748 314.0403096 439.08577466 324.98510742 449.27880859 C328.25600567 452.90141634 330.73088751 456.88052118 332.80151367 461.29052734 C333.0714917 461.84611328 333.34146973 462.40169922 333.61962891 462.97412109 C336.66834615 470.37284836 336.28925182 478.20903774 336.24755859 486.07568359 C336.23898371 488.54916943 336.26798386 491.02038994 336.29956055 493.49365234 C336.30117137 495.07698499 336.3005973 496.6603217 336.29760742 498.24365234 C336.3088414 498.97706848 336.32007538 499.71048462 336.33164978 500.46612549 C336.2653211 505.35415433 335.28522883 507.86408207 331.80151367 511.29052734 C328.76808322 512.80724257 325.62222032 512.43292329 322.29448318 512.42754173 C321.50719094 512.43019356 320.71989869 512.43284539 319.9087491 512.43557757 C317.24256005 512.44330182 314.57641681 512.44383093 311.91021729 512.44442749 C309.99060945 512.44844005 308.07100247 512.45287793 306.15139651 512.45770705 C300.85436611 512.46970132 295.55734483 512.47532759 290.2603035 512.4798882 C284.55600635 512.48583345 278.85172018 512.49744592 273.14743042 512.50817871 C259.3609485 512.53272664 245.57446295 512.54733294 231.78796589 512.56023878 C227.8964343 512.56394883 224.00490308 512.56792221 220.11337185 512.57199144 C195.96610389 512.59722498 171.81883637 512.61930211 147.67155838 512.63171959 C142.07555387 512.63464101 136.47954938 512.63760851 130.88354492 512.640625 C129.84067537 512.64118136 129.84067537 512.64118136 128.77673775 512.64174897 C106.2301611 512.65390717 83.68366248 512.68485512 61.13712249 512.72654652 C37.30943199 512.77052671 13.48179323 512.79625117 -10.34593892 512.80164015 C-23.3386585 512.805059 -36.33125501 512.81687002 -49.32393646 512.84974289 C-60.38653861 512.877686 -71.44899246 512.88876797 -82.51162717 512.87754743 C-88.15894598 512.87234617 -93.80595395 512.87534273 -99.453228 512.90001297 C-104.62001869 512.92239645 -109.7862733 512.92185071 -114.9530727 512.9028091 C-116.82525456 512.89999374 -118.69747193 512.90569217 -120.56959638 512.92062204 C-123.1097525 512.93964562 -125.64798073 512.92799663 -128.18809128 512.9085598 C-129.28502808 512.92783363 -129.28502808 512.92783363 -130.40412521 512.94749683 C-136.05519453 512.85212038 -138.38126552 511.16754836 -142.19848633 507.29052734 C-142.95365906 505.28941345 -142.95365906 505.28941345 -142.95898438 503.33325195 C-142.97466965 502.59155258 -142.99035492 501.84985321 -143.0065155 501.0856781 C-142.98359184 499.90123863 -142.98359184 499.90123863 -142.96020508 498.69287109 C-142.96357376 497.86276016 -142.96694244 497.03264923 -142.97041321 496.17738342 C-142.97011479 494.42149665 -142.95490523 492.66555736 -142.92578125 490.90991211 C-142.88645654 488.25971643 -142.90497121 485.61462242 -142.9309082 482.96435547 C-142.92610938 469.15416006 -140.54744452 458.72832234 -130.66723633 448.48583984 C-119.10559822 438.20476292 -107.02232353 437.10288383 -92.19848633 437.29052734 C-92.19848633 430.36052734 -92.19848633 423.43052734 -92.19848633 416.29052734 C-93.84848633 415.63052734 -95.49848633 414.97052734 -97.19848633 414.29052734 C-105.75591829 407.90871367 -109.45488165 398.49514953 -111.19848633 388.29052734 C-111.46748035 385.03716872 -111.50279153 381.8039023 -111.49926758 378.54052734 C-111.5035527 377.64237305 -111.50783783 376.74421875 -111.51225281 375.81884766 C-111.51795728 373.93311399 -111.51852529 372.04735834 -111.51416016 370.16162109 C-111.51099454 367.29795445 -111.53452771 364.43531718 -111.55981445 361.57177734 C-111.5620875 359.72802863 -111.56279092 357.88427717 -111.56176758 356.04052734 C-111.57097733 355.19651367 -111.58018707 354.3525 -111.5896759 353.48291016 C-111.52637886 345.24006972 -109.50615183 337.7457962 -104.19848633 331.29052734 C-90.48993784 319.28114768 -81.93387101 323.29052734 -60.19848633 323.29052734 C-60.19848633 280.06052734 -60.19848633 236.83052734 -60.19848633 192.29052734 C-68.44848633 192.29052734 -76.69848633 192.29052734 -85.19848633 192.29052734 C-90.42583582 187.06317785 -91.33924114 185.74032415 -91.38598633 178.91552734 C-91.40016602 177.97966797 -91.4143457 177.04380859 -91.42895508 176.07958984 C-91.11937355 172.33312862 -90.15458026 169.45446778 -87.76098633 166.54052734 C-83.91681953 163.4651939 -79.24293992 164.16344974 -74.59301758 164.19287109 C-73.75381271 164.19428604 -72.91460785 164.19570099 -72.04997253 164.19715881 C-69.37027417 164.20275519 -66.69065943 164.215307 -64.01098633 164.22802734 C-62.19393024 164.23304281 -60.37687285 164.23760564 -58.55981445 164.24169922 C-54.1060062 164.25272343 -49.65226044 164.26998556 -45.19848633 164.29052734 C-45.21419678 163.37875732 -45.22990723 162.4669873 -45.24609375 161.52758789 C-45.29771283 158.09263234 -45.33507148 154.65809847 -45.36328125 151.22290039 C-45.37821946 149.74594553 -45.39857763 148.26903386 -45.42480469 146.79223633 C-45.67335354 132.42026437 -44.23064988 121.30658084 -34.19848633 110.29052734 C-23.78143344 100.93993691 -11.41375963 100.84283302 1.80151367 101.29052734 C1.79550397 98.36981149 1.74815105 95.4597507 1.67651367 92.54052734 C1.6790918 91.71552734 1.68166992 90.89052734 1.68432617 90.04052734 C1.60729416 87.65253485 1.46239525 85.5885038 0.80151367 83.29052734 C-1.95981718 80.81922615 -1.95981718 80.81922615 -5.19848633 79.29052734 C-12.1725961 72.92084042 -15.8378531 64.53090916 -16.30549622 55.1421051 C-16.36336689 52.60915786 -16.38948101 50.07801664 -16.40161133 47.54443359 C-16.4073114 46.61509506 -16.41301147 45.68575653 -16.41888428 44.72825623 C-16.42829927 42.76912564 -16.43485428 40.80997947 -16.4387207 38.85083008 C-16.44844324 35.86625477 -16.47950672 32.88236373 -16.51098633 29.89794922 C-16.5175158 27.98844807 -16.52276649 26.07894203 -16.52661133 24.16943359 C-16.54513153 22.84100182 -16.54513153 22.84100182 -16.56402588 21.48573303 C-16.53938984 14.5819784 -15.4034241 9.83468631 -10.76098633 4.47802734 C-7.24234733 1.47431113 -4.64577464 0.04945684 0 0 Z M-56.19848633 420.29052734 C-56.19848633 425.90052734 -56.19848633 431.51052734 -56.19848633 437.29052734 C-55.86848633 437.29052734 -55.53848633 437.29052734 -55.19848633 437.29052734 C-55.19848633 431.68052734 -55.19848633 426.07052734 -55.19848633 420.29052734 C-55.52848633 420.29052734 -55.85848633 420.29052734 -56.19848633 420.29052734 Z " fill="#37CC90" transform="translate(159.198486328125,-0.29052734375)"/>
<path d="M0 0 C0.81797562 -0.0127597 1.63595123 -0.02551941 2.47871399 -0.03866577 C3.7928553 -0.04200424 3.7928553 -0.04200424 5.13354492 -0.04541016 C6.49850349 -0.05539536 6.49850349 -0.05539536 7.89103699 -0.06558228 C9.81503278 -0.07569811 11.73906358 -0.08039963 13.66308594 -0.08007812 C16.59328728 -0.08444179 19.52197027 -0.12074591 22.4519043 -0.15869141 C24.32494605 -0.16456185 26.19799492 -0.16852972 28.07104492 -0.17041016 C29.37607719 -0.19196671 29.37607719 -0.19196671 30.70747375 -0.21395874 C36.5758485 -0.17031814 39.99457238 0.8712801 44.80151367 4.29052734 C48.17630173 8.64222774 49.91326794 12.09429441 49.96264648 17.58740234 C49.97225403 18.45260498 49.98186157 19.31780762 49.99176025 20.20922852 C49.99813507 21.61072144 49.99813507 21.61072144 50.00463867 23.04052734 C50.01033875 24.00901611 50.01603882 24.97750488 50.02191162 25.9753418 C50.03136402 28.02977405 50.03789655 30.08422149 50.04174805 32.13867188 C50.05139048 35.25076671 50.08238527 38.36218305 50.11401367 41.47412109 C50.12055045 43.47541928 50.12579827 45.47672217 50.12963867 47.47802734 C50.14198547 48.39616211 50.15433228 49.31429687 50.16705322 50.26025391 C50.13268929 60.45596391 48.12065998 69.83615431 40.80151367 77.29052734 C39.53112015 78.08289958 38.26028853 78.87456988 36.98901367 79.66552734 C34.8282419 81.34083938 33.93639926 82.616426 33.39819336 85.30615234 C32.81024146 90.62634628 32.76227509 95.942869 32.80151367 101.29052734 C33.61233398 101.25572266 34.4231543 101.22091797 35.25854492 101.18505859 C47.61390925 100.88300661 57.42639128 102.78712686 66.80151367 111.29052734 C74.29362779 120.09455174 76.94798282 130.01674589 76.89916992 141.43896484 C76.8970475 142.42505234 76.8970475 142.42505234 76.8948822 143.43106079 C76.8893313 145.50926466 76.87678832 147.58735662 76.86401367 149.66552734 C76.85899231 151.08349453 76.85443052 152.50146342 76.8503418 153.91943359 C76.83937804 157.37650056 76.82214789 160.83350301 76.80151367 164.29052734 C78.78151367 164.29052734 80.76151367 164.29052734 82.80151367 164.29052734 C83.14218872 162.85713013 83.14218872 162.85713013 83.48974609 161.39477539 C85.25535613 154.08790729 87.16666418 146.85930844 89.41479492 139.68505859 C89.74602859 138.62470901 89.74602859 138.62470901 90.08395386 137.54293823 C90.98945362 134.65537133 91.90027601 131.76966253 92.82421875 128.88793945 C93.51057464 126.74007998 94.18240907 124.58810204 94.85229492 122.43505859 C95.25101807 121.18055908 95.64974121 119.92605957 96.06054688 118.63354492 C96.80329601 115.28248597 96.89825486 113.50590952 95.80151367 110.29052734 C94.091831 108.01772339 92.38939685 105.95229816 90.48901367 103.85302734 C89.39244677 102.60842308 88.29609881 101.36362588 87.19995117 100.11865234 C86.63630859 99.48507813 86.07266602 98.85150391 85.49194336 98.19873047 C81.82008715 94.05383905 78.23499243 89.8340262 74.64916992 85.61474609 C72.81606054 83.45898953 70.95088576 81.3415077 69.04760742 79.24755859 C62.25453189 71.54023502 62.25453189 71.54023502 61.92651367 66.85302734 C62.80151367 63.29052734 62.80151367 63.29052734 64.86401367 60.72802734 C68.90231921 58.75183527 70.52571071 58.84110261 74.80151367 60.29052734 C80.57455951 64.75312719 84.97687899 70.84852944 89.51635742 76.50146484 C91.70612168 79.1741002 93.97262565 81.73887612 96.30151367 84.29052734 C100.29544468 88.67547258 104.07777146 93.19770433 107.78198242 97.82958984 C109.40444787 99.8066754 111.07784685 101.59414033 112.86401367 103.41552734 C115.50601345 107.33591411 115.24745324 110.74273714 114.80151367 115.29052734 C114.01386543 119.05967444 112.91631865 122.70501378 111.77416992 126.38037109 C111.46579697 127.40610733 111.15742401 128.43184357 110.83970642 129.48866272 C109.85935246 132.73874603 108.86175913 135.98324634 107.86401367 139.22802734 C107.19690281 141.43407665 106.53087613 143.64045412 105.8659668 145.84716797 C104.65038719 149.86401509 103.43306944 153.88026928 102.20019531 157.8918457 C101.95370743 158.69520859 101.70721954 159.49857147 101.45326233 160.32627869 C100.80151367 162.29052734 100.80151367 162.29052734 99.80151367 164.29052734 C100.7425293 164.25572266 101.68354492 164.22091797 102.65307617 164.18505859 C104.52092773 164.14445312 104.52092773 164.14445312 106.42651367 164.10302734 C107.6562793 164.06822266 108.88604492 164.03341797 110.15307617 163.99755859 C114.14799373 164.31834962 116.45659515 165.10799253 119.80151367 167.29052734 C122.43795027 170.66822293 122.16844713 174.50625263 122.23901367 178.66552734 C122.27897461 179.95201172 122.31893555 181.23849609 122.36010742 182.56396484 C121.80151367 186.29052734 121.80151367 186.29052734 116.80151367 192.29052734 C108.22151367 192.29052734 99.64151367 192.29052734 90.80151367 192.29052734 C90.80151367 235.52052734 90.80151367 278.75052734 90.80151367 323.29052734 C85.85151367 324.28052734 80.90151367 325.27052734 75.80151367 326.29052734 C68.92748438 330.377788 63.77585299 335.40545973 61.48901367 343.22802734 C61.14870117 344.74396484 61.14870117 344.74396484 60.80151367 346.29052734 C60.06674805 345.98308594 60.06674805 345.98308594 59.31713867 345.66943359 C50.13003049 342.35890668 40.45751993 342.54492867 30.80151367 342.29052734 C30.76026367 343.01240234 30.71901367 343.73427734 30.67651367 344.47802734 C29.69645598 347.62821277 28.38624666 349.31008459 25.75854492 351.30908203 C21.80683454 353.29085296 17.63144225 353.00611162 13.30151367 352.91552734 C11.91512695 352.94453125 11.91512695 352.94453125 10.50073242 352.97412109 C6.11727962 352.94276592 2.7732098 352.77634182 -0.79223633 350.06396484 C-3.2938982 347.18055587 -3.65164776 345.92975328 -4.19848633 342.29052734 C-7.86739407 342.51261182 -11.53261429 342.77327057 -15.19848633 343.04052734 C-16.74342773 343.13333984 -16.74342773 343.13333984 -18.31958008 343.22802734 C-24.9571185 343.73535512 -29.40172564 345.04961114 -35.19848633 348.29052734 C-36.18848633 348.29052734 -37.17848633 348.29052734 -38.19848633 348.29052734 C-38.34543945 347.42041016 -38.34543945 347.42041016 -38.49536133 346.53271484 C-40.18358657 337.71319333 -44.03068007 332.57825327 -51.19848633 327.29052734 C-55.65348633 325.80552734 -55.65348633 325.80552734 -60.19848633 324.29052734 C-60.19848633 280.73052734 -60.19848633 237.17052734 -60.19848633 192.29052734 C-68.44848633 192.29052734 -76.69848633 192.29052734 -85.19848633 192.29052734 C-90.42583582 187.06317785 -91.33924114 185.74032415 -91.38598633 178.91552734 C-91.40016602 177.97966797 -91.4143457 177.04380859 -91.42895508 176.07958984 C-91.11937355 172.33312862 -90.15458026 169.45446778 -87.76098633 166.54052734 C-83.91681953 163.4651939 -79.24293992 164.16344974 -74.59301758 164.19287109 C-73.75381271 164.19428604 -72.91460785 164.19570099 -72.04997253 164.19715881 C-69.37027417 164.20275519 -66.69065943 164.215307 -64.01098633 164.22802734 C-62.19393024 164.23304281 -60.37687285 164.23760564 -58.55981445 164.24169922 C-54.1060062 164.25272343 -49.65226044 164.26998556 -45.19848633 164.29052734 C-45.21419678 163.37875732 -45.22990723 162.4669873 -45.24609375 161.52758789 C-45.29771283 158.09263234 -45.33507148 154.65809847 -45.36328125 151.22290039 C-45.37821946 149.74594553 -45.39857763 148.26903386 -45.42480469 146.79223633 C-45.67335354 132.42026437 -44.23064988 121.30658084 -34.19848633 110.29052734 C-23.78143344 100.93993691 -11.41375963 100.84283302 1.80151367 101.29052734 C1.79550397 98.36981149 1.74815105 95.4597507 1.67651367 92.54052734 C1.6790918 91.71552734 1.68166992 90.89052734 1.68432617 90.04052734 C1.60729416 87.65253485 1.46239525 85.5885038 0.80151367 83.29052734 C-1.95981718 80.81922615 -1.95981718 80.81922615 -5.19848633 79.29052734 C-12.1725961 72.92084042 -15.8378531 64.53090916 -16.30549622 55.1421051 C-16.36336689 52.60915786 -16.38948101 50.07801664 -16.40161133 47.54443359 C-16.4073114 46.61509506 -16.41301147 45.68575653 -16.41888428 44.72825623 C-16.42829927 42.76912564 -16.43485428 40.80997947 -16.4387207 38.85083008 C-16.44844324 35.86625477 -16.47950672 32.88236373 -16.51098633 29.89794922 C-16.5175158 27.98844807 -16.52276649 26.07894203 -16.52661133 24.16943359 C-16.54513153 22.84100182 -16.54513153 22.84100182 -16.56402588 21.48573303 C-16.53938984 14.5819784 -15.4034241 9.83468631 -10.76098633 4.47802734 C-7.24234733 1.47431113 -4.64577464 0.04945684 0 0 Z " fill="#BC9A7B" transform="translate(159.198486328125,-0.29052734375)"/>
<path d="M0 0 C2.10258631 0.00314396 4.20374127 -0.02026762 6.30615234 -0.0456543 C18.48455765 -0.10655988 25.86629772 1.45195029 34.76318359 9.97583008 C39.12790753 14.81744051 39.99978902 18.81783424 39.87255859 25.31567383 C40.58541016 24.96633789 41.29826172 24.61700195 42.03271484 24.25708008 C42.99048828 23.80204102 43.94826172 23.34700195 44.93505859 22.87817383 C45.87478516 22.42571289 46.81451172 21.97325195 47.78271484 21.50708008 C53.83410083 19.17373908 59.9222116 19.17719761 66.31005859 19.25317383 C67.04160156 19.25768555 67.77314453 19.26219727 68.52685547 19.2668457 C70.30879278 19.27849235 72.09068722 19.29642192 73.87255859 19.31567383 C74.28505859 20.24379883 74.69755859 21.17192383 75.12255859 22.12817383 C76.87827843 25.32609209 77.82649114 26.46970604 80.87255859 28.31567383 C84.33042386 28.92247767 87.8045134 28.77945944 91.31005859 28.75317383 C92.25171875 28.7731543 93.19337891 28.79313477 94.16357422 28.8137207 C98.42523806 28.81071318 101.14813189 28.72497025 104.90771484 26.60083008 C106.9393526 24.23799094 107.96577832 22.28331835 108.87255859 19.31567383 C130.68634395 18.49011572 130.68634395 18.49011572 138.87255859 23.31567383 C138.91380859 22.32567383 138.95505859 21.33567383 138.99755859 20.31567383 C140.08421581 12.94724479 145.87724302 7.94994088 151.45458984 3.54223633 C159.43966355 -0.50835033 168.57059498 -0.0816755 177.31005859 -0.12182617 C178.56882812 -0.15469727 179.82759766 -0.18756836 181.12451172 -0.22143555 C190.44664285 -0.27492717 197.12313567 1.29693135 204.31005859 7.37817383 C205.08349609 8.33723633 205.08349609 8.33723633 205.87255859 9.31567383 C206.67693359 10.27473633 206.67693359 10.27473633 207.49755859 11.25317383 C213.39746201 20.10302895 212.24644888 34.3547127 210.50195312 44.46313477 C207.9170363 54.28097703 200.51367701 62.16059278 192.02490234 67.34301758 C182.73741299 71.54008627 170.14513723 72.25358211 160.43505859 68.87817383 C152.18885939 64.89579435 144.60758855 57.75061648 140.87255859 49.31567383 C140.17391532 46.99171461 139.50202609 44.6593162 138.87255859 42.31567383 C138.0134861 66.49104918 138.0134861 66.49104918 149.37255859 87.06567383 C151.75241581 89.38217651 151.75241581 89.38217651 154.50927734 90.75317383 C157.76211893 94.2802219 157.38870776 96.82442966 157.31201172 101.48754883 C157.27011719 102.50333008 157.22822266 103.51911133 157.18505859 104.56567383 C157.1512207 106.11254883 157.1512207 106.11254883 157.11669922 107.69067383 C157.05783022 110.23381448 156.97565924 112.77400495 156.87255859 115.31567383 C156.26895508 115.34483887 155.66535156 115.37400391 155.04345703 115.40405273 C138.05334913 116.24403053 138.05334913 116.24403053 122.87255859 123.31567383 C121.77943359 124.03754883 120.68630859 124.75942383 119.56005859 125.50317383 C111.57143148 133.863365 107.56900174 142.61352029 107.53662109 154.07348633 C107.52996429 154.89895966 107.5233075 155.72443298 107.51644897 156.57492065 C107.50636713 158.31123641 107.50163056 160.04759056 107.50195312 161.78393555 C107.49756022 164.43968916 107.46114177 167.09380533 107.42333984 169.74926758 C107.41747464 171.44066817 107.41350326 173.13207661 107.41162109 174.82348633 C107.39006454 176.01109055 107.39006454 176.01109055 107.36807251 177.22268677 C107.39790468 180.81577894 107.51022521 182.85780858 109.77636719 185.72143555 C110.81398193 186.5105835 110.81398193 186.5105835 111.87255859 187.31567383 C112.53255859 187.97567383 113.19255859 188.63567383 113.87255859 189.31567383 C91.55023211 189.43246519 69.22795598 189.52064151 46.90538597 189.57473469 C36.54066124 189.60051848 26.17612633 189.63567244 15.81152344 189.69287109 C6.77793362 189.74270059 -2.25551872 189.77496357 -11.28924215 189.7861163 C-16.07278864 189.79263582 -20.85594186 189.8079622 -25.63936234 189.84432411 C-30.14230364 189.87827641 -34.64468989 189.88872836 -39.14774704 189.88121223 C-40.79974128 189.88258713 -42.45175419 189.89252446 -44.1036377 189.9117012 C-46.36181417 189.93662923 -48.61790305 189.93058239 -50.87612915 189.91694641 C-52.13898554 189.92155538 -53.40184193 189.92616434 -54.70296669 189.93091297 C-59.245966 189.11472035 -60.88518331 187.549806 -64.12744141 184.31567383 C-64.88261414 182.31455994 -64.88261414 182.31455994 -64.88793945 180.35839844 C-64.90362473 179.61669907 -64.91931 178.87499969 -64.93547058 178.11082458 C-64.92018814 177.32119827 -64.9049057 176.53157196 -64.88916016 175.71801758 C-64.89252884 174.88790665 -64.89589752 174.05779572 -64.89936829 173.20252991 C-64.89906986 171.44664313 -64.88386031 169.69070384 -64.85473633 167.93505859 C-64.81541162 165.28486292 -64.83392629 162.6397689 -64.85986328 159.98950195 C-64.85506446 146.17930654 -62.4763996 135.75346882 -52.59619141 125.51098633 C-41.0345533 115.22990941 -28.95127861 114.12803032 -14.12744141 114.31567383 C-14.12744141 107.38567383 -14.12744141 100.45567383 -14.12744141 93.31567383 C-15.77744141 92.65567383 -17.42744141 91.99567383 -19.12744141 91.31567383 C-27.68487337 84.93386016 -31.38383673 75.52029602 -33.12744141 65.31567383 C-33.39643543 62.0623152 -33.43174661 58.82904879 -33.42822266 55.56567383 C-33.43250778 54.66751953 -33.43679291 53.76936523 -33.44120789 52.84399414 C-33.44691236 50.95826047 -33.44748037 49.07250482 -33.44311523 47.18676758 C-33.43994962 44.32310093 -33.46348279 41.46046366 -33.48876953 38.59692383 C-33.49104257 36.75317511 -33.491746 34.90942366 -33.49072266 33.06567383 C-33.4999324 32.22166016 -33.50914215 31.37764648 -33.51863098 30.50805664 C-33.45533394 22.26521621 -31.43510691 14.77094269 -26.12744141 8.31567383 C-17.76367153 0.98858971 -10.88100479 -0.03402677 0 0 Z M21.87255859 97.31567383 C21.87255859 102.92567383 21.87255859 108.53567383 21.87255859 114.31567383 C22.20255859 114.31567383 22.53255859 114.31567383 22.87255859 114.31567383 C22.87255859 108.70567383 22.87255859 103.09567383 22.87255859 97.31567383 C22.54255859 97.31567383 22.21255859 97.31567383 21.87255859 97.31567383 Z " fill="#37CC90" transform="translate(81.12744140625,322.684326171875)"/>
<path d="M0 0 C0.69424263 -0.00779995 1.38848526 -0.01559991 2.10376555 -0.02363622 C4.42409622 -0.04353931 6.74278354 -0.02780026 9.06312561 -0.01205444 C10.72899328 -0.01883145 12.39485347 -0.02773506 14.06069946 -0.03860474 C18.58151011 -0.06139674 23.10175015 -0.05256181 27.62257075 -0.03670931 C32.35501436 -0.02404766 37.08740921 -0.03579135 41.81985474 -0.04364014 C49.76822171 -0.05273682 57.7163564 -0.04074924 65.66468811 -0.01693726 C74.85059264 0.01026474 84.03594213 0.00146674 93.22183317 -0.02606928 C101.11075809 -0.04876999 108.99951605 -0.05195545 116.88846308 -0.03887594 C121.59919585 -0.0310855 126.30966788 -0.03002841 131.02038383 -0.04655838 C135.45045974 -0.06101758 139.87982133 -0.05095526 144.30982018 -0.0220871 C145.93436243 -0.01548358 147.55896495 -0.01736147 149.18348312 -0.02840042 C151.40429818 -0.04209828 153.62283538 -0.02489373 155.84350586 0 C157.08511947 0.00188513 158.32673307 0.00377026 159.60597134 0.00571251 C164.13060739 0.84817965 165.76786655 2.37858393 168.98524475 5.63491821 C170.16624492 9.17791871 170.13408537 12.02436971 170.1622467 15.76504517 C170.1688179 16.48736328 170.1753891 17.2096814 170.18215942 17.95388794 C170.20186548 20.34365954 170.21354879 22.73336838 170.223526 25.12319946 C170.22760153 25.94040152 170.23167706 26.75760357 170.23587608 27.59956932 C170.25672506 31.92474489 170.271032 36.24988883 170.28041077 40.57510376 C170.29147456 45.03736395 170.32587712 49.49912538 170.36558247 53.9612093 C170.39175315 57.39708877 170.40010297 60.83284944 170.40369225 64.26881981 C170.40855683 65.9134273 170.42016725 67.55802953 170.43873024 69.20253944 C170.46313307 71.50762881 170.46215531 73.81142811 170.45521545 76.11660767 C170.4610817 77.42660233 170.46694794 78.73659698 170.47299194 80.08628845 C169.89605506 84.28382243 168.68920158 86.40191625 165.98524475 89.63491821 C162.91336591 91.57163945 160.54415474 91.88653415 156.94424438 91.89320374 C155.92785889 91.90003174 154.91147339 91.90685974 153.86428833 91.91389465 C152.7550853 91.91134171 151.64588226 91.90878876 150.50306702 91.90615845 C148.743965 91.91399857 148.743965 91.91399857 146.94932556 91.92199707 C143.73648901 91.93491752 140.52376422 91.93929161 137.31090665 91.94084048 C133.94595819 91.94531447 130.58108924 91.96331123 127.21618652 91.9806366 C117.20631109 92.02979453 107.19638917 92.06070674 97.18641663 92.0819397 C89.40619366 92.09846775 81.62611786 92.12129367 73.84599346 92.16496044 C70.49739306 92.18315743 67.14899475 92.19535547 63.80034065 92.19366264 C60.06564555 92.19385429 56.33143676 92.2120915 52.59681702 92.23428345 C50.93604881 92.22741768 50.93604881 92.22741768 49.24172974 92.22041321 C42.43981623 92.28480032 38.80228941 93.00294381 33.73695374 97.73550415 C32.99260071 98.52215454 32.24824768 99.30880493 31.4813385 100.11929321 C30.65827209 100.97136353 29.83520569 101.82343384 28.98719788 102.70132446 C27.2678847 104.50051434 25.55439041 106.30528164 23.84657288 108.11538696 C23.02479553 108.96230103 22.20301819 109.80921509 21.3563385 110.68179321 C20.6131134 111.46393188 19.86988831 112.24607056 19.10414124 113.0519104 C16.98524475 114.63491821 16.98524475 114.63491821 14.77455139 114.44448853 C12.98524475 113.63491821 12.98524475 113.63491821 11.98524475 112.63491821 C11.81558411 109.05319347 11.68782151 105.47812039 11.64344788 101.89273071 C11.53849491 97.39266593 11.53849491 97.39266593 9.33680725 93.61538696 C6.33962466 92.3657311 3.91525478 92.33384892 0.67274475 92.32241821 C-4.84428247 92.0183301 -7.82887087 91.17609659 -11.84288025 87.40054321 C-14.50578815 83.38842864 -14.14518505 78.48508414 -14.16001892 73.82852173 C-14.16337753 73.16443298 -14.16673615 72.50034424 -14.17019653 71.81613159 C-14.17965577 69.63200993 -14.18164698 67.44796531 -14.182724 65.26382446 C-14.18593965 63.73834706 -14.18930395 62.21286996 -14.19281006 60.68739319 C-14.19878844 57.49403163 -14.20065124 54.30069708 -14.20005798 51.10733032 C-14.19995634 47.02417996 -14.21361689 42.94120339 -14.23083019 38.85809422 C-14.24197072 35.70873729 -14.24397657 32.55942214 -14.24344826 29.41004753 C-14.24462495 27.90502256 -14.24902925 26.39999639 -14.25678062 24.89499092 C-14.2666239 22.78677443 -14.26368582 20.67893228 -14.25767517 18.57070923 C-14.25910019 17.37333633 -14.26052521 16.17596344 -14.26199341 14.94230652 C-13.89514614 10.03486674 -12.99615448 6.84423046 -9.87209511 2.99466228 C-6.31339484 0.05569728 -4.57021429 0.00694101 0 0 Z " fill="#D8DFEC" transform="translate(324.01475524902344,12.365081787109375)"/>
<path d="M0 0 C0.81797562 -0.0127597 1.63595123 -0.02551941 2.47871399 -0.03866577 C3.7928553 -0.04200424 3.7928553 -0.04200424 5.13354492 -0.04541016 C6.49850349 -0.05539536 6.49850349 -0.05539536 7.89103699 -0.06558228 C9.81503278 -0.07569811 11.73906358 -0.08039963 13.66308594 -0.08007812 C16.59328728 -0.08444179 19.52197027 -0.12074591 22.4519043 -0.15869141 C24.32494605 -0.16456185 26.19799492 -0.16852972 28.07104492 -0.17041016 C29.37607719 -0.19196671 29.37607719 -0.19196671 30.70747375 -0.21395874 C36.5758485 -0.17031814 39.99457238 0.8712801 44.80151367 4.29052734 C48.17630173 8.64222774 49.91326794 12.09429441 49.96264648 17.58740234 C49.97225403 18.45260498 49.98186157 19.31780762 49.99176025 20.20922852 C49.99601013 21.14355713 50.00026001 22.07788574 50.00463867 23.04052734 C50.01033875 24.00901611 50.01603882 24.97750488 50.02191162 25.9753418 C50.03136402 28.02977405 50.03789655 30.08422149 50.04174805 32.13867188 C50.05139048 35.25076671 50.08238527 38.36218305 50.11401367 41.47412109 C50.12055045 43.47541928 50.12579827 45.47672217 50.12963867 47.47802734 C50.14198547 48.39616211 50.15433228 49.31429687 50.16705322 50.26025391 C50.13268929 60.45596391 48.12065998 69.83615431 40.80151367 77.29052734 C39.53112015 78.08289958 38.26028853 78.87456988 36.98901367 79.66552734 C34.8282419 81.34083938 33.93639926 82.616426 33.39819336 85.30615234 C32.81024146 90.62634628 32.76227509 95.942869 32.80151367 101.29052734 C33.61233398 101.25572266 34.4231543 101.22091797 35.25854492 101.18505859 C47.61390925 100.88300661 57.42639128 102.78712686 66.80151367 111.29052734 C80.10809502 126.92716407 76.80151367 145.09777779 76.80151367 165.29052734 C36.54151367 165.29052734 -3.71848633 165.29052734 -45.19848633 165.29052734 C-45.19848633 122.36933645 -45.19848633 122.36933645 -34.19848633 110.29052734 C-23.78143344 100.93993691 -11.41375963 100.84283302 1.80151367 101.29052734 C1.79550397 98.36981149 1.74815105 95.4597507 1.67651367 92.54052734 C1.6790918 91.71552734 1.68166992 90.89052734 1.68432617 90.04052734 C1.60729416 87.65253485 1.46239525 85.5885038 0.80151367 83.29052734 C-1.95981718 80.81922615 -1.95981718 80.81922615 -5.19848633 79.29052734 C-12.1725961 72.92084042 -15.8378531 64.53090916 -16.30549622 55.1421051 C-16.36336689 52.60915786 -16.38948101 50.07801664 -16.40161133 47.54443359 C-16.4073114 46.61509506 -16.41301147 45.68575653 -16.41888428 44.72825623 C-16.42829927 42.76912564 -16.43485428 40.80997947 -16.4387207 38.85083008 C-16.44844324 35.86625477 -16.47950672 32.88236373 -16.51098633 29.89794922 C-16.5175158 27.98844807 -16.52276649 26.07894203 -16.52661133 24.16943359 C-16.53895813 23.28381241 -16.55130493 22.39819122 -16.56402588 21.48573303 C-16.53938984 14.5819784 -15.4034241 9.83468631 -10.76098633 4.47802734 C-7.24234733 1.47431113 -4.64577464 0.04945684 0 0 Z " fill="#48BAEC" transform="translate(159.198486328125,-0.29052734375)"/>
<path d="M0 0 C0.33 0 0.66 0 1 0 C1.21914063 0.83402344 1.43828125 1.66804688 1.6640625 2.52734375 C4.83359892 13.77533277 8.86066718 21.79955298 19 28 C19.63164063 28.41378906 20.26328125 28.82757813 20.9140625 29.25390625 C28.99769247 33.7326742 39.33692474 33.04666385 48.19140625 31.41015625 C57.25112549 28.61362841 64.552666 22.34850417 69 14 C71.02683796 9.43066213 72.12844441 4.91240425 73 0 C73.33 0 73.66 0 74 0 C74.08842548 4.24986479 74.14086428 8.49948746 74.1875 12.75 C74.21263672 13.93722656 74.23777344 15.12445313 74.26367188 16.34765625 C74.35990741 28.08839109 72.77196573 39.70021195 65 49 C63.39223573 49.96676021 61.76641396 50.90404447 60.125 51.8125 C57.6242592 53.30754415 57.6242592 53.30754415 56 56 C54.82543129 62.89826069 55.45429583 70.05882947 56 77 C57.13695313 77.00257813 58.27390625 77.00515625 59.4453125 77.0078125 C72.54592309 77.25004698 84.41369429 79.42252673 94.25390625 88.9453125 C101.50607668 97.47918643 105.29489331 105.57471104 105.37109375 116.72265625 C105.38012222 117.5457579 105.3891507 118.36885956 105.39845276 119.21690369 C105.41289921 120.9490091 105.42182798 122.68116839 105.42553711 124.41333008 C105.43748141 127.05838365 105.48675775 129.70113769 105.53710938 132.34570312 C105.54656963 134.03384285 105.55380657 135.72199681 105.55859375 137.41015625 C105.57812607 138.19673111 105.59765839 138.98330597 105.61778259 139.79371643 C105.58327257 144.00145217 105.35437225 145.55098106 102.65258789 148.97436523 C99.03455133 151.73725979 96.46926074 152.12619105 92.04801941 152.15390015 C91.02603958 152.16250061 90.00405975 152.17110107 88.95111084 152.17996216 C87.27024384 152.18635208 87.27024384 152.18635208 85.55541992 152.19287109 C84.37468399 152.20104858 83.19394806 152.20922607 81.97743225 152.21765137 C78.06179148 152.24250764 74.14615828 152.25917415 70.23046875 152.2734375 C68.88124396 152.27879855 67.53201923 152.28417607 66.18279457 152.28956985 C60.56987401 152.31119207 54.95695628 152.32992836 49.34400463 152.34119225 C41.3059372 152.35743039 33.26835318 152.39061156 25.23046798 152.44759309 C19.57515878 152.48631481 13.91997877 152.50582746 8.26454049 152.51111281 C4.88833611 152.51476302 1.51264777 152.52674769 -1.86341286 152.55921555 C-5.63172988 152.59075484 -9.39882254 152.59091993 -13.16723633 152.58349609 C-14.28174164 152.59990143 -15.39624695 152.61630676 -16.54452515 152.63320923 C-24.9856854 152.56506583 -24.9856854 152.56506583 -28.6920166 149.71086121 C-31.75213 146.11657942 -31.75213 146.11657942 -31.76049805 143.04272461 C-31.77618332 142.30102524 -31.79186859 141.55932587 -31.80802917 140.79515076 C-31.79274673 140.00552444 -31.77746429 139.21589813 -31.76171875 138.40234375 C-31.76508743 137.57223282 -31.76845612 136.74212189 -31.77192688 135.88685608 C-31.77162846 134.13096931 -31.75641891 132.37503002 -31.72729492 130.61938477 C-31.68797022 127.96918909 -31.70648488 125.32409507 -31.73242188 122.67382812 C-31.72762305 108.86363271 -29.3489582 98.437795 -19.46875 88.1953125 C-7.90711189 77.91423558 4.17616279 76.81235649 19 77 C19 70.07 19 63.14 19 56 C17.35 55.34 15.7 54.68 14 54 C6.3597662 48.30219852 2.29965556 39.89157749 0.37719727 30.73828125 C-0.4130218 25.00164888 -0.20184395 19.21557425 -0.125 13.4375 C-0.11597656 12.14263672 -0.10695313 10.84777344 -0.09765625 9.51367188 C-0.07425094 6.34225229 -0.04146228 3.17122627 0 0 Z " fill="#7784EC" transform="translate(48,360)"/>
<path d="M0 0 C0.33 0 0.66 0 1 0 C1.12521195 4.47989111 1.21508136 8.9588095 1.2746582 13.43994141 C1.29953709 14.95867694 1.33345385 16.47729618 1.37719727 17.99560547 C1.74079021 30.95662441 0.02120021 41.30441615 -9.05859375 51.28125 C-11 53 -11 53 -14.16796875 54.578125 C-17.36570424 57.31274018 -17.44985134 57.78964999 -17.8046875 61.765625 C-17.85765874 63.5931327 -17.8801212 65.42173194 -17.875 67.25 C-17.895625 68.18585938 -17.91625 69.12171875 -17.9375 70.0859375 C-17.98455259 72.39151439 -18.00444675 74.69404162 -18 77 C-16.90945313 76.96519531 -16.90945313 76.96519531 -15.796875 76.9296875 C-1.26116469 76.66879014 11.23879592 78.79524731 22.18359375 88.98828125 C25.454492 92.61088899 27.92937384 96.58999384 30 101 C30.26997803 101.55558594 30.53995605 102.11117187 30.81811523 102.68359375 C33.86683247 110.08232101 33.48773814 117.9185104 33.44604492 125.78515625 C33.43747004 128.25864209 33.46647019 130.72986259 33.49804688 133.203125 C33.4996577 134.78645765 33.49908363 136.36979436 33.49609375 137.953125 C33.50732773 138.68654114 33.51856171 139.41995728 33.53013611 140.17559814 C33.46380742 145.06362699 32.48371516 147.57355473 29 151 C26.52311145 152.23844428 24.86392214 152.13683079 22.09234619 152.15390015 C21.05491272 152.16250061 20.01747925 152.17110107 18.9486084 152.17996216 C17.80573364 152.18422211 16.66285889 152.18848206 15.48535156 152.19287109 C14.28525452 152.20104858 13.08515747 152.20922607 11.84869385 152.21765137 C7.86267431 152.24253856 3.87669277 152.25918062 -0.109375 152.2734375 C-1.48181414 152.2787974 -2.8542532 152.28417491 -4.2266922 152.28956985 C-9.93650782 152.31120018 -15.64632061 152.32993607 -21.35616684 152.34119225 C-29.53695112 152.35742578 -37.71726 152.39058651 -45.89786506 152.44759309 C-51.65081784 152.48631412 -57.4036436 152.50582753 -63.15672326 152.51111281 C-66.59218349 152.51476385 -70.02713671 152.52675692 -73.46245575 152.55921555 C-77.29770291 152.59493282 -81.13235537 152.59091977 -84.96777344 152.58349609 C-86.10255127 152.59990143 -87.2373291 152.61630676 -88.40649414 152.63320923 C-96.99390611 152.56509313 -96.99390611 152.56509313 -100.68951416 149.58853149 C-105.42240205 144.28608421 -104.22289141 138.05584498 -104.24023438 131.29931641 C-104.24984542 129.03639622 -104.28081918 126.77442197 -104.3125 124.51171875 C-104.41098299 111.24439064 -102.32495795 99.60917148 -92.78515625 89.69921875 C-80.28100402 78.31856772 -69.32162275 77.63459054 -53 78 C-53 70.74 -53 63.48 -53 56 C-54.32 55.34 -55.64 54.68 -57 54 C-63.53584245 49.42620966 -66.97199603 44.30007159 -70 37 C-70.34675781 36.2567749 -70.69351563 35.5135498 -71.05078125 34.74780273 C-72.15828778 31.54178781 -72.22742534 28.99337388 -72.1953125 25.60546875 C-72.18886719 24.40341797 -72.18242187 23.20136719 -72.17578125 21.96289062 C-72.15902344 20.71701172 -72.14226562 19.47113281 -72.125 18.1875 C-72.11597656 16.92228516 -72.10695313 15.65707031 -72.09765625 14.35351562 C-72.07412394 11.23548436 -72.04124545 8.11783903 -72 5 C-69.91132961 7.08867039 -69.32327894 8.42297319 -68.25 11.125 C-64.186912 20.36333512 -59.05599179 25.49353182 -50 30 C-49.24976563 30.37511719 -48.49953125 30.75023437 -47.7265625 31.13671875 C-38.01076804 34.21292301 -26.52530345 32.71312888 -17.48046875 28.484375 C-8.71003017 23.23592357 -3.99077903 15.60197478 -1 6 C-0.60919203 4.01043215 -0.25149128 2.01193023 0 0 Z " fill="#7785EC" transform="translate(462,360)"/>
<path d="M0 0 C0.33 0 0.66 0 1 0 C1.14695313 0.76183594 1.29390625 1.52367187 1.4453125 2.30859375 C3.85382859 13.39607301 8.58655993 21.45299483 18 28 C26.67524502 33.36057188 37.74448229 33.34238172 47.5546875 31.52734375 C57.29269329 28.26178759 64.7219633 21.56628535 69.25390625 12.48828125 C70.22086629 10.34210165 71.13812324 8.19018093 72 6 C72.33 6 72.66 6 73 6 C73.08777806 10.16653186 73.14065272 14.33282276 73.1875 18.5 C73.21263672 19.67304688 73.23777344 20.84609375 73.26367188 22.0546875 C73.365694 34.16131321 69.82233129 43.13971128 61.4375 51.9375 C58.76795989 54.64403143 57.93275237 55.01681191 54 56 C54 63.26 54 70.52 54 78 C56.206875 77.938125 58.41375 77.87625 60.6875 77.8125 C72.08343141 77.72640351 82.0474836 79.57767796 91 87 C91.93779297 87.75410156 91.93779297 87.75410156 92.89453125 88.5234375 C100.09230431 94.95282084 103.89982835 103.53962825 105 113 C105.18351898 117.49883668 105.18582428 121.99606166 105.18530273 126.49804688 C105.18750155 128.62650195 105.20573742 130.75444795 105.22460938 132.8828125 C105.22754187 134.24739408 105.22952763 135.61197809 105.23046875 136.9765625 C105.23457764 138.20455566 105.23868652 139.43254883 105.24291992 140.69775391 C104.99653091 144.04715871 104.73715246 146.12916308 103 149 C97.41518124 152.83189117 91.81810976 152.43068963 85.30664062 152.40405273 C84.13522018 152.41091599 82.96379974 152.41777924 81.75688171 152.42485046 C77.88988073 152.44313199 74.02328487 152.43927917 70.15625 152.43359375 C68.14632995 152.43607015 66.13641984 152.4404172 64.12650347 152.44494683 C57.81101631 152.45897533 51.49566447 152.4574443 45.18017578 152.44604492 C38.67371609 152.43456008 32.16766841 152.4486489 25.66126299 152.4754414 C20.06531139 152.49761845 14.46948894 152.50423145 8.87349653 152.49836498 C5.53540421 152.49499951 2.19778715 152.49909689 -1.14030457 152.51461601 C-4.86272903 152.52948491 -8.5842447 152.51887792 -12.30664062 152.50170898 C-13.95730278 152.51621094 -13.95730278 152.51621094 -15.64131165 152.53100586 C-21.7147681 152.47231685 -25.40673652 152.12437234 -30 148 C-31.59922659 144.80154682 -31.20552228 141.32376285 -31.23828125 137.80859375 C-31.246353 136.989319 -31.25442474 136.17004425 -31.26274109 135.32594299 C-31.27658827 133.58670163 -31.28730759 131.84743303 -31.29516602 130.1081543 C-31.31227639 127.47195198 -31.35614229 124.83703786 -31.40039062 122.20117188 C-31.55082549 106.01279976 -31.55082549 106.01279976 -27 99 C-26.54238281 98.14148438 -26.08476562 97.28296875 -25.61328125 96.3984375 C-20.22086066 88.0102277 -12.5859461 81.9815819 -3 79 C2.02100441 78.08436987 6.83989172 77.89238842 11.9375 77.9375 C12.96327148 77.94426758 12.96327148 77.94426758 14.00976562 77.95117188 C15.67321604 77.9628044 17.3366205 77.98073306 19 78 C19.06473895 74.45644159 19.04021966 70.91879919 19 67.375 C19.01933594 66.37597656 19.03867188 65.37695312 19.05859375 64.34765625 C19.03718165 58.74344001 19.03718165 58.74344001 16.26879883 54.10400391 C14.23273067 52.62650312 12.13875643 51.32170341 10 50 C2.64616157 41.59148533 -0.15011609 31.52437915 -0.09765625 20.5078125 C-0.09443359 19.30898438 -0.09121094 18.11015625 -0.08789062 16.875 C-0.07951172 15.6375 -0.07113281 14.4 -0.0625 13.125 C-0.05798828 11.86429687 -0.05347656 10.60359375 -0.04882812 9.3046875 C-0.0370796 6.20307614 -0.02065167 3.10156275 0 0 Z " fill="#7785EC" transform="translate(219,360)"/>
<path d="M0 0 C5.77304584 4.46259985 10.17536532 10.5580021 14.71484375 16.2109375 C16.90460801 18.88357285 19.17111198 21.44834878 21.5 24 C25.49393101 28.38494524 29.27625779 32.90717699 32.98046875 37.5390625 C34.6029342 39.51614806 36.27633318 41.30361298 38.0625 43.125 C40.70449978 47.04538677 40.44593956 50.45220979 40 55 C39.21235175 58.7691471 38.11480498 62.41448644 36.97265625 66.08984375 C36.66428329 67.11557999 36.35591034 68.14131622 36.03819275 69.19813538 C35.05783879 72.44821868 34.06024546 75.692719 33.0625 78.9375 C32.39538914 81.1435493 31.72936246 83.34992677 31.06445312 85.55664062 C29.84887352 89.57348774 28.63155576 93.58974194 27.39868164 97.60131836 C27.15219376 98.40468124 26.90570587 99.20804413 26.65174866 100.03575134 C26 102 26 102 25 104 C26.41152344 103.94779297 26.41152344 103.94779297 27.8515625 103.89453125 C29.71941406 103.85392578 29.71941406 103.85392578 31.625 103.8125 C32.85476563 103.77769531 34.08453125 103.74289063 35.3515625 103.70703125 C39.34648006 104.02782227 41.65508147 104.81746519 45 107 C47.6364366 110.37769559 47.36693346 114.21572529 47.4375 118.375 C47.47746094 119.66148437 47.51742187 120.94796875 47.55859375 122.2734375 C46.90445956 126.63738167 45.44136542 129.29789547 42 132 C38.98676628 132.60349492 36.77210866 132.81027456 33.76367188 132.75517273 C32.93805 132.76382711 32.11242813 132.77248149 31.26178741 132.78139812 C28.49676325 132.80298007 25.73375256 132.7816985 22.96875 132.76049805 C20.98599282 132.76699146 19.00324263 132.77605263 17.02050781 132.78749084 C11.63609876 132.81058614 6.25239788 132.79584427 0.86801147 132.77302146 C-4.76443504 132.75411953 -10.39683358 132.76526158 -16.02929688 132.77192688 C-25.4883958 132.77826927 -34.94721067 132.75998811 -44.40625 132.72729492 C-55.34511772 132.68979987 -66.28344728 132.69157863 -77.22234344 132.7143361 C-87.74147706 132.73527806 -98.26041162 132.72801513 -108.77954102 132.70801735 C-113.25795163 132.70002674 -117.73619409 132.70202841 -122.21459961 132.71204185 C-127.48758783 132.72258505 -132.75994822 132.70848862 -138.03283691 132.67529869 C-139.96901747 132.6670836 -141.90525546 132.66738469 -143.84143066 132.67677689 C-146.48288284 132.68818388 -149.12237602 132.66885785 -151.76367188 132.64164734 C-152.53166862 132.65211883 -153.29966537 132.66259032 -154.09093475 132.67337912 C-158.04818651 132.59732472 -159.81868869 132.14448321 -162.95227051 129.64739704 C-165.83246512 125.92375154 -166.15611674 123.20695603 -166.1875 118.625 C-166.20167969 117.68914062 -166.21585937 116.75328125 -166.23046875 115.7890625 C-165.92088722 112.04260127 -164.95609393 109.16394043 -162.5625 106.25 C-159.13040619 103.50432496 -155.53591056 103.87657667 -151.3372345 103.87974548 C-150.65680153 103.87889106 -149.97636856 103.87803663 -149.27531642 103.87715632 C-146.9905652 103.87550647 -144.70588706 103.8810148 -142.42114258 103.88647461 C-140.78525291 103.88675661 -139.14936311 103.88659849 -137.51347351 103.8860321 C-133.06750092 103.88574465 -128.62155519 103.89163306 -124.17558885 103.89860606 C-119.53109768 103.90484817 -114.88660592 103.90544408 -110.24211121 103.90663147 C-101.44487888 103.90974225 -92.64765896 103.91795224 -83.8504321 103.92798096 C-73.83604448 103.93914994 -63.82165627 103.94465453 -53.80726397 103.94967639 C-33.20483572 103.96013505 -12.60241864 103.97772961 8 104 C8.4089716 102.35044579 8.4089716 102.35044579 8.82620525 100.66756725 C9.18850513 99.21099827 9.5508574 97.75444232 9.91325378 96.29789734 C10.18198154 95.21311513 10.18198154 95.21311513 10.45613813 94.10641813 C11.69087905 89.14969711 13.04424448 84.25664886 14.61328125 79.39453125 C15.06095378 77.96562221 15.50820884 76.53658232 15.95507812 75.10742188 C16.63945019 72.93582331 17.3275428 70.7655824 18.02270508 68.59741211 C18.70906097 66.44955264 19.3808954 64.2975747 20.05078125 62.14453125 C20.44950439 60.89003174 20.84822754 59.63553223 21.2590332 58.34301758 C22.00178234 54.99195863 22.09674119 53.21538217 21 50 C19.29031733 47.72719605 17.58788318 45.66177081 15.6875 43.5625 C14.59093309 42.31789574 13.49458514 41.07309854 12.3984375 39.828125 C11.83479492 39.19455078 11.27115234 38.56097656 10.69042969 37.90820312 C7.01857347 33.76331171 3.43347876 29.54349886 -0.15234375 25.32421875 C-1.98545313 23.16846219 -3.85062791 21.05098036 -5.75390625 18.95703125 C-12.54698178 11.24970768 -12.54698178 11.24970768 -12.875 6.5625 C-12 3 -12 3 -9.9375 0.4375 C-5.89919446 -1.53869207 -4.27580297 -1.44942473 0 0 Z " fill="#C8AC91" transform="translate(234,60)"/>
<path d="M0 0 C49.83 0 99.66 0 151 0 C151 43.23 151 86.46 151 131 C146.05 131.99 141.1 132.98 136 134 C134.02 134.99 132.04 135.98 130 137 C129.99453156 135.80968422 129.99453156 135.80968422 129.98895264 134.59532166 C129.95080024 127.05034742 129.89364545 119.50585222 129.81609726 111.96118832 C129.77689059 108.0840551 129.74457293 104.20713989 129.72900391 100.32983398 C129.71365768 96.5753227 129.67890448 92.82141192 129.63169098 89.0671711 C129.61705943 87.64779498 129.6089697 86.22833303 129.60811615 84.80888176 C129.58557992 66.09168404 124.70593067 50.16837098 111.5703125 36.3203125 C103.21099695 28.77406108 93.82147324 24.69395325 83 22 C82.44165466 21.82497452 81.88330933 21.64994904 81.30804443 21.46961975 C77.98287135 20.79304397 74.67362515 20.82153248 71.29394531 20.79467773 C70.52282913 20.78477814 69.75171295 20.77487854 68.95722961 20.76467896 C66.41422573 20.73314922 63.87120318 20.70834032 61.328125 20.68359375 C59.56263754 20.66301686 57.79715493 20.64202019 56.03167725 20.62062073 C51.38913909 20.56547601 46.74655702 20.51603325 42.10394287 20.46777344 C37.36482851 20.41750289 32.62577775 20.36184583 27.88671875 20.30664062 C18.5911982 20.199152 9.29562349 20.09818431 0 20 C0 13.4 0 6.8 0 0 Z " fill="#B28A65" transform="translate(99,192)"/>
<path d="M0 0 C0.81797562 -0.0127597 1.63595123 -0.02551941 2.47871399 -0.03866577 C3.7928553 -0.04200424 3.7928553 -0.04200424 5.13354492 -0.04541016 C6.49850349 -0.05539536 6.49850349 -0.05539536 7.89103699 -0.06558228 C9.81503278 -0.07569811 11.73906358 -0.08039963 13.66308594 -0.08007812 C16.59328728 -0.08444179 19.52197027 -0.12074591 22.4519043 -0.15869141 C24.32494605 -0.16456185 26.19799492 -0.16852972 28.07104492 -0.17041016 C29.37607719 -0.19196671 29.37607719 -0.19196671 30.70747375 -0.21395874 C36.5758485 -0.17031814 39.99457238 0.8712801 44.80151367 4.29052734 C48.17630173 8.64222774 49.91326794 12.09429441 49.96264648 17.58740234 C49.97225403 18.45260498 49.98186157 19.31780762 49.99176025 20.20922852 C49.99601013 21.14355713 50.00026001 22.07788574 50.00463867 23.04052734 C50.01033875 24.00901611 50.01603882 24.97750488 50.02191162 25.9753418 C50.03136402 28.02977405 50.03789655 30.08422149 50.04174805 32.13867188 C50.05139048 35.25076671 50.08238527 38.36218305 50.11401367 41.47412109 C50.12055045 43.47541928 50.12579827 45.47672217 50.12963867 47.47802734 C50.14198547 48.39616211 50.15433228 49.31429687 50.16705322 50.26025391 C50.13254605 60.49846265 48.08530142 69.78100237 40.80151367 77.29052734 C40.22675293 77.68046875 39.65199219 78.07041016 39.05981445 78.47216797 C36.08928695 80.58782942 34.09583113 82.06142879 33.22338867 85.70483398 C33.06746845 88.54396692 33.07760802 91.323892 33.17651367 94.16552734 C33.38416003 101.85882496 33.08476332 107.34000656 27.80151367 113.29052734 C23.34797581 116.86900904 19.30053232 116.91150071 13.75463867 116.77490234 C9.23205791 116.03310338 6.46695338 113.96947257 3.80151367 110.29052734 C2.15248801 106.75743902 1.56815521 104.01717049 1.59838867 100.13037109 C1.58678711 99.17195313 1.57518555 98.21353516 1.56323242 97.22607422 C1.55540465 95.22347011 1.56327947 93.22074452 1.58666992 91.21826172 C1.53835664 88.45883003 1.43762323 85.9773058 0.80151367 83.29052734 C-1.92119748 80.69699965 -1.92119748 80.69699965 -5.19848633 79.29052734 C-12.1725961 72.92084042 -15.8378531 64.53090916 -16.30549622 55.1421051 C-16.36336689 52.60915786 -16.38948101 50.07801664 -16.40161133 47.54443359 C-16.4073114 46.61509506 -16.41301147 45.68575653 -16.41888428 44.72825623 C-16.42829927 42.76912564 -16.43485428 40.80997947 -16.4387207 38.85083008 C-16.44844324 35.86625477 -16.47950672 32.88236373 -16.51098633 29.89794922 C-16.5175158 27.98844807 -16.52276649 26.07894203 -16.52661133 24.16943359 C-16.53895813 23.28381241 -16.55130493 22.39819122 -16.56402588 21.48573303 C-16.53938984 14.5819784 -15.4034241 9.83468631 -10.76098633 4.47802734 C-7.24234733 1.47431113 -4.64577464 0.04945684 0 0 Z " fill="#FAC0B8" transform="translate(159.198486328125,-0.29052734375)"/>
<path d="M0 0 C0.74798355 -0.00524185 1.4959671 -0.0104837 2.26661682 -0.0158844 C3.83894619 -0.02226977 5.41132355 -0.02101307 6.98364258 -0.01245117 C9.36953014 -0.0039397 11.75302 -0.03274929 14.13867188 -0.06445312 C21.91337377 -0.09979106 28.29751365 -0.07174309 34.94140625 4.43359375 C35.82828125 5.01109375 36.71515625 5.58859375 37.62890625 6.18359375 C43.64991572 12.04187323 46.03111936 17.90800047 46.18286133 26.22094727 C46.23570883 39.90543011 44.19707358 50.96990396 34.56640625 61.18359375 C26.63181771 68.7231703 17.81555106 70.85553779 7.00561523 70.79711914 C-3.1167459 70.53470051 -10.86236292 66.43682222 -18.05859375 59.43359375 C-26.64512118 49.00977442 -28.75099323 37.70146488 -28.05859375 24.43359375 C-27.24247447 16.12523192 -23.59937125 10.79279291 -17.62109375 5.12109375 C-11.80930718 1.29381967 -6.92350962 -0.028856 0 0 Z " fill="#364A68" transform="translate(332.05859375,226.56640625)"/>
<path d="M0 0 C2.23881739 -0.00436275 4.47564321 -0.04070235 6.71411133 -0.07861328 C16.04538636 -0.1514397 22.75160066 1.0672251 30.69262695 6.12060547 C37.10122701 12.52920553 39.16057749 18.87271591 39.19262695 27.80810547 C39.18635298 40.37361529 37.06033533 50.64112625 28.44262695 60.12060547 C27.61762695 60.86310547 26.79262695 61.60560547 25.94262695 62.37060547 C25.22075195 63.05123047 24.49887695 63.73185547 23.75512695 64.43310547 C14.41173154 70.86966675 4.03698304 72.05821898 -7.05737305 70.37060547 C-11.50474223 68.92497035 -15.19290717 66.98443514 -19.05737305 64.37060547 C-19.66838867 63.97615234 -20.2794043 63.58169922 -20.90893555 63.17529297 C-27.89109824 58.05504032 -31.81820203 50.23086689 -33.58081055 41.94873047 C-34.91074153 31.96334705 -36.23687084 20.31072689 -30.74487305 11.38623047 C-22.12824574 1.09414785 -12.76399361 -0.00278356 0 0 Z " fill="#364968" transform="translate(424.057373046875,322.62939453125)"/>
<path d="M0 0 C2.10258631 0.00314396 4.20374127 -0.02026762 6.30615234 -0.0456543 C18.49005737 -0.10658738 25.86171397 1.45704416 34.76708984 9.97583008 C40.89492946 16.78580397 41.18568843 25.28704595 41.08740234 34.08911133 C40.31787033 45.6460831 36.23171355 54.72929616 27.90380859 62.71020508 C18.04995232 70.49854148 6.97351012 71.40256791 -5.12744141 70.31567383 C-8.55878209 69.48856003 -11.18865391 68.24687704 -14.12744141 66.31567383 C-15.16771484 65.66211914 -15.16771484 65.66211914 -16.22900391 64.99536133 C-25.14608169 58.88365633 -30.13663542 50.34481851 -32.71728516 39.93676758 C-34.34992182 29.50344183 -33.34744642 20.39790552 -28.43994141 11.12817383 C-20.45157804 1.41259677 -12.0297592 -0.03761912 0 0 Z " fill="#364968" transform="translate(81.12744140625,322.684326171875)"/>
<path d="M0 0 C1.27230469 -0.03738281 2.54460937 -0.07476562 3.85546875 -0.11328125 C13.2621021 -0.20064936 19.93343055 1.29944124 27.1875 7.4375 C27.9609375 8.3965625 27.9609375 8.3965625 28.75 9.375 C29.28625 10.014375 29.8225 10.65375 30.375 11.3125 C36.27490341 20.16235512 35.12389029 34.41403888 33.37939453 44.52246094 C30.79447771 54.3403032 23.39111841 62.21991895 14.90234375 67.40234375 C5.61485439 71.59941244 -6.97742137 72.31290829 -16.6875 68.9375 C-26.0325789 64.42443289 -33.70839778 56.45222569 -37.2109375 46.69921875 C-39.96887336 37.1476519 -41.1733656 25.91895053 -37.41796875 16.46875 C-33.52953398 9.49817797 -27.94603424 3.83304896 -20.25 1.375 C-13.51167051 0.07576774 -6.84251411 0.075343 0 0 Z " fill="#364968" transform="translate(258.25,322.625)"/>
<path d="M0 0 C1.15564453 -0.04576172 2.31128906 -0.09152344 3.50195312 -0.13867188 C12.66360724 -0.25698633 20.38745797 1.86557394 27.52026367 7.87670898 C33.20398088 14.19183101 35.47591688 21.04818287 35.1875 29.375 C35.17098389 30.16769287 35.15446777 30.96038574 35.13745117 31.77709961 C34.79712636 43.13646361 31.96740969 53.05606504 23.8125 61.4375 C13.23701688 69.79106344 3.02253115 71.62148064 -10.1875 70.4375 C-18.82966047 68.42743114 -26.24594271 63.48982795 -31.4375 56.3125 C-38.25040267 45.1438071 -40.02251841 32.92634629 -37.5625 20.0625 C-34.45483625 11.86956829 -30.42069213 6.96424661 -22.84765625 2.53125 C-15.72335839 -0.39797673 -7.57941072 0.12057208 0 0 Z " fill="#354968" transform="translate(174.1875,226.5625)"/>
<path d="M0 0 C0.33 0 0.66 0 1 0 C1.14695312 0.81791016 1.14695312 0.81791016 1.296875 1.65234375 C3.37672614 12.14124822 7.3282198 21.96717862 16.3125 28.25 C17.85825579 29.19462854 19.42024414 30.11340232 21 31 C21.59296875 31.34289062 22.1859375 31.68578125 22.796875 32.0390625 C30.4762831 35.67488846 41.9805028 35.21808788 50 32.875 C58.04811228 29.59443614 65.33694523 23.35163403 69.22265625 15.54296875 C71.0856671 11.08910411 72.49146891 6.83104536 73 2 C73.33 2 73.66 2 74 2 C74.10007178 6.35581651 74.17202448 10.71099593 74.21972656 15.06762695 C74.23964487 16.54463378 74.26679007 18.02156384 74.30175781 19.49829102 C74.57775492 31.46763629 73.35107296 41.56529031 65.71264648 51.26464844 C63.8919505 53.10948195 62.06202944 54.24494803 59.84765625 55.578125 C57.36754468 57.40106678 56.18959457 58.36060267 55.30712891 61.33666992 C55.09531705 64.06432458 55.08979121 66.70356968 55.1875 69.4375 C55.28605707 76.1065285 55.23270592 81.05902229 52 87 C47.9370572 91.0629428 42.05312385 90.28397963 36.625 90.375 C35.78710938 90.41238281 34.94921875 90.44976562 34.0859375 90.48828125 C29.93060569 90.54708312 26.90768713 90.41800317 23.5234375 87.8515625 C18.22868119 81.86832394 18.74122711 75.71918386 18.875 68.125 C18.88402344 67.15046875 18.89304687 66.1759375 18.90234375 65.171875 C18.92578377 62.78099272 18.95859558 60.39062739 19 58 C18.39929688 57.71253906 17.79859375 57.42507813 17.1796875 57.12890625 C9.8977209 53.35742176 4.64417237 46.96943066 2.07568359 39.20629883 C-0.00265321 30.60417939 -0.36157476 22.51175148 -0.1875 13.6875 C-0.17239836 12.34962475 -0.15871981 11.01173266 -0.14648438 9.67382812 C-0.11155597 6.44877252 -0.06251124 3.22461852 0 0 Z " fill="#FAC0B8" transform="translate(304,262)"/>
<path d="M0 0 C0.33 0 0.66 0 1 0 C1.21914063 0.83402344 1.43828125 1.66804688 1.6640625 2.52734375 C4.83359892 13.77533277 8.86066718 21.79955298 19 28 C19.63164063 28.41378906 20.26328125 28.82757813 20.9140625 29.25390625 C28.99769247 33.7326742 39.33692474 33.04666385 48.19140625 31.41015625 C57.25112549 28.61362841 64.552666 22.34850417 69 14 C71.02683796 9.43066213 72.12844441 4.91240425 73 0 C73.33 0 73.66 0 74 0 C74.08842548 4.24986479 74.14086428 8.49948746 74.1875 12.75 C74.21263672 13.93722656 74.23777344 15.12445313 74.26367188 16.34765625 C74.35992007 28.08993605 72.77101837 39.69807437 65 49 C63.41245249 49.94515681 61.80742919 50.86148558 60.1875 51.75 C57.43180436 53.64540334 56.18950045 55.0164906 55.55029297 58.33398438 C55.20943598 62.20391626 55.11310332 66.03305055 55.16088867 69.91699219 C55.24331002 76.70009357 54.88689274 81.48115064 50.4296875 86.9140625 C46.43840499 88.69794761 42.4415784 88.43105946 38.125 88.375 C37.23941406 88.38660156 36.35382813 88.39820313 35.44140625 88.41015625 C30.30239957 88.38718007 26.25369337 88.18701797 22 85 C18.3097489 79.11261826 18.6402983 73.34901322 18.8125 66.5625 C18.83280273 65.03592773 18.83280273 65.03592773 18.85351562 63.47851562 C18.8886339 60.98511786 18.93781441 58.49284488 19 56 C18.2471875 55.731875 17.494375 55.46375 16.71875 55.1875 C9.91994761 52.21790815 6.24001117 46.25804298 3.04296875 39.8203125 C-0.19494715 31.06459985 -0.24835526 22.71286638 -0.125 13.4375 C-0.11597656 12.14263672 -0.10695312 10.84777344 -0.09765625 9.51367188 C-0.07425094 6.34225229 -0.04146228 3.17122627 0 0 Z " fill="#FAC0B8" transform="translate(48,360)"/>
<path d="M0 0 C0.33 0 0.66 0 1 0 C1.12521195 4.47989111 1.21508136 8.9588095 1.2746582 13.43994141 C1.29953709 14.95867694 1.33345385 16.47729618 1.37719727 17.99560547 C1.74079021 30.95662441 0.02120021 41.30441615 -9.05859375 51.28125 C-11 53 -11 53 -14.1796875 54.50390625 C-17.17074045 56.65752539 -17.17074045 56.65752539 -17.52661133 59.39208984 C-17.70972589 62.4198256 -17.73444854 65.40462453 -17.6875 68.4375 C-17.6320811 81.17592956 -17.6320811 81.17592956 -21 85 C-25.59074256 89.06159349 -29.99228319 88.58665113 -35.875 88.625 C-37.34646484 88.69267578 -37.34646484 88.69267578 -38.84765625 88.76171875 C-43.59298033 88.80654637 -47.13420219 88.65723182 -50.671875 85.26953125 C-54.33249883 80.08748945 -53.64448285 74.13968377 -53.375 68.0625 C-53.34792969 66.90169922 -53.32085937 65.74089844 -53.29296875 64.54492188 C-53.22259234 61.69467725 -53.12418624 58.84832281 -53 56 C-53.6194751 55.69835937 -54.2389502 55.39671875 -54.87719727 55.0859375 C-62.685191 51.09169297 -66.72456231 44.89659783 -70 37 C-70.34675781 36.2567749 -70.69351562 35.5135498 -71.05078125 34.74780273 C-72.15828778 31.54178781 -72.22742534 28.99337388 -72.1953125 25.60546875 C-72.18886719 24.40341797 -72.18242187 23.20136719 -72.17578125 21.96289062 C-72.15902344 20.71701172 -72.14226562 19.47113281 -72.125 18.1875 C-72.11597656 16.92228516 -72.10695313 15.65707031 -72.09765625 14.35351562 C-72.07412394 11.23548436 -72.04124545 8.11783903 -72 5 C-69.91132961 7.08867039 -69.32327894 8.42297319 -68.25 11.125 C-64.186912 20.36333512 -59.05599179 25.49353182 -50 30 C-49.24976563 30.37511719 -48.49953125 30.75023437 -47.7265625 31.13671875 C-38.01076804 34.21292301 -26.52530345 32.71312888 -17.48046875 28.484375 C-8.71003017 23.23592357 -3.99077903 15.60197478 -1 6 C-0.60919203 4.01043215 -0.25149128 2.01193023 0 0 Z " fill="#FAC0B8" transform="translate(462,360)"/>
<path d="M0 0 C3.10262273 3.10262273 4.11424032 7.10351029 5.68359375 11.15234375 C6.90140575 13.78672045 7.92518141 15.07035822 10 17 C10 17.66 10 18.32 10 19 C10.58007812 19.2784375 11.16015625 19.556875 11.7578125 19.84375 C14.57726103 21.29768165 17.16423148 23.02807272 19.8046875 24.78125 C28.01428975 29.33889395 38.22504044 29.28718978 47.2421875 27.27734375 C57.11283757 23.90054241 62.91589144 19.0986496 68 10 C69.44572026 7.04142078 70.77217978 4.05510561 72 1 C72.33 1 72.66 1 73 1 C74.0072551 32.68592104 74.0072551 32.68592104 64.07421875 45 C62 47 62 47 60.23144531 47.92211914 C58.05555311 49.11090332 56.60116646 50.09307648 55 52 C54.09625979 56.14549194 54.24894185 60.21212791 54.375 64.4375 C54.66346864 76.96425058 54.66346864 76.96425058 51.6015625 80.72265625 C46.88422001 84.85210171 42.80113211 84.28541393 36.75 84.375 C35.33654297 84.43107422 35.33654297 84.43107422 33.89453125 84.48828125 C29.36476671 84.5454592 26.03116786 84.5630133 22.390625 81.6640625 C19.05925553 77.95165404 18.89529724 75.5014562 19 70.703125 C18.99871094 69.6615625 18.99742187 68.62 18.99609375 67.546875 C18.99867971 65.36432229 19.03210428 63.18156961 19.09765625 61 C19.09874844 54.89197769 19.09874844 54.89197769 16.05053711 49.83642578 C13.76174927 48.10614598 11.4061762 46.56006602 9 45 C6.87890625 42.5234375 6.87890625 42.5234375 5.5625 40.375 C4.88380859 39.30378906 4.88380859 39.30378906 4.19140625 38.2109375 C-0.48991042 29.52364164 -0.14082852 20.62838308 -0.0625 11 C-0.05573242 9.40865234 -0.05573242 9.40865234 -0.04882812 7.78515625 C-0.03713843 5.19004402 -0.02075276 2.59505291 0 0 Z " fill="#FAC0B8" transform="translate(136,268)"/>
<path d="M0 0 C0.33 0 0.66 0 1 0 C1.14695313 0.76183594 1.29390625 1.52367187 1.4453125 2.30859375 C3.85382859 13.39607301 8.58655993 21.45299483 18 28 C26.67524502 33.36057188 37.74448229 33.34238172 47.5546875 31.52734375 C57.29269329 28.26178759 64.7219633 21.56628535 69.25390625 12.48828125 C70.22086629 10.34210165 71.13812324 8.19018093 72 6 C72.33 6 72.66 6 73 6 C73.08777806 10.16653186 73.14065272 14.33282276 73.1875 18.5 C73.21263672 19.67304688 73.23777344 20.84609375 73.26367188 22.0546875 C73.365694 34.16131321 69.82233129 43.13971128 61.4375 51.9375 C58.99557916 54.41325808 57.36741163 55.25956075 54 56 C54.02618408 56.76143311 54.05236816 57.52286621 54.0793457 58.30737305 C54.18347015 61.76720435 54.24837729 65.22670585 54.3125 68.6875 C54.35439453 69.88568359 54.39628906 71.08386719 54.43945312 72.31835938 C54.56071766 81.02515266 54.56071766 81.02515266 52.89990234 83.91259766 C51.54296875 85.26953125 51.54296875 85.26953125 49 87 C48.67 87.33 48.34 87.66 48 88 C44.42533316 88.30808767 40.83630686 88.27845278 37.25 88.3125 C36.24710938 88.34150391 35.24421875 88.37050781 34.2109375 88.40039062 C29.82490349 88.43820126 26.83685907 88.44710364 22.921875 86.35546875 C17.67163339 79.92072141 18.73110384 71.93171392 18.9609375 64.0546875 C18.98989432 58.61436333 18.98989432 58.61436333 16.27758789 54.13037109 C14.17595654 52.56427172 14.17595654 52.56427172 11.95996094 51.22167969 C5.93246346 47.46462969 3.02420197 39.49875371 1 33 C0.1540024 28.78200938 -0.11812344 24.80592173 -0.09765625 20.5078125 C-0.09443359 19.30898438 -0.09121094 18.11015625 -0.08789062 16.875 C-0.07951172 15.6375 -0.07113281 14.4 -0.0625 13.125 C-0.05798828 11.86429687 -0.05347656 10.60359375 -0.04882812 9.3046875 C-0.0370796 6.20307614 -0.02065167 3.10156275 0 0 Z " fill="#F9C0B8" transform="translate(219,360)"/>
<path d="M0 0 C0.9953627 -0.00860046 1.9907254 -0.01720093 3.01625061 -0.02606201 C4.66043221 -0.03245193 4.66043221 -0.03245193 6.33782959 -0.03897095 C7.48915878 -0.04714844 8.64048798 -0.05532593 9.82670593 -0.06375122 C13.65039545 -0.0886364 17.47404776 -0.10512911 21.29779053 -0.11953735 C22.60134239 -0.12486103 23.90489426 -0.13018471 25.24794769 -0.13566971 C30.72614722 -0.15729981 36.2043438 -0.17603551 41.68257523 -0.1872921 C49.53055315 -0.20352442 57.37803543 -0.23668229 65.2258265 -0.29369295 C70.74523556 -0.33241972 76.26451222 -0.35192807 81.78405356 -0.35721266 C85.07982534 -0.36086302 88.37494769 -0.37535282 91.67060089 -0.4053154 C95.35042647 -0.43686223 99.02899855 -0.43701854 102.70892334 -0.42959595 C103.79694748 -0.44600128 104.88497162 -0.46240662 106.00596619 -0.47930908 C114.25097799 -0.41117565 114.25097799 -0.41117565 117.96252441 2.50286865 C120.28216553 5.15390015 120.28216553 5.15390015 120.96966553 8.15390015 C120.00931632 12.34451489 118.75302777 13.58470436 115.28216553 16.15390015 C111.45140337 16.89698691 107.66993673 16.81621862 103.77825928 16.76913452 C102.03356857 16.77745804 102.03356857 16.77745804 100.25363159 16.78594971 C96.40855731 16.79776122 92.56465742 16.77345318 88.71966553 16.74765015 C86.04834305 16.7459394 83.37706695 16.7459012 80.70574951 16.74777222 C75.10705308 16.74771868 69.50869454 16.72798427 63.91009521 16.69589233 C57.44286949 16.65900086 50.97608625 16.6502171 44.50876904 16.65718985 C38.28035206 16.66350128 32.05208638 16.65272879 25.82369995 16.63322449 C23.17630758 16.626189 20.52890183 16.62307062 17.88150024 16.62391663 C14.1827778 16.62212063 10.48468541 16.60075422 6.78607178 16.57382202 C5.68981476 16.57675262 4.59355774 16.57968323 3.46408081 16.58270264 C-2.26311943 16.51830199 -6.45319879 16.41853583 -10.71783447 12.15390015 C-11.30772211 5.90109116 -11.30772211 5.90109116 -8.84283447 2.77890015 C-5.66886146 0.35174431 -3.93857328 0.02528707 0 0 Z " fill="#AAC0D3" transform="translate(347.71783447265625,34.846099853515625)"/>
<path d="M0 0 C0.81797562 -0.0127597 1.63595123 -0.02551941 2.47871399 -0.03866577 C3.7928553 -0.04200424 3.7928553 -0.04200424 5.13354492 -0.04541016 C6.49850349 -0.05539536 6.49850349 -0.05539536 7.89103699 -0.06558228 C9.81503278 -0.07569811 11.73906358 -0.08039963 13.66308594 -0.08007812 C16.59328728 -0.08444179 19.52197027 -0.12074591 22.4519043 -0.15869141 C24.32494605 -0.16456185 26.19799492 -0.16852972 28.07104492 -0.17041016 C29.37607719 -0.19196671 29.37607719 -0.19196671 30.70747375 -0.21395874 C36.5758485 -0.17031814 39.99457238 0.8712801 44.80151367 4.29052734 C49.09713593 9.8296192 49.94908252 13.97142668 49.89916992 20.80224609 C49.89775497 21.53047073 49.89634003 22.25869537 49.8948822 23.00898743 C49.88929026 25.33204273 49.87673929 27.65500123 49.86401367 29.97802734 C49.85899763 31.55419783 49.8544349 33.13036982 49.8503418 34.70654297 C49.83932347 38.56790833 49.82206441 42.42920143 49.80151367 46.29052734 C47.80151367 43.29052734 47.80151367 43.29052734 46.55151367 39.85302734 C44.53283554 35.74357543 42.77717908 34.44401277 38.80151367 32.29052734 C32.73898066 30.26968301 25.7153087 30.98280178 19.35205078 30.94042969 C17.53551386 30.92390835 15.71904092 30.89666885 13.90283203 30.85839844 C11.27106322 30.80328537 8.64081516 30.78170218 6.00854492 30.76708984 C5.20616898 30.74442047 4.40379303 30.7217511 3.57710266 30.69839478 C-2.42533745 30.72059683 -6.58627488 32.40847007 -11.19848633 36.29052734 C-12.93772948 38.85910693 -12.93772948 38.85910693 -13.69848633 41.60302734 C-13.99754883 42.48603516 -14.29661133 43.36904297 -14.60473633 44.27880859 C-14.80067383 44.94267578 -14.99661133 45.60654297 -15.19848633 46.29052734 C-15.52848633 46.29052734 -15.85848633 46.29052734 -16.19848633 46.29052734 C-16.27308867 41.86144356 -16.32730004 37.43270045 -16.36328125 33.00317383 C-16.37829355 31.49887717 -16.39870986 29.99462374 -16.42480469 28.49047852 C-16.46152449 26.31825039 -16.47828794 24.14660483 -16.49145508 21.97412109 C-16.50716553 20.67015381 -16.52287598 19.36618652 -16.5390625 18.02270508 C-15.92356858 11.27786237 -13.40885124 6.73839983 -8.19848633 2.29052734 C-5.36242046 0.61891061 -3.28073446 0.03492523 0 0 Z " fill="#394B69" transform="translate(159.198486328125,-0.29052734375)"/>
<path d="M0 0 C5.77304584 4.46259985 10.17536532 10.5580021 14.71484375 16.2109375 C16.90460801 18.88357285 19.17111198 21.44834878 21.5 24 C25.49393101 28.38494524 29.27625779 32.90717699 32.98046875 37.5390625 C34.6029342 39.51614806 36.27633318 41.30361298 38.0625 43.125 C40.77250969 47.14630469 40.46090517 50.26205584 40 55 C39.22283213 58.75659092 38.13825456 62.39078 37.0078125 66.0546875 C36.70181122 67.07805206 36.39580994 68.10141663 36.08053589 69.15579224 C35.43563876 71.30385619 34.78483394 73.45015455 34.12841797 75.59472656 C33.1228193 78.88212893 32.13612874 82.1747614 31.15234375 85.46875 C30.52192563 87.56022539 29.89045223 89.65138304 29.2578125 91.7421875 C28.96190216 92.72653778 28.66599182 93.71088806 28.3611145 94.72506714 C28.08097504 95.63676666 27.80083557 96.54846619 27.51220703 97.48779297 C27.26793976 98.28893524 27.02367249 99.09007751 26.77200317 99.91549683 C26 102 26 102 24 105 C21.2114711 105.22107787 18.65346819 105.28107535 15.875 105.1875 C14.74384766 105.16719727 14.74384766 105.16719727 13.58984375 105.14648438 C11.72625873 105.11109985 9.86304022 105.05729167 8 105 C9.21474469 98.3275091 10.81221981 91.91313296 12.85546875 85.44921875 C13.40076866 83.68175721 13.94567944 81.91417558 14.49023438 80.14648438 C15.3415636 77.40205158 16.19650062 74.65887314 17.05834961 71.91772461 C17.89676755 69.2437677 18.72080097 66.56570923 19.54296875 63.88671875 C19.80434128 63.06894455 20.06571381 62.25117035 20.33500671 61.40861511 C22.07310991 55.74331602 22.07310991 55.74331602 21 50 C19.29031733 47.72719605 17.58788318 45.66177081 15.6875 43.5625 C14.59093309 42.31789574 13.49458514 41.07309854 12.3984375 39.828125 C11.83479492 39.19455078 11.27115234 38.56097656 10.69042969 37.90820312 C7.01857347 33.76331171 3.43347876 29.54349886 -0.15234375 25.32421875 C-1.98545313 23.16846219 -3.85062791 21.05098036 -5.75390625 18.95703125 C-12.54698178 11.24970768 -12.54698178 11.24970768 -12.875 6.5625 C-12 3 -12 3 -9.9375 0.4375 C-5.89919446 -1.53869207 -4.27580297 -1.44942473 0 0 Z " fill="#354968" transform="translate(234,60)"/>
<path d="M0 0 C1.29063354 -0.00004028 2.58126709 -0.00008057 3.91101074 -0.00012207 C6.63811367 0.00152817 9.36439156 0.02016866 12.09130859 0.05175781 C15.57841109 0.091436 19.06443424 0.09580156 22.55171967 0.08829498 C25.8887768 0.08447892 29.22549615 0.10531481 32.5625 0.125 C33.81156128 0.12520142 35.06062256 0.12540283 36.34753418 0.12561035 C37.51224243 0.14152222 38.67695068 0.15743408 39.87695312 0.17382812 C40.89889771 0.18224731 41.92084229 0.1906665 42.97375488 0.19934082 C46.52225917 0.69785021 49.22898534 2.04148534 51.78125 4.59375 C52.25249825 11.89809783 52.25249825 11.89809783 50.46875 14.53125 C47.05474543 16.68080843 44.02924408 16.73743861 40.10400391 16.78662109 C38.93914459 16.80268402 37.77428528 16.81874695 36.5741272 16.83529663 C31.25677012 16.8797309 25.93955978 16.92123237 20.62207031 16.94384766 C17.81477319 16.95719365 15.00820183 16.98506125 12.20117188 17.02587891 C8.15742737 17.08467224 4.11446205 17.1025046 0.0703125 17.1171875 C-1.81269058 17.15119156 -1.81269058 17.15119156 -3.73373413 17.18588257 C-13.41864044 17.16231427 -13.41864044 17.16231427 -16.51025391 14.24853516 C-18.6319035 10.95176213 -19.0197568 9.43858264 -18.21875 5.59375 C-13.81605766 -1.21862572 -7.4757266 -0.0981269 0 0 Z " fill="#AAC0D3" transform="translate(355.21875,63.40625)"/>
<path d="M0 0 C3.30264141 0.75685532 4.86844207 1.78726865 6.95907593 4.44976807 C9.39909695 9.69521594 8.59420516 16.02726001 8.48828125 21.7109375 C8.47894647 23.18208613 8.4718335 24.65325039 8.46684265 26.12442017 C8.44782456 29.9815828 8.39877083 33.83779207 8.34332275 37.69458008 C8.29201676 41.6360993 8.26930456 45.57777378 8.24414062 49.51953125 C8.19064505 57.2426204 8.10539777 64.96492621 8 72.6875 C5.87318512 70.03681704 3.762372 67.37922583 1.6875 64.6875 C-0.22120679 62.32226503 -1.9499749 61.13790006 -4.61425781 59.71679688 C-7.01073392 58.02666213 -7.86953152 57.16568011 -8.64953613 54.30688477 C-8.89501332 51.25677393 -8.91761023 48.27830848 -8.859375 45.21875 C-8.86132874 44.10568481 -8.86328247 42.99261963 -8.86529541 41.8458252 C-8.86129997 39.49559773 -8.84004003 37.14534492 -8.80273438 34.79541016 C-8.75017532 31.19949479 -8.76156385 27.60788643 -8.78125 24.01171875 C-8.76943522 21.72653962 -8.75393391 19.44137597 -8.734375 17.15625 C-8.73822205 16.08217896 -8.74206909 15.00810791 -8.74603271 13.90148926 C-8.58168671 6.4703082 -8.58168671 6.4703082 -5.64160156 2.51367188 C-3 0.6875 -3 0.6875 0 0 Z " fill="#27AB88" transform="translate(141,386.3125)"/>
<path d="M0 0 C3.55484581 0.68071515 4.714546 1.76322459 6.9375 4.5625 C8.12600339 6.93950679 8.12193647 8.52211183 8.2097168 11.17651367 C8.24191818 12.13478561 8.27411957 13.09305756 8.30729675 14.08036804 C8.41808674 18.47461172 8.50035163 22.86871588 8.56225586 27.26391602 C8.60393213 29.5794625 8.66531521 31.89474188 8.74682617 34.20922852 C8.86258811 37.55057155 8.91252244 40.88743311 8.94921875 44.23046875 C8.99769455 45.25988083 9.04617035 46.28929291 9.09611511 47.34989929 C9.08838981 50.39340017 8.95828705 52.69039508 7.9375 55.5625 C5.58065055 57.86575106 3.24202124 59.45459622 0.38850403 61.09394836 C-2.94559967 63.0916209 -4.74006392 65.49089099 -7.0625 68.5625 C-7.3925 68.5625 -7.7225 68.5625 -8.0625 68.5625 C-8.17846849 60.43476579 -8.26725177 52.30737852 -8.32156086 44.17902088 C-8.34762982 40.4044499 -8.38297629 36.63044586 -8.43969727 32.85620117 C-8.49411681 29.21219519 -8.52394086 25.56873369 -8.53688622 21.92435265 C-8.54610857 20.53564573 -8.56411853 19.14696785 -8.59115028 17.75849342 C-8.62756071 15.81040256 -8.62954339 13.86176109 -8.63012695 11.91333008 C-8.64123001 10.8052449 -8.65233307 9.69715973 -8.66377258 8.55549622 C-7.67954571 3.65624191 -4.89278665 0.8986751 0 0 Z " fill="#27AA88" transform="translate(373.0625,386.4375)"/>
<path d="M0 0 C2.93841805 2.06331243 4.72304217 3.71532449 5.49700928 7.3053894 C5.72981263 10.21223586 5.79779693 13.07985136 5.8046875 15.99609375 C5.82609299 17.59554588 5.82609299 17.59554588 5.84793091 19.22731018 C5.86883119 21.47901226 5.87640696 23.73087211 5.87158203 25.98266602 C5.87498669 29.42404723 5.95293399 32.85854035 6.03515625 36.29882812 C6.04623165 38.48956501 6.052889 40.68032961 6.0546875 42.87109375 C6.0854538 43.89625595 6.11622009 44.92141815 6.1479187 45.97764587 C6.03569454 52.97900764 6.03569454 52.97900764 3.02862549 55.94338989 C0.74444065 57.47019869 -1.55903864 58.74463261 -4 60 C-6.50003792 61.91492266 -8.77691834 63.77691834 -11 66 C-11.1159815 58.13308783 -11.20475893 50.26637686 -11.25906086 42.39882374 C-11.28512695 38.74531107 -11.32046776 35.0923844 -11.37719727 31.43920898 C-11.43162765 27.91191052 -11.46144302 24.38517473 -11.47438622 20.85748863 C-11.48808639 18.86043598 -11.52710294 16.86360894 -11.56648254 14.86689758 C-11.56960711 4.76576414 -11.56960711 4.76576414 -8.65698242 1.67456055 C-5.35644952 -0.40559705 -3.82767148 -0.79743156 0 0 Z " fill="#27AA88" transform="translate(207,387)"/>
<path d="M0 0 C4.11124399 0.58732057 5.01435113 1.26033157 7.5 4.5 C7.98101807 7.3727417 7.98101807 7.3727417 7.95410156 10.73730469 C7.95379944 11.99830994 7.95349731 13.25931519 7.95318604 14.55853271 C7.93276105 15.92965326 7.91189709 17.30076733 7.890625 18.671875 C7.88316117 20.07862544 7.8774689 21.48538631 7.87347412 22.89215088 C7.8582286 26.58808282 7.81895731 30.28338227 7.7746582 33.97906494 C7.73368143 37.75288335 7.71545804 41.52680432 7.6953125 45.30078125 C7.65246099 52.70080864 7.58422405 60.10031557 7.5 67.5 C5.86019531 66.0651709 4.22120902 64.6293963 2.58624268 63.1890564 C0.54946332 61.45930989 0.54946332 61.45930989 -1.71368408 60.17349243 C-4.97625126 58.1802938 -7.12068584 56.80740056 -8.21520996 53.03485107 C-8.49352676 49.95925837 -8.50464089 46.98551241 -8.421875 43.8984375 C-8.42004211 42.78441559 -8.41820923 41.67039368 -8.4163208 40.52261353 C-8.40426428 38.17408137 -8.37281692 35.82557888 -8.32324219 33.47753906 C-8.25009576 29.87971027 -8.2412043 26.2859956 -8.2421875 22.6875 C-8.22252831 20.40361018 -8.19921562 18.11974828 -8.171875 15.8359375 C-8.16742371 14.75984222 -8.16297241 13.68374695 -8.15838623 12.57504272 C-8.13286682 11.57365265 -8.10734741 10.57226257 -8.08105469 9.54052734 C-8.0658075 8.6614975 -8.0505603 7.78246765 -8.03485107 6.87680054 C-6.99904802 2.2738421 -4.50259295 0.64322756 0 0 Z " fill="#27AA88" transform="translate(309.5,386.5)"/>
<path d="M0 0 C1.00289062 0.32484375 2.00578125 0.6496875 3.0390625 0.984375 C6.85716487 2.07087371 10.39450972 2.26668969 14.375 2.25 C15.59960938 2.25515625 16.82421875 2.2603125 18.0859375 2.265625 C22.544551 1.96304444 26.67734982 1.08966031 31 0 C31.14671745 3.49954984 31.23453588 6.99829703 31.3125 10.5 C31.35439453 11.48226562 31.39628906 12.46453125 31.43945312 13.4765625 C31.55253499 20.26147431 30.60462694 24.8648971 26 30 C21.54646214 33.5784817 17.49901865 33.62097337 11.953125 33.484375 C7.43054423 32.74257604 4.66543971 30.67894522 2 27 C0.32150525 23.41921121 -0.24142787 20.64208317 -0.1953125 16.69921875 C-0.18886719 15.72275391 -0.18242187 14.74628906 -0.17578125 13.74023438 C-0.15902344 12.73283203 -0.14226562 11.72542969 -0.125 10.6875 C-0.11597656 9.66076172 -0.10695312 8.63402344 -0.09765625 7.57617188 C-0.07416201 5.05054101 -0.04131131 2.5253919 0 0 Z " fill="#F9C0B8" transform="translate(161,83)"/>
<path d="M0 0 C2.64 0 5.28 0 8 0 C8.65104167 1.72526042 9.30208333 3.45052083 9.953125 5.17578125 C11.40373551 7.70352419 12.3776423 8.63719994 15 10 C18.15353902 10.41349782 21.26190678 10.37268941 24.4375 10.3125 C25.7069043 10.31733398 25.7069043 10.31733398 27.00195312 10.32226562 C33.26406426 10.29324142 33.26406426 10.29324142 39 8 C40.43260826 6.09318531 40.43260826 6.09318531 41.3125 3.875 C41.63863281 3.15054687 41.96476562 2.42609375 42.30078125 1.6796875 C42.53152344 1.12539063 42.76226562 0.57109375 43 0 C45.64 0 48.28 0 51 0 C51.42064893 6.09940955 51.08964656 9.13663653 47 14 C40.68542187 19.56284263 36.1373208 19.27596374 27.8984375 19.35009766 C25.9032652 19.37465214 23.90857036 19.43123911 21.9140625 19.48828125 C15.13377384 19.55004501 10.03071689 19.45076573 4.42236328 15.41015625 C0.79098732 11.80994555 0.0477228 8.00217875 -0.1875 3.0625 C-0.125625 2.051875 -0.06375 1.04125 0 0 Z " fill="#1C9385" transform="translate(316,341)"/>
<path d="M0 0 C2.64 0 5.28 0 8 0 C8.22042969 0.88751953 8.22042969 0.88751953 8.4453125 1.79296875 C9.73407922 6.33327909 10.98990961 10.29581822 14.99609375 13.1875 C20.6691927 15.48770386 26.93350876 14.81183585 32.5 12.625 C36.02490308 8.92385177 37.43959423 4.8097213 39 0 C41.31 0 43.62 0 46 0 C46.34675918 5.54814691 45.86642386 10.13663419 43 15 C38.28648489 20.31862854 32.81415261 24.2859007 25.65625 25.34765625 C18.98640711 25.74908198 14.29584788 24.01753977 9 20 C3.59686658 15.13953937 0.26973576 9.31577219 -0.1875 2 C-0.125625 1.34 -0.06375 0.68 0 0 Z " fill="#0584BE" transform="translate(153,101)"/>
<path d="M0 0 C2.31 0 4.62 0 7 0 C7.23074219 0.55429687 7.46148437 1.10859375 7.69921875 1.6796875 C8.02535156 2.40414063 8.35148437 3.12859375 8.6875 3.875 C9.00074219 4.59429687 9.31398438 5.31359375 9.63671875 6.0546875 C11.53466754 8.76293534 12.78113117 9.16891591 16 10 C19.33757658 10.34847517 22.64607145 10.41562655 26 10.4375 C26.88945313 10.47037109 27.77890625 10.50324219 28.6953125 10.53710938 C33.26945655 10.57465832 35.3240737 10.52234612 39.04296875 7.6484375 C40.90283162 5.13149733 42.0647437 2.97581549 43 0 C45.64 0.33 48.28 0.66 51 1 C51.45858928 6.73236598 50.65645061 9.55296547 47 14 C40.63669607 19.60576775 35.49504611 19.24864965 27.36132812 19.29516602 C25.27145952 19.31232382 23.18319666 19.35620219 21.09375 19.40039062 C19.75521993 19.41052311 18.41667644 19.41903748 17.078125 19.42578125 C15.25909668 19.44765503 15.25909668 19.44765503 13.40332031 19.4699707 C8.52393858 18.79616799 5.40755332 16.60169861 2.1875 12.9375 C-0.45608768 8.624278 -0.08011481 4.88700325 0 0 Z " fill="#5858B3" transform="translate(60,437)"/>
<path d="M0 0 C2.64 0 5.28 0 8 0 C8.5271214 5.90375972 7.79845892 9.21359396 4.6796875 14.23828125 C1.61079907 17.45704562 -1.8568013 18.85708937 -6.23217773 19.40405273 C-9.96800844 19.43602808 -13.70152821 19.45785448 -17.4375 19.4375 C-18.73494141 19.45748047 -20.03238281 19.47746094 -21.36914062 19.49804688 C-28.39887179 19.49444742 -33.39937719 19.45177711 -39 15 C-42.09134023 11.67622817 -42.96442549 8.56029855 -43.25 4.0625 C-43.1675 3.051875 -43.085 2.04125 -43 1 C-40.36 1 -37.72 1 -35 1 C-34.566875 1.928125 -34.13375 2.85625 -33.6875 3.8125 C-31.81486606 7.3527897 -31.81486606 7.3527897 -29 10 C-25.40622065 10.6366629 -21.76883779 10.46329293 -18.125 10.4375 C-17.13113281 10.45748047 -16.13726562 10.47746094 -15.11328125 10.49804688 C-10.6398604 10.49505262 -7.80154174 10.46966122 -3.88671875 8.17578125 C-1.64429546 5.58979829 -0.82482987 3.29931947 0 0 Z " fill="#5858B3" transform="translate(444,437)"/>
<path d="M0 0 C2.97 0 5.94 0 9 0 C9.433125 1.11375 9.86625 2.2275 10.3125 3.375 C11.69911119 7.17512334 11.69911119 7.17512334 15 9 C18.60870301 9.48479151 22.23718732 9.41643159 25.875 9.4375 C27.36580078 9.48680664 27.36580078 9.48680664 28.88671875 9.53710938 C34.96204202 9.59758762 34.96204202 9.59758762 40.14453125 6.6171875 C41.80496694 4.27509926 42.68628069 2.8234738 43 0 C45.64 0 48.28 0 51 0 C51.315109 5.2518167 50.8689708 8.54814877 48 13 C41.72614963 18.8033116 35.89423468 18.24641569 27.71313477 18.29516602 C25.70500808 18.31235018 23.69716826 18.35625424 21.68945312 18.40039062 C19.77616211 18.41295898 19.77616211 18.41295898 17.82421875 18.42578125 C16.65979248 18.44036377 15.49536621 18.45494629 14.2956543 18.4699707 C9.30705088 17.75858011 6.27604072 15.20706555 2.6875 11.8125 C0.31291352 7.85485586 0.27395048 4.58867052 0 0 Z " fill="#5757B3" transform="translate(230,438)"/>
<path d="M0 0 C2.64 0 5.28 0 8 0 C8.61875 1.3921875 8.61875 1.3921875 9.25 2.8125 C11.00571983 6.01041827 11.95393255 7.15403221 15 9 C18.45786527 9.60680384 21.93195481 9.46378561 25.4375 9.4375 C26.37916016 9.45748047 27.32082031 9.47746094 28.29101562 9.49804688 C32.6588104 9.49496445 35.27731333 9.43562965 39.078125 7.14453125 C41.13142076 4.85335366 42.10491096 2.92938231 43 0 C45.64 0 48.28 0 51 0 C51.40153693 4.9188274 50.83582501 8.08350809 48.55859375 12.32421875 C43.94218308 17.28772796 39.79222337 18.25850443 33.18359375 18.53125 C30.60156315 18.54182667 28.01936877 18.53078234 25.4375 18.5 C23.48553711 18.52320313 23.48553711 18.52320313 21.49414062 18.546875 C20.23666016 18.54171875 18.97917969 18.5365625 17.68359375 18.53125 C16.54462646 18.52673828 15.40565918 18.52222656 14.23217773 18.51757812 C9.13886807 17.70197147 6.04098508 15.18165874 2.6875 11.375 C-0.15443015 7.37524645 -0.09071552 4.89863819 0 0 Z " fill="#1A9285" transform="translate(147,342)"/>
<path d="M0 0 C2.12583688 2.19035062 2.93628497 3.52005911 3.34057617 6.56542969 C3.32486572 7.50805664 3.30915527 8.45068359 3.29296875 9.421875 C3.28330078 10.44667969 3.27363281 11.47148437 3.26367188 12.52734375 C3.23853516 13.59082031 3.21339844 14.65429688 3.1875 15.75 C3.16719727 17.36841797 3.16719727 17.36841797 3.14648438 19.01953125 C3.11116973 21.67990121 3.05736391 24.34001413 3 27 C9.93 27 16.86 27 24 27 C24 27.33 24 27.66 24 28 C11.79 28 -0.42 28 -13 28 C-13.061875 24.473125 -13.12375 20.94625 -13.1875 17.3125 C-13.21481201 16.20946533 -13.24212402 15.10643066 -13.27026367 13.9699707 C-13.34718791 4.92682289 -13.34718791 4.92682289 -10 1 C-6.63141151 -1.55548092 -3.95618668 -1.17843858 0 0 Z " fill="#6771CF" transform="translate(292,484)"/>
<path d="M0 0 C2.84780619 2.23206431 3.84997666 3.54992999 5 7 C5.08178114 8.70016844 5.10749501 10.40336297 5.09765625 12.10546875 C5.09515869 12.99129639 5.09266113 13.87712402 5.09008789 14.78979492 C5.08098389 15.9110376 5.07187988 17.03228027 5.0625 18.1875 C5.041875 21.755625 5.02125 25.32375 5 29 C-7.21 29 -19.42 29 -32 29 C-32 28.67 -32 28.34 -32 28 C-25.07 28 -18.14 28 -11 28 C-11.07881957 21.31392016 -11.07881957 21.31392016 -11.18017578 14.62817383 C-11.1851709 13.78794678 -11.19016602 12.94771973 -11.1953125 12.08203125 C-11.20578613 11.22843018 -11.21625977 10.3748291 -11.22705078 9.49536133 C-10.9661628 6.62811825 -10.30583815 4.56366355 -9 2 C-5.50875983 -0.32749345 -4.10777749 -0.50299316 0 0 Z " fill="#6771CF" transform="translate(227,483)"/>
<path d="M0 0 C4.4178761 1.30900033 4.4178761 1.30900033 6.375 4 C6.71557617 6.63549805 6.71557617 6.63549805 6.66796875 9.76171875 C6.65672974 11.27318481 6.65672974 11.27318481 6.64526367 12.81518555 C6.61795166 14.09304932 6.59063965 15.37091309 6.5625 16.6875 C6.500625 20.750625 6.43875 24.81375 6.375 29 C-5.835 29 -18.045 29 -30.625 29 C-30.625 28.67 -30.625 28.34 -30.625 28 C-23.365 28 -16.105 28 -8.625 28 C-8.68300781 26.39769531 -8.74101562 24.79539062 -8.80078125 23.14453125 C-8.84768454 21.03388331 -8.89318408 18.92320385 -8.9375 16.8125 C-8.97939453 15.75740234 -9.02128906 14.70230469 -9.06445312 13.61523438 C-9.18780338 5.79482795 -9.18780338 5.79482795 -6.33203125 1.76171875 C-3.625 0 -3.625 0 0 0 Z " fill="#6671CE" transform="translate(395.625,483)"/>
<path d="M0 0 C4.39871657 1.30332343 4.39871657 1.30332343 6.375 4 C6.71557617 6.54370117 6.71557617 6.54370117 6.66796875 9.54296875 C6.65830078 10.61611328 6.64863281 11.68925781 6.63867188 12.79492188 C6.61353516 13.91447266 6.58839844 15.03402344 6.5625 16.1875 C6.54896484 17.31865234 6.53542969 18.44980469 6.52148438 19.61523438 C6.48610305 22.41035882 6.43229579 25.20523889 6.375 28 C13.305 28 20.235 28 27.375 28 C27.375 28.33 27.375 28.66 27.375 29 C15.495 29 3.615 29 -8.625 29 C-8.728125 25.143125 -8.83125 21.28625 -8.9375 17.3125 C-9.00578003 15.5013269 -9.00578003 15.5013269 -9.07543945 13.65356445 C-9.17754008 5.7878638 -9.17754008 5.7878638 -6.33203125 1.73046875 C-3.625 0 -3.625 0 0 0 Z " fill="#6771CE" transform="translate(117.625,483)"/>
<path d="M0 0 C3.2115575 2.74740539 4.76265573 4.42947559 5.40039062 8.64941406 C5.49188656 11.73892679 5.43610695 14.78672783 5.3125 17.875 C5.28994141 18.94492187 5.26738281 20.01484375 5.24414062 21.1171875 C5.18547524 23.74539692 5.09580252 26.37288214 5 29 C-0.28 29 -5.56 29 -11 29 C-11.05402584 25.43729627 -11.0936875 21.87541477 -11.125 18.3125 C-11.14175781 17.30509766 -11.15851563 16.29769531 -11.17578125 15.25976562 C-11.18544922 13.79506836 -11.18544922 13.79506836 -11.1953125 12.30078125 C-11.20578613 11.40528564 -11.21625977 10.50979004 -11.22705078 9.5871582 C-10.97139112 6.67401254 -10.33247568 4.60045888 -9 2 C-5.47427193 -0.35048538 -4.14986355 -0.66397817 0 0 Z " fill="#676FCF" transform="translate(461,483)"/>
<path d="M0 0 C4.4178761 1.30900033 4.4178761 1.30900033 6.375 4 C6.71557617 6.63549805 6.71557617 6.63549805 6.66796875 9.76171875 C6.65830078 10.87998047 6.64863281 11.99824219 6.63867188 13.15039062 C6.61353516 14.31763672 6.58839844 15.48488281 6.5625 16.6875 C6.54896484 17.86634766 6.53542969 19.04519531 6.52148438 20.25976562 C6.48609645 23.17337133 6.43228911 26.08674264 6.375 29 C1.425 29 -3.525 29 -8.625 29 C-8.75999972 25.10300813 -8.8591331 21.21069347 -8.9375 17.3125 C-8.97939453 16.20970703 -9.02128906 15.10691406 -9.06445312 13.97070312 C-9.18783914 5.80254916 -9.18783914 5.80254916 -6.33203125 1.73046875 C-3.625 0 -3.625 0 0 0 Z " fill="#676FCE" transform="translate(54.625,483)"/>
<path d="M0 0 C0.680625 -0.02191406 1.36125 -0.04382813 2.0625 -0.06640625 C4 0.5625 4 0.5625 5.73828125 2.546875 C7.43152499 6.5938848 7.32917292 10.04126158 7.1875 14.375 C7.17396484 15.16326172 7.16042969 15.95152344 7.14648438 16.76367188 C7.11133456 18.69691169 7.05753361 20.62979682 7 22.5625 C2.38 22.5625 -2.24 22.5625 -7 22.5625 C-7.08103404 19.64527452 -7.14051081 16.73030484 -7.1875 13.8125 C-7.21263672 12.9875 -7.23777344 12.1625 -7.26367188 11.3125 C-7.33710618 5.24193072 -7.33710618 5.24193072 -5.73828125 2.01953125 C-3.67802966 0.29262374 -2.66920662 -0.00505532 0 0 Z " fill="#019BE6" transform="translate(203,141.4375)"/>
<path d="M0 0 C2.1451757 1.57963219 2.9074434 2.43344746 3.34057617 5.0847168 C3.32486572 5.86500244 3.30915527 6.64528809 3.29296875 7.44921875 C3.28330078 8.29677734 3.27363281 9.14433594 3.26367188 10.01757812 C3.23853516 10.89865234 3.21339844 11.77972656 3.1875 12.6875 C3.17396484 13.58017578 3.16042969 14.47285156 3.14648438 15.39257812 C3.11114643 17.59530983 3.05733969 19.7977312 3 22 C-1.62 22 -6.24 22 -11 22 C-11.10806144 19.08234109 -11.18732877 16.16868875 -11.25 13.25 C-11.28351563 12.425 -11.31703125 11.6 -11.3515625 10.75 C-11.45010531 4.6403459 -11.45010531 4.6403459 -9.20703125 1.44921875 C-6.01031082 -0.6498667 -3.73522133 -0.47539181 0 0 Z " fill="#019BE6" transform="translate(151,142)"/>
<path d="M0 0 C1.00289062 0.32484375 2.00578125 0.6496875 3.0390625 0.984375 C12.06563091 3.55302142 22.07520236 2.50520635 31 0 C31 2.97 31 5.94 31 9 C25.45900966 11.78894054 21.10276191 12.46755606 14.9375 12.375 C14.16083984 12.38660156 13.38417969 12.39820312 12.58398438 12.41015625 C7.64451984 12.3850616 4.32820802 11.61770021 0 9 C0 6.03 0 3.06 0 0 Z " fill="#F2AA9A" transform="translate(161,83)"/>
<path d="M0 0 C3 0.5625 3 0.5625 5.375 2 C7.83940188 5.88617219 7.2675687 9.01383209 7 13.5625 C2.38 13.5625 -2.24 13.5625 -7 13.5625 C-7.4820394 6.45241889 -7.4820394 6.45241889 -5.375 2.5625 C-3 0.5625 -3 0.5625 0 0 Z " fill="#2A3A51" transform="translate(185,16.4375)"/>
<path d="M0 0 C0.33 0 0.66 0 1 0 C1 8.91 1 17.82 1 27 C0.67 27 0.34 27 0 27 C-0.06058594 25.95199219 -0.12117188 24.90398437 -0.18359375 23.82421875 C-0.26801738 22.44529952 -0.35266447 21.06639395 -0.4375 19.6875 C-0.47681641 18.99720703 -0.51613281 18.30691406 -0.55664062 17.59570312 C-0.74927415 14.52838465 -1.02322717 11.93031848 -2 9 C-1.66015625 6.73828125 -1.66015625 6.73828125 -1.0625 4.3125 C-0.86785156 3.50425781 -0.67320313 2.69601562 -0.47265625 1.86328125 C-0.31667969 1.24839844 -0.16070312 0.63351562 0 0 Z " fill="#D1BAAD" transform="translate(121,360)"/>
<path d="M0 0 C0.66 0.33 1.32 0.66 2 1 C-1.3 4.3 -4.6 7.6 -8 11 C-8.33 10.34 -8.66 9.68 -9 9 C-8.06725891 7.87105124 -7.12859878 6.74699124 -6.1875 5.625 C-5.66542969 4.99851562 -5.14335938 4.37203125 -4.60546875 3.7265625 C-3 2 -3 2 0 0 Z " fill="#61637A" transform="translate(61,326)"/>
<path d="M0 0 C0.66 0.33 1.32 0.66 2 1 C-1.3 4.3 -4.6 7.6 -8 11 C-8 7.0234755 -6.61988497 5.9109833 -4 3 C-1.75 1.1875 -1.75 1.1875 0 0 Z " fill="#66667C" transform="translate(402,326)"/>
<path d="M0 0 C-1.38188453 3.21043882 -2.92421903 5.04936365 -5.625 7.25 C-6.57246094 8.03117188 -6.57246094 8.03117188 -7.5390625 8.828125 C-8.02117187 9.21484375 -8.50328125 9.6015625 -9 10 C-7.6834994 5.81113445 -4.97532335 0 0 0 Z " fill="#606379" transform="translate(317,231)"/>
<path d="M0 0 C0.66 0.33 1.32 0.66 2 1 C-0.64 3.64 -3.28 6.28 -6 9 C-6 6 -6 6 -3.5625 3.375 C-2.716875 2.59125 -1.87125 1.8075 -1 1 C-0.67 0.67 -0.34 0.34 0 0 Z " fill="#65667B" transform="translate(152,1)"/>
</svg>
