<?xml version="1.0" encoding="UTF-8"?>
<svg version="1.1" xmlns="http://www.w3.org/2000/svg" width="512" height="512">
<path d="M0 0 C7.4373696 5.34904415 11.75424217 11.51115235 13.62890625 20.5234375 C13.91211667 23.70525674 13.9227749 26.87071561 13.91943359 30.0637207 C13.92615082 30.99477631 13.93286804 31.92583191 13.93978882 32.88510132 C13.95871092 35.94819548 13.9626901 39.01106985 13.96484375 42.07421875 C13.9712757 44.21502267 13.97800435 46.35582571 13.98501587 48.49662781 C13.99697418 52.97946205 14.00069818 57.4622193 13.99951172 61.94506836 C13.99930862 67.67129047 14.02660851 73.39701582 14.06105614 79.12312031 C14.08336314 83.543963 14.08734809 87.96468686 14.08629227 92.38558006 C14.08864258 94.4957672 14.09743377 96.6059579 14.112957 98.71608925 C14.13269371 101.67606395 14.12674869 104.63497655 14.11474609 107.5949707 C14.12598511 108.45504227 14.13722412 109.31511383 14.14880371 110.20124817 C14.07399823 117.51153108 12.3937163 124.61311113 7.25390625 130.0234375 C5.24328961 133.11669386 5.61568322 133.99386965 6.31640625 137.5234375 C6.74168998 139.19326317 7.17926009 140.8600066 7.62890625 142.5234375 C7.973346 144.18784435 8.30991793 145.85396592 8.62890625 147.5234375 C9.43972656 147.719375 10.25054687 147.9153125 11.0859375 148.1171875 C22.25269804 151.13312283 30.98616946 156.02754156 37.41015625 165.859375 C40.90356915 173.4956173 42.0233807 180.51472769 41.7890625 188.8515625 C41.7772195 190.8059781 41.76752132 192.76040766 41.75976562 194.71484375 C41.73309721 197.74134157 41.69162994 200.76493195 41.61206055 203.79052734 C41.31702432 216.22665926 41.64899249 225.02248422 50.13256836 234.58935547 C60.87746371 247.21841683 61.86277221 263.73247769 60.62890625 279.5234375 C59.83614467 283.8717585 58.52809934 287.54363586 56.62890625 291.5234375 C55.93474609 293.06644531 55.93474609 293.06644531 55.2265625 294.640625 C48.6429109 308.06547936 38.56948207 318.66209327 26.62890625 327.5234375 C25.68789063 328.23242188 24.746875 328.94140625 23.77734375 329.671875 C9.13378543 340.5234375 9.13378543 340.5234375 5.62890625 340.5234375 C5.97307836 345.19338069 6.59348696 349.2785864 8.62890625 353.5234375 C11.8887162 355.34769429 14.8170427 356.05929803 18.4609375 356.83984375 C22.46104927 357.7029998 24.46995103 358.99627332 27.62890625 361.5234375 C28.45390625 362.0803125 29.27890625 362.6371875 30.12890625 363.2109375 C37.8255319 370.33031623 41.54418144 379.46476584 42.12890625 389.8359375 C42.02008598 393.67487475 41.70831318 394.4189547 39.25390625 397.6484375 C36.62890625 399.5234375 36.62890625 399.5234375 34.62890625 399.5234375 C34.62890625 407.4434375 34.62890625 415.3634375 34.62890625 423.5234375 C36.27890625 424.1834375 37.92890625 424.8434375 39.62890625 425.5234375 C42.18037302 429.35063765 42.06403162 430.9546211 41.62890625 435.5234375 C39.84556309 441.70248054 37.66281634 446.34897547 32.62890625 450.5234375 C31.82453125 451.2453125 31.02015625 451.9671875 30.19140625 452.7109375 C24.26500375 456.90278317 18.21883205 456.85227166 11.22753906 456.92504883 C9.67488594 456.95199074 9.67488594 456.95199074 8.09086609 456.97947693 C4.67129129 457.03411015 1.25187767 457.0721527 -2.16796875 457.10546875 C-3.3425489 457.11736425 -4.51712906 457.12925976 -5.72730255 457.14151573 C-11.95309265 457.20078449 -18.17880911 457.24461163 -24.40478516 457.27856445 C-29.52838185 457.30961459 -34.65007303 457.37210984 -39.77294922 457.46313477 C-45.98526559 457.57341724 -52.19584513 457.62825794 -58.40909576 457.64496422 C-60.76126009 457.66011538 -63.11338955 457.69385879 -65.46498871 457.74759865 C-80.86247476 458.07982042 -91.18282855 456.28269969 -103.59522438 446.85681629 C-106.15036603 444.93833526 -108.82547856 443.25909173 -111.52734375 441.5546875 C-113.31016789 440.37998975 -115.09144207 439.20293597 -116.87109375 438.0234375 C-124.69089096 432.86447946 -132.56808077 427.85287407 -140.70117188 423.19921875 C-147.5565889 419.15510975 -151.91163729 414.29014211 -154.37109375 406.5234375 C-155.32241475 398.56101106 -153.90707684 392.1352922 -149.30859375 385.5859375 C-147.37109375 383.5234375 -147.37109375 383.5234375 -145.37109375 382.5234375 C-146.29921875 382.5941748 -147.22734375 382.66491211 -148.18359375 382.73779297 C-162.47227869 383.72350373 -176.76945907 383.67695346 -191.08398438 383.65380859 C-194.6538038 383.64811186 -198.22354861 383.65148893 -201.79336548 383.65726089 C-216.34264751 383.67708829 -230.85524493 383.62976695 -245.37109375 382.5234375 C-244.94103027 382.96800293 -244.5109668 383.41256836 -244.06787109 383.87060547 C-239.26433774 388.93210923 -236.47298251 394.02674703 -236.3125 401.109375 C-236.94314171 410.04570216 -240.12930203 414.60900385 -246.74462891 420.40087891 C-251.0892852 423.91198151 -255.78324502 426.76522285 -260.55859375 429.6484375 C-262.67764635 430.94960436 -264.79612235 432.25171066 -266.9140625 433.5546875 C-267.98317871 434.20953125 -269.05229492 434.864375 -270.15380859 435.5390625 C-275.26036836 438.68871478 -280.31614203 441.91683121 -285.37109375 445.1484375 C-287.12091798 446.26590029 -288.87090876 447.38310233 -290.62109375 448.5 C-291.348125 448.96486816 -292.07515625 449.42973633 -292.82421875 449.90869141 C-293.6646875 450.44155762 -294.50515625 450.97442383 -295.37109375 451.5234375 C-295.90552345 451.92927504 -296.43995316 452.33511257 -296.9905777 452.75324821 C-302.68158701 456.81873615 -307.28818285 457.23184987 -314.15820312 457.13867188 C-315.20966019 457.14422089 -316.26111725 457.1497699 -317.34443665 457.15548706 C-320.80171038 457.16724655 -324.25766271 457.14304393 -327.71484375 457.1171875 C-330.12805115 457.11547534 -332.54126041 457.11554315 -334.95446777 457.11730957 C-340.00482041 457.11565841 -345.05472806 457.09699683 -350.10498047 457.06542969 C-356.56782635 457.02575349 -363.0300898 457.02138596 -369.49303436 457.02889252 C-374.47399194 457.03196691 -379.4548194 457.01982487 -384.43574524 457.00276184 C-386.81829512 456.99574717 -389.20085974 456.99260544 -391.5834198 456.99345398 C-394.91721072 456.99164964 -398.25031305 456.97021228 -401.58398438 456.94335938 C-402.56188431 456.94628998 -403.53978424 456.94922058 -404.5473175 456.95223999 C-411.57953311 456.86516162 -416.87444588 455.60477552 -422.99609375 451.9609375 C-428.50576847 446.30627134 -432.46123337 439.4485103 -432.5480957 431.4921875 C-432.56093094 430.46681885 -432.57376617 429.4414502 -432.58699036 428.38500977 C-432.59437729 427.27569092 -432.60176422 426.16637207 -432.609375 425.0234375 C-432.61744675 423.87738037 -432.62551849 422.73132324 -432.63383484 421.55053711 C-432.64767768 419.11948153 -432.65839893 416.6884065 -432.66625977 414.25732422 C-432.68339757 410.56569658 -432.72727465 406.87498205 -432.77148438 403.18359375 C-432.78161819 400.8177149 -432.79013213 398.45182845 -432.796875 396.0859375 C-432.81438309 394.9928125 -432.83189117 393.8996875 -432.84992981 392.7734375 C-432.81800432 381.3088339 -429.48248418 371.77996215 -421.37109375 363.5234375 C-416.39434013 359.16025624 -411.93463652 357.36310904 -405.49609375 355.9609375 C-402.14170049 355.21017435 -402.14170049 355.21017435 -399.37109375 353.5234375 C-397.34529235 349.27613064 -396.71514527 345.19174444 -396.37109375 340.5234375 C-397.05429687 340.28238281 -397.7375 340.04132813 -398.44140625 339.79296875 C-420.01065945 330.44629236 -438.58028681 311.23187656 -448.03125 289.99609375 C-453.01190944 277.08703766 -453.51835718 261.60772399 -448.69921875 248.5078125 C-442.41104259 234.37791078 -442.41104259 234.37791078 -438.60693359 230.91967773 C-432.39408574 224.81983385 -432.62851119 218.44149031 -432.54414368 210.22244263 C-432.546919 207.17632151 -432.5810391 204.13178003 -432.62109375 201.0859375 C-432.63995257 198.03927077 -432.64852424 194.99323548 -432.64080811 191.94651794 C-432.63816507 190.05979723 -432.65142601 188.17295737 -432.68389893 186.28651428 C-432.7206167 174.8616745 -429.15686539 165.92692325 -421.37109375 157.5234375 C-414.73796743 152.01422971 -407.76182778 149.22755176 -399.37109375 147.5234375 C-399.23574219 146.81960937 -399.10039062 146.11578125 -398.9609375 145.390625 C-395.01633827 127.29743334 -386.45858578 115.90071114 -371.37109375 105.5234375 C-371.65404297 104.8641626 -371.93699219 104.2048877 -372.22851562 103.52563477 C-376.11977087 93.02728116 -375.98016458 82.76788296 -375.89257812 71.6940918 C-375.87111356 68.46391934 -375.89247114 65.23596482 -375.91796875 62.00585938 C-375.94075892 45.41901508 -373.90779963 31.447613 -362.12109375 18.7734375 C-351.70615693 9.04671236 -339.43175265 5.29591875 -325.37109375 5.5234375 C-312.66024019 7.02655796 -302.47198225 12.35854972 -293.671875 21.59375 C-287.79695257 29.07455105 -283.28398974 37.98326338 -283.20996094 47.6081543 C-283.20035339 48.61988205 -283.19074585 49.6316098 -283.18084717 50.67399597 C-283.17447235 52.30683281 -283.17447235 52.30683281 -283.16796875 53.97265625 C-283.16226868 55.09984573 -283.1565686 56.22703522 -283.1506958 57.38838196 C-283.14125096 59.77478092 -283.13471387 62.16119289 -283.13085938 64.54760742 C-283.12117686 68.17975968 -283.09015723 71.81134044 -283.05859375 75.44335938 C-283.052061 77.76562165 -283.0468116 80.08788796 -283.04296875 82.41015625 C-283.03062195 83.48859299 -283.01827515 84.56702972 -283.0055542 85.67814636 C-283.022532 91.49084825 -283.56611513 96.26721154 -285.72637939 101.68757629 C-286.53676402 103.67089717 -286.53676402 103.67089717 -286.37109375 106.5234375 C-284.98298621 107.50526966 -283.58519599 108.47595441 -282.14453125 109.37890625 C-270.19342566 117.09184444 -263.46195618 129.64475672 -260.05859375 143.2109375 C-259.18398102 147.67391459 -259.22710377 151.98775305 -259.37109375 156.5234375 C-258.45070313 156.39066406 -257.5303125 156.25789062 -256.58203125 156.12109375 C-247.85615722 154.90373658 -239.17947551 153.93026931 -230.37109375 153.5234375 C-229.67709473 153.48943848 -228.9830957 153.45543945 -228.26806641 153.42041016 C-226.09406561 153.32491893 -223.92153478 153.26290458 -221.74609375 153.2109375 C-220.43382812 153.17355469 -219.1215625 153.13617188 -217.76953125 153.09765625 C-214.37109375 153.5234375 -214.37109375 153.5234375 -211.91015625 155.35546875 C-210.37109375 157.5234375 -210.37109375 157.5234375 -210.37109375 160.5234375 C-209.18032227 160.51820068 -207.98955078 160.51296387 -206.76269531 160.50756836 C-202.34213005 160.48945962 -197.92156806 160.47798397 -193.50097656 160.46850586 C-191.58821054 160.46347909 -189.67544835 160.45665673 -187.76269531 160.44799805 C-185.01236015 160.43586002 -182.26207582 160.4301926 -179.51171875 160.42578125 C-178.65741272 160.42061996 -177.80310669 160.41545868 -176.9229126 160.41014099 C-175.72212067 160.41002769 -175.72212067 160.41002769 -174.49707031 160.40991211 C-173.79535706 160.4076915 -173.0936438 160.40547089 -172.3706665 160.40318298 C-170.26514287 160.5298094 -168.39701747 160.95023729 -166.37109375 161.5234375 C-166.24734375 160.7396875 -166.12359375 159.9559375 -165.99609375 159.1484375 C-165.37109375 156.5234375 -165.37109375 156.5234375 -163.37109375 154.5234375 C-160.76447985 154.31899719 -158.28947284 154.24143197 -155.68359375 154.2734375 C-154.93279541 154.27730469 -154.18199707 154.28117188 -153.40844727 154.28515625 C-145.96152538 154.39769238 -138.71631037 155.32596405 -131.37109375 156.5234375 C-131.4175 155.96398437 -131.46390625 155.40453125 -131.51171875 154.828125 C-132.1453473 140.75251943 -126.50756455 127.38565415 -117.55859375 116.7109375 C-113.65563463 112.51355787 -109.29080695 109.42743488 -104.37109375 106.5234375 C-104.87201677 103.7683609 -105.47546574 101.22035827 -106.38916016 98.56713867 C-107.86564485 93.41876137 -107.69590407 88.20453097 -107.70703125 82.88671875 C-107.71368805 81.77088913 -107.72034485 80.65505951 -107.72720337 79.50541687 C-107.73730184 77.14954265 -107.74202126 74.79363998 -107.74169922 72.43774414 C-107.7460584 68.86490729 -107.78237145 65.29332065 -107.8203125 61.72070312 C-107.82618429 59.42187918 -107.83015126 57.12304943 -107.83203125 54.82421875 C-107.84640228 53.77067703 -107.86077332 52.71713531 -107.87557983 51.63166809 C-107.80024719 39.17373297 -103.79321897 28.7240785 -95.37109375 19.5234375 C-84.97064033 10.16143181 -72.91295262 5.26753775 -58.96484375 5.3515625 C-56.38368061 5.52260343 -54.06684082 5.96723655 -51.55859375 6.5859375 C-46.9156299 7.72545242 -46.9156299 7.72545242 -42.37109375 6.5234375 C-41.28333036 5.44415019 -40.2240573 4.33589345 -39.18359375 3.2109375 C-29.1571138 -7.24586348 -11.93328362 -7.43127053 0 0 Z " fill="#010101" transform="translate(451.37109375,55.4765625)"/>
<path d="M0 0 C5.62336914 -0.02473065 11.24670657 -0.04287459 16.87011719 -0.05493164 C18.78288321 -0.05995841 20.6956454 -0.06678077 22.60839844 -0.07543945 C25.3587336 -0.08757748 28.10901793 -0.0932449 30.859375 -0.09765625 C31.71368103 -0.10281754 32.56798706 -0.10797882 33.44818115 -0.11329651 C34.64897308 -0.11340981 34.64897308 -0.11340981 35.87402344 -0.11352539 C36.57573669 -0.115746 37.27744995 -0.11796661 38.00042725 -0.12025452 C40.16676723 0.0100294 41.96006314 0.24509532 44 1 C44.45375 1.969375 44.9075 2.93875 45.375 3.9375 C46.68668334 7.15343494 46.68668334 7.15343494 49.4453125 8.13671875 C54.12354555 9.27286106 58.7053035 9.56432767 63.5 9.875 C94.07869719 12.17135847 124.73918028 16.63178906 154 26 C155.00498535 26.31952637 156.0099707 26.63905273 157.04541016 26.96826172 C191.40149727 38.02799002 233.85729249 54.2377985 251.4375 88.3125 C256.28364543 98.2028622 256.77794841 110.94185135 254.09375 121.59765625 C252.90668314 124.5462999 251.58625259 127.24713837 250 130 C249.55398438 130.78375 249.10796875 131.5675 248.6484375 132.375 C239.52280128 147.05758789 224.56710659 159.44337246 209 167 C205.76258518 165.92086173 205.38100788 165.46247616 203.4375 162.875 C199.67034753 158.26858318 194.95265809 155.22020655 190 152 C190.2901934 150.66634524 190.58225892 149.33309785 190.875 148 C191.11863281 146.88625 191.11863281 146.88625 191.3671875 145.75 C191.85403164 143.63433163 192.41983392 141.5367198 193.01855469 139.44995117 C194.21794439 134.63976433 194.32345299 129.98913898 194.3359375 125.05078125 C194.3425943 124.11630661 194.3492511 123.18183197 194.35610962 122.21903992 C194.36618632 120.24996899 194.37092819 118.28086426 194.37060547 116.31176758 C194.37496247 113.33811465 194.41129098 110.36596764 194.44921875 107.39257812 C194.54589838 91.23802153 192.67599007 76.81014591 180.74609375 64.71484375 C169.06325222 54.68222702 156.28830282 52.09326497 141.39257812 52.77783203 C130.94290314 53.74815899 121.94510635 59.54366993 115.03515625 67.16796875 C106.41188819 77.76018596 103.67442147 87.92419598 103.734375 101.44140625 C103.73246155 102.40852036 103.7305481 103.37563446 103.72857666 104.37205505 C103.72722397 106.40323143 103.73085591 108.43441672 103.73925781 110.46557617 C103.74998206 113.55732793 103.73932508 116.64850028 103.7265625 119.74023438 C103.72788403 121.7239596 103.73044629 123.70768447 103.734375 125.69140625 C103.72830231 127.06360069 103.72830231 127.06360069 103.72210693 128.46351624 C103.7696684 135.03668561 104.66490206 140.66225514 107.125 146.8125 C108 149 108 149 108 152 C105.83984375 153.76171875 105.83984375 153.76171875 102.9375 155.6875 C90.63464122 164.39874316 83.71243076 176.3932604 80.48828125 191.08984375 C79.71335681 195.70839342 79.26680864 200.32624864 79 205 C-11.44039299 214.79533173 -11.44039299 214.79533173 -49 204 C-49.08636719 202.99582031 -49.17273438 201.99164063 -49.26171875 200.95703125 C-50.60191514 187.24656936 -54.32258726 174.99691611 -63 164 C-64.70400066 162.66737577 -66.4282666 161.36032608 -68.17016602 160.07763672 C-72.39874385 156.32599384 -73.72816786 153.92060547 -74.17944336 148.27783203 C-74.19937625 145.68773002 -74.16669313 143.09685091 -74.08984375 140.5078125 C-74.08600292 139.11213672 -74.0870366 137.71643997 -74.09266663 136.32077026 C-74.09646034 132.66428582 -74.04349406 129.01099243 -73.9753418 125.35522461 C-73.87624565 119.51494508 -73.86565446 113.67383412 -73.85257149 107.83285141 C-73.84018102 105.81279851 -73.80251548 103.79295033 -73.7641449 101.77322388 C-73.61325885 86.64627364 -77.57264362 75.14037135 -87.890625 64.0078125 C-98.2041355 54.19087843 -110.51172479 52.42408127 -124.18359375 52.65625 C-130.5115883 52.95246976 -135.5297879 54.86585112 -141 58 C-141.80695313 58.43441406 -142.61390625 58.86882812 -143.4453125 59.31640625 C-153.65640649 65.39114182 -159.35004771 74.92482288 -163 86 C-163.93277315 89.83715203 -164.09910311 93.3558724 -164.04663086 97.29980469 C-164.02813332 99.17765656 -164.02813332 99.17765656 -164.00926208 101.09344482 C-164.00134581 101.75762169 -163.99342953 102.42179855 -163.98527336 103.10610199 C-163.94284224 107.39659333 -163.95500132 111.68737795 -163.95516109 115.97803879 C-163.95216564 119.73670394 -163.93149346 123.49370879 -163.87329102 127.25195312 C-163.81782904 130.90251118 -163.81175092 134.550299 -163.83798409 138.20114899 C-163.83921097 139.58377114 -163.82294597 140.966534 -163.78806877 142.34871674 C-163.52984386 153.15296984 -163.52984386 153.15296984 -167.2336731 157.80627441 C-169.73071435 160.03771002 -172.31744693 162.00149473 -175 164 C-175.66 164.99 -176.32 165.98 -177 167 C-197.05208051 159.77975459 -213.61160917 142.76497505 -222.65234375 124.00390625 C-225.0259316 118.71321332 -225.21505656 114.5707814 -225.25 108.875 C-225.270625 108.05773437 -225.29125 107.24046875 -225.3125 106.3984375 C-225.40666341 91.52061884 -217.354089 79.43695763 -207.265625 69.13671875 C-181.72050236 44.07228391 -144.5068154 30.84520114 -110.48876953 22.61572266 C-108.30196786 22.07470698 -106.13287548 21.49787514 -103.96484375 20.88671875 C-80.48572954 14.26964521 -55.76518461 10.60002004 -31.40625 9.48046875 C-30.60893463 9.44270325 -29.81161926 9.40493774 -28.99014282 9.36602783 C-25.09691844 9.18794823 -21.20615136 9.04332759 -17.31005859 8.94677734 C-15.89158307 8.89339268 -14.47312497 8.83954246 -13.0546875 8.78515625 C-11.81187012 8.75301025 -10.56905273 8.72086426 -9.28857422 8.68774414 C-5.13294814 7.81867223 -3.62874585 6.26914343 -1 3 C-0.67 2.01 -0.34 1.02 0 0 Z " fill="#CA8A65" transform="translate(241,216)"/>
<path d="M0 0 C12.3998138 9.5499327 20.17982507 22.18564732 22.94140625 37.6015625 C24.41218868 49.79183129 22.71064294 62.20122204 16.56640625 72.9765625 C15.16167037 74.6118871 13.74452161 76.23661484 12.31640625 77.8515625 C7.40399516 84.09537473 7.71453952 90.64093931 7.77832031 98.27294922 C7.83721711 107.127618 7.83721711 107.127618 4.56640625 110.9765625 C1.29278697 112.61337214 -1.90225493 112.56970512 -5.43359375 111.9765625 C-8.57482135 110.46168477 -11.33695614 108.480768 -14.18359375 106.4765625 C-20.5279239 102.27925249 -25.10692065 99.71380076 -32.953125 100.6875 C-35.68000375 101.005278 -37.78325444 100.63319953 -40.43359375 99.9765625 C-40.33820313 100.63140625 -40.2428125 101.28625 -40.14453125 101.9609375 C-38.24929732 117.56356102 -42.81376856 131.12009365 -52.3359375 143.5078125 C-61.31303754 154.07304011 -72.79385015 160.5090712 -86.43359375 162.9765625 C-88.58310923 163.06337083 -90.72076829 163.05441786 -92.87182617 163.04418945 C-102.65487115 163.0218901 -108.88084529 165.69919278 -116.97729492 171.20336914 C-122.65922931 174.99194213 -122.65922931 174.99194213 -127.3671875 174.8984375 C-130.38260462 173.99189172 -131.66531749 173.53073932 -133.43359375 170.9765625 C-134.4095379 168.04873005 -134.53220687 166.22952814 -134.50390625 163.1875 C-134.10711846 149.8533735 -134.10711846 149.8533735 -140.5859375 138.84375 C-149.19284361 130.14586179 -150.30437911 116.51190601 -150.43359375 104.9765625 C-149.66807682 91.26530374 -143.78313723 78.89707047 -134.43359375 68.9765625 C-133.840625 68.34234375 -133.24765625 67.708125 -132.63671875 67.0546875 C-120.77753062 55.6009417 -106.43847909 52.65155475 -90.6171875 52.90625 C-89.56660156 52.92945313 -88.51601562 52.95265625 -87.43359375 52.9765625 C-87.46839844 52.4403125 -87.50320312 51.9040625 -87.5390625 51.3515625 C-88.07419967 35.85806738 -84.30679519 21.40529566 -73.99609375 9.6015625 C-72.49502237 8.04064775 -70.97573895 6.49691059 -69.43359375 4.9765625 C-68.86898437 4.40164063 -68.304375 3.82671875 -67.72265625 3.234375 C-49.75232371 -13.68403563 -19.64197974 -13.43774451 0 0 Z " fill="#010101" transform="translate(326.43359375,9.0234375)"/>
<path d="M0 0 C7.66711992 4.42734506 12.59846472 10.14061834 15.4375 18.5 C16.60749122 23.02957803 16.59903266 27.52291285 16.61450195 32.1706543 C16.62435875 33.46438713 16.62435875 33.46438713 16.63441467 34.78425598 C16.65408058 37.63091123 16.66579586 40.47751387 16.67578125 43.32421875 C16.67985678 44.30008249 16.6839323 45.27594624 16.68813133 46.28138161 C16.70896439 51.44759533 16.72327755 56.61378271 16.73266602 61.7800293 C16.74371923 67.09824827 16.77811472 72.41604758 16.81783772 77.73411846 C16.84406328 81.8392664 16.85236317 85.94431524 16.85594749 90.04953957 C16.86079877 92.00901941 16.87237082 93.96849526 16.89098549 95.92789268 C17.09812792 119.17854369 17.09812792 119.17854369 8.9375 128.0625 C8.3703125 128.70316406 7.803125 129.34382812 7.21875 130.00390625 C5.19318841 131.7052003 4.07674304 132.31902333 1.4375 132.5 C-0.67578125 131.57421875 -0.67578125 131.57421875 -2.875 130.1875 C-10.92582993 125.14308412 -18.7178362 125.11806812 -28 124.875 C-29.81274414 124.81699219 -29.81274414 124.81699219 -31.66210938 124.7578125 C-34.62875817 124.66400542 -37.59540836 124.57830754 -40.5625 124.5 C-41.2134259 123.25264433 -41.85801669 122.00198168 -42.5 120.75 C-43.03947266 119.70585937 -43.03947266 119.70585937 -43.58984375 118.640625 C-45.75884212 113.86708642 -45.72213332 109.22160882 -45.73950195 104.05053711 C-45.74607315 103.19955444 -45.75264435 102.34857178 -45.75941467 101.47180176 C-45.77911412 98.65698145 -45.79080527 95.84221452 -45.80078125 93.02734375 C-45.80485678 92.06284365 -45.8089323 91.09834354 -45.81313133 90.10461617 C-45.83398174 84.99560893 -45.84828569 79.88662845 -45.85766602 74.77758789 C-45.8687044 69.52109097 -45.90307761 64.26502039 -45.94283772 59.00867367 C-45.96908925 54.94980629 -45.97736561 50.89103898 -45.98094749 46.83209419 C-45.98579451 44.89576921 -45.99735418 42.95944812 -46.01598549 41.02320671 C-46.13183113 28.18182451 -45.84426451 16.77237865 -37.41015625 6.2890625 C-27.44843047 -3.35675231 -12.55116707 -5.86250715 0 0 Z " fill="#707DB2" transform="translate(136.5625,285.5)"/>
<path d="M0 0 C0.6803833 -0.00832352 1.3607666 -0.01664703 2.06176758 -0.02522278 C4.30124714 -0.04923078 6.54043486 -0.0580838 8.7800293 -0.06469727 C10.34555647 -0.07367123 11.91108279 -0.08279321 13.47660828 -0.09205627 C16.75574828 -0.10852426 20.03478646 -0.11624226 23.31396484 -0.11914062 C27.50039198 -0.12451955 31.685852 -0.16218753 35.87200642 -0.20788479 C39.10553923 -0.23773965 42.33884161 -0.24486601 45.57250023 -0.24586678 C47.1149863 -0.25005309 48.65747406 -0.26242325 50.19982338 -0.28338432 C65.65952712 -0.47675262 65.65952712 -0.47675262 72.04174805 5.30639648 C72.70948242 5.90323242 73.3772168 6.50006836 74.06518555 7.11499023 C78.12145688 12.00361782 79.84524298 16.21934223 80.54174805 22.55639648 C80.65819782 26.32781299 80.65819782 26.32781299 83.04174805 28.30639648 C84.69174805 28.96639648 86.34174805 29.62639648 88.04174805 30.30639648 C88.04174805 38.22639648 88.04174805 46.14639648 88.04174805 54.30639648 C86.06174805 55.29639648 84.08174805 56.28639648 82.04174805 57.30639648 C79.86205286 60.21593803 79.86205286 60.21593803 79.16674805 63.74389648 C77.99554433 67.45270824 77.05335992 68.93361137 74.04174805 71.30639648 C70.05223975 72.63623258 66.23085749 72.43714322 62.07226562 72.41992188 C60.69635506 72.42014091 60.69635506 72.42014091 59.29264832 72.42036438 C56.25716802 72.41966706 53.22174889 72.41188305 50.1862793 72.40405273 C48.0830641 72.40218792 45.97984847 72.40076431 43.87663269 72.39976501 C38.33805138 72.39594487 32.79949625 72.38611885 27.26092529 72.37506104 C21.61039586 72.36483612 15.95986219 72.36026508 10.30932617 72.35522461 C-0.77987804 72.34449616 -11.86906282 72.32742574 -22.95825195 72.30639648 C-23.05994386 64.47773371 -23.12984046 56.64924226 -23.17797852 48.82006836 C-23.19578844 46.15829401 -23.2253148 43.4973862 -23.26000977 40.83569336 C-23.30870743 37.00290068 -23.33126312 33.17069286 -23.34887695 29.33764648 C-23.36952209 28.15400513 -23.39016724 26.97036377 -23.41143799 25.75085449 C-23.41355918 17.88350392 -22.50135963 12.41227965 -17.2121582 6.28295898 C-16.65399414 5.83694336 -16.09583008 5.39092773 -15.52075195 4.93139648 C-14.96516602 4.46991211 -14.40958008 4.00842773 -13.8371582 3.53295898 C-9.30332707 0.57324386 -5.36620288 0.04656758 0 0 Z " fill="#FEF5DF" transform="translate(397.958251953125,424.693603515625)"/>
<path d="M0 0 C1.01991783 -0.0098568 1.01991783 -0.0098568 2.06044006 -0.01991272 C4.3161734 -0.03965961 6.57183994 -0.05131457 8.82763672 -0.0612793 C9.5991293 -0.06535482 10.37062187 -0.06943035 11.16549301 -0.07362938 C15.25306684 -0.09450129 19.34060704 -0.10879515 23.42822266 -0.11816406 C27.63810397 -0.12919927 31.84745244 -0.16356187 36.05714607 -0.20333576 C39.30352719 -0.22957041 42.54978305 -0.23786219 45.79626083 -0.24144554 C47.34711153 -0.246298 48.89795714 -0.25787361 50.44870377 -0.27648354 C59.71877762 -0.38076765 67.06262589 -0.41354853 74.40576172 5.9230957 C75.07478516 6.7603418 75.07478516 6.7603418 75.75732422 7.61450195 C76.44955078 8.44788086 76.44955078 8.44788086 77.15576172 9.2980957 C79.84245749 13.41370291 80.63139993 17.00673247 80.609375 21.88525391 C80.60922394 23.00603836 80.60907288 24.12682281 80.60891724 25.28157043 C80.59859467 26.48069565 80.58827209 27.67982086 80.57763672 28.9152832 C80.57480682 30.15118698 80.57197693 31.38709076 80.56906128 32.66044617 C80.5597764 35.93365192 80.54183055 39.2066584 80.51965332 42.47979736 C80.49913239 45.82481043 80.4902169 49.16983221 80.47998047 52.51489258 C80.45794216 59.0690067 80.42448082 65.62298803 80.38232422 72.17700195 C68.09958843 72.29288475 55.81698282 72.38171213 43.53381157 72.43606281 C37.83012448 72.46214937 32.12681158 72.49753106 26.42333984 72.55419922 C20.91848196 72.60855133 15.41398384 72.63842957 9.90887833 72.65138817 C7.80930035 72.66062221 5.70974193 72.67865431 3.61031723 72.70565224 C0.66783958 72.74198448 -2.27315421 72.74694548 -5.21582031 72.74462891 C-6.08256882 72.76260529 -6.94931732 72.78058167 -7.84233093 72.79910278 C-11.98535748 72.76384199 -14.76326802 72.50275562 -18.08029175 69.89152527 C-21.60108358 66.12494071 -22.85394381 63.78777197 -22.92407227 58.65893555 C-22.94805336 57.32637222 -22.94805336 57.32637222 -22.97251892 55.96688843 C-22.97788162 55.01271027 -22.98324432 54.0585321 -22.98876953 53.07543945 C-22.997798 52.08379791 -23.00682648 51.09215637 -23.01612854 50.07046509 C-23.03063127 47.97075415 -23.03951783 45.87099801 -23.04321289 43.77124023 C-23.05505656 40.58408571 -23.10419802 37.3989012 -23.15478516 34.2121582 C-23.16425619 32.16659468 -23.17148797 30.12101932 -23.17626953 28.07543945 C-23.19580185 27.13340668 -23.21533417 26.1913739 -23.23545837 25.22079468 C-23.18877605 18.25201696 -21.40427939 13.04135777 -17.61767578 7.17700195 C-15.23095703 4.9230957 -15.23095703 4.9230957 -12.93017578 3.61450195 C-12.16318359 3.15946289 -11.39619141 2.70442383 -10.60595703 2.2355957 C-6.78433009 0.20089845 -4.3970663 0.03511345 0 0 Z " fill="#FDF4DE" transform="translate(56.61767578125,424.822998046875)"/>
<path d="M0 0 C9.4809212 6.67310992 15.56107773 15.60107461 18.71875 26.6796875 C20.05568835 39.8801946 17.83946836 49.71133076 9.53125 60.3046875 C7.65663052 62.51982104 5.77034936 64.62808814 3.71875 66.6796875 C3.25388282 69.80165086 3.25388282 69.80165086 3.09375 73.3046875 C3.01898438 74.49320312 2.94421875 75.68171875 2.8671875 76.90625 C2.81820312 77.82148437 2.76921875 78.73671875 2.71875 79.6796875 C0.05784522 78.69135144 -2.16123417 77.76765609 -4.4609375 76.08203125 C-8.68709194 73.98066083 -12.75021639 74.28026445 -17.40625 74.2421875 C-25.3416737 74.01074895 -32.1520279 73.48844999 -39.28125 69.6796875 C-40.0753125 69.256875 -40.869375 68.8340625 -41.6875 68.3984375 C-50.3764077 63.18509288 -56.04522554 55.21378108 -59.28125 45.6796875 C-62.0462627 34.50829389 -60.84432965 23.40502295 -54.99609375 13.50390625 C-42.31251439 -4.69120064 -19.81673154 -11.46927271 0 0 Z " fill="#FA57A9" transform="translate(315.28125,20.3203125)"/>
<path d="M0 0 C8.34536291 4.84274709 12.96722933 11.82372726 15.70330811 21.16279602 C16.14659655 23.27058155 16.28053762 25.1654959 16.30175781 27.31713867 C16.31136536 28.10863815 16.3209729 28.90013763 16.33087158 29.71562195 C16.33512146 30.56356827 16.33937134 31.41151459 16.34375 32.28515625 C16.34945007 33.16818924 16.35515015 34.05122223 16.36102295 34.96101379 C16.37045983 36.8295472 16.37700172 38.69809714 16.38085938 40.56665039 C16.3905311 43.4021577 16.42155275 46.23692933 16.453125 49.07226562 C16.45965917 50.89322489 16.46490801 52.71418931 16.46875 54.53515625 C16.4810968 55.37298141 16.4934436 56.21080658 16.50616455 57.07402039 C16.47071433 66.60971316 13.41278631 75.00193172 7.140625 82.2421875 C-0.31811597 88.58211733 -8.2550647 91.92068578 -18.0625 91.58203125 C-27.00954814 90.49488993 -34.01904315 86.00407073 -39.859375 79.2421875 C-43.20657162 73.84992565 -45.95349273 68.35019341 -46.03637695 61.92944336 C-46.04921219 61.06101303 -46.06204742 60.1925827 -46.07527161 59.2978363 C-46.08265854 58.36037064 -46.09004547 57.42290497 -46.09765625 56.45703125 C-46.105728 55.48617081 -46.11379974 54.51531036 -46.12211609 53.51502991 C-46.13595284 51.45640851 -46.14667682 49.39776421 -46.15454102 47.33911133 C-46.17167657 44.21585424 -46.21555745 41.0936773 -46.25976562 37.97070312 C-46.26989989 35.96615358 -46.27841369 33.96159507 -46.28515625 31.95703125 C-46.30266434 31.0337352 -46.32017242 30.11043915 -46.33821106 29.15916443 C-46.307879 19.92657676 -43.47747713 11.80597193 -37.015625 5.0703125 C-26.4755434 -3.86584364 -12.62400359 -6.06119377 0 0 Z " fill="#6F7CB0" transform="translate(404.859375,285.7578125)"/>
<path d="M0 0 C7.51568378 6.3266353 14.34079287 15.01163813 15.39941406 25.11206055 C16.18987005 40.71692386 13.72730031 50.143853 3.1796875 62.015625 C2.5196875 62.675625 1.8596875 63.335625 1.1796875 64.015625 C0.87908807 66.38071861 0.68453738 68.76004381 0.5546875 71.140625 C0.47992188 72.42195313 0.40515625 73.70328125 0.328125 75.0234375 C0.27914062 76.01085937 0.23015625 76.99828125 0.1796875 78.015625 C-2.88213132 76.90223634 -5.33076987 75.68367488 -8.08203125 73.89453125 C-12.27082825 71.44965082 -15.90436862 71.67562946 -20.6328125 71.953125 C-32.97159278 72.28559213 -42.5539579 69.31482908 -52.05078125 61.08203125 C-59.98321376 52.97100738 -63.2578209 43.45897316 -63.3203125 32.265625 C-63.08986139 20.72651755 -59.47565022 11.95348145 -51.7578125 3.390625 C-37.80998203 -9.97476859 -15.52340526 -10.92228514 0 0 Z " fill="#FBF2DC" transform="translate(302.8203125,281.984375)"/>
<path d="M0 0 C1.1456543 -0.01740234 1.1456543 -0.01740234 2.31445312 -0.03515625 C7.46857967 -0.00870222 11.36870468 0.76983832 15.9375 3.375 C18.1328125 5.94140625 18.1328125 5.94140625 20.0625 8.9375 C23.92896614 14.46006908 28.00247665 18.16117694 33.59619141 21.90063477 C37.53924628 24.63579455 38.97243527 26.68339012 39.9375 31.375 C41.27380048 43.65489812 38.94651709 54.15441204 31.75 64.25 C25.21669321 71.95958545 16.48981194 77.66835905 6.28125 78.62353516 C2.52595615 78.74271913 -1.22165402 78.75741968 -4.97851562 78.7265625 C-10.96370569 78.82652392 -14.64937573 79.71893391 -19.50170898 83.30322266 C-21.0625 84.375 -21.0625 84.375 -23.0625 84.375 C-23.03027344 83.63636719 -22.99804688 82.89773437 -22.96484375 82.13671875 C-23.05950246 73.85934042 -25.35251261 69.96892652 -30.8359375 63.90234375 C-38.37094221 55.34945244 -39.557302 45.1035536 -39.37109375 34.0625 C-38.51830399 23.87220207 -33.12152869 15.69405136 -25.4453125 9.140625 C-17.19171304 2.87612015 -10.375894 -0.1584106 0 0 Z " fill="#FCF3DD" transform="translate(231.0625,77.625)"/>
<path d="M0 0 C2.26574287 0.96013658 4.00220462 2.17433069 5.97265625 3.6484375 C15.88313629 10.34688899 26.14879518 12.06732792 37.97265625 10.8359375 C45.3569751 9.26555667 51.53761999 6.23900303 57.81640625 2.10546875 C59.97789594 0.83285254 61.47482329 0.06074247 63.97265625 -0.1640625 C72.82787812 4.11472118 80.53546596 13.7671925 83.97265625 22.8359375 C84.82155038 25.73863112 85.09486119 28.30861936 85.08618164 31.32910156 C85.08606834 32.65001801 85.08606834 32.65001801 85.08595276 33.99761963 C85.08079147 34.93942078 85.07563019 35.88122192 85.0703125 36.8515625 C85.06889755 37.82252869 85.0674826 38.79349487 85.06602478 39.79388428 C85.06043288 42.89126685 85.04788184 45.98857682 85.03515625 49.0859375 C85.0301402 51.18749896 85.02557748 53.28906154 85.02148438 55.390625 C85.0104661 60.53909042 84.99320699 65.68750166 84.97265625 70.8359375 C81.18218958 69.5972591 77.45002251 68.27955667 73.7421875 66.8125 C72.77345703 66.4309375 71.80472656 66.049375 70.80664062 65.65625 C69.80955078 65.26179688 68.81246094 64.86734375 67.78515625 64.4609375 C63.85283491 62.90563572 59.91667134 61.3613623 55.97265625 59.8359375 C55.08457275 59.49199951 54.19648926 59.14806152 53.28149414 58.79370117 C45.90524138 56.01906044 38.40181542 53.90699918 30.78515625 51.8984375 C29.81145584 51.64039337 29.81145584 51.64039337 28.81808472 51.37713623 C11.41541843 46.77813924 -6.10850821 42.75991503 -24.02734375 40.8359375 C-24.42532727 28.29945664 -21.35818451 18.66147975 -13.71484375 8.5234375 C-4.80274482 -0.38866143 -4.80274482 -0.38866143 0 0 Z " fill="#FDE800" transform="translate(359.02734375,174.1640625)"/>
<path d="M0 0 C2.46784216 0.85877291 4.16105511 2.06202796 6.2578125 3.6171875 C10.9774066 6.87019699 15.59935083 8.41377442 21.1328125 9.7421875 C21.7825 9.9278125 22.4321875 10.1134375 23.1015625 10.3046875 C33.87808545 12.62578475 45.48894843 9.61349085 55.1328125 4.7421875 C56.91485617 3.3796484 56.91485617 3.3796484 58.4453125 1.9296875 C61.1328125 -0.2578125 61.1328125 -0.2578125 63.5078125 -0.4453125 C72.92029905 3.81271713 78.35095689 11.27440234 82.9453125 20.3046875 C85.35842159 27.2900033 86.23352394 33.37475819 86.1328125 40.7421875 C85.09769531 40.88914063 84.06257813 41.03609375 82.99609375 41.1875 C48.30620237 46.29278986 13.04104505 54.13813588 -18.6015625 69.7109375 C-20.8671875 70.7421875 -20.8671875 70.7421875 -22.8671875 70.7421875 C-22.9666975 64.65906445 -23.03895767 58.57642412 -23.08691406 52.49267578 C-23.10692375 50.42683652 -23.13414033 48.36105313 -23.16894531 46.29541016 C-23.21793466 43.31138247 -23.24026314 40.32810904 -23.2578125 37.34375 C-23.27845764 36.43291656 -23.29910278 35.52208313 -23.32037354 34.58364868 C-23.32382526 24.52797027 -19.61781509 16.14276611 -12.8671875 8.7421875 C-3.34226992 -0.46148497 -3.34226992 -0.46148497 0 0 Z " fill="#89FDB1" transform="translate(90.8671875,174.2578125)"/>
<path d="M0 0 C9.70030679 7.86312748 17.46597469 20.50220559 19 33 C20.06764104 48.54794229 18.56015441 60.66667193 10 74 C9.12214844 74.85980469 8.24429688 75.71960938 7.33984375 76.60546875 C3.65917593 80.90648937 4.37314943 86.18075995 4.4375 91.5625 C4.52176973 101.90174811 4.52176973 101.90174811 2.47265625 106.21484375 C-0.34794125 108.25119929 -2.40064464 108.70940172 -5.87646484 108.48388672 C-9.74087678 107.60330906 -12.61756735 105.31643565 -15.8125 103.0625 C-23.85146031 97.82995571 -30.20577577 97.13268017 -39.61328125 97.11328125 C-52.72090083 97.03735211 -65.44224869 89.25284886 -74.7109375 80.484375 C-87.55560974 66.54374096 -89.96178866 50.85549423 -89.22216797 32.65039062 C-88.17613768 20.17159418 -79.96885635 9.21837068 -71.15625 0.8125 C-50.33888588 -16.6861539 -21.16653487 -16.17728022 0 0 Z M-66.4296875 17.0078125 C-74.29763555 26.98953764 -75.20991764 38.75408306 -74 51 C-71.69646718 61.506357 -66.14082359 69.79838386 -57.25390625 75.87890625 C-48.84181577 80.72081686 -41.65517517 82.25675031 -32.125 81.75 C-24.09343594 81.49942575 -19.48551968 83.13586024 -13 88 C-12.34 88 -11.68 88 -11 88 C-11.020625 87.09378906 -11.04125 86.18757813 -11.0625 85.25390625 C-10.95107716 78.67299457 -10.850228 74.04724904 -6.1875 69.125 C-5.46691406 68.43148437 -4.74632812 67.73796875 -4.00390625 67.0234375 C-1.08772035 64.07882874 0.44236438 60.79384517 2 57 C2.35578125 56.28714844 2.7115625 55.57429688 3.078125 54.83984375 C5.92139348 46.08113111 5.40224918 33.36713391 1.328125 25.1328125 C-5.79276308 13.697504 -13.69312146 6.37357484 -27 3 C-42.83483608 1.28550294 -55.41529232 5.48111987 -66.4296875 17.0078125 Z " fill="#030302" transform="translate(314,272)"/>
<path d="M0 0 C2.45072194 1.39207675 4.80033552 2.90731216 7.171875 4.4296875 C14.09431557 8.27336307 19.96998564 9.5057732 27.875 9.375 C28.75978027 9.36484863 29.64456055 9.35469727 30.55615234 9.34423828 C40.53393898 9.1068034 47.41754997 6.77548031 55.7734375 1.3046875 C59.46687996 -0.85954019 59.46687996 -0.85954019 62 -1 C70.74052303 3.45726519 77.52147172 10.65709968 81.08984375 19.7890625 C83 25.89804147 83 25.89804147 83 29 C82.33760315 29.00142502 81.6752063 29.00285004 80.99273682 29.00431824 C74.0482941 29.02412743 67.10471714 29.0786403 60.16064453 29.15258789 C57.57509591 29.17567026 54.98945457 29.19014047 52.40380859 29.19555664 C48.66966614 29.2049172 44.93696273 29.24606697 41.203125 29.29296875 C40.06200256 29.2890361 38.92088013 29.28510345 37.74517822 29.28105164 C26.65162832 29.47911085 17.07920195 32.86811777 8.9765625 40.6171875 C2.31778903 48.64456263 0.10183731 57.15762972 -0.5625 67.3125 C-0.64628906 68.56675781 -0.73007812 69.82101562 -0.81640625 71.11328125 C-0.87699219 72.06589844 -0.93757813 73.01851563 -1 74 C-1.72469482 73.70641602 -2.44938965 73.41283203 -3.19604492 73.11035156 C-4.92079586 72.4273592 -6.65522764 71.76759219 -8.40356445 71.14746094 C-15.08391703 68.66760797 -21.62357519 65.81381318 -26 60 C-29.99732095 46.34215264 -27.28056422 28.89718334 -21.7109375 16.01953125 C-17.73602526 9.45279027 -8.97746327 -3.52930808 0 0 Z " fill="#85D8FB" transform="translate(361,381)"/>
<path d="M0 0 C1.71875 1.87109375 1.71875 1.87109375 3.5 4.4375 C4.0878125 5.26121094 4.675625 6.08492188 5.28125 6.93359375 C9.26865441 14.04748571 10.44508122 20.72173201 10.38818359 28.79907227 C10.39344055 29.73363251 10.39869751 30.66819275 10.40411377 31.631073 C10.41722221 34.69302523 10.40860892 37.75444955 10.3984375 40.81640625 C10.40046069 42.95914306 10.40337417 45.10187919 10.40713501 47.24461365 C10.41154582 51.72393381 10.40516668 56.20307389 10.39111328 60.68237305 C10.37401193 66.41091762 10.3838767 72.13904075 10.40183067 77.86756992 C10.41269321 82.2883367 10.40921098 86.70900426 10.4014473 91.12977409 C10.39945266 93.24159737 10.40187855 95.35342979 10.40888596 97.46524239 C10.41654223 100.4205104 10.4048381 103.3751042 10.38818359 106.33032227 C10.39729263 107.6265023 10.39729263 107.6265023 10.40658569 108.9488678 C10.39812622 109.76303162 10.38966675 110.57719543 10.38095093 111.41603088 C10.37981985 112.11227853 10.37868877 112.80852617 10.37752342 113.52587223 C9.82417129 117.1523065 8.28806437 120.56516168 7 124 C0.07 124 -6.86 124 -14 124 C-17.86779908 116.26440183 -19.14926913 111.8072854 -19.17700195 103.55053711 C-19.18357315 102.69955444 -19.19014435 101.84857178 -19.19691467 100.97180176 C-19.21661412 98.15698145 -19.22830527 95.34221452 -19.23828125 92.52734375 C-19.24235678 91.56284365 -19.2464323 90.59834354 -19.25063133 89.60461617 C-19.27148174 84.49560893 -19.28578569 79.38662845 -19.29516602 74.27758789 C-19.3062044 69.02109097 -19.34057761 63.76502039 -19.38033772 58.50867367 C-19.40658925 54.44980629 -19.41486561 50.39103898 -19.41844749 46.33209419 C-19.42329451 44.39576921 -19.43485418 42.45944812 -19.45348549 40.52320671 C-19.57808068 26.71194538 -19.07227758 14.56967401 -9 4 C-6.09549631 1.51745811 -3.94685924 0 0 0 Z " fill="#808AB1" transform="translate(110,286)"/>
<path d="M0 0 C9.11897701 -0.11614686 18.23769715 -0.20484264 27.35725403 -0.25906086 C31.59244014 -0.28509071 35.82711804 -0.32036611 40.06201172 -0.37719727 C44.15341139 -0.43175554 48.24432404 -0.46147022 52.33605957 -0.47438622 C53.89253398 -0.48358367 55.44898348 -0.50154427 57.00524902 -0.52865028 C72.65117698 -0.79017961 72.65117698 -0.79017961 79 5 C79.66773438 5.59683594 80.33546875 6.19367188 81.0234375 6.80859375 C85.07970883 11.69722134 86.80349494 15.91294575 87.5 22.25 C87.61644977 26.02141651 87.61644977 26.02141651 90 28 C91.65 28.66 93.3 29.32 95 30 C95 37.92 95 45.84 95 54 C93.02 54.99 91.04 55.98 89 57 C86.82030482 59.90954155 86.82030482 59.90954155 86.125 63.4375 C84.95379629 67.14631176 84.01161188 68.62721488 81 71 C77.01049171 72.3298361 73.18910944 72.13074673 69.03051758 72.11352539 C67.65460701 72.11374443 67.65460701 72.11374443 66.25090027 72.1139679 C63.21541997 72.11327057 60.18000084 72.10548656 57.14453125 72.09765625 C55.04131606 72.09579143 52.93810043 72.09436783 50.83488464 72.09336853 C45.29630334 72.08954839 39.7577482 72.07972237 34.21917725 72.06866455 C27.57536612 72.05664225 20.93154624 72.05204579 14.28772736 72.04621124 C4.19180002 72.03651037 -5.90406986 72.01735027 -16 72 C-16 53.52 -16 35.04 -16 16 C-15.67 16 -15.34 16 -15 16 C-15 34.15 -15 52.3 -15 71 C6.78 70.67 28.56 70.34 51 70 C52.88181783 66.23636433 53.25562135 64.99250258 53.29052734 61.02294922 C53.30328705 60.03446991 53.31604675 59.0459906 53.32919312 58.02755737 C53.33141876 56.96401031 53.33364441 55.90046326 53.3359375 54.8046875 C53.3425943 53.70206573 53.3492511 52.59944397 53.35610962 51.46340942 C53.36623513 49.12829251 53.37092667 46.79314666 53.37060547 44.45800781 C53.37495829 40.90900988 53.41122434 37.36127626 53.44921875 33.8125 C53.45509118 31.53906673 53.45905772 29.26562758 53.4609375 26.9921875 C53.47530853 25.94078583 53.48967957 24.88938416 53.50448608 23.80612183 C53.45878866 16.32468357 52.33541667 9.32546471 47.65028381 3.24964905 C45.48472141 1.60981415 44.1387105 1.60463987 41.43676758 1.56762695 C40.05567558 1.53793571 40.05567558 1.53793571 38.64668274 1.50764465 C37.65597275 1.50125473 36.66526276 1.49486481 35.64453125 1.48828125 C34.11937141 1.46135445 34.11937141 1.46135445 32.56340027 1.43388367 C29.31314248 1.3796646 26.0630325 1.34584741 22.8125 1.3125 C20.61000542 1.27933721 18.40753037 1.24484853 16.20507812 1.20898438 C10.80351796 1.12393168 5.40193894 1.05563102 0 1 C0 0.67 0 0.34 0 0 Z " fill="#FBEDCA" transform="translate(391,425)"/>
<path d="M0 0 C0.11789773 4.24975959 0.18781321 8.49908905 0.25 12.75 C0.30027344 14.53083984 0.30027344 14.53083984 0.3515625 16.34765625 C0.47703101 27.82802523 -1.53245489 37.6392029 -9.70703125 46.08984375 C-17.04900996 52.20607473 -25.03590433 54.49013408 -34.44140625 54.40625 C-42.467196 53.49002373 -50.1629676 49.12134895 -55.53125 43.08203125 C-62.18245776 33.65359046 -62.95884269 24.13627301 -62 13 C-60.05653375 11.05653375 -56.61934004 11.1247516 -53.96484375 10.66015625 C-45.45054752 9.11757372 -37.00917645 7.31085612 -28.5625 5.4375 C-27.16997171 5.13063314 -25.77739363 4.82399212 -24.38476562 4.51757812 C-17.26974088 2.95726974 -17.26974088 2.95726974 -10.16748047 1.34033203 C-6.65178283 0.5237134 -3.63204168 0 0 0 Z " fill="#F6B8A4" transform="translate(421,117)"/>
<path d="M0 0 C0.12552064 3.91006464 0.21521802 7.81931728 0.2746582 11.73095703 C0.31156222 13.69996473 0.3751618 15.66841495 0.43945312 17.63671875 C0.57551395 28.35831213 -1.39858384 37.20140581 -8.5625 45.4375 C-14.77542632 51.03146938 -22.32137554 54.21878573 -30.6875 54.5 C-40.50211534 53.96414456 -47.97050536 50.29121043 -54.7265625 43.18359375 C-60.61970535 35.99860431 -62.16714131 28.84128227 -62.0703125 19.6640625 C-62.06016113 18.41318848 -62.05000977 17.16231445 -62.03955078 15.87353516 C-62.01997314 14.45113525 -62.01997314 14.45113525 -62 13 C-46.46611312 9.26720532 -30.91970088 5.68183556 -15.25 2.5625 C-14.59416931 2.43139832 -13.93833862 2.30029663 -13.26263428 2.16522217 C-2.39821908 0 -2.39821908 0 0 0 Z " fill="#F7B9A5" transform="translate(153,117)"/>
<path d="M0 0 C9.11901578 -0.09291788 18.23786713 -0.16387492 27.35725403 -0.20724869 C31.59234407 -0.22807209 35.82710884 -0.25629279 40.06201172 -0.30175781 C44.15339326 -0.34540424 48.24446307 -0.36917653 52.33605957 -0.37950897 C53.89250593 -0.3868668 55.44893635 -0.40123476 57.00524902 -0.42292023 C66.30268395 -0.54724916 73.656744 -0.61087921 81.0234375 5.74609375 C81.69246094 6.58333984 81.69246094 6.58333984 82.375 7.4375 C83.06722656 8.27087891 83.06722656 8.27087891 83.7734375 9.12109375 C86.46013327 13.23670096 87.24907571 16.82973051 87.22705078 21.70825195 C87.22680908 22.84460083 87.22656738 23.98094971 87.22631836 25.1517334 C87.21608643 26.33529419 87.20585449 27.51885498 87.1953125 28.73828125 C87.19329834 29.83410522 87.19128418 30.9299292 87.18920898 32.05895996 C87.17876291 36.14351603 87.15084033 40.22801232 87.125 44.3125 C87.08375 53.449375 87.0425 62.58625 87 72 C55.65 72 24.3 72 -8 72 C-8 71.67 -8 71.34 -8 71 C12.46 71 32.92 71 54 71 C53.938125 61.80125 53.87625 52.6025 53.8125 43.125 C53.80581299 40.24023926 53.79912598 37.35547852 53.79223633 34.38330078 C53.76576726 32.07061509 53.73748496 29.75794915 53.70703125 27.4453125 C53.71101929 26.26573975 53.71500732 25.08616699 53.71911621 23.87084961 C53.58458916 15.97584498 51.93982622 10.78094746 48 4 C47.505 2.515 47.505 2.515 47 1 C31.49 1 15.98 1 0 1 C0 0.67 0 0.34 0 0 Z " fill="#FBEDCA" transform="translate(50,425)"/>
<path d="M0 0 C2.3952756 1.53133077 3.54400479 3.00425399 5.109375 5.37109375 C5.83833984 6.44037109 5.83833984 6.44037109 6.58203125 7.53125 C10.53237849 15.02110837 11.50581883 21.94140821 11.48046875 30.3359375 C11.4857106 31.36489639 11.49095245 32.39385529 11.49635315 33.45399475 C11.50274216 35.61800235 11.50147711 37.78204481 11.49291992 39.94604492 C11.48440749 43.23354669 11.51322077 46.51930983 11.54492188 49.80664062 C11.54653426 51.9205724 11.54595565 54.03450722 11.54296875 56.1484375 C11.55981972 57.60358009 11.55981972 57.60358009 11.57701111 59.08811951 C11.48325935 68.39430231 8.50301372 75.85187083 3.046875 83.30859375 C2.386875 84.29859375 1.726875 85.28859375 1.046875 86.30859375 C-4.83466248 85.48150254 -8.07339177 82.67427337 -11.953125 78.30859375 C-15.27613646 72.91176186 -18.04735319 67.40804312 -18.13012695 60.99584961 C-18.14296219 60.12741928 -18.15579742 59.25898895 -18.16902161 58.36424255 C-18.17640854 57.42677689 -18.18379547 56.48931122 -18.19140625 55.5234375 C-18.199478 54.55257706 -18.20754974 53.58171661 -18.21586609 52.58143616 C-18.22970284 50.52281476 -18.24042682 48.46417046 -18.24829102 46.40551758 C-18.26542657 43.28226049 -18.30930745 40.16008355 -18.35351562 37.03710938 C-18.36364989 35.03255983 -18.37216369 33.02800132 -18.37890625 31.0234375 C-18.39641434 30.10014145 -18.41392242 29.1768454 -18.43196106 28.22557068 C-18.40030908 18.59122168 -15.31070872 10.9223251 -8.6875 3.9453125 C-3.27737315 -1.16019009 -3.27737315 -1.16019009 0 0 Z " fill="#818BB1" transform="translate(376.953125,286.69140625)"/>
<path d="M0 0 C5.28769505 1.96992561 9.44005877 5.06146716 12.12445068 10.11817932 C13.30227105 13.99490793 13.27874 17.72190721 13.25878906 21.73413086 C13.2622937 22.60304459 13.26579834 23.47195831 13.26940918 24.36720276 C13.27819553 27.2331649 13.27238774 30.09887919 13.265625 32.96484375 C13.26697266 34.96114652 13.26891404 36.95744896 13.27142334 38.95375061 C13.27437051 43.13578418 13.27009045 47.31773224 13.26074219 51.49975586 C13.24935533 56.85412126 13.25590489 62.20828598 13.26788712 67.562644 C13.27512297 71.68479416 13.27280972 75.80689694 13.26763153 79.92904854 C13.26629943 81.90297024 13.26792734 83.87689627 13.27259064 85.85081291 C13.27768336 88.61281557 13.26990669 91.37449589 13.25878906 94.13647461 C13.26283752 94.9486142 13.26688599 95.76075378 13.27105713 96.59750366 C13.23741232 101.12131821 12.71427081 104.73790629 11 109 C7.1463319 107.42998707 4.91634493 104.91634493 2 102 C-0.61620901 99.92944352 -3.29525439 97.95305452 -6 96 C-5.55660101 93.55929619 -5.08264972 91.23590006 -4.26147461 88.89208984 C-1.09708308 79.73154973 -1.51286699 70.22785137 -1.55395508 60.65820312 C-1.56246161 57.63862804 -1.5336405 54.62095151 -1.50195312 51.6015625 C-1.44498843 36.30807919 -2.85547389 24.19226108 -13 12 C-13.56589844 11.45472656 -14.13179688 10.90945312 -14.71484375 10.34765625 C-16 9 -16 9 -16 7.0625 C-12.82497178 0.5140043 -6.61287206 -0.67982797 0 0 Z " fill="#7D87AD" transform="translate(437,66)"/>
<path d="M0 0 C7.90613195 4.72765323 13.222073 10.63954416 16.3125 19.3828125 C16.3125 20.3728125 16.3125 21.3628125 16.3125 22.3828125 C5.02097809 24.90529866 -6.27294051 27.41676543 -17.57000732 29.91430664 C-19.43376661 30.32667272 -21.29722921 30.74037923 -23.16064453 31.15429688 C-25.7931798 31.73726229 -28.42724666 32.31228524 -31.0625 32.8828125 C-32.13528198 33.12209473 -32.13528198 33.12209473 -33.22973633 33.36621094 C-37.11170084 34.19474606 -40.72024952 34.53020261 -44.6875 34.3828125 C-45.15084241 26.05551981 -44.99905599 19.63536364 -40.6875 12.3828125 C-40.36007812 11.76921875 -40.03265625 11.155625 -39.6953125 10.5234375 C-31.61504181 -2.80606014 -13.59000993 -6.39266914 0 0 Z " fill="#6F7CB0" transform="translate(403.6875,79.6171875)"/>
<path d="M0 0 C5.45467232 4.18697433 9.88147755 9.36567969 12 16 C12 17.32 12 18.64 12 20 C-13.7217398 26.06828133 -13.7217398 26.06828133 -26.08984375 28.27734375 C-33.75779847 29.69449822 -41.37550499 31.36736357 -49 33 C-49.72249138 22.62422104 -47.72008703 13.2134397 -41 5 C-29.42729796 -6.9601809 -14.54665053 -8.5948021 0 0 Z " fill="#6F7CB0" transform="translate(140,82)"/>
<path d="M0 0 C4.80587992 1.65719997 7.36372586 4.45344075 10.625 8.25 C11.09550781 7.84007812 11.56601562 7.43015625 12.05078125 7.0078125 C12.67339844 6.46898437 13.29601562 5.93015625 13.9375 5.375 C14.85982422 4.57449219 14.85982422 4.57449219 15.80078125 3.7578125 C20.06872506 0.23013304 20.06872506 0.23013304 24.125 0.375 C27.625 1.25 27.625 1.25 29.5625 2.9375 C31.04982538 6.17461995 31.30741405 7.70144696 30.625 11.25 C28.52063959 14.15003897 26.14968529 16.71243366 23.625 19.25 C24.93451023 22.10155031 26.06962544 23.73697072 28.25 26.125 C30.625 29.25 30.625 29.25 31.1875 32.375 C30.625 35.25 30.625 35.25 29.0625 37.625 C25.56110366 39.95926422 23.76235391 40.02137107 19.625 39.25 C16.9754481 37.1726276 14.78589174 34.82467952 12.625 32.25 C9.5931446 33.63117857 7.28733024 35.29248789 4.75 37.4375 C1.87705402 39.62564694 1.02786758 40.23479745 -2.6875 40.375 C-5.81572041 39.06551239 -6.89325956 38.2957998 -8.375 35.25 C-9 32.5 -9 32.5 -8.375 29.25 C-6.64265717 27.06665794 -4.8081482 25.12077544 -2.80859375 23.1796875 C-1.15159886 21.37402146 -1.15159886 21.37402146 -1.46875 19.1875 C-2.49978947 16.98320873 -3.58015921 15.92937031 -5.4375 14.375 C-7.7718932 12.13646353 -8.32549856 11.4705064 -9.0625 8.1875 C-7.841141 2.96896609 -5.40026279 0.40001947 0 0 Z " fill="#060204" transform="translate(283.375,34.75)"/>
<path d="M0 0 C0.11798604 3.77056169 0.18783864 7.54063765 0.25 11.3125 C0.30027344 12.8912793 0.30027344 12.8912793 0.3515625 14.50195312 C0.49079969 25.81497481 -2.63102899 34.42743039 -10 43 C-14.46841116 43 -16.87115153 41.61239812 -20.0625 38.6875 C-28.13802795 29.92996969 -29.67768008 20.62932109 -29.2734375 9.17578125 C-29 6 -29 6 -28 5 C-25.48127284 4.48082774 -22.96958768 4.00643378 -20.4375 3.5625 C-13.80496001 2.36930282 -13.80496001 2.36930282 -7.25 0.8125 C-4 0 -4 0 0 0 Z " fill="#FCC7B7" transform="translate(388,124)"/>
<path d="M0 0 C5.40109154 4.24371478 7.62374981 11.44987159 9 18 C9.34939531 22.11754058 9.48186821 26.23140522 9.56982422 30.36230469 C9.62466012 32.36260189 9.73210059 34.36122904 9.83984375 36.359375 C10.02196089 45.81029618 10.02196089 45.81029618 7.21362305 49.07958984 C4.87934977 50.64042181 2.54788442 51.82557659 0 53 C-1.30550427 53.82816547 -2.59731847 54.67850488 -3.87109375 55.5546875 C-5.05942662 56.32884572 -6.24822048 57.10229684 -7.4375 57.875 C-8.04787109 58.2771875 -8.65824219 58.679375 -9.28710938 59.09375 C-13.77004943 62 -13.77004943 62 -16 62 C-16.03738281 61.03320312 -16.07476562 60.06640625 -16.11328125 59.0703125 C-16.50625826 51.28782671 -17.24287894 44.3696632 -20 37 C-19.41992188 36.53851563 -18.83984375 36.07703125 -18.2421875 35.6015625 C-7.275382 26.44446088 -1.29739759 14.27137344 0 0 Z " fill="#F856A7" transform="translate(168,393)"/>
<path d="M0 0 C0.84857953 15.83393449 1.26738186 27.84017325 -8.41796875 40.9140625 C-10 42 -10 42 -12.43359375 41.87890625 C-18.1787821 39.91137599 -22.60123076 35.32937685 -25.375 30 C-25.9431261 28.6777242 -26.48699227 27.34462025 -27 26 C-27.4125 24.96875 -27.825 23.9375 -28.25 22.875 C-29.39927355 16.93708668 -29.15050238 11.0284565 -29 5 C-25.48210157 4.15394025 -21.96027995 3.32547725 -18.4375 2.5 C-16.9515332 2.14228516 -16.9515332 2.14228516 -15.43554688 1.77734375 C-10.1602835 0.55053831 -5.41697797 -0.30389778 0 0 Z " fill="#FCC7B7" transform="translate(120,125)"/>
<path d="M0 0 C3.89221667 1.82356222 7.45354538 4.11134775 11.0625 6.4375 C13.10638314 7.74279477 15.15065345 9.04748349 17.1953125 10.3515625 C18.6788623 11.30337402 18.6788623 11.30337402 20.19238281 12.27441406 C22.6266694 13.77054777 25.05085115 15.08661239 27.6171875 16.3359375 C31.27294905 18.17969733 34.26113149 19.86721639 37 23 C38.54904135 28.60400362 37.82034333 34.32921399 37 40 C31.98667991 38.30226212 27.79360474 35.47065178 23.375 32.625 C21.68379679 31.54395313 19.9923841 30.46323391 18.30078125 29.3828125 C17.43146973 28.82625977 16.5621582 28.26970703 15.66650391 27.69628906 C13.01072637 26.00682355 10.34217157 24.33980899 7.66796875 22.6796875 C6.81219238 22.14649902 5.95641602 21.61331055 5.07470703 21.06396484 C3.43351911 20.0422496 1.79005397 19.02418073 0.14404297 18.01025391 C-7.37039745 13.3110964 -7.37039745 13.3110964 -10 10 C-10.42519574 6.53769185 -10.63902633 4.1652833 -8.9375 1.0625 C-5.9083656 -0.59863822 -3.3113245 -0.66167114 0 0 Z " fill="#FAF1DC" transform="translate(323,450)"/>
<path d="M0 0 C2.4375 1.0625 2.4375 1.0625 4 3 C4.6875 6.3125 4.6875 6.3125 4 10 C-0.14126061 14.72295035 -5.82708324 17.91702756 -11.1875 21.0625 C-19.14214254 25.8126299 -26.9139488 30.80105531 -34.62573242 35.93579102 C-35.42986572 36.46615967 -36.23399902 36.99652832 -37.0625 37.54296875 C-38.13177734 38.2548938 -38.13177734 38.2548938 -39.22265625 38.98120117 C-41 40 -41 40 -43 40 C-44.37675405 34.25657149 -45.39241976 28.59263861 -43 23 C-37.72005978 17.44539622 -30.49437765 14.06976531 -23.79150391 10.52636719 C-20.0341031 8.47185697 -16.56537379 6.07988692 -13.0625 3.625 C-8.44610199 0.41511516 -5.64371416 -0.50510568 0 0 Z " fill="#FAF1DB" transform="translate(195,450)"/>
<path d="M0 0 C4.59696746 1.54664326 6.31049138 5.74587239 8.5078125 9.84375 C11.11232758 15.60672554 11.8509452 20.55298392 11.5078125 26.84375 C2.22521445 30.20469067 -7.5446591 33.16074256 -17.4921875 32.84375 C-17.95421453 24.54009759 -17.83169865 18.0668451 -13.4921875 10.84375 C-13.10675781 10.19535156 -12.72132813 9.54695313 -12.32421875 8.87890625 C-9.43328253 4.453622 -5.75396927 -0.36075042 0 0 Z " fill="#7F89B0" transform="translate(376.4921875,81.15625)"/>
<path d="M0 0 C5.0332248 1.86062339 7.22010661 7.36543833 9.484375 11.97265625 C11.49216091 16.84031282 12.12163002 21.68498213 12.47265625 26.9140625 C8.85040083 28.47934235 5.38571681 29.44895326 1.515625 30.203125 C0.40380859 30.42226562 -0.70800781 30.64140625 -1.85351562 30.8671875 C-3.00400391 31.08890625 -4.15449219 31.310625 -5.33984375 31.5390625 C-7.09458008 31.88324219 -7.09458008 31.88324219 -8.88476562 32.234375 C-11.76480414 32.79862744 -14.6456449 33.358363 -17.52734375 33.9140625 C-17.8230933 23.32927988 -16.42892698 14.39315047 -9.52734375 5.9140625 C-3.81183066 -0.12961403 -3.81183066 -0.12961403 0 0 Z " fill="#7F89AF" transform="translate(108.52734375,81.0859375)"/>
<path d="M0 0 C2.54497874 29.69305009 2.54497874 29.69305009 -1.52197266 36.57568359 C-5.67592641 40.59756615 -10.516305 42.4243554 -16 44 C-17.485 44.495 -17.485 44.495 -19 45 C-19.09973852 41.01659695 -19.17187198 37.03368892 -19.21972656 33.04931641 C-19.24946045 31.03652373 -19.30031729 29.02407866 -19.3515625 27.01171875 C-19.43992218 18.21993084 -19.02278501 12.42506351 -12.9296875 5.72265625 C-12.25164063 5.17480469 -11.57359375 4.62695312 -10.875 4.0625 C-10.19179688 3.49660156 -9.50859375 2.93070313 -8.8046875 2.34765625 C-5.71936102 0.04367868 -3.8035112 -0.1000924 0 0 Z " fill="#F2E9D4" transform="translate(53,220)"/>
<path d="M0 0 C7.95479134 1.13639876 7.95479134 1.13639876 11.1875 4.0625 C11.82042969 4.61035156 12.45335937 5.15820312 13.10546875 5.72265625 C19.77632316 13.74143588 19.50701851 20.90708087 19.25 31 C19.22989985 32.36065073 19.21165529 33.7213302 19.1953125 35.08203125 C19.1484085 38.388763 19.08277725 41.69400416 19 45 C15.21429085 43.55060745 12.21895627 41.89389082 8.9375 39.5 C5.96638252 37.33918729 3.31228902 35.65614451 0 34 C0 22.78 0 11.56 0 0 Z " fill="#F2EAD5" transform="translate(459,220)"/>
<path d="M0 0 C2 1.625 2 1.625 3 4 C2.87988224 7.42335626 2.60726153 9.95416069 0.875 12.9375 C-2.22289358 14.69297303 -4.52844534 14.48723574 -8 14 C-10.5 11.9375 -10.5 11.9375 -12 9 C-12 5.19715329 -11.7968187 2.98069994 -9.375 0 C-5.88418213 -1.46981805 -3.60851044 -0.98413921 0 0 Z " fill="#0D0C0B" transform="translate(236,111)"/>
<path d="M0 0 C3.38726232 0.92379881 4.42581319 1.21833923 6.4375 3.9375 C6.6171875 6.12890625 6.6171875 6.12890625 6.3125 8.5 C6.22742188 9.28503906 6.14234375 10.07007812 6.0546875 10.87890625 C5.4375 12.9375 5.4375 12.9375 2.4375 14.9375 C-3.74156683 15.59954288 -3.74156683 15.59954288 -6.5 13.375 C-7.97532332 9.99043473 -8.01924603 7.59146822 -7.5625 3.9375 C-5.29401339 0.30792142 -4.30870043 -0.07559124 0 0 Z " fill="#090908" transform="translate(254.5625,110.0625)"/>
<path d="M0 0 C2.375 1.5625 2.375 1.5625 4 4 C4.56783945 7.97487617 4.62340519 10.06489221 2.375 13.4375 C-0.71685231 15.47161336 -2.36367425 15.60605429 -6 15 C-8.375 13.4375 -8.375 13.4375 -10 11 C-10.56783945 7.02512383 -10.62340519 4.93510779 -8.375 1.5625 C-5.28314769 -0.47161336 -3.63632575 -0.60605429 0 0 Z " fill="#090807" transform="translate(212,110)"/>
<path d="M0 0 C2 1.0625 2 1.0625 3 3 C3.3898913 6.57400356 3.37020241 9.09763163 2 12.4375 C-0.71070476 14.5552381 -2.74871362 14.57130492 -6.125 14.37890625 C-8 14 -8 14 -10 12.4375 C-11.37020241 9.09763163 -11.3898913 6.57400356 -11 3 C-8.82986072 -1.20464485 -4.15736573 -0.61494368 0 0 Z " fill="#060605" transform="translate(283,308)"/>
<path d="M0 0 C1.875 0.30859375 1.875 0.30859375 3.875 1.30859375 C5.50432095 4.56723565 5.40173518 7.74756719 4.875 11.30859375 C3.8125 13.30859375 3.8125 13.30859375 1.875 14.30859375 C-2.05594707 14.8088961 -4.2255787 14.90820795 -7.5625 12.68359375 C-9.58432313 9.6104226 -9.65255517 7.92611494 -9.125 4.30859375 C-7.22735706 -0.19830824 -4.46860694 -0.27107358 0 0 Z " fill="#060606" transform="translate(303.125,307.69140625)"/>
<path d="M0 0 C2.4375 1.625 2.4375 1.625 4 4 C4.60605429 7.63632575 4.47161336 9.28314769 2.4375 12.375 C-0.8994213 14.5996142 -3.06905293 14.50030235 -7 14 C-8.9375 13 -8.9375 13 -10 11 C-10.52960415 7.41957756 -10.65886567 4.24021772 -8.9375 1 C-5.82090489 -0.60856522 -3.43737531 -0.42213381 0 0 Z " fill="#050504" transform="translate(260,308)"/>
<path d="M0 0 C0.33 0 0.66 0 1 0 C1.20496094 0.96421875 1.40992187 1.9284375 1.62109375 2.921875 C1.89050781 4.18515625 2.15992187 5.4484375 2.4375 6.75 C2.83775391 8.62945312 2.83775391 8.62945312 3.24609375 10.546875 C3.79048949 13.04037675 4.38099141 15.52396565 5 18 C1.04 18 -2.92 18 -7 18 C-6.59657725 11.81418444 -4.51160866 4.51160866 0 0 Z " fill="#F254A3" transform="translate(75,392)"/>
</svg>
