<?xml version="1.0" encoding="UTF-8"?>
<svg version="1.1" xmlns="http://www.w3.org/2000/svg" width="100" height="100">
<path d="M0 0 C1.74216797 0.02707031 1.74216797 0.02707031 3.51953125 0.0546875 C4.84017578 0.08949219 4.84017578 0.08949219 6.1875 0.125 C6.6825 2.105 6.6825 2.105 7.1875 4.125 C8.239375 4.2178125 8.239375 4.2178125 9.3125 4.3125 C13.23873725 5.42208879 15.31591699 7.25341699 18.1875 10.125 C20.65729654 14.94698371 20.62033422 20.28610662 20.94140625 25.61328125 C20.91305733 28.0621527 20.91305733 28.0621527 22.1875 29.125 C22.22813832 30.79117115 22.230221 32.45888095 22.1875 34.125 C21.548125 34.33125 20.90875 34.5375 20.25 34.75 C19.569375 35.20375 18.88875 35.6575 18.1875 36.125 C18.001875 37.4553125 18.001875 37.4553125 17.8125 38.8125 C17.14323752 42.35959113 16.57150866 43.05420652 14.1875 45.5625 C10.9363253 49.0470126 10.37984222 51.41261573 10.1875 56.125 C10.77917969 56.29515625 11.37085938 56.4653125 11.98046875 56.640625 C12.77066406 56.88296875 13.56085937 57.1253125 14.375 57.375 C15.15230469 57.60703125 15.92960937 57.8390625 16.73046875 58.078125 C19.1875 59.125 19.1875 59.125 24.1875 63.125 C24.5175 42.995 24.8475 22.865 25.1875 2.125 C30.20022046 3.37818012 34.31787184 5.61148294 38.875 8 C39.75478516 8.44730469 40.63457031 8.89460937 41.54101562 9.35546875 C42.37697266 9.79246094 43.21292969 10.22945312 44.07421875 10.6796875 C44.83951904 11.07655762 45.60481934 11.47342773 46.39331055 11.88232422 C48.1875 13.125 48.1875 13.125 49.1875 16.125 C43.5775 19.095 37.9675 22.065 32.1875 25.125 C32.16274668 32.13590234 32.14461464 39.14677913 32.13256836 46.15771484 C32.12754541 48.54183394 32.12072587 50.92594996 32.11206055 53.31005859 C32.09990576 56.74056762 32.09425123 60.17103584 32.08984375 63.6015625 C32.08468246 64.66428375 32.07952118 65.727005 32.07420349 66.82192993 C32.0738322 71.74058812 32.34441591 76.27320317 33.1875 81.125 C33.1875 84.095 33.1875 87.065 33.1875 90.125 C10.7475 90.125 -11.6925 90.125 -34.8125 90.125 C-34.8125 71.32927215 -34.8125 71.32927215 -27.83203125 63.765625 C-23.71007274 60.41703201 -17.26415853 56.125 -11.8125 56.125 C-11.8125 53.815 -11.8125 51.505 -11.8125 49.125 C-12.67875 48.8465625 -12.67875 48.8465625 -13.5625 48.5625 C-16.78404321 46.50429184 -18.41281056 43.65400422 -19.8125 40.125 C-19.8125 38.805 -19.8125 37.485 -19.8125 36.125 C-21.1325 35.795 -22.4525 35.465 -23.8125 35.125 C-24.4375 32.8125 -24.4375 32.8125 -24.8125 30.125 C-24.1525 29.135 -23.4925 28.145 -22.8125 27.125 C-22.61651919 25.23518505 -22.50071555 23.33639779 -22.4375 21.4375 C-21.93073633 14.32563026 -20.29157945 9.06628843 -14.875 4.25 C-9.80427651 0.7315388 -6.17177519 -0.12468233 0 0 Z " fill="#8BC14A" transform="translate(46.8125,5.875)"/>
<path d="M0 0 C1.74216797 0.02707031 1.74216797 0.02707031 3.51953125 0.0546875 C4.39996094 0.07789063 5.28039062 0.10109375 6.1875 0.125 C6.5175 1.445 6.8475 2.765 7.1875 4.125 C8.239375 4.2178125 8.239375 4.2178125 9.3125 4.3125 C13.23873725 5.42208879 15.31591699 7.25341699 18.1875 10.125 C20.65729654 14.94698371 20.62033422 20.28610662 20.94140625 25.61328125 C20.91305733 28.0621527 20.91305733 28.0621527 22.1875 29.125 C22.22813832 30.79117115 22.230221 32.45888095 22.1875 34.125 C21.548125 34.33125 20.90875 34.5375 20.25 34.75 C19.569375 35.20375 18.88875 35.6575 18.1875 36.125 C18.001875 37.4553125 18.001875 37.4553125 17.8125 38.8125 C17.14502401 42.35012275 16.63467819 42.96662862 14.25 45.4375 C11.09933502 48.81214591 10.48690458 51.5048796 9.74609375 55.97265625 C8.80954547 59.58131429 6.79651567 61.51598433 4.1875 64.125 C1.08701072 65.67524464 -1.39144218 65.41492015 -4.8125 65.125 C-8.22100414 63.00415298 -10.62636655 61.0068913 -11.8125 57.125 C-11.96257306 54.43403473 -11.90249955 51.82498637 -11.8125 49.125 C-12.67875 48.8465625 -12.67875 48.8465625 -13.5625 48.5625 C-16.78404321 46.50429184 -18.41281056 43.65400422 -19.8125 40.125 C-19.8125 38.805 -19.8125 37.485 -19.8125 36.125 C-21.1325 35.795 -22.4525 35.465 -23.8125 35.125 C-24.4375 32.8125 -24.4375 32.8125 -24.8125 30.125 C-23.8225 28.64 -23.8225 28.64 -22.8125 27.125 C-22.61651919 25.23518505 -22.50071555 23.33639779 -22.4375 21.4375 C-21.93073633 14.32563026 -20.29157945 9.06628843 -14.875 4.25 C-9.80427651 0.7315388 -6.17177519 -0.12468233 0 0 Z " fill="#FAB34B" transform="translate(46.8125,5.875)"/>
<path d="M0 0 C1.74216797 0.02707031 1.74216797 0.02707031 3.51953125 0.0546875 C4.39996094 0.07789063 5.28039062 0.10109375 6.1875 0.125 C6.5175 1.445 6.8475 2.765 7.1875 4.125 C8.239375 4.2178125 8.239375 4.2178125 9.3125 4.3125 C13.23873725 5.42208879 15.31591699 7.25341699 18.1875 10.125 C21.02295127 15.40925009 20.97442323 22.26115274 20.1875 28.125 C18.79296875 29.98828125 18.79296875 29.98828125 17.1875 31.125 C16.5275 31.125 15.8675 31.125 15.1875 31.125 C15.18363281 30.03832031 15.18363281 30.03832031 15.1796875 28.9296875 C14.93023529 22.1157588 14.93023529 22.1157588 11.6875 16.3125 C8.82979222 13.99145096 8.25033377 14.11993276 4.3125 14.4375 C2.59366852 14.96705393 0.88713942 15.53675271 -0.8125 16.125 C-2.18999248 16.55275665 -3.56903757 16.97553101 -4.94921875 17.39453125 C-8.91501036 18.60393527 -12.86536074 19.8561037 -16.8125 21.125 C-17.1425 24.425 -17.4725 27.725 -17.8125 31.125 C-21.8125 28.125 -21.8125 28.125 -22.34375 25.26953125 C-22.27084593 17.49613464 -21.85216948 11.44135917 -16.38671875 5.6015625 C-11.23081632 0.99189262 -6.78926326 -0.13715683 0 0 Z " fill="#444341" transform="translate(46.8125,5.875)"/>
<path d="M0 0 C4.9865952 1.05585148 9.20489025 3.5255401 13.6875 5.875 C15.00717773 6.54595703 15.00717773 6.54595703 16.35351562 7.23046875 C17.18947266 7.66746094 18.02542969 8.10445312 18.88671875 8.5546875 C20.03466919 9.14999268 20.03466919 9.14999268 21.20581055 9.75732422 C23 11 23 11 24 14 C21.29466468 15.46413471 18.58599307 16.92140832 15.875 18.375 C15.11445312 18.7875 14.35390625 19.2 13.5703125 19.625 C9.4541422 21.82502206 5.50519306 23.69018349 1 25 C0.31728707 16.64895793 -0.15392039 8.38011029 0 0 Z " fill="#BE350C" transform="translate(72,8)"/>
<path d="M0 0 C0.33 0 0.66 0 1 0 C1.33 4.29 1.66 8.58 2 13 C3.32 12.67 4.64 12.34 6 12 C6 27.51 6 43.02 6 59 C0.05741784 53.05741784 0.05741784 53.05741784 -0.12025452 49.78536987 C-0.11803391 48.86603668 -0.11581329 47.94670349 -0.11352539 46.99951172 C-0.11344986 45.95858368 -0.11337433 44.91765564 -0.11329651 43.84518433 C-0.10813522 42.71807037 -0.10297394 41.59095642 -0.09765625 40.4296875 C-0.0962413 39.27832306 -0.09482635 38.12695862 -0.09336853 36.94070435 C-0.08775716 33.25211014 -0.0752027 29.56357595 -0.0625 25.875 C-0.05748647 23.37890712 -0.05292331 20.8828133 -0.04882812 18.38671875 C-0.03778403 12.25779191 -0.0210348 6.12890024 0 0 Z " fill="#BEBAB8" transform="translate(72,19)"/>
<path d="M0 0 C1.06927734 0.48726562 1.06927734 0.48726562 2.16015625 0.984375 C8.53283058 3.26346073 15.82920827 2.66845048 22 0 C22.45760607 5.7200759 21.63848132 8.55296727 18 13 C15.45907002 15.62854826 14.24767627 15.96847757 10.5625 16.4375 C6.40223564 15.92659034 4.89340542 14.97607415 2 12 C-0.74805054 8.33593262 -0.14645686 4.3937059 0 0 Z " fill="#FC9902" transform="translate(35,55)"/>
<path d="M0 0 C1.32 0 2.64 0 4 0 C4 0.66 4 1.32 4 2 C5.65 2 7.3 2 9 2 C9 1.34 9 0.68 9 0 C10.32 0 11.64 0 13 0 C13 4.95 13 9.9 13 15 C8.71 15 4.42 15 0 15 C0 10.05 0 5.1 0 0 Z " fill="#D9DDD5" transform="translate(56,79)"/>
<path d="M0 0 C0.99 0.66 1.98 1.32 3 2 C3.1875 5.625 3.1875 5.625 3 9 C1.68 8.67 0.36 8.34 -1 8 C-1.625 5.6875 -1.625 5.6875 -2 3 C-1.34 2.01 -0.68 1.02 0 0 Z " fill="#FBA721" transform="translate(24,33)"/>
<path d="M0 0 C1.65 0 3.3 0 5 0 C5 1.98 5 3.96 5 6 C3.35 6 1.7 6 0 6 C0 4.02 0 2.04 0 0 Z " fill="#7C8375" transform="translate(60,75)"/>
<path d="M0 0 C0.99 0.33 1.98 0.66 3 1 C3 2.65 3 4.3 3 6 C1.02 6.99 1.02 6.99 -1 8 C-1.04241723 5.66705225 -1.04092937 3.33297433 -1 1 C-0.67 0.67 -0.34 0.34 0 0 Z " fill="#FDA526" transform="translate(66,34)"/>
</svg>
