<svg width="639" height="512" viewBox="0 0 639 512" fill="none" xmlns="http://www.w3.org/2000/svg">
<g clip-path="url(#clip0_177_56)">
<path d="M159.198 -0.290558C160.016 -0.303318 160.834 -0.316077 161.677 -0.329224C162.553 -0.331449 163.429 -0.333675 164.332 -0.335968C165.697 -0.345953 165.697 -0.345953 167.089 -0.35614C169.013 -0.366256 170.937 -0.370957 172.861 -0.370636C175.792 -0.375 178.72 -0.411304 181.65 -0.449249C183.523 -0.45512 185.396 -0.459088 187.269 -0.460968C188.574 -0.482525 188.574 -0.482525 189.906 -0.504517C195.774 -0.460876 199.193 0.580722 204 3.99997C207.375 8.35167 209.112 11.8037 209.161 17.2968C209.171 18.162 209.18 19.0272 209.19 19.9187C209.197 21.3202 209.197 21.3202 209.203 22.75C209.209 23.7185 209.214 24.6869 209.22 25.6848C209.23 27.7392 209.236 29.7937 209.24 31.8481C209.25 34.9602 209.281 38.0716 209.312 41.1836C209.319 43.1849 209.324 45.1862 209.328 47.1875C209.34 48.1056 209.353 49.0237 209.365 49.9697C209.331 60.1654 207.319 69.5456 200 77C198.73 77.7923 197.459 78.584 196.187 79.375C194.027 81.0503 193.135 82.3259 192.597 85.0156C192.009 90.3358 191.961 95.6523 192 101C192.811 100.965 193.622 100.93 194.457 100.895C206.812 100.592 216.625 102.497 226 111C233.492 119.804 236.146 129.726 236.098 141.148C236.095 142.134 236.095 142.134 236.093 143.141C236.088 145.219 236.075 147.297 236.062 149.375C236.057 150.793 236.053 152.211 236.049 153.629C236.038 157.086 236.021 160.543 236 164C237.98 164 239.96 164 242 164C242.341 162.567 242.341 162.567 242.688 161.104C244.454 153.797 246.365 146.569 248.613 139.395C248.944 138.334 248.944 138.334 249.282 137.252C250.188 134.365 251.099 131.479 252.023 128.597C252.709 126.45 253.381 124.298 254.051 122.145C254.449 120.89 254.848 119.636 255.259 118.343C256.002 114.992 256.097 113.215 255 110C253.29 107.727 251.588 105.662 249.687 103.562C248.591 102.318 247.495 101.073 246.398 99.8281C245.835 99.1945 245.271 98.5609 244.69 97.9082C241.018 93.7633 237.433 89.5435 233.848 85.3242C232.014 83.1684 230.149 81.0509 228.246 78.957C221.453 71.2497 221.453 71.2497 221.125 66.5625C222 63 222 63 224.062 60.4375C228.101 58.4613 229.724 58.5505 234 60C239.773 64.4626 244.175 70.558 248.715 76.2109C250.905 78.8835 253.171 81.4483 255.5 84C259.494 88.3849 263.276 92.9071 266.98 97.539C268.603 99.5161 270.276 101.304 272.062 103.125C274.704 107.045 274.446 110.452 274 115C273.212 118.769 272.115 122.414 270.973 126.09C270.664 127.116 270.356 128.141 270.038 129.198C269.058 132.448 268.06 135.693 267.062 138.937C266.395 141.144 265.729 143.35 265.064 145.557C263.849 149.573 262.631 153.59 261.399 157.601C261.152 158.405 260.906 159.208 260.652 160.036C260 162 260 162 259 164C259.941 163.965 260.882 163.93 261.851 163.895C263.719 163.854 263.719 163.854 265.625 163.812C266.855 163.778 268.084 163.743 269.351 163.707C273.346 164.028 275.655 164.817 279 167C281.636 170.378 281.367 174.216 281.437 178.375C281.477 179.661 281.517 180.948 281.559 182.273C281 186 281 186 276 192C267.42 192 258.84 192 250 192C250 235.23 250 278.46 250 323C257.59 323 265.18 323 273 323C282.504 327.752 288.559 331.052 291.937 341C292.312 342.328 292.674 343.659 293 345C293.641 344.795 294.281 344.59 294.941 344.379C304.504 341.4 312.994 340.897 323 341C323 334.07 323 327.14 323 320C321.68 319.34 320.36 318.68 319 318C310.166 311.662 306.072 303.709 304.265 293.068C303.431 286.567 303.602 279.964 303.664 273.424C303.688 270.741 303.684 268.058 303.678 265.375C303.683 263.641 303.69 261.906 303.699 260.172C303.698 259.384 303.697 258.596 303.696 257.785C303.816 248.246 305.487 241.128 312 234C317.933 228.371 324.035 226.533 332.059 226.566C332.807 226.561 333.554 226.556 334.325 226.55C335.897 226.544 337.47 226.545 339.042 226.554C341.428 226.562 343.812 226.534 346.197 226.502C353.972 226.467 360.356 226.495 367 231C367.887 231.577 368.774 232.155 369.687 232.75C374.379 237.314 377.717 242.647 378.147 249.267C378.157 250.096 378.167 250.924 378.177 251.778C378.19 252.723 378.203 253.668 378.216 254.642C378.227 256.167 378.227 256.167 378.238 257.723C378.246 258.778 378.254 259.834 378.263 260.922C378.276 263.159 378.287 265.396 378.295 267.633C378.307 269.907 378.327 272.181 378.357 274.455C378.4 277.753 378.416 281.05 378.426 284.348C378.452 285.851 378.452 285.851 378.479 287.385C378.447 297.752 375.404 307.493 368 315C366.632 315.88 365.251 316.741 363.859 317.582C361.373 319.407 360.192 320.39 359.259 323.356C358.99 326.057 358.942 328.661 359 331.375C358.983 332.765 358.983 332.765 358.965 334.184C358.941 336.458 358.954 338.726 359 341C360.216 340.965 360.216 340.965 361.457 340.93C371.629 340.764 380.78 341.493 390 346C390.041 345.031 390.082 344.061 390.125 343.062C391.04 336.953 394.563 332.019 399.258 328.129C407.311 322.587 414.34 322.755 423.906 322.705C425.418 322.693 426.93 322.673 428.442 322.643C438.574 322.445 446.049 323.213 454.75 328.75C459.858 333.858 463.084 339.551 463.193 346.832C463.209 347.814 463.225 348.796 463.241 349.808C463.286 354.324 463.327 358.84 463.35 363.357C463.367 365.728 463.394 368.099 463.432 370.47C463.487 373.906 463.509 377.341 463.523 380.777C463.546 381.822 463.569 382.866 463.592 383.942C463.562 394.532 460.08 403.437 452.941 411.281C451 413 451 413 447.832 414.578C444.634 417.313 444.55 417.79 444.195 421.766C444.142 423.593 444.12 425.422 444.125 427.25C444.104 428.186 444.084 429.122 444.062 430.086C444.015 432.391 443.995 434.694 444 437C444.727 436.977 445.454 436.954 446.203 436.93C460.739 436.669 473.239 438.795 484.184 448.988C487.454 452.611 489.929 456.59 492 461C492.27 461.556 492.54 462.111 492.818 462.684C495.867 470.082 495.488 477.918 495.446 485.785C495.437 488.259 495.466 490.73 495.498 493.203C495.5 494.786 495.499 496.37 495.496 497.953C495.507 498.687 495.518 499.42 495.53 500.176C495.464 505.064 494.484 507.574 491 511C487.967 512.517 484.821 512.142 481.493 512.137C480.706 512.14 479.918 512.142 479.107 512.145C476.441 512.153 473.775 512.153 471.109 512.154C469.189 512.158 467.269 512.162 465.35 512.167C460.053 512.179 454.756 512.185 449.459 512.189C443.754 512.195 438.05 512.207 432.346 512.218C418.559 512.242 404.773 512.257 390.986 512.27C387.095 512.273 383.203 512.277 379.312 512.281C355.164 512.307 331.017 512.329 306.87 512.341C301.274 512.344 295.678 512.347 290.082 512.35C289.039 512.351 289.039 512.351 287.975 512.351C265.429 512.363 242.882 512.394 220.336 512.436C196.508 512.48 172.68 512.506 148.852 512.511C135.86 512.515 122.867 512.526 109.874 512.559C98.8119 512.587 87.7494 512.598 76.6868 512.587C71.0395 512.582 65.3925 512.585 59.7452 512.609C54.5784 512.632 49.4121 512.631 44.2453 512.612C42.3732 512.609 40.5009 512.615 38.6288 512.63C36.0887 512.649 33.5504 512.637 31.0103 512.618C29.9134 512.637 29.9134 512.637 28.7943 512.657C23.1432 512.562 20.8171 510.877 16.9999 507C16.2448 504.999 16.2448 504.999 16.2394 503.043C16.2237 502.301 16.2081 501.559 16.1919 500.795C16.2148 499.611 16.2148 499.611 16.2382 498.402C16.2348 497.572 16.2315 496.742 16.228 495.887C16.2283 494.131 16.2435 492.375 16.2726 490.619C16.312 487.969 16.2934 485.324 16.2675 482.674C16.2723 468.864 18.651 458.438 28.5312 448.195C40.0928 437.914 52.1761 436.812 66.9999 437C66.9999 430.07 66.9999 423.14 66.9999 416C65.3499 415.34 63.6999 414.68 61.9999 414C53.4425 407.618 49.7435 398.205 47.9999 388C47.7309 384.747 47.6956 381.513 47.6991 378.25C47.6949 377.352 47.6906 376.454 47.6862 375.528C47.6805 373.643 47.6799 371.757 47.6842 369.871C47.6874 367.007 47.6639 364.145 47.6386 361.281C47.6363 359.437 47.6356 357.594 47.6366 355.75C47.6274 354.906 47.6182 354.062 47.6087 353.192C47.672 344.95 49.6923 337.455 54.9999 331C68.7085 318.991 77.2645 323 98.9999 323C98.9999 279.77 98.9999 236.54 98.9999 192C90.7499 192 82.4999 192 73.9999 192C68.7726 186.773 67.8592 185.45 67.8124 178.625C67.7982 177.689 67.7841 176.753 67.7695 175.789C68.079 172.043 69.0438 169.164 71.4374 166.25C75.2816 163.175 79.9555 163.873 84.6054 163.902C85.4446 163.904 86.2838 163.905 87.1484 163.907C89.8281 163.912 92.5078 163.925 95.1874 163.937C97.0045 163.942 98.8215 163.947 100.639 163.951C105.092 163.962 109.546 163.979 114 164C113.984 163.088 113.969 162.176 113.952 161.237C113.901 157.802 113.863 154.368 113.835 150.932C113.82 149.455 113.8 147.978 113.774 146.502C113.525 132.13 114.968 121.016 125 110C135.417 100.649 147.785 100.552 161 101C160.994 98.0793 160.947 95.1692 160.875 92.25C160.878 91.425 160.88 90.6 160.883 89.75C160.806 87.362 160.661 85.2979 160 83C157.239 80.5287 157.239 80.5287 154 79C147.026 72.6303 143.361 64.2404 142.893 54.8515C142.835 52.3186 142.809 49.7875 142.797 47.2539C142.791 46.3245 142.785 45.3952 142.78 44.4377C142.77 42.4786 142.764 40.5194 142.76 38.5603C142.75 35.5757 142.719 32.5918 142.687 29.6074C142.681 27.6979 142.676 25.7884 142.672 23.8789C142.653 22.5504 142.653 22.5504 142.634 21.1952C142.659 14.2914 143.795 9.54413 148.437 4.18747C151.956 1.18375 154.553 -0.241101 159.198 -0.290558ZM103 420C103 425.61 103 431.22 103 437C103.33 437 103.66 437 104 437C104 431.39 104 425.78 104 420C103.67 420 103.34 420 103 420Z" fill="#37CC90"/>
<path d="M159.198 -0.290558C160.016 -0.303318 160.834 -0.316077 161.677 -0.329224C162.991 -0.332562 162.991 -0.332562 164.332 -0.335968C165.697 -0.345953 165.697 -0.345953 167.09 -0.35614C169.014 -0.366256 170.938 -0.370957 172.862 -0.370636C175.792 -0.375 178.72 -0.411304 181.65 -0.449249C183.523 -0.45512 185.396 -0.459088 187.27 -0.460968C188.575 -0.482525 188.575 -0.482525 189.906 -0.504517C195.774 -0.460876 199.193 0.580722 204 3.99997C207.375 8.35167 209.112 11.8037 209.161 17.2968C209.171 18.162 209.18 19.0272 209.19 19.9187C209.197 21.3202 209.197 21.3202 209.203 22.75C209.209 23.7185 209.215 24.6869 209.22 25.6848C209.23 27.7392 209.236 29.7937 209.24 31.8481C209.25 34.9602 209.281 38.0716 209.312 41.1836C209.319 43.1849 209.324 45.1862 209.328 47.1875C209.34 48.1056 209.353 49.0237 209.366 49.9697C209.331 60.1654 207.319 69.5456 200 77C198.73 77.7923 197.459 78.584 196.188 79.375C194.027 81.0503 193.135 82.3259 192.597 85.0156C192.009 90.3358 191.961 95.6523 192 101C192.811 100.965 193.622 100.93 194.457 100.895C206.812 100.592 216.625 102.497 226 111C233.492 119.804 236.146 129.726 236.098 141.148C236.096 142.134 236.096 142.134 236.093 143.141C236.088 145.219 236.075 147.297 236.062 149.375C236.057 150.793 236.053 152.211 236.049 153.629C236.038 157.086 236.021 160.543 236 164C237.98 164 239.96 164 242 164C242.341 162.567 242.341 162.567 242.688 161.104C244.454 153.797 246.365 146.569 248.613 139.395C248.945 138.334 248.945 138.334 249.282 137.252C250.188 134.365 251.099 131.479 252.023 128.597C252.709 126.45 253.381 124.298 254.051 122.145C254.45 120.89 254.848 119.636 255.259 118.343C256.002 114.992 256.097 113.215 255 110C253.29 107.727 251.588 105.662 249.688 103.562C248.591 102.318 247.495 101.073 246.398 99.8281C245.835 99.1945 245.271 98.5609 244.69 97.9082C241.019 93.7633 237.433 89.5435 233.848 85.3242C232.015 83.1684 230.149 81.0509 228.246 78.957C221.453 71.2497 221.453 71.2497 221.125 66.5625C222 63 222 63 224.062 60.4375C228.101 58.4613 229.724 58.5505 234 60C239.773 64.4626 244.175 70.558 248.715 76.2109C250.905 78.8835 253.171 81.4483 255.5 84C259.494 88.3849 263.276 92.9071 266.98 97.539C268.603 99.5161 270.276 101.304 272.062 103.125C274.704 107.045 274.446 110.452 274 115C273.212 118.769 272.115 122.414 270.973 126.09C270.664 127.116 270.356 128.141 270.038 129.198C269.058 132.448 268.06 135.693 267.062 138.937C266.395 141.144 265.729 143.35 265.064 145.557C263.849 149.573 262.632 153.59 261.399 157.601C261.152 158.405 260.906 159.208 260.652 160.036C260 162 260 162 259 164C259.941 163.965 260.882 163.93 261.852 163.895C263.719 163.854 263.719 163.854 265.625 163.812C266.855 163.778 268.085 163.743 269.352 163.707C273.346 164.028 275.655 164.817 279 167C281.636 170.378 281.367 174.216 281.438 178.375C281.477 179.661 281.517 180.948 281.559 182.273C281 186 281 186 276 192C267.42 192 258.84 192 250 192C250 235.23 250 278.46 250 323C245.05 323.99 240.1 324.98 235 326C228.126 330.087 222.974 335.115 220.688 342.937C220.347 344.453 220.347 344.453 220 346C219.265 345.693 219.265 345.693 218.516 345.379C209.329 342.068 199.656 342.254 190 342C189.959 342.722 189.918 343.444 189.875 344.187C188.895 347.338 187.585 349.02 184.957 351.019C181.005 353 176.83 352.716 172.5 352.625C171.114 352.654 171.114 352.654 169.699 352.684C165.316 352.652 161.972 352.486 158.406 349.773C155.905 346.89 155.547 345.639 155 342C151.331 342.222 147.666 342.483 144 342.75C142.455 342.843 142.455 342.843 140.879 342.937C134.241 343.445 129.797 344.759 124 348C123.01 348 122.02 348 121 348C120.853 347.13 120.853 347.13 120.703 346.242C119.015 337.423 115.168 332.288 108 327C103.545 325.515 103.545 325.515 99 324C99 280.44 99 236.88 99 192C90.75 192 82.5 192 74 192C68.7727 186.773 67.8592 185.45 67.8125 178.625C67.7983 177.689 67.7841 176.753 67.7695 175.789C68.0791 172.043 69.0439 169.164 71.4375 166.25C75.2817 163.175 79.9555 163.873 84.6055 163.902C85.4447 163.904 86.2839 163.905 87.1485 163.907C89.8282 163.912 92.5078 163.925 95.1875 163.937C97.0046 163.942 98.8216 163.947 100.639 163.951C105.092 163.962 109.546 163.979 114 164C113.984 163.088 113.969 162.176 113.952 161.237C113.901 157.802 113.863 154.368 113.835 150.932C113.82 149.455 113.8 147.978 113.774 146.502C113.525 132.13 114.968 121.016 125 110C135.417 100.649 147.785 100.552 161 101C160.994 98.0793 160.947 95.1692 160.875 92.25C160.878 91.425 160.88 90.6 160.883 89.75C160.806 87.362 160.661 85.2979 160 83C157.239 80.5287 157.239 80.5287 154 79C147.026 72.6303 143.361 64.2404 142.893 54.8515C142.835 52.3186 142.809 49.7875 142.797 47.2539C142.791 46.3245 142.785 45.3952 142.78 44.4377C142.77 42.4786 142.764 40.5194 142.76 38.5603C142.75 35.5757 142.719 32.5918 142.688 29.6074C142.681 27.6979 142.676 25.7884 142.672 23.8789C142.653 22.5504 142.653 22.5504 142.634 21.1952C142.659 14.2914 143.795 9.54413 148.438 4.18747C151.956 1.18375 154.553 -0.241101 159.198 -0.290558Z" fill="#BC9A7B"/>
<path d="M81.1274 322.684C83.23 322.687 85.3311 322.664 87.4335 322.639C99.6119 322.578 106.994 324.136 115.891 332.66C120.255 337.502 121.127 341.502 121 348C121.713 347.651 122.426 347.301 123.16 346.941C124.118 346.486 125.076 346.031 126.062 345.562C127.002 345.11 127.942 344.658 128.91 344.191C134.961 341.858 141.05 341.861 147.437 341.937C148.169 341.942 148.901 341.946 149.654 341.951C151.436 341.963 153.218 341.981 155 342C155.412 342.928 155.825 343.856 156.25 344.812C158.006 348.01 158.954 349.154 162 351C165.458 351.607 168.932 351.464 172.437 351.437C173.379 351.457 174.321 351.477 175.291 351.498C179.553 351.495 182.275 351.409 186.035 349.285C188.067 346.922 189.093 344.968 190 342C211.814 341.174 211.814 341.174 220 346C220.041 345.01 220.082 344.02 220.125 343C221.212 335.632 227.005 330.634 232.582 326.227C240.567 322.176 249.698 322.603 258.437 322.562C259.696 322.53 260.955 322.497 262.252 322.463C271.574 322.409 278.251 323.981 285.437 330.062C286.211 331.022 286.211 331.022 287 332C287.804 332.959 287.804 332.959 288.625 333.937C294.525 342.787 293.374 357.039 291.629 367.147C289.044 376.965 281.641 384.845 273.152 390.027C263.865 394.224 251.273 394.938 241.562 391.562C233.316 387.58 225.735 380.435 222 372C221.301 369.676 220.629 367.344 220 365C219.141 389.175 219.141 389.175 230.5 409.75C232.88 412.066 232.88 412.066 235.637 413.437C238.889 416.965 238.516 419.509 238.439 424.172C238.397 425.188 238.356 426.203 238.312 427.25C238.279 428.797 238.279 428.797 238.244 430.375C238.185 432.918 238.103 435.458 238 438C237.396 438.029 236.793 438.058 236.171 438.088C219.181 438.928 219.181 438.928 204 446C202.907 446.722 201.814 447.444 200.687 448.187C192.699 456.548 188.696 465.298 188.664 476.758C188.657 477.583 188.651 478.409 188.644 479.259C188.634 480.996 188.629 482.732 188.629 484.468C188.625 487.124 188.589 489.778 188.551 492.434C188.545 494.125 188.541 495.816 188.539 497.508C188.517 498.695 188.517 498.695 188.495 499.907C188.525 503.5 188.638 505.542 190.904 508.406C191.941 509.195 191.941 509.195 193 510C193.66 510.66 194.32 511.32 195 512C172.678 512.117 150.355 512.205 128.033 512.259C117.668 512.285 107.303 512.32 96.9389 512.377C87.9053 512.427 78.8718 512.459 69.8381 512.47C65.0546 512.477 60.2714 512.492 55.488 512.529C50.9851 512.563 46.4827 512.573 41.9796 512.566C40.3276 512.567 38.6756 512.577 37.0237 512.596C34.7656 512.621 32.5095 512.615 30.2512 512.601C28.9884 512.606 27.7255 512.61 26.4244 512.615C21.8814 511.799 20.2422 510.234 16.9999 507C16.2448 504.999 16.2448 504.999 16.2394 503.043C16.2237 502.301 16.2081 501.559 16.1919 500.795C16.2072 500.005 16.2225 499.216 16.2382 498.402C16.2348 497.572 16.2315 496.742 16.228 495.887C16.2283 494.131 16.2435 492.375 16.2726 490.619C16.312 487.969 16.2934 485.324 16.2675 482.674C16.2723 468.864 18.651 458.438 28.5312 448.195C40.0928 437.914 52.1761 436.812 66.9999 437C66.9999 430.07 66.9999 423.14 66.9999 416C65.3499 415.34 63.6999 414.68 61.9999 414C53.4425 407.618 49.7435 398.205 47.9999 388C47.7309 384.747 47.6956 381.513 47.6991 378.25C47.6949 377.352 47.6906 376.454 47.6862 375.528C47.6805 373.643 47.6799 371.757 47.6842 369.871C47.6874 367.007 47.6639 364.145 47.6386 361.281C47.6363 359.437 47.6356 357.594 47.6366 355.75C47.6274 354.906 47.6182 354.062 47.6087 353.192C47.672 344.95 49.6923 337.455 54.9999 331C63.3637 323.673 70.2464 322.65 81.1274 322.684ZM103 420C103 425.61 103 431.22 103 437C103.33 437 103.66 437 104 437C104 431.39 104 425.78 104 420C103.67 420 103.34 420 103 420Z" fill="#37CC90"/>
<path d="M324.015 12.3651C324.709 12.3573 325.403 12.3495 326.118 12.3415C328.439 12.3216 330.757 12.3373 333.078 12.3531C334.744 12.3463 336.41 12.3374 338.075 12.3265C342.596 12.3037 347.116 12.3126 351.637 12.3284C356.37 12.3411 361.102 12.3293 365.835 12.3215C373.783 12.3124 381.731 12.3244 389.679 12.3482C398.865 12.3754 408.051 12.3666 417.236 12.339C425.125 12.3163 433.014 12.3132 440.903 12.3262C445.614 12.334 450.324 12.3351 455.035 12.3186C459.465 12.3041 463.894 12.3142 468.324 12.343C469.949 12.3496 471.574 12.3478 473.198 12.3367C475.419 12.323 477.637 12.3402 479.858 12.3651C481.1 12.367 482.341 12.3689 483.621 12.3708C488.145 13.2133 489.783 14.7437 493 18C494.181 21.543 494.149 24.3895 494.177 28.1302C494.183 28.8525 494.19 29.5748 494.197 30.319C494.217 32.7088 494.228 35.0985 494.238 37.4883C494.242 38.3055 494.246 39.1227 494.251 39.9647C494.271 44.2899 494.286 48.615 494.295 52.9402C494.306 57.4025 494.341 61.8642 494.38 66.3263C494.406 69.7622 494.415 73.198 494.418 76.6339C494.423 78.2785 494.435 79.9231 494.453 81.5677C494.478 83.8727 494.477 86.1765 494.47 88.4817C494.476 89.7917 494.482 91.1017 494.488 92.4514C493.911 96.6489 492.704 98.767 490 102C486.928 103.937 484.559 104.252 480.959 104.258C479.943 104.265 478.926 104.272 477.879 104.279C476.77 104.276 475.661 104.274 474.518 104.271C472.759 104.279 472.759 104.279 470.964 104.287C467.751 104.3 464.538 104.304 461.326 104.306C457.961 104.31 454.596 104.328 451.231 104.346C441.221 104.395 431.211 104.426 421.201 104.447C413.421 104.464 405.641 104.486 397.861 104.53C394.512 104.548 391.164 104.56 387.815 104.559C384.08 104.559 380.346 104.577 376.611 104.599C374.951 104.593 374.951 104.593 373.256 104.586C366.454 104.65 362.817 105.368 357.752 110.101C357.007 110.887 356.263 111.674 355.496 112.484C354.673 113.336 353.85 114.189 353.002 115.066C351.283 116.866 349.569 118.67 347.861 120.481C347.039 121.327 346.218 122.174 345.371 123.047C344.628 123.829 343.885 124.611 343.119 125.417C341 127 341 127 338.789 126.81C337 126 337 126 336 125C335.83 121.418 335.702 117.843 335.658 114.258C335.553 109.758 335.553 109.758 333.351 105.981C330.354 104.731 327.93 104.699 324.687 104.688C319.17 104.383 316.186 103.541 312.172 99.7657C309.509 95.7535 309.869 90.8502 309.855 86.1936C309.851 85.5296 309.848 84.8655 309.844 84.1813C309.835 81.9971 309.833 79.8131 309.832 77.6289C309.829 76.1035 309.825 74.578 309.822 73.0525C309.816 69.8592 309.814 66.6658 309.815 63.4725C309.815 59.3893 309.801 55.3063 309.784 51.2232C309.773 48.0739 309.771 44.9245 309.771 41.7752C309.77 40.2701 309.766 38.7651 309.758 37.2601C309.748 35.1519 309.751 33.0441 309.757 30.9358C309.756 29.7385 309.754 28.5411 309.753 27.3074C310.12 22.4 311.019 19.2093 314.143 15.3598C317.701 12.4208 319.444 12.3721 324.015 12.3651Z" fill="#D8DFEC"/>
<path d="M159.198 -0.290558C160.016 -0.303318 160.834 -0.316077 161.677 -0.329224C162.991 -0.332562 162.991 -0.332562 164.332 -0.335968C165.697 -0.345953 165.697 -0.345953 167.09 -0.35614C169.014 -0.366256 170.938 -0.370957 172.862 -0.370636C175.792 -0.375 178.72 -0.411304 181.65 -0.449249C183.523 -0.45512 185.396 -0.459088 187.27 -0.460968C188.575 -0.482525 188.575 -0.482525 189.906 -0.504517C195.774 -0.460876 199.193 0.580722 204 3.99997C207.375 8.35167 209.112 11.8037 209.161 17.2968C209.171 18.162 209.18 19.0272 209.19 19.9187C209.194 20.853 209.199 21.7873 209.203 22.75C209.209 23.7185 209.215 24.6869 209.22 25.6848C209.23 27.7392 209.236 29.7937 209.24 31.8481C209.25 34.9602 209.281 38.0716 209.312 41.1836C209.319 43.1849 209.324 45.1862 209.328 47.1875C209.34 48.1056 209.353 49.0237 209.366 49.9697C209.331 60.1654 207.319 69.5456 200 77C198.73 77.7923 197.459 78.584 196.188 79.375C194.027 81.0503 193.135 82.3259 192.597 85.0156C192.009 90.3358 191.961 95.6523 192 101C192.811 100.965 193.622 100.93 194.457 100.895C206.812 100.592 216.625 102.497 226 111C239.307 126.637 236 144.807 236 165C195.74 165 155.48 165 114 165C114 122.079 114 122.079 125 110C135.417 100.649 147.785 100.552 161 101C160.994 98.0793 160.947 95.1692 160.875 92.25C160.878 91.425 160.88 90.6 160.883 89.75C160.806 87.362 160.661 85.2979 160 83C157.239 80.5287 157.239 80.5287 154 79C147.026 72.6303 143.361 64.2404 142.893 54.8515C142.835 52.3186 142.809 49.7875 142.797 47.2539C142.791 46.3245 142.785 45.3952 142.78 44.4377C142.77 42.4786 142.764 40.5194 142.76 38.5603C142.75 35.5757 142.719 32.5918 142.688 29.6074C142.681 27.6979 142.676 25.7884 142.672 23.8789C142.66 22.9933 142.647 22.1076 142.634 21.1952C142.659 14.2914 143.795 9.54413 148.438 4.18747C151.956 1.18375 154.553 -0.241101 159.198 -0.290558Z" fill="#48BAEC"/>
<path d="M47.9999 360C48.3299 360 48.6599 360 48.9999 360C49.2191 360.834 49.4382 361.668 49.664 362.527C52.8335 373.775 56.8606 381.8 66.9999 388C67.6316 388.414 68.2632 388.828 68.914 389.254C76.9976 393.733 87.3368 393.047 96.1913 391.41C105.251 388.614 112.553 382.349 117 374C119.027 369.431 120.128 364.912 121 360C121.33 360 121.66 360 122 360C122.088 364.25 122.141 368.499 122.187 372.75C122.213 373.937 122.238 375.124 122.264 376.348C122.36 388.088 120.772 399.7 113 409C111.392 409.967 109.766 410.904 108.125 411.812C105.624 413.308 105.624 413.308 104 416C102.825 422.898 103.454 430.059 104 437C105.137 437.003 106.274 437.005 107.445 437.008C120.546 437.25 132.414 439.423 142.254 448.945C149.506 457.479 153.295 465.575 153.371 476.723C153.38 477.546 153.389 478.369 153.398 479.217C153.413 480.949 153.422 482.681 153.425 484.413C153.437 487.058 153.487 489.701 153.537 492.346C153.546 494.034 153.554 495.722 153.559 497.41C153.578 498.197 153.598 498.983 153.618 499.794C153.583 504.001 153.354 505.551 150.653 508.974C147.034 511.737 144.469 512.126 140.048 512.154C139.026 512.163 138.004 512.171 136.951 512.18C135.27 512.186 135.27 512.186 133.555 512.193C132.375 512.201 131.194 512.209 129.977 512.218C126.062 512.243 122.146 512.259 118.23 512.273C116.881 512.279 115.532 512.284 114.183 512.29C108.57 512.311 102.957 512.33 97.3439 512.341C89.3059 512.357 81.2683 512.391 73.2304 512.448C67.5751 512.486 61.9199 512.506 56.2645 512.511C52.8883 512.515 49.5126 512.527 46.1365 512.559C42.3682 512.591 38.6011 512.591 34.8327 512.583C33.7182 512.6 32.6037 512.616 31.4554 512.633C23.0142 512.565 23.0142 512.565 19.3079 509.711C16.2478 506.117 16.2478 506.117 16.2394 503.043C16.2237 502.301 16.2081 501.559 16.1919 500.795C16.2072 500.006 16.2225 499.216 16.2382 498.402C16.2348 497.572 16.2315 496.742 16.228 495.887C16.2283 494.131 16.2435 492.375 16.2726 490.619C16.312 487.969 16.2934 485.324 16.2675 482.674C16.2723 468.864 18.651 458.438 28.5312 448.195C40.0928 437.914 52.1761 436.812 66.9999 437C66.9999 430.07 66.9999 423.14 66.9999 416C65.3499 415.34 63.6999 414.68 61.9999 414C54.3597 408.302 50.2996 399.892 48.3771 390.738C47.5869 385.002 47.7981 379.216 47.8749 373.438C47.8839 372.143 47.893 370.848 47.9023 369.514C47.9257 366.342 47.9585 363.171 47.9999 360Z" fill="#7784EC"/>
<path d="M462 360C462.33 360 462.66 360 463 360C463.125 364.48 463.215 368.959 463.275 373.44C463.299 374.959 463.333 376.477 463.377 377.996C463.741 390.957 462.021 401.304 452.941 411.281C451 413 451 413 447.832 414.578C444.634 417.313 444.55 417.79 444.195 421.766C444.142 423.593 444.12 425.422 444.125 427.25C444.104 428.186 444.084 429.122 444.062 430.086C444.015 432.392 443.996 434.694 444 437C445.091 436.965 445.091 436.965 446.203 436.93C460.739 436.669 473.239 438.795 484.184 448.988C487.454 452.611 489.929 456.59 492 461C492.27 461.556 492.54 462.111 492.818 462.684C495.867 470.082 495.488 477.919 495.446 485.785C495.437 488.259 495.466 490.73 495.498 493.203C495.5 494.786 495.499 496.37 495.496 497.953C495.507 498.687 495.519 499.42 495.53 500.176C495.464 505.064 494.484 507.574 491 511C488.523 512.238 486.864 512.137 484.092 512.154C483.055 512.163 482.017 512.171 480.949 512.18C479.806 512.184 478.663 512.188 477.485 512.193C476.285 512.201 475.085 512.209 473.849 512.218C469.863 512.243 465.877 512.259 461.891 512.273C460.518 512.279 459.146 512.284 457.773 512.29C452.063 512.311 446.354 512.33 440.644 512.341C432.463 512.357 424.283 512.391 416.102 512.448C410.349 512.486 404.596 512.506 398.843 512.511C395.408 512.515 391.973 512.527 388.537 512.559C384.702 512.595 380.868 512.591 377.032 512.583C375.897 512.6 374.763 512.616 373.593 512.633C365.006 512.565 365.006 512.565 361.31 509.589C356.578 504.286 357.777 498.056 357.76 491.299C357.75 489.036 357.719 486.774 357.687 484.512C357.589 471.244 359.675 459.609 369.215 449.699C381.719 438.319 392.678 437.635 409 438C409 430.74 409 423.48 409 416C407.68 415.34 406.36 414.68 405 414C398.464 409.426 395.028 404.3 392 397C391.653 396.257 391.306 395.514 390.949 394.748C389.842 391.542 389.773 388.993 389.805 385.605C389.811 384.403 389.818 383.201 389.824 381.963C389.841 380.717 389.858 379.471 389.875 378.188C389.884 376.922 389.893 375.657 389.902 374.354C389.926 371.235 389.959 368.118 390 365C392.089 367.089 392.677 368.423 393.75 371.125C397.813 380.363 402.944 385.494 412 390C412.75 390.375 413.5 390.75 414.273 391.137C423.989 394.213 435.475 392.713 444.519 388.484C453.29 383.236 458.009 375.602 461 366C461.391 364.01 461.748 362.012 462 360Z" fill="#7785EC"/>
<path d="M219 360C219.33 360 219.66 360 220 360C220.147 360.762 220.294 361.524 220.445 362.309C222.854 373.396 227.587 381.453 237 388C245.675 393.361 256.744 393.342 266.555 391.527C276.293 388.262 283.722 381.566 288.254 372.488C289.221 370.342 290.138 368.19 291 366C291.33 366 291.66 366 292 366C292.088 370.167 292.141 374.333 292.188 378.5C292.213 379.673 292.238 380.846 292.264 382.055C292.366 394.161 288.822 403.14 280.438 411.938C277.768 414.644 276.933 415.017 273 416C273 423.26 273 430.52 273 438C275.207 437.938 277.414 437.876 279.688 437.812C291.083 437.726 301.047 439.578 310 447C310.938 447.754 310.938 447.754 311.895 448.523C319.092 454.953 322.9 463.54 324 473C324.184 477.499 324.186 481.996 324.185 486.498C324.188 488.627 324.206 490.754 324.225 492.883C324.228 494.247 324.23 495.612 324.23 496.977C324.235 498.205 324.239 499.433 324.243 500.698C323.997 504.047 323.737 506.129 322 509C316.415 512.832 310.818 512.431 304.307 512.404C303.135 512.411 301.964 512.418 300.757 512.425C296.89 512.443 293.023 512.439 289.156 512.434C287.146 512.436 285.136 512.44 283.127 512.445C276.811 512.459 270.496 512.457 264.18 512.446C257.674 512.435 251.168 512.449 244.661 512.475C239.065 512.498 233.469 512.504 227.873 512.498C224.535 512.495 221.198 512.499 217.86 512.515C214.137 512.529 210.416 512.519 206.693 512.502C205.043 512.516 205.043 512.516 203.359 512.531C197.285 512.472 193.593 512.124 189 508C187.401 504.802 187.794 501.324 187.762 497.809C187.754 496.989 187.746 496.17 187.737 495.326C187.723 493.587 187.713 491.847 187.705 490.108C187.688 487.472 187.644 484.837 187.6 482.201C187.449 466.013 187.449 466.013 192 459C192.458 458.141 192.915 457.283 193.387 456.398C198.779 448.01 206.414 441.982 216 439C221.021 438.084 225.84 437.892 230.938 437.938C231.963 437.944 231.963 437.944 233.01 437.951C234.673 437.963 236.337 437.981 238 438C238.065 434.456 238.04 430.919 238 427.375C238.019 426.376 238.039 425.377 238.059 424.348C238.037 418.743 238.037 418.743 235.269 414.104C233.233 412.627 231.139 411.322 229 410C221.646 401.591 218.85 391.524 218.902 380.508C218.906 379.309 218.909 378.11 218.912 376.875C218.92 375.638 218.929 374.4 218.938 373.125C218.942 371.864 218.947 370.604 218.951 369.305C218.963 366.203 218.979 363.102 219 360Z" fill="#7785EC"/>
<path d="M234 60C239.773 64.4626 244.175 70.558 248.715 76.2109C250.905 78.8835 253.171 81.4483 255.5 84C259.494 88.3849 263.276 92.9072 266.98 97.539C268.603 99.5161 270.276 101.304 272.062 103.125C274.704 107.045 274.446 110.452 274 115C273.212 118.769 272.115 122.414 270.973 126.09C270.664 127.116 270.356 128.141 270.038 129.198C269.058 132.448 268.06 135.693 267.062 138.937C266.395 141.144 265.729 143.35 265.064 145.557C263.849 149.573 262.632 153.59 261.399 157.601C261.152 158.405 260.906 159.208 260.652 160.036C260 162 260 162 259 164C260.412 163.948 260.412 163.948 261.852 163.895C263.719 163.854 263.719 163.854 265.625 163.812C266.855 163.778 268.085 163.743 269.352 163.707C273.346 164.028 275.655 164.817 279 167C281.636 170.378 281.367 174.216 281.438 178.375C281.477 179.661 281.517 180.948 281.559 182.273C280.904 186.637 279.441 189.298 276 192C272.987 192.603 270.772 192.81 267.764 192.755C266.938 192.764 266.112 192.772 265.262 192.781C262.497 192.803 259.734 192.782 256.969 192.76C254.986 192.767 253.003 192.776 251.021 192.787C245.636 192.811 240.252 192.796 234.868 192.773C229.236 192.754 223.603 192.765 217.971 192.772C208.512 192.778 199.053 192.76 189.594 192.727C178.655 192.69 167.717 192.692 156.778 192.714C146.259 192.735 135.74 192.728 125.22 192.708C120.742 192.7 116.264 192.702 111.785 192.712C106.512 192.723 101.24 192.708 95.9672 192.675C94.031 192.667 92.0947 192.667 90.1586 192.677C87.5171 192.688 84.8776 192.669 82.2363 192.642C81.4683 192.652 80.7003 192.663 79.9091 192.673C75.9518 192.597 74.1813 192.144 71.0477 189.647C68.1675 185.924 67.8439 183.207 67.8125 178.625C67.7983 177.689 67.7841 176.753 67.7695 175.789C68.0791 172.043 69.0439 169.164 71.4375 166.25C74.8696 163.504 78.4641 163.877 82.6628 163.88C83.3432 163.879 84.0236 163.878 84.7247 163.877C87.0094 163.875 89.2941 163.881 91.5789 163.886C93.2147 163.887 94.8506 163.887 96.4865 163.886C100.932 163.886 105.378 163.892 109.824 163.899C114.469 163.905 119.113 163.905 123.758 163.907C132.555 163.91 141.352 163.918 150.15 163.928C160.164 163.939 170.178 163.945 180.193 163.95C200.795 163.96 221.398 163.978 242 164C242.409 162.35 242.409 162.35 242.826 160.668C243.189 159.211 243.551 157.754 243.913 156.298C244.182 155.213 244.182 155.213 244.456 154.106C245.691 149.15 247.044 144.257 248.613 139.395C249.061 137.966 249.508 136.537 249.955 135.107C250.639 132.936 251.328 130.766 252.023 128.597C252.709 126.45 253.381 124.298 254.051 122.145C254.45 120.89 254.848 119.636 255.259 118.343C256.002 114.992 256.097 113.215 255 110C253.29 107.727 251.588 105.662 249.688 103.562C248.591 102.318 247.495 101.073 246.398 99.8281C245.835 99.1945 245.271 98.5609 244.69 97.9082C241.019 93.7633 237.433 89.5435 233.848 85.3242C232.015 83.1684 230.149 81.051 228.246 78.957C221.453 71.2497 221.453 71.2497 221.125 66.5625C222 63 222 63 224.062 60.4375C228.101 58.4613 229.724 58.5505 234 60Z" fill="#C8AC91"/>
<path d="M99 192C148.83 192 198.66 192 250 192C250 235.23 250 278.46 250 323C245.05 323.99 240.1 324.98 235 326C233.02 326.99 231.04 327.98 229 329C228.995 327.81 228.995 327.81 228.989 326.595C228.951 319.05 228.894 311.506 228.816 303.961C228.777 300.084 228.745 296.207 228.729 292.33C228.714 288.575 228.679 284.821 228.632 281.067C228.617 279.648 228.609 278.228 228.608 276.809C228.586 258.092 223.706 242.168 210.57 228.32C202.211 220.774 192.821 216.694 182 214C181.442 213.825 180.883 213.65 180.308 213.47C176.983 212.793 173.674 212.822 170.294 212.795C169.523 212.785 168.752 212.775 167.957 212.765C165.414 212.733 162.871 212.708 160.328 212.684C158.563 212.663 156.797 212.642 155.032 212.621C150.389 212.565 145.747 212.516 141.104 212.468C136.365 212.418 131.626 212.362 126.887 212.307C117.591 212.199 108.296 212.098 99 212C99 205.4 99 198.8 99 192Z" fill="#B28A65"/>
<path d="M159.199 -0.290558C160.017 -0.303318 160.834 -0.316077 161.677 -0.329224C162.991 -0.332562 162.991 -0.332562 164.332 -0.335968C165.697 -0.345953 165.697 -0.345953 167.09 -0.35614C169.014 -0.366256 170.938 -0.370957 172.862 -0.370636C175.792 -0.375 178.721 -0.411304 181.65 -0.449249C183.523 -0.45512 185.397 -0.459088 187.27 -0.460968C188.575 -0.482525 188.575 -0.482525 189.906 -0.504517C195.774 -0.460876 199.193 0.580722 204 3.99997C207.375 8.35167 209.112 11.8037 209.161 17.2968C209.171 18.162 209.18 19.0272 209.19 19.9187C209.195 20.853 209.199 21.7873 209.203 22.75C209.209 23.7185 209.215 24.6869 209.22 25.6848C209.23 27.7392 209.236 29.7937 209.24 31.8481C209.25 34.9602 209.281 38.0716 209.313 41.1836C209.319 43.1849 209.324 45.1862 209.328 47.1875C209.341 48.1056 209.353 49.0237 209.366 49.9697C209.331 60.2079 207.284 69.4904 200 77C199.425 77.3899 198.851 77.7799 198.258 78.1816C195.288 80.2973 193.294 81.7709 192.422 85.4143C192.266 88.2534 192.276 91.0333 192.375 93.875C192.583 101.568 192.283 107.049 187 113C182.547 116.578 178.499 116.621 172.953 116.484C168.431 115.743 165.666 113.679 163 110C161.351 106.467 160.767 103.727 160.797 99.8398C160.785 98.8814 160.774 97.923 160.762 96.9355C160.754 94.9329 160.762 92.9302 160.785 90.9277C160.737 88.1683 160.636 85.6867 160 83C157.277 80.4064 157.277 80.4064 154 79C147.026 72.6303 143.361 64.2404 142.893 54.8515C142.835 52.3186 142.809 49.7875 142.797 47.2539C142.791 46.3245 142.786 45.3952 142.78 44.4377C142.77 42.4786 142.764 40.5194 142.76 38.5603C142.75 35.5757 142.719 32.5918 142.688 29.6074C142.681 27.6979 142.676 25.7884 142.672 23.8789C142.66 22.9933 142.647 22.1076 142.635 21.1952C142.659 14.2914 143.795 9.54413 148.438 4.18747C151.956 1.18375 154.553 -0.241101 159.199 -0.290558Z" fill="#FAC0B8"/>
<path d="M332.059 226.566C332.807 226.561 333.555 226.556 334.325 226.551C335.897 226.544 337.47 226.545 339.042 226.554C341.428 226.562 343.812 226.534 346.197 226.502C353.972 226.467 360.356 226.495 367 231C367.887 231.578 368.774 232.155 369.687 232.75C375.708 238.608 378.09 244.474 378.241 252.787C378.294 266.472 376.256 277.536 366.625 287.75C358.69 295.29 349.874 297.422 339.064 297.364C328.942 297.101 321.196 293.003 314 286C305.413 275.576 303.308 264.268 304 251C304.816 242.692 308.459 237.359 314.437 231.688C320.249 227.86 325.135 226.538 332.059 226.566Z" fill="#364A68"/>
<path d="M424.057 322.629C426.296 322.625 428.533 322.589 430.771 322.551C440.103 322.478 446.809 323.697 454.75 328.75C461.159 335.159 463.218 341.502 463.25 350.437C463.244 363.003 461.118 373.27 452.5 382.75C451.675 383.492 450.85 384.235 450 385C449.278 385.681 448.556 386.361 447.812 387.062C438.469 393.499 428.094 394.688 417 393C412.553 391.554 408.864 389.614 405 387C404.389 386.606 403.778 386.211 403.148 385.805C396.166 380.684 392.239 372.86 390.477 364.578C389.147 354.593 387.82 342.94 393.312 334.016C401.929 323.724 411.293 322.627 424.057 322.629Z" fill="#364968"/>
<path d="M81.1274 322.684C83.23 322.687 85.3312 322.664 87.4336 322.639C99.6175 322.578 106.989 324.141 115.895 332.66C122.022 339.47 122.313 347.971 122.215 356.773C121.445 368.33 117.359 377.414 109.031 385.395C99.1774 393.183 88.1009 394.087 76 393C72.5686 392.173 69.9388 390.931 67 389C65.9597 388.346 65.9597 388.346 64.8984 387.68C55.9813 381.568 50.9908 373.029 48.4101 362.621C46.7775 352.188 47.78 343.082 52.6875 333.812C60.6758 324.097 69.0977 322.647 81.1274 322.684Z" fill="#364968"/>
<path d="M258.25 322.625C259.522 322.588 260.795 322.55 262.105 322.512C271.512 322.424 278.183 323.924 285.437 330.063C286.211 331.022 286.211 331.022 287 332C287.536 332.639 288.072 333.279 288.625 333.938C294.525 342.787 293.374 357.039 291.629 367.147C289.044 376.965 281.641 384.845 273.152 390.027C263.865 394.224 251.273 394.938 241.562 391.563C232.217 387.049 224.542 379.077 221.039 369.324C218.281 359.773 217.077 348.544 220.832 339.094C224.72 332.123 230.304 326.458 238 324C244.738 322.701 251.407 322.7 258.25 322.625Z" fill="#364968"/>
<path d="M174.187 226.563C175.343 226.517 176.499 226.471 177.689 226.424C186.851 226.306 194.575 228.428 201.708 234.439C207.391 240.754 209.663 247.611 209.375 255.938C209.358 256.73 209.342 257.523 209.325 258.34C208.985 269.699 206.155 279.619 198 288C187.424 296.354 177.21 298.184 164 297C155.358 294.99 147.941 290.052 142.75 282.875C135.937 271.706 134.165 259.489 136.625 246.625C139.733 238.432 143.767 233.527 151.34 229.094C158.464 226.165 166.608 226.683 174.187 226.563Z" fill="#354968"/>
<path d="M304 262C304.33 262 304.66 262 305 262C305.147 262.818 305.147 262.818 305.297 263.652C307.377 274.141 311.328 283.967 320.312 290.25C321.858 291.195 323.42 292.113 325 293C325.593 293.343 326.186 293.686 326.797 294.039C334.476 297.675 345.98 297.218 354 294.875C362.048 291.594 369.337 285.352 373.223 277.543C375.086 273.089 376.491 268.831 377 264C377.33 264 377.66 264 378 264C378.1 268.356 378.172 272.711 378.22 277.068C378.24 278.545 378.267 280.022 378.302 281.498C378.578 293.468 377.351 303.565 369.713 313.265C367.892 315.109 366.062 316.245 363.848 317.578C361.367 319.401 360.19 320.361 359.307 323.337C359.095 326.064 359.09 328.704 359.187 331.438C359.286 338.107 359.233 343.059 356 349C351.937 353.063 346.053 352.284 340.625 352.375C339.787 352.412 338.949 352.45 338.086 352.488C333.931 352.547 330.908 352.418 327.523 349.852C322.229 343.868 322.741 337.719 322.875 330.125C322.884 329.15 322.893 328.176 322.902 327.172C322.926 324.781 322.959 322.391 323 320C322.399 319.713 321.799 319.425 321.18 319.129C313.898 315.357 308.644 308.969 306.076 301.206C303.997 292.604 303.638 284.512 303.812 275.688C303.828 274.35 303.841 273.012 303.853 271.674C303.888 268.449 303.937 265.225 304 262Z" fill="#FAC0B8"/>
<path d="M48 360C48.33 360 48.66 360 49 360C49.2191 360.834 49.4383 361.668 49.6641 362.527C52.8336 373.775 56.8607 381.8 67 388C67.6316 388.414 68.2633 388.828 68.9141 389.254C76.9977 393.733 87.3369 393.047 96.1914 391.41C105.251 388.614 112.553 382.349 117 374C119.027 369.431 120.128 364.912 121 360C121.33 360 121.66 360 122 360C122.088 364.25 122.141 368.499 122.187 372.75C122.213 373.937 122.238 375.124 122.264 376.348C122.36 388.09 120.771 399.698 113 409C111.412 409.945 109.807 410.861 108.187 411.75C105.432 413.645 104.189 415.016 103.55 418.334C103.209 422.204 103.113 426.033 103.161 429.917C103.243 436.7 102.887 441.481 98.4297 446.914C94.4384 448.698 90.4416 448.431 86.125 448.375C85.2394 448.387 84.3538 448.398 83.4414 448.41C78.3024 448.387 74.2537 448.187 70 445C66.3097 439.113 66.6403 433.349 66.8125 426.562C66.8328 425.036 66.8328 425.036 66.8535 423.479C66.8886 420.985 66.9378 418.493 67 416C66.2472 415.732 65.4944 415.464 64.7187 415.188C57.9199 412.218 54.24 406.258 51.043 399.82C47.805 391.065 47.7516 382.713 47.875 373.438C47.884 372.143 47.893 370.848 47.9023 369.514C47.9257 366.342 47.9585 363.171 48 360Z" fill="#FAC0B8"/>
<path d="M462 360C462.33 360 462.66 360 463 360C463.125 364.48 463.215 368.959 463.275 373.44C463.3 374.959 463.334 376.477 463.377 377.996C463.741 390.957 462.021 401.304 452.941 411.281C451 413 451 413 447.82 414.504C444.829 416.658 444.829 416.658 444.473 419.392C444.29 422.42 444.266 425.405 444.313 428.438C444.368 441.176 444.368 441.176 441 445C436.409 449.062 432.008 448.587 426.125 448.625C424.654 448.693 424.654 448.693 423.152 448.762C418.407 448.807 414.866 448.657 411.328 445.27C407.668 440.087 408.356 434.14 408.625 428.062C408.652 426.902 408.679 425.741 408.707 424.545C408.777 421.695 408.876 418.848 409 416C408.381 415.698 407.761 415.397 407.123 415.086C399.315 411.092 395.276 404.897 392 397C391.653 396.257 391.307 395.514 390.949 394.748C389.842 391.542 389.773 388.993 389.805 385.605C389.811 384.403 389.818 383.201 389.824 381.963C389.841 380.717 389.858 379.471 389.875 378.188C389.884 376.922 389.893 375.657 389.902 374.354C389.926 371.235 389.959 368.118 390 365C392.089 367.089 392.677 368.423 393.75 371.125C397.813 380.363 402.944 385.494 412 390C412.75 390.375 413.501 390.75 414.274 391.137C423.989 394.213 435.475 392.713 444.52 388.484C453.29 383.236 458.009 375.602 461 366C461.391 364.01 461.749 362.012 462 360Z" fill="#FAC0B8"/>
<path d="M136 268C139.103 271.103 140.114 275.104 141.684 279.152C142.902 281.787 143.925 283.07 146 285C146 285.66 146 286.32 146 287C146.58 287.278 147.16 287.557 147.758 287.844C150.577 289.298 153.164 291.028 155.805 292.781C164.014 297.339 174.225 297.287 183.242 295.277C193.113 291.901 198.916 287.099 204 278C205.446 275.041 206.772 272.055 208 269C208.33 269 208.66 269 209 269C210.007 300.686 210.007 300.686 200.074 313C198 315 198 315 196.232 315.922C194.056 317.111 192.601 318.093 191 320C190.096 324.145 190.249 328.212 190.375 332.438C190.664 344.964 190.664 344.964 187.602 348.723C182.884 352.852 178.801 352.285 172.75 352.375C171.337 352.431 171.337 352.431 169.895 352.488C165.365 352.545 162.031 352.563 158.391 349.664C155.059 345.952 154.895 343.501 155 338.703C154.999 337.662 154.998 336.62 154.996 335.547C154.999 333.364 155.032 331.182 155.098 329C155.099 322.892 155.099 322.892 152.051 317.836C149.762 316.106 147.406 314.56 145 313C142.879 310.523 142.879 310.523 141.563 308.375C140.884 307.304 140.884 307.304 140.192 306.211C135.51 297.524 135.859 288.628 135.938 279C135.944 277.409 135.944 277.409 135.951 275.785C135.963 273.19 135.979 270.595 136 268Z" fill="#FAC0B8"/>
<path d="M219 360C219.33 360 219.66 360 220 360C220.147 360.762 220.294 361.524 220.445 362.309C222.854 373.396 227.587 381.453 237 388C245.675 393.361 256.745 393.342 266.555 391.527C276.293 388.262 283.722 381.566 288.254 372.488C289.221 370.342 290.138 368.19 291 366C291.33 366 291.66 366 292 366C292.088 370.167 292.141 374.333 292.188 378.5C292.213 379.673 292.238 380.846 292.264 382.055C292.366 394.161 288.822 403.14 280.438 411.938C277.996 414.413 276.367 415.26 273 416C273.026 416.761 273.052 417.523 273.079 418.307C273.184 421.767 273.248 425.227 273.313 428.688C273.354 429.886 273.396 431.084 273.44 432.318C273.561 441.025 273.561 441.025 271.9 443.913C270.543 445.27 270.543 445.27 268 447C267.67 447.33 267.34 447.66 267 448C263.425 448.308 259.836 448.278 256.25 448.312C255.247 448.342 254.244 448.371 253.211 448.4C248.825 448.438 245.837 448.447 241.922 446.355C236.672 439.921 237.731 431.932 237.961 424.055C237.99 418.614 237.99 418.614 235.278 414.13C233.176 412.564 233.176 412.564 230.96 411.222C224.933 407.465 222.024 399.499 220 393C219.154 388.782 218.882 384.806 218.902 380.508C218.906 379.309 218.909 378.11 218.912 376.875C218.921 375.638 218.929 374.4 218.938 373.125C218.942 371.864 218.947 370.604 218.951 369.305C218.963 366.203 218.979 363.102 219 360Z" fill="#F9C0B8"/>
<path d="M347.718 34.8461C348.713 34.8375 349.708 34.8289 350.734 34.8201C352.378 34.8137 352.378 34.8137 354.056 34.8072C355.207 34.799 356.358 34.7908 357.544 34.7824C361.368 34.7575 365.192 34.741 369.016 34.7266C370.319 34.7213 371.623 34.7159 372.966 34.7105C378.444 34.6888 383.922 34.6701 389.4 34.6588C397.248 34.6426 405.096 34.6094 412.944 34.5524C418.463 34.5137 423.982 34.4942 429.502 34.4889C432.798 34.4853 436.093 34.4708 439.388 34.4408C443.068 34.4093 446.747 34.4091 450.427 34.4165C451.515 34.4001 452.603 34.3837 453.724 34.3668C461.969 34.435 461.969 34.435 465.68 37.349C468 40 468 40 468.687 43C467.727 47.1906 466.471 48.4308 463 51C459.169 51.7431 455.388 51.6623 451.496 51.6153C449.751 51.6236 449.751 51.6236 447.971 51.6321C444.126 51.6439 440.282 51.6196 436.437 51.5938C433.766 51.5921 431.095 51.592 428.424 51.5939C422.825 51.5938 417.226 51.5741 411.628 51.542C405.161 51.5051 398.694 51.4963 392.227 51.5033C385.998 51.5096 379.77 51.4989 373.541 51.4794C370.894 51.4723 368.247 51.4692 365.599 51.47C361.901 51.4683 358.202 51.4469 354.504 51.42C353.408 51.4229 352.311 51.4258 351.182 51.4288C345.455 51.3644 341.265 51.2647 337 47C336.41 40.7472 336.41 40.7472 338.875 37.625C342.049 35.1979 343.779 34.8714 347.718 34.8461Z" fill="#AAC0D3"/>
<path d="M159.198 -0.290558C160.016 -0.303318 160.834 -0.316077 161.677 -0.329224C162.991 -0.332562 162.991 -0.332562 164.332 -0.335968C165.697 -0.345953 165.697 -0.345953 167.09 -0.35614C169.014 -0.366256 170.938 -0.370957 172.862 -0.370636C175.792 -0.375 178.72 -0.411304 181.65 -0.449249C183.523 -0.45512 185.396 -0.459088 187.27 -0.460968C188.575 -0.482525 188.575 -0.482525 189.906 -0.504517C195.774 -0.460876 199.193 0.580722 204 3.99997C208.296 9.53906 209.148 13.6809 209.098 20.5117C209.096 21.2399 209.095 21.9681 209.093 22.7184C209.088 25.0415 209.075 27.3644 209.062 29.6875C209.057 31.2636 209.053 32.8398 209.049 34.416C209.038 38.2774 209.021 42.1386 209 46C207 43 207 43 205.75 39.5625C203.731 35.453 201.976 34.1535 198 32C191.937 29.9791 184.914 30.6922 178.551 30.6499C176.734 30.6334 174.918 30.6061 173.101 30.5678C170.47 30.5127 167.839 30.4911 165.207 30.4765C164.405 30.4539 163.602 30.4312 162.776 30.4078C156.773 30.43 152.612 32.1179 148 36C146.261 38.5685 146.261 38.5685 145.5 41.3125C145.201 42.1955 144.902 43.0785 144.594 43.9883C144.398 44.6521 144.202 45.316 144 46C143.67 46 143.34 46 143 46C142.925 41.5709 142.871 37.1421 142.835 32.7126C142.82 31.2083 142.8 29.7041 142.774 28.1999C142.737 26.0277 142.72 23.856 142.707 21.6836C142.691 20.3796 142.676 19.0756 142.659 17.7321C143.275 10.9873 145.79 6.44784 151 1.99997C153.836 0.328353 155.918 -0.255633 159.198 -0.290558Z" fill="#394B69"/>
<path d="M234 60C239.773 64.4626 244.175 70.558 248.715 76.2109C250.905 78.8835 253.171 81.4483 255.5 84C259.494 88.3849 263.276 92.9072 266.98 97.539C268.603 99.5161 270.276 101.304 272.062 103.125C274.773 107.146 274.461 110.262 274 115C273.223 118.757 272.138 122.391 271.008 126.055C270.702 127.078 270.396 128.101 270.081 129.156C269.436 131.304 268.785 133.45 268.128 135.595C267.123 138.882 266.136 142.175 265.152 145.469C264.522 147.56 263.89 149.651 263.258 151.742C262.962 152.727 262.666 153.711 262.361 154.725C262.081 155.637 261.801 156.548 261.512 157.488C261.268 158.289 261.024 159.09 260.772 159.915C260 162 260 162 258 165C255.211 165.221 252.653 165.281 249.875 165.187C248.744 165.167 248.744 165.167 247.59 165.146C245.726 165.111 243.863 165.057 242 165C243.215 158.327 244.812 151.913 246.855 145.449C247.401 143.682 247.946 141.914 248.49 140.146C249.342 137.402 250.197 134.659 251.058 131.918C251.897 129.244 252.721 126.566 253.543 123.887C253.804 123.069 254.066 122.251 254.335 121.409C256.073 115.743 256.073 115.743 255 110C253.29 107.727 251.588 105.662 249.688 103.562C248.591 102.318 247.495 101.073 246.398 99.8281C245.835 99.1945 245.271 98.5609 244.69 97.9082C241.019 93.7633 237.433 89.5435 233.848 85.3242C232.015 83.1684 230.149 81.051 228.246 78.957C221.453 71.2497 221.453 71.2497 221.125 66.5625C222 63 222 63 224.062 60.4375C228.101 58.4613 229.724 58.5505 234 60Z" fill="#354968"/>
<path d="M355.219 63.4062C356.509 63.4062 357.8 63.4062 359.13 63.4061C361.857 63.4078 364.583 63.4264 367.31 63.458C370.797 63.4977 374.283 63.502 377.771 63.4945C381.108 63.4907 384.444 63.5115 387.781 63.5312C389.03 63.5314 390.279 63.5316 391.566 63.5318C392.731 63.5478 393.896 63.5637 395.096 63.5801C396.118 63.5885 397.14 63.5969 398.193 63.6056C401.741 64.1041 404.448 65.4477 407 68C407.471 75.3043 407.471 75.3043 405.688 77.9375C402.274 80.087 399.248 80.1437 395.323 80.1929C394.158 80.2089 392.993 80.225 391.793 80.2415C386.476 80.286 381.158 80.3275 375.841 80.3501C373.034 80.3634 370.227 80.3913 367.42 80.4321C363.376 80.4909 359.333 80.5087 355.289 80.5234C353.406 80.5574 353.406 80.5574 351.485 80.5921C341.8 80.5685 341.8 80.5685 338.709 77.6548C336.587 74.358 336.199 72.8448 337 69C341.403 62.1876 347.743 63.3081 355.219 63.4062Z" fill="#AAC0D3"/>
<path d="M141 386.312C144.303 387.069 145.868 388.1 147.959 390.762C150.399 396.008 149.594 402.34 149.488 408.023C149.479 409.495 149.472 410.966 149.467 412.437C149.448 416.294 149.399 420.15 149.343 424.007C149.292 427.949 149.269 431.89 149.244 435.832C149.191 443.555 149.105 451.277 149 459C146.873 456.349 144.762 453.692 142.687 451C140.779 448.635 139.05 447.45 136.386 446.029C133.989 444.339 133.13 443.478 132.35 440.619C132.105 437.569 132.082 434.591 132.141 431.531C132.139 430.418 132.137 429.305 132.135 428.158C132.139 425.808 132.16 423.458 132.197 421.108C132.25 417.512 132.238 413.92 132.219 410.324C132.231 408.039 132.246 405.754 132.266 403.469C132.262 402.395 132.258 401.321 132.254 400.214C132.418 392.783 132.418 392.783 135.358 388.826C138 387 138 387 141 386.312Z" fill="#27AB88"/>
<path d="M373.062 386.438C376.617 387.118 377.777 388.201 380 391C381.188 393.377 381.184 394.96 381.272 397.614C381.304 398.572 381.337 399.531 381.37 400.518C381.481 404.912 381.563 409.306 381.625 413.701C381.666 416.017 381.728 418.332 381.809 420.647C381.925 423.988 381.975 427.325 382.012 430.668C382.06 431.697 382.109 432.727 382.159 433.787C382.151 436.831 382.021 439.128 381 442C378.643 444.303 376.304 445.892 373.451 447.531C370.117 449.529 368.322 451.928 366 455C365.67 455 365.34 455 365 455C364.884 446.872 364.795 438.745 364.741 430.617C364.715 426.842 364.679 423.068 364.623 419.294C364.568 415.65 364.539 412.006 364.526 408.362C364.516 406.973 364.498 405.584 364.471 404.196C364.435 402.248 364.433 400.299 364.432 398.351C364.421 397.243 364.41 396.135 364.399 394.993C365.383 390.094 368.17 387.336 373.062 386.438Z" fill="#27AA88"/>
<path d="M207 387C209.938 389.063 211.723 390.715 212.497 394.305C212.73 397.212 212.798 400.08 212.805 402.996C212.826 404.595 212.826 404.595 212.848 406.227C212.869 408.479 212.876 410.731 212.872 412.983C212.875 416.424 212.953 419.858 213.035 423.299C213.046 425.489 213.053 427.68 213.055 429.871C213.085 430.896 213.116 431.921 213.148 432.978C213.036 439.979 213.036 439.979 210.029 442.943C207.744 444.47 205.441 445.745 203 447C200.5 448.915 198.223 450.777 196 453C195.884 445.133 195.795 437.266 195.741 429.399C195.715 425.745 195.68 422.092 195.623 418.439C195.568 414.912 195.539 411.385 195.526 407.857C195.512 405.86 195.473 403.864 195.434 401.867C195.43 391.766 195.43 391.766 198.343 388.674C201.644 386.594 203.172 386.202 207 387Z" fill="#27AA88"/>
<path d="M309.5 386.5C313.611 387.087 314.514 387.76 317 391C317.481 393.873 317.481 393.873 317.454 397.237C317.454 398.498 317.454 399.759 317.453 401.059C317.433 402.43 317.412 403.801 317.391 405.172C317.383 406.579 317.378 407.985 317.374 409.392C317.358 413.088 317.319 416.783 317.275 420.479C317.234 424.253 317.216 428.027 317.195 431.801C317.153 439.201 317.084 446.6 317 454C315.36 452.565 313.721 451.129 312.086 449.689C310.05 447.959 310.05 447.959 307.786 446.673C304.524 444.68 302.379 443.307 301.285 439.535C301.007 436.459 300.995 433.486 301.078 430.398C301.08 429.284 301.082 428.17 301.084 427.023C301.096 424.674 301.127 422.326 301.177 419.978C301.25 416.38 301.259 412.786 301.258 409.188C301.278 406.904 301.301 404.62 301.328 402.336C301.333 401.26 301.337 400.184 301.342 399.075C301.367 398.074 301.393 397.072 301.419 396.041C301.434 395.161 301.45 394.282 301.465 393.377C302.501 388.774 304.998 387.143 309.5 386.5Z" fill="#27AA88"/>
<path d="M161 83C162.003 83.3248 163.006 83.6497 164.039 83.9844C167.857 85.0709 171.394 85.2667 175.375 85.25C176.6 85.2552 177.824 85.2603 179.086 85.2656C183.544 84.963 187.677 84.0897 192 83C192.147 86.4995 192.234 89.9983 192.312 93.5C192.354 94.4823 192.396 95.4645 192.439 96.4766C192.552 103.261 191.605 107.865 187 113C182.546 116.578 178.499 116.621 172.953 116.484C168.43 115.743 165.665 113.679 163 110C161.321 106.419 160.758 103.642 160.805 99.6992C160.811 98.7228 160.817 97.7463 160.824 96.7402C160.841 95.7328 160.858 94.7254 160.875 93.6875C160.884 92.6608 160.893 91.634 160.902 90.5762C160.926 88.0505 160.959 85.5254 161 83Z" fill="#F9C0B8"/>
<path d="M316 341C318.64 341 321.28 341 324 341C324.651 342.725 325.302 344.451 325.953 346.176C327.404 348.704 328.378 349.637 331 351C334.154 351.413 337.262 351.373 340.438 351.312C341.707 351.317 341.707 351.317 343.002 351.322C349.264 351.293 349.264 351.293 355 349C356.433 347.093 356.433 347.093 357.312 344.875C357.639 344.151 357.965 343.426 358.301 342.68C358.532 342.125 358.762 341.571 359 341C361.64 341 364.28 341 367 341C367.421 347.099 367.09 350.137 363 355C356.685 360.563 352.137 360.276 343.898 360.35C341.903 360.375 339.909 360.431 337.914 360.488C331.134 360.55 326.031 360.451 320.422 356.41C316.791 352.81 316.048 349.002 315.812 344.062C315.874 343.052 315.936 342.041 316 341Z" fill="#1C9385"/>
<path d="M153 101C155.64 101 158.28 101 161 101C161.22 101.888 161.22 101.888 161.445 102.793C162.734 107.333 163.99 111.296 167.996 114.188C173.669 116.488 179.934 115.812 185.5 113.625C189.025 109.924 190.44 105.81 192 101C194.31 101 196.62 101 199 101C199.347 106.548 198.866 111.137 196 116C191.286 121.319 185.814 125.286 178.656 126.348C171.986 126.749 167.296 125.018 162 121C156.597 116.14 153.27 110.316 152.812 103C152.874 102.34 152.936 101.68 153 101Z" fill="#0584BE"/>
<path d="M59.9999 437C62.3099 437 64.6199 437 66.9999 437C67.2306 437.554 67.4614 438.109 67.6991 438.68C68.0252 439.404 68.3514 440.129 68.6874 440.875C69.0006 441.594 69.3139 442.314 69.6366 443.055C71.5346 445.763 72.781 446.169 75.9999 447C79.3375 447.348 82.646 447.416 85.9999 447.438C86.8893 447.47 87.7788 447.503 88.6952 447.537C93.2693 447.575 95.324 447.522 99.0429 444.648C100.903 442.131 102.065 439.976 103 437C105.64 437.33 108.28 437.66 111 438C111.458 443.732 110.656 446.553 107 451C100.637 456.606 95.4949 456.249 87.3612 456.295C85.2714 456.312 83.1831 456.356 81.0936 456.4C79.7551 456.411 78.4166 456.419 77.078 456.426C75.259 456.448 75.259 456.448 73.4032 456.47C68.5238 455.796 65.4074 453.602 62.1874 449.938C59.5438 445.624 59.9198 441.887 59.9999 437Z" fill="#5858B3"/>
<path d="M444 437C446.64 437 449.28 437 452 437C452.527 442.904 451.798 446.214 448.68 451.238C445.611 454.457 442.143 455.857 437.768 456.404C434.032 456.436 430.298 456.458 426.562 456.438C425.265 456.457 423.968 456.477 422.631 456.498C415.601 456.494 410.601 456.452 405 452C401.909 448.676 401.036 445.56 400.75 441.062C400.833 440.052 400.915 439.041 401 438C403.64 438 406.28 438 409 438C409.433 438.928 409.866 439.856 410.312 440.812C412.185 444.353 412.185 444.353 415 447C418.594 447.637 422.231 447.463 425.875 447.438C426.869 447.457 427.863 447.477 428.887 447.498C433.36 447.495 436.198 447.47 440.113 445.176C442.356 442.59 443.175 440.299 444 437Z" fill="#5858B3"/>
<path d="M230 438C232.97 438 235.94 438 239 438C239.433 439.114 239.866 440.227 240.312 441.375C241.699 445.175 241.699 445.175 245 447C248.609 447.485 252.237 447.416 255.875 447.438C257.366 447.487 257.366 447.487 258.887 447.537C264.962 447.598 264.962 447.598 270.145 444.617C271.805 442.275 272.686 440.823 273 438C275.64 438 278.28 438 281 438C281.315 443.252 280.869 446.548 278 451C271.726 456.803 265.894 456.246 257.713 456.295C255.705 456.312 253.697 456.356 251.689 456.4C249.776 456.413 249.776 456.413 247.824 456.426C246.66 456.44 245.495 456.455 244.296 456.47C239.307 455.759 236.276 453.207 232.688 449.812C230.313 445.855 230.274 442.589 230 438Z" fill="#5757B3"/>
<path d="M147 342C149.64 342 152.28 342 155 342C155.619 343.392 155.619 343.392 156.25 344.812C158.006 348.01 158.954 349.154 162 351C165.458 351.607 168.932 351.464 172.438 351.438C173.379 351.457 174.321 351.477 175.291 351.498C179.659 351.495 182.277 351.436 186.078 349.145C188.131 346.853 189.105 344.929 190 342C192.64 342 195.28 342 198 342C198.402 346.919 197.836 350.084 195.559 354.324C190.942 359.288 186.792 360.259 180.184 360.531C177.602 360.542 175.019 360.531 172.438 360.5C170.486 360.523 170.486 360.523 168.494 360.547C167.237 360.542 165.979 360.537 164.684 360.531C163.545 360.527 162.406 360.522 161.232 360.518C156.139 359.702 153.041 357.182 149.688 353.375C146.846 349.375 146.909 346.899 147 342Z" fill="#1A9285"/>
<path d="M292 484C294.126 486.19 294.936 487.52 295.341 490.565C295.325 491.508 295.309 492.451 295.293 493.422C295.283 494.447 295.274 495.471 295.264 496.527C295.239 497.591 295.214 498.654 295.188 499.75C295.167 501.368 295.167 501.368 295.147 503.019C295.111 505.68 295.057 508.34 295 511C301.93 511 308.86 511 316 511C316 511.33 316 511.66 316 512C303.79 512 291.58 512 279 512C278.938 508.473 278.876 504.946 278.813 501.312C278.785 500.209 278.758 499.106 278.73 497.97C278.653 488.927 278.653 488.927 282 485C285.369 482.444 288.044 482.822 292 484Z" fill="#6771CF"/>
<path d="M227 483C229.848 485.232 230.85 486.55 232 490C232.082 491.7 232.107 493.403 232.098 495.106C232.095 495.991 232.093 496.877 232.09 497.79C232.081 498.911 232.072 500.032 232.062 501.188C232.042 504.756 232.021 508.324 232 512C219.79 512 207.58 512 195 512C195 511.67 195 511.34 195 511C201.93 511 208.86 511 216 511C215.921 504.314 215.921 504.314 215.82 497.628C215.815 496.788 215.81 495.948 215.805 495.082C215.794 494.228 215.784 493.375 215.773 492.495C216.034 489.628 216.694 487.564 218 485C221.491 482.673 222.892 482.497 227 483Z" fill="#6771CF"/>
<path d="M395.625 483C400.043 484.309 400.043 484.309 402 487C402.341 489.635 402.341 489.635 402.293 492.762C402.282 494.273 402.282 494.273 402.27 495.815C402.243 497.093 402.216 498.371 402.188 499.688C402.126 503.751 402.064 507.814 402 512C389.79 512 377.58 512 365 512C365 511.67 365 511.34 365 511C372.26 511 379.52 511 387 511C386.942 509.398 386.884 507.795 386.824 506.145C386.777 504.034 386.732 501.923 386.688 499.812C386.646 498.757 386.604 497.702 386.561 496.615C386.437 488.795 386.437 488.795 389.293 484.762C392 483 392 483 395.625 483Z" fill="#6671CE"/>
<path d="M117.625 483C122.024 484.303 122.024 484.303 124 487C124.34 489.544 124.34 489.544 124.293 492.543C124.283 493.616 124.274 494.689 124.264 495.795C124.238 496.914 124.213 498.034 124.187 499.188C124.174 500.319 124.16 501.45 124.146 502.615C124.111 505.41 124.057 508.205 124 511C130.93 511 137.86 511 145 511C145 511.33 145 511.66 145 512C133.12 512 121.24 512 109 512C108.897 508.143 108.794 504.286 108.687 500.312C108.619 498.501 108.619 498.501 108.549 496.654C108.447 488.788 108.447 488.788 111.293 484.73C114 483 114 483 117.625 483Z" fill="#6771CE"/>
<path d="M461 483C464.212 485.747 465.763 487.43 466.4 491.649C466.492 494.739 466.436 497.787 466.312 500.875C466.29 501.945 466.267 503.015 466.244 504.117C466.185 506.745 466.096 509.373 466 512C460.72 512 455.44 512 450 512C449.946 508.437 449.906 504.875 449.875 501.313C449.858 500.305 449.841 499.298 449.824 498.26C449.815 496.795 449.815 496.795 449.805 495.301C449.794 494.405 449.784 493.51 449.773 492.587C450.029 489.674 450.668 487.601 452 485C455.526 482.65 456.85 482.336 461 483Z" fill="#676FCF"/>
<path d="M54.625 483C59.0429 484.309 59.0429 484.309 61 487C61.3406 489.635 61.3406 489.635 61.293 492.762C61.2833 493.88 61.2736 494.998 61.2637 496.15C61.2385 497.318 61.2134 498.485 61.1875 499.688C61.174 500.866 61.1604 502.045 61.1465 503.26C61.1111 506.173 61.0573 509.087 61 512C56.05 512 51.1 512 46 512C45.865 508.103 45.7659 504.211 45.6875 500.312C45.6456 499.21 45.6037 498.107 45.5605 496.971C45.4372 488.803 45.4372 488.803 48.293 484.73C51 483 51 483 54.625 483Z" fill="#676FCE"/>
<path d="M203 141.438C203.681 141.416 204.361 141.394 205.062 141.371C207 142 207 142 208.738 143.984C210.431 148.031 210.329 151.479 210.187 155.812C210.174 156.601 210.16 157.389 210.146 158.201C210.111 160.134 210.057 162.067 210 164C205.38 164 200.76 164 196 164C195.919 161.083 195.859 158.168 195.812 155.25C195.787 154.425 195.762 153.6 195.736 152.75C195.663 146.679 195.663 146.679 197.262 143.457C199.322 141.73 200.331 141.432 203 141.438Z" fill="#019BE6"/>
<path d="M151 142C153.145 143.58 153.907 144.433 154.341 147.085C154.325 147.865 154.309 148.645 154.293 149.449C154.283 150.297 154.274 151.144 154.264 152.018C154.238 152.899 154.213 153.78 154.187 154.687C154.174 155.58 154.16 156.473 154.146 157.393C154.111 159.595 154.057 161.798 154 164C149.38 164 144.76 164 140 164C139.892 161.082 139.813 158.169 139.75 155.25C139.716 154.425 139.683 153.6 139.648 152.75C139.55 146.64 139.55 146.64 141.793 143.449C144.99 141.35 147.265 141.525 151 142Z" fill="#019BE6"/>
<path d="M161 83C162.003 83.3248 163.006 83.6497 164.039 83.9844C173.066 86.553 183.075 85.5052 192 83C192 85.97 192 88.94 192 92C186.459 94.7889 182.103 95.4676 175.938 95.375C175.161 95.3866 174.384 95.3982 173.584 95.4102C168.645 95.3851 165.328 94.6177 161 92C161 89.03 161 86.06 161 83Z" fill="#F2AA9A"/>
<path d="M185 16.4375C188 17 188 17 190.375 18.4375C192.839 22.3237 192.268 25.4513 192 30C187.38 30 182.76 30 178 30C177.518 22.8899 177.518 22.8899 179.625 19C182 17 182 17 185 16.4375Z" fill="#2A3A51"/>
<path d="M121 360C121.33 360 121.66 360 122 360C122 368.91 122 377.82 122 387C121.67 387 121.34 387 121 387C120.939 385.952 120.879 384.904 120.816 383.824C120.732 382.445 120.647 381.066 120.562 379.688C120.523 378.997 120.484 378.307 120.443 377.596C120.251 374.528 119.977 371.93 119 369C119.34 366.738 119.34 366.738 119.938 364.312C120.132 363.504 120.327 362.696 120.527 361.863C120.683 361.248 120.839 360.634 121 360Z" fill="#D1BAAD"/>
<path d="M61 326C61.66 326.33 62.32 326.66 63 327C59.7 330.3 56.4 333.6 53 337C52.67 336.34 52.34 335.68 52 335C52.9327 333.871 53.8714 332.747 54.8125 331.625C55.3346 330.999 55.8566 330.372 56.3945 329.727C58 328 58 328 61 326Z" fill="#61637A"/>
<path d="M402 326C402.66 326.33 403.32 326.66 404 327C400.7 330.3 397.4 333.6 394 337C394 333.023 395.38 331.911 398 329C400.25 327.188 400.25 327.188 402 326Z" fill="#66667C"/>
<path d="M317 231C315.618 234.21 314.076 236.049 311.375 238.25C310.428 239.031 310.428 239.031 309.461 239.828C308.979 240.215 308.497 240.602 308 241C309.317 236.811 312.025 231 317 231Z" fill="#606379"/>
<path d="M152 1C152.66 1.33 153.32 1.66 154 2C151.36 4.64 148.72 7.28 146 10C146 7 146 7 148.438 4.375C149.283 3.59125 150.129 2.8075 151 2C151.33 1.67 151.66 1.34 152 1Z" fill="#65667B"/>
</g>
<path d="M589.378 82.53C597.885 84.1125 601.755 87.3807 608.166 93.2C610.165 94.9523 612.164 96.7046 614.224 98.51C618.76 104.24 618.76 104.24 619.906 110.8C618.526 118.311 616.609 120.504 611.012 125.52C604.63 131.528 598.651 137.534 592.986 144.24C585.008 153.601 576.78 162.697 568.476 171.76C546.496 195.693 546.496 195.693 525.229 220.27C523.69 222.108 522.15 223.946 520.564 225.84C519.244 227.45 517.923 229.061 516.562 230.72C511.828 235.475 508.764 237.846 502.38 239.92C487.156 239.704 478.977 234.063 468.225 223.92C465.158 221.143 462.092 218.366 459.024 215.59C457.441 214.134 455.858 212.679 454.227 211.179C445.683 203.387 436.936 195.833 428.219 188.24C408.814 171.253 408.814 171.253 408.197 164.92C408.859 156.929 410.717 153.502 415.411 147.12C416.644 145.364 417.877 143.609 419.147 141.8C425.81 135.862 430.303 135.028 439.13 134.96C445.168 138.94 445.168 138.94 450.989 144.88C453.142 146.979 455.294 149.078 457.512 151.24C459.795 153.471 462.078 155.702 464.43 158C469.384 162.435 474.39 166.811 479.452 171.12C481.718 173.08 483.985 175.04 486.32 177.06C489.26 179.03 489.26 179.03 492.26 181.04C500.481 178.267 501.96 176.682 507.282 170.16C515.338 160.55 523.637 151.234 532.107 142C534.726 139.137 537.345 136.273 539.964 133.41C542.616 130.513 545.268 127.617 547.92 124.72C553.04 119.127 558.152 113.526 563.258 107.92C565.479 105.488 567.7 103.056 569.988 100.55C575.751 94.3462 575.751 94.3462 579.535 88.01C583.34 83.76 583.34 83.76 589.378 82.53Z" fill="#53CF33"/>
<defs>
<clipPath id="clip0_177_56">
<rect width="512" height="512" fill="white"/>
</clipPath>
</defs>
</svg>
