<svg width="621" height="562" viewBox="0 0 621 562" fill="none" xmlns="http://www.w3.org/2000/svg">
<g clip-path="url(#clip0_177_102)">
<path d="M451.371 105.477C458.809 110.826 463.125 116.988 465 126C465.283 129.182 465.294 132.347 465.291 135.54C465.297 136.471 465.304 137.402 465.311 138.362C465.33 141.425 465.334 144.488 465.336 147.551C465.342 149.692 465.349 151.832 465.356 153.973C465.368 158.456 465.372 162.939 465.371 167.422C465.371 173.148 465.398 178.874 465.432 184.6C465.455 189.02 465.459 193.441 465.457 197.862C465.46 199.972 465.469 202.082 465.484 204.193C465.504 207.153 465.498 210.112 465.486 213.072C465.497 213.932 465.508 214.792 465.52 215.678C465.445 222.988 463.765 230.09 458.625 235.5C456.615 238.593 456.987 239.47 457.688 243C458.113 244.67 458.55 246.337 459 248C459.345 249.664 459.681 251.33 460 253C460.811 253.196 461.622 253.392 462.457 253.594C473.624 256.61 482.357 261.504 488.781 271.336C492.275 278.972 493.395 285.991 493.16 294.328C493.148 296.283 493.139 298.237 493.131 300.191C493.104 303.218 493.063 306.241 492.983 309.267C492.688 321.703 493.02 330.499 501.504 340.066C512.249 352.695 513.234 369.209 512 385C511.207 389.348 509.899 393.02 508 397C507.306 398.543 507.306 398.543 506.598 400.117C500.014 413.542 489.941 424.139 478 433C477.059 433.709 476.118 434.418 475.149 435.148C460.505 446 460.505 446 457 446C457.344 450.67 457.965 454.755 460 459C463.26 460.824 466.188 461.536 469.832 462.316C473.832 463.18 475.841 464.473 479 467C479.825 467.557 480.65 468.114 481.5 468.687C489.197 475.807 492.915 484.941 493.5 495.312C493.391 499.151 493.08 499.895 490.625 503.125C488 505 488 505 486 505C486 512.92 486 520.84 486 529C487.65 529.66 489.3 530.32 491 531C493.552 534.827 493.435 536.431 493 541C491.217 547.179 489.034 551.826 484 556C483.196 556.722 482.391 557.444 481.563 558.187C475.636 562.379 469.59 562.329 462.599 562.402C461.046 562.429 461.046 562.429 459.462 562.456C456.042 562.511 452.623 562.549 449.203 562.582C448.029 562.594 446.854 562.606 445.644 562.618C439.418 562.677 433.192 562.721 426.966 562.755C421.843 562.786 416.721 562.849 411.598 562.94C405.386 563.05 399.175 563.105 392.962 563.121C390.61 563.137 388.258 563.17 385.906 563.224C370.509 563.556 360.188 561.759 347.776 552.333C345.221 550.415 342.546 548.736 339.844 547.031C338.061 545.857 336.28 544.679 334.5 543.5C326.68 538.341 318.803 533.329 310.67 528.676C303.815 524.632 299.46 519.767 297 512C296.049 504.038 297.464 497.612 302.063 491.062C304 489 304 489 306 488C305.072 488.071 304.144 488.141 303.188 488.214C288.899 489.2 274.602 489.153 260.287 489.13C256.717 489.125 253.148 489.128 249.578 489.134C235.029 489.154 220.516 489.106 206 488C206.43 488.445 206.86 488.889 207.303 489.347C212.107 494.409 214.898 499.503 215.059 506.586C214.428 515.522 211.242 520.086 204.627 525.877C200.282 529.389 195.588 532.242 190.813 535.125C188.694 536.426 186.575 537.728 184.457 539.031C183.388 539.686 182.319 540.341 181.217 541.016C176.111 544.165 171.055 547.393 166 550.625C164.25 551.742 162.5 552.86 160.75 553.977C160.023 554.441 159.296 554.906 158.547 555.385C157.707 555.918 156.866 556.451 156 557C155.466 557.406 154.931 557.812 154.381 558.23C148.69 562.295 144.083 562.708 137.213 562.615C136.162 562.621 135.11 562.626 134.027 562.632C130.569 562.644 127.114 562.62 123.656 562.594C121.243 562.592 118.83 562.592 116.417 562.594C111.366 562.592 106.316 562.574 101.266 562.542C94.8034 562.502 88.3411 562.498 81.8782 562.505C76.8972 562.509 71.9164 562.496 66.9354 562.479C64.5529 562.472 62.1703 562.469 59.7878 562.47C56.454 562.468 53.1209 562.447 49.7872 562.42C48.8093 562.423 47.8314 562.426 46.8239 562.429C39.7917 562.342 34.4968 561.081 28.3751 557.437C22.8654 551.783 18.91 544.925 18.8231 536.969C18.8103 535.943 18.7974 534.918 18.7842 533.862C18.7768 532.752 18.7694 531.643 18.7618 530.5C18.7538 529.354 18.7457 528.208 18.7374 527.027C18.7235 524.596 18.7128 522.165 18.7049 519.734C18.6878 516.042 18.6439 512.352 18.5997 508.66C18.5896 506.294 18.5811 503.928 18.5743 501.562C18.5568 500.469 18.5393 499.376 18.5213 498.25C18.5532 486.785 21.8887 477.256 30.0001 469C34.9769 464.637 39.4366 462.84 45.8751 461.437C49.2295 460.687 49.2295 460.687 52.0001 459C54.0259 454.753 54.6561 450.668 55.0001 446C54.3169 445.759 53.6337 445.518 52.9298 445.27C31.3605 435.923 12.7909 416.708 3.33995 395.473C-1.64071 382.564 -2.14716 367.084 2.67198 353.984C8.96016 339.854 8.96016 339.854 12.7643 336.396C18.9771 330.296 18.7427 323.918 18.827 315.699C18.8243 312.653 18.7902 309.608 18.7501 306.562C18.7312 303.516 18.7227 300.47 18.7304 297.423C18.733 295.536 18.7198 293.649 18.6873 291.763C18.6506 280.338 22.2143 271.403 30.0001 263C36.6332 257.491 43.6094 254.704 52.0001 253C52.1355 252.296 52.2708 251.592 52.4103 250.867C56.3549 232.774 64.9126 221.377 80.0001 211C79.7172 210.341 79.4342 209.681 79.1427 209.002C75.2514 198.504 75.391 188.244 75.4786 177.171C75.5001 173.94 75.4787 170.712 75.4532 167.482C75.4304 150.896 77.4634 136.924 89.2501 124.25C99.665 114.523 111.939 110.772 126 111C138.711 112.503 148.899 117.835 157.699 127.07C163.574 134.551 168.087 143.46 168.161 153.085C168.171 154.096 168.18 155.108 168.19 156.151C168.197 157.783 168.197 157.783 168.203 159.449C168.209 160.576 168.215 161.704 168.221 162.865C168.23 165.251 168.236 167.638 168.24 170.024C168.25 173.656 168.281 177.288 168.313 180.92C168.319 183.242 168.324 185.564 168.328 187.887C168.341 188.965 168.353 190.044 168.366 191.155C168.349 196.967 167.805 201.744 165.645 207.164C164.834 209.147 164.834 209.147 165 212C166.388 212.982 167.786 213.952 169.227 214.855C181.178 222.568 187.909 235.121 191.313 248.687C192.187 253.15 192.144 257.464 192 262C192.92 261.867 193.841 261.734 194.789 261.598C203.515 260.38 212.192 259.407 221 259C221.694 258.966 222.388 258.932 223.103 258.897C225.277 258.801 227.45 258.739 229.625 258.687C230.937 258.65 232.25 258.613 233.602 258.574C237 259 237 259 239.461 260.832C241 263 241 263 241 266C242.191 265.995 243.382 265.989 244.609 265.984C249.029 265.966 253.45 265.955 257.87 265.945C259.783 265.94 261.696 265.933 263.609 265.925C266.359 265.912 269.109 265.907 271.859 265.902C272.714 265.897 273.568 265.892 274.448 265.887C275.649 265.887 275.649 265.887 276.874 265.886C277.576 265.884 278.278 265.882 279.001 265.88C281.106 266.006 282.974 266.427 285 267C285.124 266.216 285.248 265.432 285.375 264.625C286 262 286 262 288 260C290.607 259.796 293.082 259.718 295.688 259.75C296.438 259.754 297.189 259.758 297.963 259.762C305.41 259.874 312.655 260.802 320 262C319.954 261.441 319.907 260.881 319.859 260.305C319.226 246.229 324.864 232.862 333.813 222.187C337.716 217.99 342.08 214.904 347 212C346.499 209.245 345.896 206.697 344.982 204.044C343.506 198.895 343.675 193.681 343.664 188.363C343.658 187.247 343.651 186.132 343.644 184.982C343.634 182.626 343.629 180.27 343.63 177.914C343.625 174.341 343.589 170.77 343.551 167.197C343.545 164.898 343.541 162.6 343.539 160.301C343.525 159.247 343.51 158.194 343.496 157.108C343.571 144.65 347.578 134.201 356 125C366.401 115.638 378.458 110.744 392.406 110.828C394.988 110.999 397.304 111.444 399.813 112.062C404.456 113.202 404.456 113.202 409 112C410.088 110.921 411.147 109.812 412.188 108.687C422.214 98.2307 439.438 98.0453 451.371 105.477Z" fill="#010101"/>
<path d="M241 266C246.623 265.975 252.247 265.957 257.87 265.945C259.783 265.94 261.696 265.933 263.608 265.924C266.359 265.912 269.109 265.907 271.859 265.902C272.714 265.897 273.568 265.892 274.448 265.887C275.649 265.886 275.649 265.886 276.874 265.886C277.576 265.884 278.278 265.882 279.001 265.88C281.167 266.01 282.96 266.245 285 267C285.454 267.969 285.908 268.939 286.375 269.937C287.687 273.153 287.687 273.153 290.445 274.137C295.124 275.273 299.705 275.564 304.5 275.875C335.079 278.171 365.739 282.632 395 292C396.005 292.319 397.01 292.639 398.046 292.968C432.402 304.028 474.857 320.238 492.438 354.312C497.284 364.203 497.778 376.942 495.094 387.598C493.907 390.546 492.586 393.247 491 396C490.554 396.784 490.108 397.567 489.649 398.375C480.523 413.057 465.567 425.443 450 433C446.763 431.921 446.381 431.462 444.438 428.875C440.67 424.268 435.953 421.22 431 418C431.29 416.666 431.582 415.333 431.875 414C432.119 412.886 432.119 412.886 432.367 411.75C432.854 409.634 433.42 407.537 434.019 405.45C435.218 400.64 435.324 395.989 435.336 391.051C435.343 390.116 435.349 389.182 435.356 388.219C435.366 386.25 435.371 384.281 435.371 382.312C435.375 379.338 435.411 376.366 435.449 373.392C435.546 357.238 433.676 342.81 421.746 330.715C410.063 320.682 397.288 318.093 382.393 318.778C371.943 319.748 362.945 325.544 356.035 333.168C347.412 343.76 344.675 353.924 344.734 367.441C344.733 368.408 344.731 369.376 344.729 370.372C344.727 372.403 344.731 374.434 344.739 376.465C344.75 379.557 344.739 382.648 344.727 385.74C344.728 387.724 344.731 389.708 344.734 391.691C344.728 393.063 344.728 393.063 344.722 394.463C344.77 401.037 345.665 406.662 348.125 412.812C349 415 349 415 349 418C346.84 419.762 346.84 419.762 343.938 421.687C331.635 430.399 324.713 442.393 321.488 457.09C320.713 461.708 320.267 466.326 320 471C229.56 480.795 229.56 480.795 192 470C191.914 468.996 191.827 467.992 191.738 466.957C190.398 453.246 186.678 440.997 178 430C176.296 428.667 174.572 427.36 172.83 426.078C168.601 422.326 167.272 419.92 166.821 414.278C166.801 411.688 166.833 409.097 166.91 406.508C166.914 405.112 166.913 403.716 166.907 402.321C166.904 398.664 166.957 395.011 167.025 391.355C167.124 385.515 167.134 379.674 167.148 373.833C167.16 371.813 167.198 369.793 167.236 367.773C167.387 352.646 163.427 341.14 153.109 330.008C142.796 320.191 130.488 318.424 116.816 318.656C110.488 318.952 105.47 320.866 100 324C99.1931 324.434 98.3862 324.869 97.5548 325.316C87.3437 331.391 81.65 340.925 78.0001 352C77.0673 355.837 76.901 359.356 76.9535 363.3C76.972 365.178 76.972 365.178 76.9908 367.093C76.9987 367.758 77.0067 368.422 77.0148 369.106C77.0572 373.396 77.0451 377.687 77.0449 381.978C77.0479 385.737 77.0686 389.494 77.1268 393.252C77.1823 396.902 77.1883 400.55 77.1621 404.201C77.1609 405.584 77.1771 406.966 77.212 408.349C77.4702 419.153 77.4702 419.153 73.7664 423.806C71.2694 426.038 68.6826 428.001 66.0001 430C65.3401 430.99 64.6801 431.98 64.0001 433C43.948 425.78 27.3885 408.765 18.3477 390.004C15.9742 384.713 15.785 380.571 15.7501 374.875C15.7295 374.058 15.7088 373.24 15.6876 372.398C15.5934 357.521 23.646 345.437 33.7345 335.137C59.2796 310.072 96.4933 296.845 130.511 288.616C132.698 288.075 134.867 287.498 137.035 286.887C160.514 280.27 185.235 276.6 209.594 275.48C210.391 275.443 211.188 275.405 212.01 275.366C215.903 275.188 219.794 275.043 223.69 274.947C225.109 274.893 226.527 274.839 227.945 274.785C229.188 274.753 230.431 274.721 231.712 274.688C235.867 273.819 237.371 272.269 240 269C240.33 268.01 240.66 267.02 241 266Z" fill="#CA8A65"/>
<path d="M326.434 59.0235C338.833 68.5734 346.613 81.2091 349.375 96.6251C350.846 108.815 349.144 121.225 343 132C341.595 133.635 340.178 135.26 338.75 136.875C333.838 143.119 334.148 149.664 334.212 157.296C334.271 166.151 334.271 166.151 331 170C327.726 171.637 324.531 171.593 321 171C317.859 169.485 315.097 167.504 312.25 165.5C305.906 161.303 301.327 158.737 293.48 159.711C290.754 160.029 288.65 159.657 286 159C286.095 159.655 286.191 160.31 286.289 160.984C288.184 176.587 283.62 190.144 274.098 202.531C265.121 213.097 253.64 219.533 240 222C237.85 222.087 235.713 222.078 233.562 222.068C223.779 222.045 217.553 224.723 209.456 230.227C203.774 234.015 203.774 234.015 199.066 233.922C196.051 233.015 194.768 232.554 193 230C192.024 227.072 191.901 225.253 191.93 222.211C192.326 208.877 192.326 208.877 185.848 197.867C177.241 189.169 176.129 175.535 176 164C176.766 150.289 182.65 137.921 192 128C192.593 127.366 193.186 126.732 193.797 126.078C205.656 114.624 219.995 111.675 235.816 111.93C236.867 111.953 237.918 111.976 239 112C238.965 111.464 238.93 110.928 238.895 110.375C238.359 94.8816 242.127 80.4288 252.438 68.6251C253.939 67.0641 255.458 65.5204 257 64.0001C257.565 63.4251 258.129 62.8502 258.711 62.2579C276.681 45.3395 306.792 45.5858 326.434 59.0235Z" fill="#010101"/>
<path d="M136.563 335.5C144.23 339.927 149.161 345.641 152 354C153.17 358.53 153.162 363.023 153.177 367.671C153.187 368.964 153.187 368.964 153.197 370.284C153.217 373.131 153.228 375.977 153.238 378.824C153.242 379.8 153.247 380.776 153.251 381.781C153.272 386.948 153.286 392.114 153.295 397.28C153.306 402.598 153.341 407.916 153.38 413.234C153.407 417.339 153.415 421.444 153.419 425.55C153.423 427.509 153.435 429.468 153.454 431.428C153.661 454.679 153.661 454.679 145.5 463.562C144.933 464.203 144.366 464.844 143.781 465.504C141.756 467.205 140.639 467.819 138 468C135.887 467.074 135.887 467.074 133.688 465.687C125.637 460.643 117.845 460.618 108.563 460.375C106.75 460.317 106.75 460.317 104.9 460.258C101.934 460.164 98.9672 460.078 96.0001 460C95.3492 458.753 94.7046 457.502 94.0626 456.25C93.5231 455.206 93.5231 455.206 92.9728 454.141C90.8038 449.367 90.8405 444.722 90.8231 439.551C90.8165 438.7 90.81 437.849 90.8032 436.972C90.7835 434.157 90.7718 431.342 90.7618 428.527C90.7577 427.563 90.7537 426.598 90.7495 425.605C90.7286 420.496 90.7143 415.387 90.7049 410.278C90.6939 405.021 90.6595 399.765 90.6198 394.509C90.5935 390.45 90.5852 386.391 90.5817 382.332C90.5768 380.396 90.5652 378.459 90.5466 376.523C90.4308 363.682 90.7183 352.272 99.1524 341.789C109.114 332.143 124.011 329.637 136.563 335.5Z" fill="#707DB2"/>
<path d="M397.958 474.694C398.639 474.685 399.319 474.677 400.02 474.668C402.26 474.644 404.499 474.635 406.738 474.629C408.304 474.62 409.869 474.611 411.435 474.601C414.714 474.585 417.993 474.577 421.272 474.574C425.459 474.569 429.644 474.531 433.83 474.486C437.064 474.456 440.297 474.449 443.531 474.448C445.073 474.443 446.616 474.431 448.158 474.41C463.618 474.217 463.618 474.217 470 480C470.668 480.597 471.336 481.194 472.023 481.809C476.08 486.697 477.804 490.913 478.5 497.25C478.617 501.021 478.617 501.021 481 503C482.65 503.66 484.3 504.32 486 505C486 512.92 486 520.84 486 529C484.02 529.99 482.04 530.98 480 532C477.82 534.909 477.82 534.909 477.125 538.437C475.954 542.146 475.012 543.627 472 546C468.011 547.33 464.189 547.131 460.031 547.113C458.655 547.114 458.655 547.114 457.251 547.114C454.215 547.113 451.18 547.105 448.145 547.098C446.041 547.096 443.938 547.094 441.835 547.093C436.296 547.089 430.758 547.08 425.219 547.069C419.569 547.058 413.918 547.054 408.268 547.049C397.178 547.038 386.089 547.021 375 547C374.898 539.171 374.828 531.343 374.78 523.514C374.763 520.852 374.733 518.191 374.698 515.529C374.65 511.696 374.627 507.864 374.609 504.031C374.589 502.848 374.568 501.664 374.547 500.444C374.545 492.577 375.457 487.106 380.746 480.976C381.304 480.53 381.862 480.084 382.438 479.625C382.993 479.163 383.549 478.702 384.121 478.226C388.655 475.267 392.592 474.74 397.958 474.694Z" fill="#FEF5DF"/>
<path d="M56.6178 474.823C57.6377 474.813 57.6377 474.813 58.6782 474.803C60.934 474.783 63.1896 474.772 65.4454 474.762C66.2169 474.758 66.9884 474.754 67.7833 474.749C71.8708 474.729 75.9584 474.714 80.046 474.705C84.2559 474.694 88.4652 474.659 92.6749 474.62C95.9213 474.593 99.1676 474.585 102.414 474.582C103.965 474.577 105.516 474.565 107.066 474.547C116.337 474.442 123.68 474.409 131.024 480.746C131.693 481.583 131.693 481.583 132.375 482.438C133.067 483.271 133.067 483.271 133.774 484.121C136.46 488.237 137.249 491.83 137.227 496.708C137.227 497.829 137.227 498.95 137.227 500.105C137.216 501.304 137.206 502.503 137.195 503.738C137.193 504.974 137.19 506.21 137.187 507.483C137.178 510.757 137.16 514.03 137.137 517.303C137.117 520.648 137.108 523.993 137.098 527.338C137.076 533.892 137.042 540.446 137 547C124.717 547.116 112.435 547.205 100.152 547.259C94.4479 547.285 88.7446 547.321 83.0411 547.377C77.5363 547.432 72.0318 547.461 66.5267 547.474C64.4271 547.484 62.3275 547.502 60.2281 547.529C57.2856 547.565 54.3446 547.57 51.402 547.568C50.5352 547.586 49.6685 547.604 48.7755 547.622C44.6324 547.587 41.8545 547.326 38.5375 544.715C35.0167 540.948 33.7638 538.611 33.6937 533.482C33.6697 532.149 33.6697 532.149 33.6453 530.79C33.6399 529.836 33.6345 528.882 33.629 527.898C33.62 526.907 33.611 525.915 33.6017 524.893C33.5872 522.794 33.5783 520.694 33.5746 518.594C33.5627 515.407 33.5136 512.222 33.463 509.035C33.4535 506.99 33.4463 504.944 33.4415 502.898C33.422 501.956 33.4024 501.014 33.3823 500.044C33.429 493.075 35.2135 487.864 39.0001 482C41.3868 479.746 41.3868 479.746 43.6876 478.438C44.4546 477.982 45.2216 477.527 46.0118 477.059C49.8335 475.024 52.2207 474.858 56.6178 474.823Z" fill="#FDF4DE"/>
<path d="M315.281 70.3203C324.762 76.9934 330.842 85.9214 334 97C335.337 110.2 333.121 120.032 324.812 130.625C322.938 132.84 321.052 134.948 319 137C318.535 140.122 318.535 140.122 318.375 143.625C318.3 144.813 318.225 146.002 318.148 147.227C318.099 148.142 318.05 149.057 318 150C315.339 149.012 313.12 148.088 310.82 146.402C306.594 144.301 302.531 144.601 297.875 144.562C289.94 144.331 283.129 143.809 276 140C275.206 139.577 274.412 139.154 273.594 138.719C264.905 133.505 259.236 125.534 256 116C253.235 104.829 254.437 93.7253 260.285 83.8242C272.969 65.6291 295.464 58.851 315.281 70.3203Z" fill="#FA57A9"/>
<path d="M404.859 335.758C413.205 340.601 417.827 347.581 420.563 356.921C421.006 359.028 421.14 360.923 421.161 363.075C421.171 363.866 421.18 364.658 421.19 365.473C421.195 366.321 421.199 367.169 421.203 368.043C421.209 368.926 421.215 369.809 421.22 370.719C421.23 372.587 421.236 374.456 421.24 376.324C421.25 379.16 421.281 381.995 421.313 384.83C421.319 386.651 421.324 388.472 421.328 390.293C421.341 391.131 421.353 391.969 421.366 392.832C421.33 402.367 418.272 410.76 412 418C404.541 424.34 396.604 427.678 386.797 427.34C377.85 426.253 370.84 421.762 365 415C361.653 409.608 358.906 404.108 358.823 397.687C358.81 396.819 358.797 395.95 358.784 395.056C358.777 394.118 358.769 393.181 358.762 392.215C358.754 391.244 358.746 390.273 358.737 389.273C358.723 387.214 358.713 385.156 358.705 383.097C358.688 379.974 358.644 376.851 358.6 373.728C358.59 371.724 358.581 369.719 358.574 367.715C358.557 366.791 358.539 365.868 358.521 364.917C358.552 355.684 361.382 347.564 367.844 340.828C378.384 331.892 392.235 329.697 404.859 335.758Z" fill="#6F7CB0"/>
<path d="M302.82 331.984C310.336 338.311 317.161 346.996 318.22 357.096C319.01 372.701 316.548 382.128 306 394C305.34 394.66 304.68 395.32 304 396C303.699 398.365 303.505 400.744 303.375 403.125C303.3 404.406 303.225 405.688 303.148 407.008C303.099 407.995 303.05 408.983 303 410C299.938 408.887 297.49 407.668 294.738 405.879C290.549 403.434 286.916 403.66 282.188 403.937C269.849 404.27 260.266 401.299 250.77 393.066C242.837 384.955 239.562 375.443 239.5 364.25C239.73 352.711 243.345 343.938 251.062 335.375C265.01 322.01 287.297 321.062 302.82 331.984Z" fill="#FBF2DC"/>
<path d="M231.063 127.625C232.208 127.608 232.208 127.608 233.377 127.59C238.531 127.616 242.431 128.395 247 131C249.195 133.566 249.195 133.566 251.125 136.562C254.992 142.085 259.065 145.786 264.659 149.526C268.602 152.261 270.035 154.308 271 159C272.336 171.28 270.009 181.779 262.813 191.875C256.279 199.585 247.552 205.293 237.344 206.249C233.589 206.368 229.841 206.382 226.084 206.352C220.099 206.452 216.413 207.344 211.561 210.928C210 212 210 212 208 212C208.032 211.261 208.064 210.523 208.098 209.762C208.003 201.484 205.71 197.594 200.227 191.527C192.692 182.974 191.505 172.729 191.691 161.688C192.544 151.497 197.941 143.319 205.617 136.766C213.871 130.501 220.687 127.467 231.063 127.625Z" fill="#FCF3DD"/>
<path d="M359.027 224.164C361.293 225.124 363.029 226.338 365 227.812C374.91 234.511 385.176 236.231 397 235C404.384 233.43 410.565 230.403 416.844 226.27C419.005 224.997 420.502 224.225 423 224C431.855 228.279 439.563 237.931 443 247C443.849 249.903 444.122 252.473 444.113 255.493C444.113 256.814 444.113 256.814 444.113 258.162C444.108 259.103 444.103 260.045 444.098 261.016C444.096 261.987 444.095 262.958 444.093 263.958C444.088 267.055 444.075 270.153 444.062 273.25C444.057 275.352 444.053 277.453 444.049 279.555C444.038 284.703 444.02 289.852 444 295C440.209 293.761 436.477 292.444 432.769 290.977C431.801 290.595 430.832 290.213 429.834 289.82C428.837 289.426 427.84 289.031 426.812 288.625C422.88 287.07 418.944 285.525 415 284C414.112 283.656 413.224 283.312 412.309 282.958C404.932 280.183 397.429 278.071 389.812 276.062C388.839 275.804 388.839 275.804 387.845 275.541C370.443 270.942 352.919 266.924 335 265C334.602 252.464 337.669 242.826 345.312 232.688C354.224 223.775 354.224 223.775 359.027 224.164Z" fill="#FDE800"/>
<path d="M90.8673 224.258C93.3351 225.117 95.0283 226.32 97.1251 227.875C101.845 231.128 106.467 232.672 112 234C112.65 234.186 113.299 234.371 113.969 234.562C124.745 236.884 136.356 233.871 146 229C147.782 227.637 147.782 227.637 149.313 226.188C152 224 152 224 154.375 223.812C163.788 228.071 169.218 235.532 173.813 244.562C176.226 251.548 177.101 257.633 177 265C175.965 265.147 174.93 265.294 173.863 265.445C139.173 270.551 103.908 278.396 72.2657 293.969C70.0001 295 70.0001 295 68.0001 295C67.9006 288.917 67.8283 282.834 67.7803 276.75C67.7603 274.685 67.7331 272.619 67.6983 270.553C67.6493 267.569 67.627 264.586 67.6094 261.602C67.5888 260.691 67.5681 259.78 67.5469 258.841C67.5434 248.786 71.2494 240.401 78.0001 233C87.525 223.796 87.525 223.796 90.8673 224.258Z" fill="#89FDB1"/>
<path d="M314 322C323.7 329.863 331.466 342.502 333 355C334.068 370.548 332.56 382.667 324 396C323.122 396.86 322.244 397.72 321.34 398.606C317.659 402.907 318.373 408.181 318.437 413.563C318.522 423.902 318.522 423.902 316.473 428.215C313.652 430.251 311.599 430.709 308.123 430.484C304.259 429.603 301.382 427.317 298.187 425.063C290.148 419.83 283.794 419.133 274.387 419.113C261.279 419.037 248.558 411.253 239.289 402.484C226.444 388.544 224.038 372.856 224.778 354.65C225.824 342.172 234.031 331.218 242.844 322.813C263.661 305.314 292.833 305.823 314 322ZM247.57 339.008C239.702 348.99 238.79 360.754 240 373C242.303 383.506 247.859 391.798 256.746 397.879C265.158 402.721 272.345 404.257 281.875 403.75C289.906 403.499 294.514 405.136 301 410C301.66 410 302.32 410 303 410C302.979 409.094 302.959 408.188 302.937 407.254C303.049 400.673 303.15 396.047 307.812 391.125C308.533 390.432 309.254 389.738 309.996 389.024C312.912 386.079 314.442 382.794 316 379C316.356 378.287 316.711 377.574 317.078 376.84C319.921 368.081 319.402 355.367 315.328 347.133C308.207 335.698 300.307 328.374 287 325C271.165 323.286 258.585 327.481 247.57 339.008Z" fill="#030302"/>
<path d="M361 431C363.451 432.392 365.8 433.907 368.172 435.43C375.094 439.273 380.97 440.506 388.875 440.375C389.76 440.365 390.645 440.355 391.556 440.344C401.534 440.107 408.418 437.775 416.773 432.305C420.467 430.14 420.467 430.14 423 430C431.741 434.457 438.522 441.657 442.09 450.789C444 456.898 444 456.898 444 460C443.338 460.001 442.675 460.003 441.993 460.004C435.048 460.024 428.105 460.079 421.161 460.153C418.575 460.176 415.99 460.19 413.404 460.196C409.67 460.205 405.937 460.246 402.203 460.293C401.062 460.289 399.921 460.285 398.745 460.281C387.652 460.479 378.079 463.868 369.977 471.617C363.318 479.645 361.102 488.158 360.438 498.312C360.354 499.567 360.27 500.821 360.184 502.113C360.123 503.066 360.062 504.019 360 505C359.275 504.706 358.551 504.413 357.804 504.11C356.079 503.427 354.345 502.768 352.596 502.147C345.916 499.668 339.376 496.814 335 491C331.003 477.342 333.719 459.897 339.289 447.02C343.264 440.453 352.023 427.471 361 431Z" fill="#85D8FB"/>
<path d="M110 336C111.719 337.871 111.719 337.871 113.5 340.438C114.088 341.261 114.676 342.085 115.281 342.934C119.269 350.047 120.445 356.722 120.388 364.799C120.394 365.734 120.399 366.668 120.404 367.631C120.417 370.693 120.409 373.754 120.399 376.816C120.401 378.959 120.403 381.102 120.407 383.245C120.412 387.724 120.405 392.203 120.391 396.682C120.374 402.411 120.384 408.139 120.402 413.868C120.413 418.288 120.409 422.709 120.402 427.13C120.4 429.242 120.402 431.353 120.409 433.465C120.417 436.421 120.405 439.375 120.388 442.33C120.397 443.627 120.397 443.627 120.407 444.949C120.398 445.763 120.39 446.577 120.381 447.416C120.38 448.112 120.379 448.809 120.378 449.526C119.824 453.152 118.288 456.565 117 460C110.07 460 103.14 460 96.0001 460C92.1323 452.264 90.8508 447.807 90.8231 439.551C90.8165 438.7 90.8099 437.849 90.8032 436.972C90.7835 434.157 90.7718 431.342 90.7618 428.527C90.7577 427.563 90.7536 426.598 90.7494 425.605C90.7286 420.496 90.7143 415.387 90.7049 410.278C90.6939 405.021 90.6595 399.765 90.6197 394.509C90.5935 390.45 90.5852 386.391 90.5816 382.332C90.5768 380.396 90.5652 378.459 90.5466 376.523C90.422 362.712 90.9278 350.57 101 340C103.905 337.517 106.053 336 110 336Z" fill="#808AB1"/>
<path d="M391 475C400.119 474.884 409.238 474.795 418.357 474.741C422.592 474.715 426.827 474.68 431.062 474.623C435.153 474.568 439.244 474.539 443.336 474.526C444.893 474.516 446.449 474.498 448.005 474.471C463.651 474.21 463.651 474.21 470 480C470.668 480.597 471.335 481.194 472.023 481.809C476.08 486.697 477.803 490.913 478.5 497.25C478.616 501.021 478.616 501.021 481 503C482.65 503.66 484.3 504.32 486 505C486 512.92 486 520.84 486 529C484.02 529.99 482.04 530.98 480 532C477.82 534.91 477.82 534.91 477.125 538.437C475.954 542.146 475.012 543.627 472 546C468.01 547.33 464.189 547.131 460.031 547.114C458.655 547.114 458.655 547.114 457.251 547.114C454.215 547.113 451.18 547.105 448.145 547.098C446.041 547.096 443.938 547.094 441.835 547.093C436.296 547.09 430.758 547.08 425.219 547.069C418.575 547.057 411.932 547.052 405.288 547.046C395.192 547.037 385.096 547.017 375 547C375 528.52 375 510.04 375 491C375.33 491 375.66 491 376 491C376 509.15 376 527.3 376 546C397.78 545.67 419.56 545.34 442 545C443.882 541.236 444.256 539.992 444.291 536.023C444.303 535.034 444.316 534.046 444.329 533.028C444.331 531.964 444.334 530.9 444.336 529.805C444.343 528.702 444.349 527.599 444.356 526.463C444.366 524.128 444.371 521.793 444.371 519.458C444.375 515.909 444.411 512.361 444.449 508.812C444.455 506.539 444.459 504.266 444.461 501.992C444.475 500.941 444.49 499.889 444.504 498.806C444.459 491.325 443.335 484.325 438.65 478.25C436.485 476.61 435.139 476.605 432.437 476.568C431.056 476.538 431.056 476.538 429.647 476.508C428.656 476.501 427.665 476.495 426.645 476.488C425.119 476.461 425.119 476.461 423.563 476.434C420.313 476.38 417.063 476.346 413.812 476.312C411.61 476.279 409.408 476.245 407.205 476.209C401.804 476.124 396.402 476.056 391 476C391 475.67 391 475.34 391 475Z" fill="#FBEDCA"/>
<path d="M421 167C421.118 171.25 421.188 175.499 421.25 179.75C421.3 181.531 421.3 181.531 421.351 183.348C421.477 194.828 419.467 204.639 411.293 213.09C403.951 219.206 395.964 221.49 386.558 221.406C378.533 220.49 370.837 216.121 365.469 210.082C358.817 200.654 358.041 191.136 359 180C360.943 178.057 364.381 178.125 367.035 177.66C375.549 176.118 383.991 174.311 392.437 172.438C393.83 172.131 395.223 171.824 396.615 171.518C403.73 169.957 403.73 169.957 410.832 168.34C414.348 167.524 417.368 167 421 167Z" fill="#F6B8A4"/>
<path d="M153 167C153.126 170.91 153.215 174.819 153.275 178.731C153.312 180.7 153.375 182.668 153.44 184.637C153.576 195.358 151.601 204.201 144.438 212.438C138.225 218.031 130.679 221.219 122.313 221.5C112.498 220.964 105.03 217.291 98.2735 210.184C92.3804 202.999 90.8329 195.841 90.9297 186.664C90.9399 185.413 90.95 184.162 90.9605 182.874C90.9801 181.451 90.9801 181.451 91.0001 180C106.534 176.267 122.08 172.682 137.75 169.562C138.406 169.431 139.062 169.3 139.737 169.165C150.602 167 150.602 167 153 167Z" fill="#F7B9A5"/>
<path d="M50 475C59.119 474.907 68.2379 474.836 77.3573 474.793C81.5923 474.772 85.8271 474.744 90.062 474.698C94.1534 474.655 98.2445 474.631 102.336 474.621C103.893 474.613 105.449 474.599 107.005 474.577C116.303 474.453 123.657 474.389 131.023 480.746C131.692 481.583 131.692 481.583 132.375 482.438C133.067 483.271 133.067 483.271 133.773 484.121C136.46 488.237 137.249 491.83 137.227 496.708C137.227 497.845 137.227 498.981 137.226 500.152C137.216 501.335 137.206 502.519 137.195 503.738C137.193 504.834 137.191 505.93 137.189 507.059C137.179 511.144 137.151 515.228 137.125 519.313C137.084 528.449 137.043 537.586 137 547C105.65 547 74.3 547 42 547C42 546.67 42 546.34 42 546C62.46 546 82.92 546 104 546C103.938 536.801 103.876 527.603 103.812 518.125C103.806 515.24 103.799 512.355 103.792 509.383C103.766 507.071 103.737 504.758 103.707 502.445C103.711 501.266 103.715 500.086 103.719 498.871C103.585 490.976 101.94 485.781 98 479C97.505 477.515 97.505 477.515 97 476C81.49 476 65.98 476 50 476C50 475.67 50 475.34 50 475Z" fill="#FBEDCA"/>
<path d="M376.953 336.691C379.348 338.223 380.497 339.696 382.063 342.062C382.792 343.132 382.792 343.132 383.535 344.223C387.486 351.712 388.459 358.633 388.434 367.027C388.439 368.056 388.444 369.085 388.45 370.145C388.456 372.309 388.455 374.473 388.446 376.637C388.438 379.925 388.466 383.211 388.498 386.498C388.5 388.612 388.499 390.726 388.496 392.84C388.513 394.295 388.513 394.295 388.53 395.78C388.436 405.086 385.456 412.543 380 420C379.34 420.99 378.68 421.98 378 423C372.119 422.173 368.88 419.366 365 415C361.677 409.603 358.906 404.099 358.823 397.687C358.81 396.819 358.797 395.95 358.784 395.056C358.777 394.118 358.769 393.181 358.762 392.215C358.754 391.244 358.746 390.273 358.737 389.273C358.723 387.214 358.713 385.156 358.705 383.097C358.688 379.974 358.644 376.851 358.6 373.728C358.59 371.724 358.581 369.719 358.574 367.715C358.557 366.792 358.539 365.868 358.521 364.917C358.553 355.283 361.642 347.614 368.266 340.637C373.676 335.531 373.676 335.531 376.953 336.691Z" fill="#818BB1"/>
<path d="M437 116C442.288 117.97 446.44 121.061 449.124 126.118C450.302 129.995 450.279 133.722 450.259 137.734C450.262 138.603 450.266 139.472 450.269 140.367C450.278 143.233 450.272 146.099 450.266 148.965C450.267 150.961 450.269 152.957 450.271 154.954C450.274 159.136 450.27 163.318 450.261 167.5C450.249 172.854 450.256 178.208 450.268 183.563C450.275 187.685 450.273 191.807 450.268 195.929C450.266 197.903 450.268 199.877 450.273 201.851C450.278 204.613 450.27 207.374 450.259 210.136C450.263 210.949 450.267 211.761 450.271 212.597C450.237 217.121 449.714 220.738 448 225C444.146 223.43 441.916 220.916 439 218C436.384 215.929 433.705 213.953 431 212C431.443 209.559 431.917 207.236 432.739 204.892C435.903 195.732 435.487 186.228 435.446 176.658C435.438 173.639 435.466 170.621 435.498 167.602C435.555 152.308 434.145 140.192 424 128C423.434 127.455 422.868 126.909 422.285 126.348C421 125 421 125 421 123.062C424.175 116.514 430.387 115.32 437 116Z" fill="#7D87AD"/>
<path d="M403.688 129.617C411.594 134.345 416.91 140.257 420 149C420 149.99 420 150.98 420 152C408.709 154.523 397.415 157.034 386.118 159.532C384.254 159.944 382.39 160.358 380.527 160.772C377.894 161.354 375.26 161.93 372.625 162.5C371.552 162.739 371.552 162.739 370.458 162.983C366.576 163.812 362.967 164.147 359 164C358.537 155.673 358.688 149.253 363 142C363.327 141.386 363.655 140.773 363.992 140.141C372.072 126.811 390.098 123.225 403.688 129.617Z" fill="#6F7CB0"/>
<path d="M140 132C145.455 136.187 149.881 141.366 152 148C152 149.32 152 150.64 152 152C126.278 158.068 126.278 158.068 113.91 160.277C106.242 161.694 98.6244 163.367 90.9999 165C90.2774 154.624 92.2798 145.213 98.9999 137C110.573 125.04 125.453 123.405 140 132Z" fill="#6F7CB0"/>
<path d="M283.375 84.75C288.181 86.4072 290.739 89.2034 294 93C294.471 92.5901 294.941 92.1802 295.426 91.7578C296.048 91.219 296.671 90.6802 297.312 90.125C298.235 89.3245 298.235 89.3245 299.176 88.5078C303.444 84.9801 303.444 84.9801 307.5 85.125C311 86 311 86 312.938 87.6875C314.425 90.9246 314.682 92.4514 314 96C311.896 98.9 309.525 101.462 307 104C308.31 106.852 309.445 108.487 311.625 110.875C314 114 314 114 314.562 117.125C314 120 314 120 312.438 122.375C308.936 124.709 307.137 124.771 303 124C300.35 121.923 298.161 119.575 296 117C292.968 118.381 290.662 120.042 288.125 122.188C285.252 124.376 284.403 124.985 280.688 125.125C277.559 123.816 276.482 123.046 275 120C274.375 117.25 274.375 117.25 275 114C276.732 111.817 278.567 109.871 280.566 107.93C282.223 106.124 282.223 106.124 281.906 103.938C280.875 101.733 279.795 100.679 277.938 99.125C275.603 96.8865 275.05 96.2205 274.312 92.9375C275.534 87.719 277.975 85.15 283.375 84.75Z" fill="#060204"/>
<path d="M388 174C388.118 177.771 388.188 181.541 388.25 185.312C388.3 186.891 388.3 186.891 388.352 188.502C388.491 199.815 385.369 208.427 378 217C373.532 217 371.129 215.612 367.938 212.688C359.862 203.93 358.322 194.629 358.727 183.176C359 180 359 180 360 179C362.519 178.481 365.03 178.006 367.563 177.562C374.195 176.369 374.195 176.369 380.75 174.812C384 174 384 174 388 174Z" fill="#FCC7B7"/>
<path d="M168 443C173.401 447.244 175.624 454.45 177 461C177.349 465.118 177.482 469.231 177.57 473.362C177.625 475.363 177.732 477.361 177.84 479.359C178.022 488.81 178.022 488.81 175.214 492.08C172.879 493.64 170.548 494.826 168 496C166.694 496.828 165.403 497.679 164.129 498.555C162.941 499.329 161.752 500.102 160.562 500.875C159.952 501.277 159.342 501.679 158.713 502.094C154.23 505 154.23 505 152 505C151.963 504.033 151.925 503.066 151.887 502.07C151.494 494.288 150.757 487.37 148 480C148.58 479.539 149.16 479.077 149.758 478.602C160.725 469.444 166.703 457.271 168 443Z" fill="#F856A7"/>
<path d="M120 175C120.849 190.834 121.267 202.84 111.582 215.914C110 217 110 217 107.566 216.879C101.821 214.911 97.3989 210.329 94.6251 205C94.057 203.678 93.5131 202.345 93.0001 201C92.5876 199.969 92.1751 198.937 91.7501 197.875C90.6008 191.937 90.8496 186.028 91.0001 180C94.518 179.154 98.0398 178.325 101.563 177.5C103.049 177.142 103.049 177.142 104.565 176.777C109.84 175.55 114.583 174.696 120 175Z" fill="#FCC7B7"/>
<path d="M323 500C326.892 501.824 330.453 504.111 334.062 506.438C336.106 507.743 338.151 509.048 340.195 510.352C341.679 511.303 341.679 511.303 343.192 512.274C345.627 513.771 348.051 515.087 350.617 516.336C354.273 518.18 357.261 519.867 360 523C361.549 528.604 360.82 534.329 360 540C354.987 538.302 350.794 535.471 346.375 532.625C344.684 531.544 342.992 530.463 341.301 529.383C340.431 528.826 339.562 528.27 338.666 527.696C336.011 526.007 333.342 524.34 330.668 522.68C329.812 522.147 328.956 521.613 328.075 521.064C326.433 520.042 324.79 519.024 323.144 518.01C315.63 513.311 315.63 513.311 313 510C312.575 506.538 312.361 504.165 314.062 501.063C317.092 499.401 319.689 499.338 323 500Z" fill="#FAF1DC"/>
<path d="M195 500C197.438 501.062 197.438 501.062 199 503C199.688 506.312 199.688 506.312 199 510C194.859 514.723 189.173 517.917 183.813 521.062C175.858 525.813 168.086 530.801 160.374 535.936C159.57 536.466 158.766 536.996 157.938 537.543C156.868 538.255 156.868 538.255 155.777 538.981C154 540 154 540 152 540C150.623 534.256 149.608 528.593 152 523C157.28 517.445 164.506 514.07 171.208 510.526C174.966 508.472 178.435 506.08 181.938 503.625C186.554 500.415 189.356 499.495 195 500Z" fill="#FAF1DB"/>
<path d="M376.492 131.156C381.089 132.703 382.803 136.902 385 141C387.604 146.763 388.343 151.709 388 158C378.717 161.361 368.947 164.317 359 164C358.538 155.696 358.66 149.223 363 142C363.385 141.352 363.771 140.703 364.168 140.035C367.059 135.61 370.738 130.796 376.492 131.156Z" fill="#7F89B0"/>
<path d="M108.527 131.086C113.561 132.947 115.747 138.451 118.012 143.059C120.019 147.926 120.649 152.771 121 158C117.378 159.565 113.913 160.535 110.043 161.289C108.931 161.508 107.819 161.727 106.674 161.953C105.523 162.175 104.373 162.397 103.187 162.625C101.433 162.969 101.433 162.969 99.6425 163.32C96.7625 163.885 93.8817 164.444 91 165C90.7042 154.415 92.0984 145.479 99 137C104.715 130.956 104.715 130.956 108.527 131.086Z" fill="#7F89AF"/>
<path d="M52.9999 270C55.5449 299.693 55.5449 299.693 51.4779 306.576C47.324 310.598 42.4836 312.424 36.9999 314C35.5149 314.495 35.5149 314.495 33.9999 315C33.9001 311.017 33.828 307.034 33.7802 303.049C33.7504 301.037 33.6996 299.024 33.6483 297.012C33.56 288.22 33.9771 282.425 40.0702 275.723C40.7482 275.175 41.4263 274.627 42.1249 274.063C42.8081 273.497 43.4913 272.931 44.1952 272.348C47.2805 270.044 49.1964 269.9 52.9999 270Z" fill="#F2E9D4"/>
<path d="M459 270C466.955 271.136 466.955 271.136 470.188 274.062C470.82 274.61 471.453 275.158 472.105 275.723C478.776 283.741 478.507 290.907 478.25 301C478.23 302.361 478.212 303.721 478.195 305.082C478.148 308.389 478.083 311.694 478 315C474.214 313.551 471.219 311.894 467.938 309.5C464.966 307.339 462.312 305.656 459 304C459 292.78 459 281.56 459 270Z" fill="#F2EAD5"/>
<path d="M236 161C238 162.625 238 162.625 239 165C238.88 168.423 238.607 170.954 236.875 173.937C233.777 175.693 231.472 175.487 228 175C225.5 172.937 225.5 172.937 224 170C224 166.197 224.203 163.981 226.625 161C230.116 159.53 232.391 160.016 236 161Z" fill="#0D0C0B"/>
<path d="M254.562 160.062C257.95 160.986 258.988 161.281 261 164C261.18 166.191 261.18 166.191 260.875 168.562C260.79 169.347 260.705 170.132 260.617 170.941C260 173 260 173 257 175C250.821 175.662 250.821 175.662 248.062 173.437C246.587 170.053 246.543 167.654 247 164C249.268 160.37 250.254 159.987 254.562 160.062Z" fill="#090908"/>
<path d="M212 160C214.375 161.563 214.375 161.563 216 164C216.568 167.975 216.623 170.065 214.375 173.438C211.283 175.472 209.636 175.606 206 175C203.625 173.438 203.625 173.438 202 171C201.432 167.025 201.377 164.935 203.625 161.563C206.717 159.528 208.364 159.394 212 160Z" fill="#090807"/>
<path d="M283 358C285 359.062 285 359.062 286 361C286.39 364.574 286.37 367.098 285 370.437C282.289 372.555 280.251 372.571 276.875 372.379C275 372 275 372 273 370.437C271.63 367.098 271.61 364.574 272 361C274.17 356.795 278.843 357.385 283 358Z" fill="#060605"/>
<path d="M303.125 357.691C305 358 305 358 307 359C308.629 362.259 308.527 365.439 308 369C306.937 371 306.937 371 305 372C301.069 372.5 298.899 372.6 295.562 370.375C293.541 367.302 293.472 365.617 294 362C295.898 357.493 298.656 357.42 303.125 357.691Z" fill="#060606"/>
<path d="M260 358C262.438 359.625 262.438 359.625 264 362C264.606 365.636 264.472 367.283 262.438 370.375C259.101 372.6 256.931 372.5 253 372C251.063 371 251.063 371 250 369C249.471 365.419 249.341 362.24 251.063 359C254.179 357.391 256.563 357.578 260 358Z" fill="#050504"/>
<path d="M75 442C75.33 442 75.66 442 76 442C76.205 442.964 76.4099 443.928 76.6211 444.922C76.8905 446.185 77.1599 447.448 77.4375 448.75C77.8378 450.629 77.8378 450.629 78.2461 452.547C78.7905 455.04 79.381 457.524 80 460C76.04 460 72.08 460 68 460C68.4034 453.814 70.4884 446.512 75 442Z" fill="#F254A3"/>
</g>
<path d="M578.243 44.5273C585.572 45.8687 588.908 48.639 594.431 53.5718C596.154 55.0572 597.876 56.5425 599.651 58.0729C603.56 62.93 603.56 62.93 604.548 68.4906C603.359 74.8575 601.706 76.7161 596.884 80.9681C591.384 86.0605 586.232 91.1515 581.351 96.8362C574.477 104.771 567.388 112.481 560.232 120.164C541.293 140.451 541.293 140.451 522.968 161.284C521.642 162.842 520.315 164.4 518.949 166.005C517.811 167.37 516.672 168.735 515.5 170.142C511.421 174.172 508.781 176.182 503.28 177.94C490.162 177.757 483.114 172.975 473.85 164.377C471.208 162.023 468.565 159.67 465.922 157.316C464.558 156.083 463.194 154.849 461.789 153.577C454.426 146.973 446.89 140.569 439.379 134.133C422.658 119.734 422.658 119.734 422.126 114.366C422.696 107.592 424.298 104.687 428.342 99.2775C429.405 97.7893 430.467 96.3012 431.561 94.7679C437.303 89.7347 441.174 89.0275 448.78 88.97C453.983 92.3436 453.983 92.3436 458.999 97.3787C460.853 99.1578 462.708 100.937 464.619 102.77C466.586 104.661 468.553 106.552 470.58 108.5C474.848 112.259 479.162 115.969 483.524 119.621C485.477 121.283 487.43 122.944 489.442 124.656C491.975 126.326 491.975 126.326 494.56 128.03C501.644 125.679 502.918 124.336 507.504 118.807C514.445 110.661 521.597 102.765 528.895 94.9375C531.152 92.5104 533.408 90.0833 535.665 87.6561C537.95 85.2007 540.235 82.7453 542.52 80.29C546.931 75.5487 551.336 70.8015 555.736 66.0493C557.65 63.9877 559.564 61.9262 561.535 59.8021C566.5 54.5434 566.5 54.5434 569.761 49.1725C573.04 45.57 573.04 45.57 578.243 44.5273Z" fill="#53CF33"/>
<defs>
<clipPath id="clip0_177_102">
<rect width="512" height="512" fill="white" transform="translate(0 50)"/>
</clipPath>
</defs>
</svg>
