<?xml version="1.0" encoding="UTF-8"?>
<svg version="1.1" xmlns="http://www.w3.org/2000/svg" width="100" height="100">
<path d="M0 0 C27.72 0 55.44 0 84 0 C84 18.81 84 37.62 84 57 C73.11 57 62.22 57 51 57 C51 58.98 51 60.96 51 63 C54.3 63 57.6 63 61 63 C61 64.65 61 66.3 61 68 C48.46 68 35.92 68 23 68 C23 66.35 23 64.7 23 63 C26.3 63 29.6 63 33 63 C33 61.02 33 59.04 33 57 C22.11 57 11.22 57 0 57 C0 38.19 0 19.38 0 0 Z " fill="#B9DCF7" transform="translate(8,18)"/>
<path d="M0 0 C27.72 0 55.44 0 84 0 C84 18.81 84 37.62 84 57 C73.11 57 62.22 57 51 57 C51 58.98 51 60.96 51 63 C54.3 63 57.6 63 61 63 C61 64.65 61 66.3 61 68 C48.46 68 35.92 68 23 68 C23 66.35 23 64.7 23 63 C26.3 63 29.6 63 33 63 C33 61.02 33 59.04 33 57 C22.11 57 11.22 57 0 57 C0 38.19 0 19.38 0 0 Z M4 5 C4 20.84 4 36.68 4 53 C29.08 53 54.16 53 80 53 C80 37.16 80 21.32 80 5 C54.92 5 29.84 5 4 5 Z " fill="#90A4AE" transform="translate(8,18)"/>
<path d="M0 0 C5.57894737 3.15789474 5.57894737 3.15789474 7 6 C8.05218879 16.04088729 8.05218879 16.04088729 5.953125 19.94921875 C4.69693404 21.35689156 3.35005898 22.68208528 2 24 C0.6950516 26.7124618 0.6950516 26.7124618 0 29 C-1.98 29 -3.96 29 -6 29 C-6.61875 27.6696875 -6.61875 27.6696875 -7.25 26.3125 C-8.7895677 22.98564401 -8.7895677 22.98564401 -11.1875 20.875 C-14.11975845 16.22383143 -13.87820703 11.33566117 -13 6 C-9.24453181 0.95976638 -6.21420888 -0.59752008 0 0 Z " fill="#FBB44C" transform="translate(53,27)"/>
<path d="M0 0 C0.66 0.99 1.32 1.98 2 3 C5 3.5 5 3.5 8 3 C8.66 2.01 9.32 1.02 10 0 C16.76923077 3.44615385 16.76923077 3.44615385 17.9375 6.25 C17.958125 6.8275 17.97875 7.405 18 8 C18.66 8 19.32 8 20 8 C20 10.97 20 13.94 20 17 C15.71 17 11.42 17 7 17 C7 15.68 7 14.36 7 13 C5.68 13 4.36 13 3 13 C3 14.32 3 15.64 3 17 C-1.29 17 -5.58 17 -10 17 C-10 14.03 -10 11.06 -10 8 C-9.34 8 -8.68 8 -8 8 C-7.79375 7.236875 -7.5875 6.47375 -7.375 5.6875 C-5.57929296 2.17770897 -3.56863688 1.47400219 0 0 Z " fill="#68B5F3" transform="translate(45,52)"/>
<path d="M0 0 C5.94 0 11.88 0 18 0 C18 1.98 18 3.96 18 6 C21.3 6 24.6 6 28 6 C28 7.65 28 9.3 28 11 C15.46 11 2.92 11 -10 11 C-10 9.35 -10 7.7 -10 6 C-6.7 6 -3.4 6 0 6 C0 4.02 0 2.04 0 0 Z " fill="#8EA2AC" transform="translate(41,75)"/>
<path d="M0 0 C5.57894737 3.15789474 5.57894737 3.15789474 7 6 C7.06996014 7.70702735 7.08440154 9.41668003 7.0625 11.125 C7.05347656 12.03507812 7.04445313 12.94515625 7.03515625 13.8828125 C7.02355469 14.58148438 7.01195313 15.28015625 7 16 C6.34 16 5.68 16 5 16 C4.9175 14.88625 4.835 13.7725 4.75 12.625 C4.41481113 9.02986295 4.41481113 9.02986295 2.3125 7.6875 C-0.81181272 6.75865027 -2.66007877 7.41859581 -5.75 8.375 C-6.73484375 8.67148437 -7.7196875 8.96796875 -8.734375 9.2734375 C-9.48203125 9.51320313 -10.2296875 9.75296875 -11 10 C-11 11.98 -11 13.96 -11 16 C-11.66 16 -12.32 16 -13 16 C-13.78530425 7.01262916 -13.78530425 7.01262916 -10.625 2.9375 C-6.7938628 0.10975588 -4.78482779 -0.46007959 0 0 Z " fill="#4C4A47" transform="translate(53,27)"/>
<path d="M0 0 C4.29 0 8.58 0 13 0 C13 2.97 13 5.94 13 9 C8.71 9 4.42 9 0 9 C0 6.03 0 3.06 0 0 Z " fill="#49CF51" transform="translate(52,60)"/>
<path d="M0 0 C4.29 0 8.58 0 13 0 C13 2.97 13 5.94 13 9 C8.71 9 4.42 9 0 9 C0 6.03 0 3.06 0 0 Z " fill="#49CF51" transform="translate(35,60)"/>
<path d="M0 0 C5.94 0 11.88 0 18 0 C18 1.98 18 3.96 18 6 C12.06 6 6.12 6 0 6 C0 4.02 0 2.04 0 0 Z " fill="#5F7D8A" transform="translate(41,75)"/>
<path d="M0 0 C3.96 0 7.92 0 12 0 C12 2.97 12 5.94 12 9 C8.04 9 4.08 9 0 9 C0 6.03 0 3.06 0 0 Z " fill="#49D14B" transform="translate(69,60)"/>
<path d="M0 0 C3.96 0 7.92 0 12 0 C12 2.97 12 5.94 12 9 C8.04 9 4.08 9 0 9 C0 6.03 0 3.06 0 0 Z " fill="#49D14B" transform="translate(19,60)"/>
<path d="M0 0 C2.64 0 5.28 0 8 0 C7.67 1.65 7.34 3.3 7 5 C5.02 5 3.04 5 1 5 C0.67 3.35 0.34 1.7 0 0 Z " fill="#FA9907" transform="translate(46,51)"/>
</svg>
