<?xml version="1.0" encoding="UTF-8"?>
<svg version="1.1" xmlns="http://www.w3.org/2000/svg" width="512" height="512">
<path d="M0 0 C1.0098999 0.01087646 2.0197998 0.02175293 3.06030273 0.03295898 C22.12948791 0.44071611 36.46919597 7.98046965 49.5625 21.375 C50.15546875 21.93574219 50.7484375 22.49648438 51.359375 23.07421875 C63.01518046 35.0120195 66.77425864 52.4442267 66.89257812 68.4387207 C66.84179538 72.46536921 66.43610531 76.10336897 65.54533386 80.03596497 C65.36218722 80.84803815 65.17904058 81.66011133 64.99034405 82.49679279 C64.84915551 83.11660117 64.70796698 83.73640955 64.5625 84.375 C65.68701065 84.38086624 66.8115213 84.38673248 67.97010803 84.39277649 C78.57840778 84.45004146 89.18650327 84.522823 99.79459476 84.61071491 C105.24805785 84.65540235 110.70144651 84.69466222 116.1550293 84.72143555 C121.42010653 84.74748451 126.68489711 84.78789859 131.94979668 84.83818626 C133.95634833 84.85484413 135.96294956 84.86636512 137.96956062 84.87261391 C140.78478014 84.88226662 143.59926807 84.91034023 146.41430664 84.94262695 C147.24005692 84.94119186 148.06580719 84.93975677 148.9165802 84.9382782 C156.36307067 85.05870114 162.39558305 87.26546505 167.87011719 92.48095703 C175.20928332 100.69464008 174.03871044 111.75437454 173.8125 122 C173.79239608 123.59242535 173.77415221 125.18487533 173.7578125 126.77734375 C173.71414294 130.64384689 173.64533518 134.50914576 173.5625 138.375 C174.31560959 138.36611755 175.06871918 138.35723511 175.84465027 138.3480835 C182.95093612 138.26784967 190.0570644 138.20699124 197.16367626 138.16775131 C200.81707815 138.14689907 204.47010497 138.11862592 208.12329102 138.07324219 C211.65056849 138.02969814 215.1774858 138.00584511 218.70501137 137.99549103 C220.70199599 137.98453126 222.69883624 137.95331852 224.69560242 137.92181396 C225.91649063 137.92151184 227.13737885 137.92120972 228.39526367 137.92089844 C229.46781906 137.91201599 230.54037445 137.90313354 231.64543152 137.89398193 C235.32614576 138.50092348 237.00547594 139.68850006 239.5625 142.375 C239.5625 143.695 239.5625 145.015 239.5625 146.375 C245.1725 146.375 250.7825 146.375 256.5625 146.375 C256.8925 144.725 257.2225 143.075 257.5625 141.375 C259.85449226 138.88521707 261.23924171 138.41541943 264.60919189 137.99404907 C265.8019574 137.99166229 266.9947229 137.98927551 268.22363281 137.98681641 C268.88436295 137.98155945 269.54509308 137.97630249 270.22584534 137.97088623 C272.4060139 137.9577046 274.58544921 137.9664212 276.765625 137.9765625 C278.28774149 137.97454026 279.80985703 137.97162756 281.33197021 137.96786499 C284.52300231 137.96344333 287.71378239 137.96986379 290.90478516 137.98388672 C294.9778124 138.00092061 299.050244 137.99117372 303.12324905 137.97316933 C306.26843672 137.96227728 309.4134856 137.96580352 312.55867767 137.9735527 C314.05925315 137.9755428 315.55984156 137.97313761 317.06040192 137.96611404 C326.4639067 137.93177713 333.79262415 138.16450664 341.8125 143.5625 C348.23767835 150.13370513 349.7135214 157.17237441 349.70294189 166.11575317 C349.70739858 167.29248464 349.70739858 167.29248464 349.7119453 168.49298847 C349.7206239 171.12440544 349.72213985 173.75577688 349.72363281 176.38720703 C349.72826166 178.2730265 349.73328642 180.15884503 349.73867798 182.04466248 C349.75179954 187.17096627 349.75824674 192.29725696 349.76268864 197.42357492 C349.76562042 200.6278021 349.76972548 203.8320257 349.77419281 207.03625107 C349.78786856 217.06571121 349.79753422 227.09516318 349.8013947 237.124632 C349.80587249 248.6938671 349.82340715 260.26298388 349.8523953 271.832183 C349.87403329 280.7792698 349.88410015 289.72632337 349.88543582 298.67343605 C349.88648254 304.01471942 349.89236191 309.35589159 349.91025543 314.69714737 C349.92677216 319.72536324 349.92887411 324.75338474 349.92011642 329.78161812 C349.91934792 331.62219197 349.9236641 333.46277642 349.93357468 335.30332375 C350.03774073 355.86254919 350.03774073 355.86254919 344.75 364.25 C337.59451034 371.20104709 330.72481359 372.61455441 321.12695312 372.55078125 C320.13630859 372.53402344 319.14566406 372.51726562 318.125 372.5 C317.10728516 372.49097656 316.08957031 372.48195313 315.04101562 372.47265625 C312.54792844 372.44924698 310.05534141 372.416457 307.5625 372.375 C307.56916183 372.92543976 307.57582367 373.47587952 307.58268738 374.04299927 C307.64919522 379.78576806 307.69436455 385.52842695 307.72729492 391.27148438 C307.74235641 393.41313117 307.76280972 395.55474724 307.78881836 397.69628906 C307.82531728 400.77937411 307.84225302 403.86205038 307.85546875 406.9453125 C307.87095261 407.89866486 307.88643646 408.85201721 307.90238953 409.83425903 C307.90371721 415.11045968 307.56334377 418.83354249 304.5625 423.375 C301.3150341 426.24485359 298.79152681 427.62626393 294.5 427.8125 C288.70230922 427.16831214 285.47339954 424.53730454 281.43408203 420.48950195 C280.65622345 419.71472 279.87836487 418.93993805 279.07693481 418.14167786 C278.24974945 417.30730698 277.42256409 416.4729361 276.5703125 415.61328125 C275.70614716 414.74865768 274.84198181 413.88403412 273.95162964 412.99320984 C272.12537373 411.1639361 270.30154565 409.33223577 268.47998047 407.49829102 C265.70978295 404.70992907 262.93175995 401.92956038 260.15234375 399.15039062 C258.3745293 397.36765678 256.59717078 395.58446812 254.8203125 393.80078125 C253.9971756 392.97653152 253.1740387 392.1522818 252.32595825 391.30305481 C248.07909349 387.02163808 243.97638301 382.67443401 240.06124878 378.08659363 C237.20520997 374.48843161 237.20520997 374.48843161 233.08203125 373.08203125 C232.18871094 373.11683594 231.29539062 373.15164063 230.375 373.1875 C229.47394531 373.21457031 228.57289063 373.24164063 227.64453125 373.26953125 C226.95746094 373.30433594 226.27039063 373.33914063 225.5625 373.375 C225.82804687 373.99246094 226.09359375 374.60992187 226.3671875 375.24609375 C226.89699219 376.51646484 226.89699219 376.51646484 227.4375 377.8125 C227.78554688 378.63621094 228.13359375 379.45992188 228.4921875 380.30859375 C234.24344557 396.78573821 232.97342297 414.95510945 226.0546875 430.8359375 C220.96380587 440.99402225 211.87645033 454.04941987 200.8671875 458.453125 C198.40607402 460.10666528 198.40607402 460.10666528 198.11914062 462.38891602 C197.95020655 464.99774832 197.91507664 467.57331008 197.9375 470.1875 C197.9375 481.38885747 197.9375 481.38885747 194.5625 486.375 C191.77827185 489.07869262 189.67035518 489.86485221 185.8125 490 C180.70069915 489.79909953 178.38370201 488.27257992 174.78125 484.77734375 C173.08787803 482.94385121 171.46282508 481.08834056 169.84375 479.19140625 C162.30164929 470.65200296 156.20961207 467.80243436 145.15234375 465.453125 C129.99854887 462.17089477 117.76227446 450.59681695 109.2421875 438.1171875 C100.10251634 423.19614296 96.73940185 405.18170994 100.39453125 387.96484375 C101.64593693 382.868932 103.15674659 378.04739864 105.5625 373.375 C104.68046402 373.36913376 103.79842804 373.36326752 102.8896637 373.35722351 C94.54823791 373.29914806 86.20707567 373.22698687 77.86590672 373.13928509 C73.57834847 373.09469355 69.2908828 373.05541323 65.00317383 373.02856445 C60.85975526 373.00241887 56.71669507 372.96193836 52.57349968 372.91181374 C50.9984377 372.8952207 49.42331384 372.88365958 47.84817696 372.87738609 C27.56716057 372.78849098 27.56716057 372.78849098 20.1875 366.125 C19.56101562 365.58359375 18.93453125 365.0421875 18.2890625 364.484375 C13.59690416 358.75187386 13.13103905 353.15882917 13.22192383 346.04321289 C13.22126671 344.68105652 13.22126671 344.68105652 13.22059631 343.29138184 C13.2226751 340.30991612 13.24596316 337.32902292 13.26953125 334.34765625 C13.27513044 332.27258105 13.27939901 330.19750186 13.28239441 328.12242126 C13.29381771 322.67586204 13.32326333 317.22954498 13.35650635 311.78308105 C13.38726144 306.21935298 13.40091136 300.65558556 13.41601562 295.09179688 C13.44813537 284.18609186 13.49930134 273.28056611 13.5625 262.375 C8.55460933 263.69413388 5.62492643 264.68501349 2.0625 268.5 C1.3715625 269.22445313 0.680625 269.94890625 -0.03125 270.6953125 C-1.92104979 272.79986227 -3.7785687 274.92367618 -5.62890625 277.0625 C-9.89131545 281.9428155 -14.34633961 286.61702575 -18.875 291.25 C-19.68259766 292.10335938 -20.49019531 292.95671875 -21.32226562 293.8359375 C-26.17831947 298.78199074 -29.45789838 301.60949531 -36.4375 302.375 C-40.82249079 301.78042498 -43.41118617 300.77540874 -46.3125 297.5 C-49.48788397 292.8303177 -49.56062259 289.46196885 -49.53515625 283.859375 C-49.53193359 282.60898437 -49.52871094 281.35859375 -49.52539062 280.0703125 C-49.51701172 278.76835937 -49.50863281 277.46640625 -49.5 276.125 C-49.49548828 274.80757813 -49.49097656 273.49015625 -49.48632812 272.1328125 C-49.47454316 268.88016259 -49.45809011 265.62760416 -49.4375 262.375 C-50.39591797 262.39312744 -51.35433594 262.41125488 -52.34179688 262.42993164 C-54.22995117 262.45108032 -54.22995117 262.45108032 -56.15625 262.47265625 C-57.40341797 262.49078369 -58.65058594 262.50891113 -59.93554688 262.52758789 C-66.38150687 262.24672307 -70.37009165 259.76988587 -74.75 255.1875 C-80.80133673 247.21303735 -80.8733414 238.60856466 -80.82568359 228.91992188 C-80.82975649 227.58345615 -80.83510238 226.24699379 -80.84161377 224.91053772 C-80.85520804 221.30512433 -80.85002169 217.69997051 -80.84047651 214.09455299 C-80.83283872 210.30712857 -80.8399369 206.51972518 -80.84463501 202.7322998 C-80.85008063 196.37406457 -80.8429324 190.01593414 -80.82861328 183.65771484 C-80.81228902 176.32482805 -80.81757837 168.99219156 -80.8340925 161.65931082 C-80.84774151 155.34394497 -80.8496104 149.02865413 -80.84177649 142.71327829 C-80.83711868 138.9499187 -80.83642265 135.18667646 -80.84638596 131.42332458 C-80.8551033 127.88387371 -80.8489477 124.34474304 -80.83170319 120.80532646 C-80.82589635 118.89989019 -80.83471305 116.99442658 -80.84408569 115.08900452 C-80.77556304 105.75683142 -79.71032522 97.93514444 -73.19921875 90.8828125 C-70.22586194 88.33798827 -67.02080157 86.91952654 -63.4375 85.375 C-63.76105469 84.10269531 -64.08460937 82.83039063 -64.41796875 81.51953125 C-68.47037471 63.19233718 -64.89982373 45.34152296 -55.4375 29.375 C-42.58690756 10.75475381 -22.66963308 -0.33374155 0 0 Z " fill="#FEE076" transform="translate(121.4375,-0.375)"/>
<path d="M0 0 C1.0098999 0.01087646 2.0197998 0.02175293 3.06030273 0.03295898 C22.12948791 0.44071611 36.46919597 7.98046965 49.5625 21.375 C50.15546875 21.93574219 50.7484375 22.49648438 51.359375 23.07421875 C63.01518046 35.0120195 66.77425864 52.4442267 66.89257812 68.4387207 C66.84179538 72.46536921 66.43610531 76.10336897 65.54533386 80.03596497 C65.36218722 80.84803815 65.17904058 81.66011133 64.99034405 82.49679279 C64.84915551 83.11660117 64.70796698 83.73640955 64.5625 84.375 C65.68701065 84.38086624 66.8115213 84.38673248 67.97010803 84.39277649 C78.57840778 84.45004146 89.18650327 84.522823 99.79459476 84.61071491 C105.24805785 84.65540235 110.70144651 84.69466222 116.1550293 84.72143555 C121.42010653 84.74748451 126.68489711 84.78789859 131.94979668 84.83818626 C133.95634833 84.85484413 135.96294956 84.86636512 137.96956062 84.87261391 C140.78478014 84.88226662 143.59926807 84.91034023 146.41430664 84.94262695 C147.24005692 84.94119186 148.06580719 84.93975677 148.9165802 84.9382782 C156.36307067 85.05870114 162.39558305 87.26546505 167.87011719 92.48095703 C175.20928332 100.69464008 174.03871044 111.75437454 173.8125 122 C173.79239608 123.59242535 173.77415221 125.18487533 173.7578125 126.77734375 C173.71414294 130.64384689 173.64533518 134.50914576 173.5625 138.375 C174.31560959 138.36611755 175.06871918 138.35723511 175.84465027 138.3480835 C182.95093612 138.26784967 190.0570644 138.20699124 197.16367626 138.16775131 C200.81707815 138.14689907 204.47010497 138.11862592 208.12329102 138.07324219 C211.65056849 138.02969814 215.1774858 138.00584511 218.70501137 137.99549103 C220.70199599 137.98453126 222.69883624 137.95331852 224.69560242 137.92181396 C225.91649063 137.92151184 227.13737885 137.92120972 228.39526367 137.92089844 C229.46781906 137.91201599 230.54037445 137.90313354 231.64543152 137.89398193 C235.31345693 138.49883112 236.97734402 139.74094216 239.5625 142.375 C240.125 145.875 240.125 145.875 239.5625 149.375 C237.41550351 152.2332284 236.25085642 153.25974012 232.6897583 153.85601807 C231.57945251 153.84713562 230.46914673 153.83825317 229.32519531 153.82910156 C228.06419006 153.82879944 226.80318481 153.82849731 225.50396729 153.82818604 C224.13284674 153.80776105 222.76173267 153.78689709 221.390625 153.765625 C219.98387456 153.75816117 218.57711369 153.7524689 217.17034912 153.74847412 C213.47441718 153.7332286 209.77911773 153.69395731 206.08343506 153.6496582 C202.30961665 153.60868143 198.53569568 153.59045804 194.76171875 153.5703125 C187.36169136 153.52746099 179.96218443 153.45922405 172.5625 153.375 C172.57360306 154.52234619 172.58470612 155.66969238 172.59614563 156.85180664 C172.6976361 167.68030913 172.77252047 178.50871473 172.82156086 189.33758545 C172.847621 194.90445831 172.88295417 200.47094628 172.93969727 206.03759766 C172.99414397 211.41278857 173.02394748 216.78760996 173.03688622 222.16305542 C173.04610332 224.21074233 173.06410237 226.25840971 173.09115028 228.30593872 C173.12760861 231.18096133 173.13243831 234.0544698 173.13012695 236.9296875 C173.15709152 238.19097221 173.15709152 238.19097221 173.18460083 239.47773743 C173.12302914 246.58608776 170.4275139 251.16964967 165.75390625 256.3984375 C165.21636719 256.84445312 164.67882812 257.29046875 164.125 257.75 C163.59003906 258.21148437 163.05507813 258.67296875 162.50390625 259.1484375 C158.05111113 261.96167224 153.54381455 262.6291406 148.36108398 262.68139648 C146.55407265 262.70537758 146.55407265 262.70537758 144.71055603 262.72984314 C142.7790847 262.73788719 142.7790847 262.73788719 140.80859375 262.74609375 C139.46151129 262.75507087 138.11442979 262.7641929 136.76734924 262.77345276 C133.95237818 262.78988811 131.13752534 262.79763361 128.32250977 262.80053711 C124.72203683 262.80593466 121.12267849 262.84369187 117.52252102 262.88928127 C114.74375871 262.91906323 111.96526552 262.92626078 109.1863575 262.92726326 C107.21595962 262.93349145 105.24567922 262.96294382 103.27549744 262.99278259 C93.34431478 262.94254712 93.34431478 262.94254712 90.24633789 260.03149414 C88.17992187 256.77142851 87.83703709 255.16352851 88.5625 251.375 C90.67838383 248.64213192 91.85615481 247.50396402 95.29443359 246.87620544 C96.86185303 246.8764547 96.86185303 246.8764547 98.4609375 246.87670898 C99.64896973 246.86667343 100.83700195 246.85663788 102.06103516 246.84629822 C103.34026855 246.85448074 104.61950195 246.86266327 105.9375 246.87109375 C107.94896678 246.85670041 109.96043359 246.84229133 111.97189331 246.8269434 C114.78719543 246.80999679 117.60238002 246.81052053 120.41772461 246.81164551 C125.34450379 246.81360837 130.27108914 246.80672959 135.19775391 246.77174377 C137.81977107 246.75488686 140.44192388 246.75213261 143.06396484 246.76475525 C144.25199707 246.75787186 145.4400293 246.75098846 146.6640625 246.74389648 C147.70900879 246.74485825 148.75395508 246.74582001 149.83056641 246.74681091 C153.05919257 246.30740109 154.24891273 245.64738636 156.5625 243.375 C157.16553039 240.76915614 157.16553039 240.76915614 157.07043457 237.75744629 C157.08171387 236.58809036 157.09299316 235.41873444 157.10461426 234.21394348 C157.09651733 232.92968979 157.08842041 231.6454361 157.08007812 230.32226562 C157.08549776 228.95724236 157.09261953 227.59222494 157.10131836 226.22721863 C157.11957398 222.51848992 157.1124753 218.81020565 157.09980202 215.10146904 C157.08968578 211.22311059 157.09906385 207.34479058 157.10534668 203.46643066 C157.11262713 196.95297401 157.10302507 190.43969867 157.08398438 183.92626953 C157.06221472 176.39224101 157.06926582 168.85864543 157.09129 161.3246274 C157.10943278 154.85999227 157.11200787 148.3954876 157.10153532 141.93083525 C157.09529415 138.06806051 157.09448167 134.20548938 157.10768127 130.34272766 C157.11922304 126.71135979 157.11124562 123.08055092 157.08810425 119.44924355 C157.08027845 117.47818906 157.09218736 115.50708737 157.10461426 113.53605652 C157.09333496 112.36670059 157.08205566 111.19734467 157.07043457 109.99255371 C157.06892647 108.97418175 157.06741837 107.95580978 157.06586456 106.90657806 C156.77990522 104.26680031 156.77990522 104.26680031 154.78523636 102.55065632 C152.44845633 101.31467968 151.10886975 100.98551812 148.49078369 100.94694519 C147.28823944 100.9190818 147.28823944 100.9190818 146.06140137 100.89065552 C144.75531921 100.88326859 144.75531921 100.88326859 143.42285156 100.87573242 C142.03673676 100.85098091 142.03673676 100.85098091 140.62261963 100.82572937 C137.56607268 100.77682259 134.50998421 100.75150144 131.453125 100.73046875 C129.88491627 100.71587333 129.88491627 100.71587333 128.28502655 100.70098305 C122.75153088 100.65016338 117.21826644 100.61739101 111.68457031 100.59936523 C105.9761893 100.57733809 100.27037523 100.4949027 94.56283951 100.39824963 C90.16690734 100.33475519 85.77158816 100.31606175 81.37523651 100.309412 C79.27163153 100.29850756 77.16804248 100.2708817 75.064888 100.22600365 C63.70303246 99.57278044 63.70303246 99.57278044 53.53271484 103.58081055 C51.50421841 106.09762339 50.02203295 108.50212438 48.5625 111.375 C39.19971121 121.74094473 27.356272 127.71718692 13.75 130.125 C4.29241782 131.86963367 0.23124812 137.0123645 -5.4375 144.375 C-6.72250591 145.77572876 -8.03088668 147.15588668 -9.375 148.5 C-9.87902344 149.01820313 -10.38304688 149.53640625 -10.90234375 150.0703125 C-13.56605304 152.3341265 -15.85261344 153.29871045 -19.3125 153.75 C-23.30903796 153.27041545 -25.34209308 151.90760567 -28.4375 149.375 C-30.43139913 146.25360339 -30.67545506 143.83913506 -30.6328125 140.171875 C-30.62636719 139.1921875 -30.61992188 138.2125 -30.61328125 137.203125 C-30.59652344 136.18734375 -30.57976562 135.1715625 -30.5625 134.125 C-30.55347656 133.09375 -30.54445312 132.0625 -30.53515625 131 C-30.51162011 128.45809713 -30.47874023 125.9166672 -30.4375 123.375 C-31.17226562 123.11074219 -31.90703125 122.84648438 -32.6640625 122.57421875 C-42.00114017 118.53691897 -50.19825368 109.96736396 -55.4375 101.375 C-58.37193402 101.64156572 -58.37193402 101.64156572 -61.4375 102.375 C-63.69816941 105.76600412 -63.69163037 106.93396842 -63.70492554 110.90989685 C-63.71772049 112.63652054 -63.71772049 112.63652054 -63.73077393 114.39802551 C-63.72986755 115.66200668 -63.72896118 116.92598785 -63.72802734 118.22827148 C-63.73401123 119.57196426 -63.74081645 120.91565358 -63.74838257 122.25933838 C-63.76606302 125.91015767 -63.77073877 129.56088324 -63.77201414 133.21174121 C-63.77391257 136.25853723 -63.78126936 139.30531139 -63.78835833 142.352099 C-63.80464727 149.53951281 -63.80952678 156.7268765 -63.80810547 163.91430664 C-63.80690353 171.33127323 -63.82801448 178.74794907 -63.8595928 186.16484207 C-63.8857325 192.53095605 -63.89647376 198.89697492 -63.89519465 205.26314217 C-63.89468438 209.06617676 -63.90040319 212.86895294 -63.92155075 216.67193413 C-63.94089493 220.24826939 -63.94108442 223.82409871 -63.92651749 227.40045166 C-63.9234247 229.33914127 -63.94013212 231.27783072 -63.95739746 233.21644592 C-63.944814 234.94729935 -63.944814 234.94729935 -63.93197632 236.71311951 C-63.93361062 238.21717173 -63.93361062 238.21717173 -63.93527794 239.75160885 C-63.29334924 243.13470386 -62.15703937 244.31518725 -59.4375 246.375 C-56.52254929 246.74841474 -53.91274564 246.9350126 -51 246.9375 C-41.48963947 246.9946438 -41.48963947 246.9946438 -37.4375 250.375 C-32.22859782 255.85332815 -32.77755964 261.99610507 -32.6875 269.25 C-32.64302734 270.99796875 -32.64302734 270.99796875 -32.59765625 272.78125 C-32.52721399 275.64590195 -32.47438887 278.50975205 -32.4375 281.375 C-28.8162429 277.85280464 -25.30393184 274.28414757 -22.00390625 270.45703125 C-18.2902307 266.15878606 -14.37544859 262.0933992 -10.375 258.0625 C-9.3530957 257.0096582 -9.3530957 257.0096582 -8.31054688 255.93554688 C-7.30411133 254.92137695 -7.30411133 254.92137695 -6.27734375 253.88671875 C-5.68300537 253.28303467 -5.08866699 252.67935059 -4.47631836 252.05737305 C0.05030179 248.32213901 4.14582123 246.99968395 9.96337891 246.97094727 C11.83529404 246.95192101 11.83529404 246.95192101 13.74502563 246.93251038 C15.09303962 246.93456142 16.44105247 246.93754912 17.7890625 246.94140625 C19.18338271 246.93684095 20.57770066 246.93153434 21.97201538 246.92552185 C24.88540834 246.91661312 27.7985268 246.91899004 30.71191406 246.92895508 C34.44240069 246.94047302 38.17194467 246.92018028 41.90230751 246.89103794 C44.77798454 246.87268627 47.65343485 246.87296568 50.52915573 246.87867546 C51.90466006 246.87882864 53.28017979 246.87278691 54.6556282 246.86038399 C56.57716928 246.84548941 58.4988662 246.85877318 60.42041016 246.87329102 C61.51261871 246.87345718 62.60482727 246.87362335 63.73013306 246.87379456 C67.25191336 247.4969961 68.42857531 248.54825671 70.5625 251.375 C71.125 254.875 71.125 254.875 70.5625 258.375 C67.63117211 261.59312326 65.96014694 262.32944828 61.59838867 262.82910156 C60.05893674 262.82847337 58.51938668 262.80617411 56.98046875 262.765625 C56.16628983 262.75996521 55.3521109 262.75430542 54.51325989 262.74847412 C51.92489647 262.72616774 49.3379416 262.67598445 46.75 262.625 C44.99025444 262.60492747 43.23048707 262.58667802 41.47070312 262.5703125 C37.16742995 262.52632207 32.8652034 262.45733627 28.5625 262.375 C28.62367663 273.91023381 28.70075797 285.44524071 28.79821491 296.98022842 C28.84296565 302.3362503 28.88221143 307.69219528 28.90893555 313.04833984 C28.93492154 318.21614989 28.97529063 323.38366477 29.02568626 328.55129242 C29.04238683 330.52403851 29.0538812 332.4968357 29.06011391 334.46964264 C29.0697203 337.23040297 29.09773791 339.99040269 29.13012695 342.75097656 C29.12869186 343.56881119 29.12725677 344.38664581 29.1257782 345.22926331 C29.17758802 348.34640415 29.40038677 350.97548137 30.57801819 353.87768555 C33.7016939 356.23453496 36.98671701 355.96469756 40.74658203 355.95605469 C41.58112411 355.96948914 42.4156662 355.98292358 43.27549744 355.99676514 C46.04067688 356.03482614 48.80488722 356.04257939 51.5703125 356.046875 C53.49502969 356.05972935 55.41974295 356.07318595 57.3444519 356.08721924 C61.38467456 356.11119358 65.42455497 356.11857857 69.46484375 356.11621094 C74.62700199 356.11580556 79.78694533 356.17028369 84.94857979 356.23929977 C88.92768286 356.28393021 92.90625811 356.29188317 96.88558578 356.28977203 C98.78732779 356.29447501 100.68908533 356.31207197 102.59057999 356.3431015 C114.70376513 356.88115225 114.70376513 356.88115225 125.05297852 351.46899414 C126.22886324 350.10953407 127.3993558 348.74537664 128.5625 347.375 C131.0621139 345.68152255 133.64648638 344.34828035 136.375 343.0625 C137.06803223 342.73056641 137.76106445 342.39863281 138.47509766 342.05664062 C152.18152215 335.68921368 168.38172775 333.5931416 182.98828125 338.40234375 C183.83777344 338.72332031 184.68726563 339.04429687 185.5625 339.375 C187.03783203 339.90287109 187.03783203 339.90287109 188.54296875 340.44140625 C196.35453085 343.44128371 203.82170726 347.39148407 209.609375 353.5546875 C214.26520256 356.42454946 219.01178306 355.93425939 224.375 355.9375 C234.73984406 355.98182126 241.50600705 356.2470892 249.25390625 363.54296875 C250.89061687 365.20341893 252.51408232 366.8770147 254.125 368.5625 C254.93646484 369.38814453 255.74792969 370.21378906 256.58398438 371.06445312 C260.16473537 374.73190512 263.66080446 378.44311111 267 382.33203125 C271.40482774 387.43589574 276.21302101 392.13282355 281 396.875 C282.38348633 398.25171875 282.38348633 398.25171875 283.79492188 399.65625 C286.04849899 401.89815055 288.30439075 404.137666 290.5625 406.375 C290.57651855 404.61240845 290.57651855 404.61240845 290.59082031 402.81420898 C290.63085335 398.43232051 290.69664874 394.05112432 290.77001953 389.66967773 C290.79815216 387.77751596 290.81940488 385.88523836 290.83349609 383.99291992 C290.85503286 381.2642113 290.90173669 378.53688409 290.953125 375.80859375 C290.95435364 374.96977158 290.95558228 374.1309494 290.95684814 373.26670837 C291.09854083 367.51596073 292.13225317 364.04722006 295.5625 359.375 C299.37165385 356.2484759 302.43994056 355.99814267 307.2890625 355.96875 C308.5678125 355.94683594 309.8465625 355.92492187 311.1640625 355.90234375 C313.18293415 355.88608636 315.20179757 355.87492103 317.22070312 355.86376953 C319.1811198 355.84808239 321.14137204 355.81490984 323.1015625 355.78125 C324.26896973 355.77416016 325.43637695 355.76707031 326.63916016 355.75976562 C329.4702159 355.59374918 329.4702159 355.59374918 331.22224045 354.33255005 C333.289346 351.31338665 332.96823231 348.20110188 332.92999268 344.66943359 C332.93326152 343.87677786 332.93653036 343.08412212 332.93989825 342.26744652 C332.94720042 339.60258412 332.93300152 336.93826661 332.91894531 334.2734375 C332.91973588 332.36655585 332.92183221 330.45967436 332.92514038 328.55279541 C332.93028388 323.36691008 332.91671999 318.18122247 332.89961338 312.99536896 C332.88460259 307.57553074 332.885752 302.15569537 332.88494873 296.73583984 C332.88125356 287.63310358 332.86627382 278.53044261 332.84375 269.42773438 C332.81487662 257.73492486 332.80452718 246.04217601 332.8000679 234.34933472 C332.79609045 224.30897527 332.78358773 214.26862908 332.76972103 204.22827911 C332.76561868 200.99502085 332.76269474 197.76176307 332.75992584 194.52850342 C332.75503792 189.45275822 332.74484303 184.37704992 332.73048782 179.30132294 C332.7259593 177.43524255 332.72312485 175.56915719 332.72208023 173.70307159 C332.72033843 171.16219927 332.71246581 168.62141974 332.70294189 166.08056641 C332.70380838 165.33650732 332.70467486 164.59244823 332.7055676 163.8258419 C332.68809758 160.73356156 332.54838988 158.33266964 331.5625 155.375 C330.7091658 155.37135437 329.8558316 155.36770874 328.97663879 155.36395264 C320.92823316 155.32605999 312.88023223 155.26919296 304.83211231 155.19109726 C300.69461816 155.15161568 296.55733705 155.11943073 292.41967773 155.10400391 C288.42531789 155.0888415 284.43154369 155.05440423 280.43744469 155.00669098 C278.91490461 154.99187273 277.39228091 154.98395872 275.86966896 154.98311615 C273.73385065 154.98074588 271.5996501 154.9536662 269.46411133 154.92089844 C268.2494368 154.91201599 267.03476227 154.90313354 265.78327942 154.89398193 C261.93136987 154.27330252 260.27476682 153.14022393 257.5625 150.375 C256.4375 146.9375 256.4375 146.9375 256.5625 143.375 C259.10439439 140.10164783 260.61537295 138.56085775 264.72944641 137.75354004 C265.9199913 137.75559448 267.11053619 137.75764893 268.3371582 137.75976562 C268.99803436 137.75421661 269.65891052 137.7486676 270.33981323 137.74295044 C272.51505083 137.73118259 274.68819066 137.75540309 276.86328125 137.78125 C278.38396612 137.78296261 279.90465394 137.7828939 281.42533875 137.78112793 C284.61058864 137.78277975 287.79513358 137.80144489 290.98022461 137.83300781 C295.04542713 137.87258417 299.10970272 137.87706399 303.17506123 137.86954498 C306.3159979 137.86646112 309.45672967 137.87864747 312.5976162 137.89567566 C314.09538676 137.90266607 315.59318055 137.90583504 317.09096718 137.90498352 C326.46643432 137.91308016 333.81909676 138.18232474 341.8125 143.5625 C348.23767835 150.13370513 349.7135214 157.17237441 349.70294189 166.11575317 C349.70739858 167.29248464 349.70739858 167.29248464 349.7119453 168.49298847 C349.7206239 171.12440544 349.72213985 173.75577688 349.72363281 176.38720703 C349.72826166 178.2730265 349.73328642 180.15884503 349.73867798 182.04466248 C349.75179954 187.17096627 349.75824674 192.29725696 349.76268864 197.42357492 C349.76562042 200.6278021 349.76972548 203.8320257 349.77419281 207.03625107 C349.78786856 217.06571121 349.79753422 227.09516318 349.8013947 237.124632 C349.80587249 248.6938671 349.82340715 260.26298388 349.8523953 271.832183 C349.87403329 280.7792698 349.88410015 289.72632337 349.88543582 298.67343605 C349.88648254 304.01471942 349.89236191 309.35589159 349.91025543 314.69714737 C349.92677216 319.72536324 349.92887411 324.75338474 349.92011642 329.78161812 C349.91934792 331.62219197 349.9236641 333.46277642 349.93357468 335.30332375 C350.03774073 355.86254919 350.03774073 355.86254919 344.75 364.25 C337.59451034 371.20104709 330.72481359 372.61455441 321.12695312 372.55078125 C320.13630859 372.53402344 319.14566406 372.51726562 318.125 372.5 C317.10728516 372.49097656 316.08957031 372.48195313 315.04101562 372.47265625 C312.54792844 372.44924698 310.05534141 372.416457 307.5625 372.375 C307.56916183 372.92543976 307.57582367 373.47587952 307.58268738 374.04299927 C307.64919522 379.78576806 307.69436455 385.52842695 307.72729492 391.27148438 C307.74235641 393.41313117 307.76280972 395.55474724 307.78881836 397.69628906 C307.82531728 400.77937411 307.84225302 403.86205038 307.85546875 406.9453125 C307.87095261 407.89866486 307.88643646 408.85201721 307.90238953 409.83425903 C307.90371721 415.11045968 307.56334377 418.83354249 304.5625 423.375 C301.3150341 426.24485359 298.79152681 427.62626393 294.5 427.8125 C288.70230922 427.16831214 285.47339954 424.53730454 281.43408203 420.48950195 C280.65622345 419.71472 279.87836487 418.93993805 279.07693481 418.14167786 C278.24974945 417.30730698 277.42256409 416.4729361 276.5703125 415.61328125 C275.70614716 414.74865768 274.84198181 413.88403412 273.95162964 412.99320984 C272.12537373 411.1639361 270.30154565 409.33223577 268.47998047 407.49829102 C265.70978295 404.70992907 262.93175995 401.92956038 260.15234375 399.15039062 C258.3745293 397.36765678 256.59717078 395.58446812 254.8203125 393.80078125 C253.9971756 392.97653152 253.1740387 392.1522818 252.32595825 391.30305481 C248.07909349 387.02163808 243.97638301 382.67443401 240.06124878 378.08659363 C237.20520997 374.48843161 237.20520997 374.48843161 233.08203125 373.08203125 C232.18871094 373.11683594 231.29539062 373.15164063 230.375 373.1875 C229.47394531 373.21457031 228.57289063 373.24164063 227.64453125 373.26953125 C226.95746094 373.30433594 226.27039063 373.33914063 225.5625 373.375 C225.82804687 373.99246094 226.09359375 374.60992187 226.3671875 375.24609375 C226.89699219 376.51646484 226.89699219 376.51646484 227.4375 377.8125 C227.78554688 378.63621094 228.13359375 379.45992188 228.4921875 380.30859375 C234.24344557 396.78573821 232.97342297 414.95510945 226.0546875 430.8359375 C220.96380587 440.99402225 211.87645033 454.04941987 200.8671875 458.453125 C198.40607402 460.10666528 198.40607402 460.10666528 198.11914062 462.38891602 C197.95020655 464.99774832 197.91507664 467.57331008 197.9375 470.1875 C197.9375 481.38885747 197.9375 481.38885747 194.5625 486.375 C191.77827185 489.07869262 189.67035518 489.86485221 185.8125 490 C180.70069915 489.79909953 178.38370201 488.27257992 174.78125 484.77734375 C173.08787803 482.94385121 171.46282508 481.08834056 169.84375 479.19140625 C162.30164929 470.65200296 156.20961207 467.80243436 145.15234375 465.453125 C129.99854887 462.17089477 117.76227446 450.59681695 109.2421875 438.1171875 C100.10251634 423.19614296 96.73940185 405.18170994 100.39453125 387.96484375 C101.64593693 382.868932 103.15674659 378.04739864 105.5625 373.375 C104.68046402 373.36913376 103.79842804 373.36326752 102.8896637 373.35722351 C94.54823791 373.29914806 86.20707567 373.22698687 77.86590672 373.13928509 C73.57834847 373.09469355 69.2908828 373.05541323 65.00317383 373.02856445 C60.85975526 373.00241887 56.71669507 372.96193836 52.57349968 372.91181374 C50.9984377 372.8952207 49.42331384 372.88365958 47.84817696 372.87738609 C27.56716057 372.78849098 27.56716057 372.78849098 20.1875 366.125 C19.56101562 365.58359375 18.93453125 365.0421875 18.2890625 364.484375 C13.59690416 358.75187386 13.13103905 353.15882917 13.22192383 346.04321289 C13.22126671 344.68105652 13.22126671 344.68105652 13.22059631 343.29138184 C13.2226751 340.30991612 13.24596316 337.32902292 13.26953125 334.34765625 C13.27513044 332.27258105 13.27939901 330.19750186 13.28239441 328.12242126 C13.29381771 322.67586204 13.32326333 317.22954498 13.35650635 311.78308105 C13.38726144 306.21935298 13.40091136 300.65558556 13.41601562 295.09179688 C13.44813537 284.18609186 13.49930134 273.28056611 13.5625 262.375 C8.55460933 263.69413388 5.62492643 264.68501349 2.0625 268.5 C1.3715625 269.22445313 0.680625 269.94890625 -0.03125 270.6953125 C-1.92104979 272.79986227 -3.7785687 274.92367618 -5.62890625 277.0625 C-9.89131545 281.9428155 -14.34633961 286.61702575 -18.875 291.25 C-19.68259766 292.10335938 -20.49019531 292.95671875 -21.32226562 293.8359375 C-26.17831947 298.78199074 -29.45789838 301.60949531 -36.4375 302.375 C-40.82249079 301.78042498 -43.41118617 300.77540874 -46.3125 297.5 C-49.48788397 292.8303177 -49.56062259 289.46196885 -49.53515625 283.859375 C-49.53193359 282.60898437 -49.52871094 281.35859375 -49.52539062 280.0703125 C-49.51701172 278.76835937 -49.50863281 277.46640625 -49.5 276.125 C-49.49548828 274.80757813 -49.49097656 273.49015625 -49.48632812 272.1328125 C-49.47454316 268.88016259 -49.45809011 265.62760416 -49.4375 262.375 C-50.39591797 262.39312744 -51.35433594 262.41125488 -52.34179688 262.42993164 C-54.22995117 262.45108032 -54.22995117 262.45108032 -56.15625 262.47265625 C-57.40341797 262.49078369 -58.65058594 262.50891113 -59.93554688 262.52758789 C-66.38150687 262.24672307 -70.37009165 259.76988587 -74.75 255.1875 C-80.80133673 247.21303735 -80.8733414 238.60856466 -80.82568359 228.91992188 C-80.82975649 227.58345615 -80.83510238 226.24699379 -80.84161377 224.91053772 C-80.85520804 221.30512433 -80.85002169 217.69997051 -80.84047651 214.09455299 C-80.83283872 210.30712857 -80.8399369 206.51972518 -80.84463501 202.7322998 C-80.85008063 196.37406457 -80.8429324 190.01593414 -80.82861328 183.65771484 C-80.81228902 176.32482805 -80.81757837 168.99219156 -80.8340925 161.65931082 C-80.84774151 155.34394497 -80.8496104 149.02865413 -80.84177649 142.71327829 C-80.83711868 138.9499187 -80.83642265 135.18667646 -80.84638596 131.42332458 C-80.8551033 127.88387371 -80.8489477 124.34474304 -80.83170319 120.80532646 C-80.82589635 118.89989019 -80.83471305 116.99442658 -80.84408569 115.08900452 C-80.77556304 105.75683142 -79.71032522 97.93514444 -73.19921875 90.8828125 C-70.22586194 88.33798827 -67.02080157 86.91952654 -63.4375 85.375 C-63.76105469 84.10269531 -64.08460937 82.83039063 -64.41796875 81.51953125 C-68.47037471 63.19233718 -64.89982373 45.34152296 -55.4375 29.375 C-42.58690756 10.75475381 -22.66963308 -0.33374155 0 0 Z " fill="#010101" transform="translate(121.4375,-0.375)"/>
<path d="M0 0 C2.87108399 1.27812577 3.82405869 2.47100336 5.57421875 5.0625 C9.56418881 10.51285126 14.83845317 17.17541522 21.23144531 19.82788086 C23.33171373 20.71651756 24.76562145 21.44720813 26.38671875 23.0625 C27.34366167 26.70252196 27.22903953 30.25614956 27.13671875 34 C26.70769382 42.60230066 26.70769382 42.60230066 30.38671875 50.0625 C33.605271 52.39317577 36.49162401 52.52991137 40.38671875 52.0625 C45.0772673 49.30680273 48.74524045 45.9829912 52.51171875 42.125 C53.02347656 41.61259766 53.53523438 41.10019531 54.0625 40.57226562 C56.38767146 38.2201963 58.39902461 36.04442418 60.26953125 33.296875 C63.16351821 30.24270426 66.15322603 29.91024989 70.13671875 29.25 C85.11587281 26.19220651 97.07897161 19.37365615 107.38671875 8.0625 C108.0006003 7.07267183 108.0006003 7.07267183 108.62688351 6.06284714 C112.12395185 0.51433656 112.12395185 0.51433656 115.44923592 -0.67549896 C117.93129845 -0.94990926 120.3045187 -0.97381192 122.80102539 -0.90917969 C123.73021286 -0.91677307 124.65940033 -0.92436646 125.616745 -0.93218994 C128.67817673 -0.94697046 131.7357829 -0.90429971 134.796875 -0.859375 C136.92866063 -0.85460419 139.06045476 -0.85279592 141.19224548 -0.8538208 C145.65547491 -0.84757046 150.11741675 -0.81448754 154.58032227 -0.76074219 C160.29936595 -0.69273953 166.0169971 -0.67748638 171.73639774 -0.68052292 C176.13656586 -0.67943498 180.53642553 -0.65749309 184.93649101 -0.62851715 C187.04518742 -0.61579529 189.15391874 -0.60790665 191.26265144 -0.60494232 C194.20964147 -0.59626257 197.15513805 -0.56123893 200.10180664 -0.51855469 C200.97207489 -0.52036743 201.84234314 -0.52218018 202.73898315 -0.52404785 C203.54494431 -0.50698792 204.35090546 -0.48992798 205.18128967 -0.47235107 C205.87682481 -0.4656477 206.57235994 -0.45894432 207.2889719 -0.45203781 C210.45319634 0.32408688 212.12295278 1.75108809 214.38671875 4.0625 C215.01592445 6.71433258 215.01592445 6.71433258 215.02163696 9.7935791 C215.03573608 10.96286453 215.04983521 12.13214996 215.06436157 13.33686829 C215.05424042 14.61595566 215.04411926 15.89504303 215.03369141 17.21289062 C215.04046818 18.57644316 215.04937166 19.93998653 215.0602417 21.30351257 C215.08303545 25.00406776 215.07419906 28.70392597 215.05834627 32.40449333 C215.04568737 36.27704624 215.05742734 40.14953947 215.0652771 44.02209473 C215.07437375 50.52541825 215.06238557 57.02845786 215.03857422 63.53173828 C215.01136261 71.05051439 215.02017678 78.56861262 215.04770625 86.0873723 C215.07039609 92.54272276 215.07359811 98.99786914 215.0605129 105.45324659 C215.05271758 109.30881328 215.05167865 113.16406133 215.06819534 117.01960754 C215.08263941 120.64454186 215.07262131 124.26860226 215.04372406 127.89344215 C215.0339587 129.85832645 215.04881414 131.82328466 215.06436157 133.78813171 C215.05026245 134.95741714 215.03616333 136.12670258 215.02163696 137.3314209 C215.01975183 138.34757225 215.01786671 139.3637236 215.01592445 140.41066742 C214.15189342 144.0521882 212.48770895 145.09664112 209.38671875 147.0625 C206.52780151 147.56129456 206.52780151 147.56129456 203.35888672 147.56079102 C202.16770233 147.57082657 200.97651794 147.58086212 199.74923706 147.59120178 C198.47202789 147.58301926 197.19481873 147.57483673 195.87890625 147.56640625 C193.86611259 147.58079862 191.85331889 147.59520667 189.8405323 147.6105566 C187.02851 147.62748407 184.21660574 147.62697996 181.40454102 147.62585449 C176.47484268 147.62388868 171.54533695 147.63073115 166.61575317 147.66575623 C163.99265783 147.68263233 161.36942671 147.68535263 158.74630737 147.67274475 C157.56142731 147.67962814 156.37654724 147.68651154 155.15576172 147.69360352 C153.58953568 147.69216087 153.58953568 147.69216087 151.9916687 147.69068909 C149.36922667 147.85374359 149.36922667 147.85374359 147.58865356 149.39805603 C146.18637106 151.16516944 146.18637106 151.16516944 145.38671875 154.0625 C139.44671875 154.0625 133.50671875 154.0625 127.38671875 154.0625 C126.39671875 151.5875 126.39671875 151.5875 125.38671875 149.0625 C122.67547078 147.70687601 120.52303587 147.91282161 117.48754883 147.88549805 C115.62970512 147.86624519 115.62970512 147.86624519 113.73432922 147.84660339 C112.37497355 147.83843391 111.01561335 147.83099058 109.65625 147.82421875 C108.97176977 147.82014322 108.28728954 147.8160677 107.58206749 147.81186867 C103.95600054 147.7910021 100.32997144 147.77670553 96.70385742 147.76733398 C92.96915246 147.75629535 89.23504759 147.7219277 85.50055408 147.68216228 C82.62050824 147.65593136 79.74060361 147.64763626 76.86044884 147.64405251 C75.48460547 147.63919963 74.10876785 147.6276227 72.73304176 147.60901451 C63.25113846 147.48878064 58.12782156 147.9921346 50.8671875 154.22558594 C50.11050781 154.99161133 49.35382813 155.75763672 48.57421875 156.546875 C47.30191406 157.82691406 47.30191406 157.82691406 46.00390625 159.1328125 C45.14023438 160.01710938 44.2765625 160.90140625 43.38671875 161.8125 C42.09121094 163.11574219 42.09121094 163.11574219 40.76953125 164.4453125 C36.28654328 168.98280488 31.95412408 173.5854709 27.859375 178.47753906 C26.38671875 180.0625 26.38671875 180.0625 23.38671875 182.0625 C23.3727002 180.92820557 23.3727002 180.92820557 23.35839844 179.77099609 C23.30452675 176.32584866 23.22091034 172.88203438 23.13671875 169.4375 C23.12253906 168.24769531 23.10835937 167.05789063 23.09375 165.83203125 C22.93468908 157.11259185 22.93468908 157.11259185 18.38671875 150.0625 C14.34360218 146.88118152 8.59621376 147.73863951 3.67382812 147.75976562 C2.94099609 147.73978516 2.20816406 147.71980469 1.453125 147.69921875 C0.79256104 147.69623779 0.13199707 147.69325684 -0.54858398 147.69018555 C-3.90385033 146.67015601 -5.89778755 145.0570766 -7.61328125 142.0625 C-8.38461918 137.71719126 -8.29575916 133.40138722 -8.26025391 128.99804688 C-8.26703306 127.65567337 -8.27593787 126.31330917 -8.2868042 124.97096252 C-8.30956974 121.33237656 -8.30077326 117.69450061 -8.28490877 114.05590248 C-8.27223522 110.24521621 -8.28399391 106.43459006 -8.2918396 102.62390137 C-8.30093199 96.22490543 -8.28895928 89.82619818 -8.26513672 83.42724609 C-8.23792591 76.03286526 -8.24674038 68.63917376 -8.27426875 61.24480963 C-8.29697076 54.89218168 -8.30015466 48.53976106 -8.2870754 42.18710566 C-8.27928677 38.39467732 -8.27822273 34.60257283 -8.29475784 30.81016541 C-8.30921965 27.24430571 -8.29915151 23.67933326 -8.27028656 20.11356926 C-8.26053936 18.18347767 -8.27536156 16.2533109 -8.29092407 14.32325745 C-8.17547619 4.88716584 -8.17547619 4.88716584 -5.23617554 1.74987793 C-2.61328125 0.0625 -2.61328125 0.0625 0 0 Z " fill="#61DAFA" transform="translate(64.61328125,99.9375)"/>
<path d="M0 0 C1.17874695 -0.00852997 2.3574939 -0.01705994 3.57196045 -0.02584839 C5.49136192 -0.02448883 5.49136192 -0.02448883 7.44953918 -0.02310181 C8.8217251 -0.02909159 10.19390765 -0.03589817 11.56608582 -0.04345703 C15.28331083 -0.06108254 19.00044368 -0.06581106 22.71770644 -0.0670886 C25.04454418 -0.06851318 27.37135873 -0.07278866 29.69819069 -0.07808304 C37.8287008 -0.09657475 45.95914546 -0.10475508 54.0896759 -0.10317993 C61.64686912 -0.10198007 69.20377603 -0.12305402 76.76089686 -0.15466726 C83.26560809 -0.18090005 89.77022624 -0.19154424 96.2749899 -0.19026911 C100.15253703 -0.18976136 104.02982979 -0.19533998 107.90732384 -0.21662521 C111.55922779 -0.23612521 115.21063793 -0.23605292 118.86256027 -0.22159195 C120.82492238 -0.2185354 122.78728516 -0.23509931 124.74957275 -0.25247192 C137.90799399 -0.15993216 148.01111776 4.01167851 157.74568176 12.85336304 C167.47484435 23.21428943 169.48528294 34.94973171 169.27693176 48.48226929 C168.82366728 60.04389614 163.03607101 69.69861001 154.74958801 77.51742554 C143.97528392 86.57722563 132.62631155 88.64351038 118.87458801 88.39242554 C117.43986145 88.37889038 117.43986145 88.37889038 115.97615051 88.36508179 C113.65035277 88.34182381 111.32511507 88.30914766 108.99958801 88.26742554 C109.02053528 89.08420776 109.04148254 89.90098999 109.06306458 90.74252319 C109.14643931 94.45903108 109.19831789 98.17534186 109.24958801 101.89242554 C109.28310364 103.17762085 109.31661926 104.46281616 109.35115051 105.78695679 C109.47439391 117.67994467 109.47439391 117.67994467 104.99958801 122.26742554 C101.80279338 124.39862196 100.54940521 124.66651675 96.81208801 124.82992554 C95.91103333 124.8930896 95.00997864 124.95625366 94.08161926 125.02133179 C87.28044623 123.35767349 83.30704837 117.81855611 79.38320923 112.32391357 C72.32008998 102.54057036 64.05584669 91.55923268 51.83161926 88.46572876 C37.50690705 86.19303844 22.59465558 86.93681267 8.18171692 88.04508972 C-4.9368669 88.92863824 -15.90266659 85.32845537 -26.12541199 77.14242554 C-34.77449923 69.16662054 -39.3998152 59.22744769 -40.27775574 47.59164429 C-40.61383478 34.21569833 -37.49843109 23.57769703 -28.50041199 13.45492554 C-27.67541199 12.73305054 -26.85041199 12.01117554 -26.00041199 11.26742554 C-25.07228699 10.42180054 -24.14416199 9.57617554 -23.18791199 8.70492554 C-16.62024606 3.33598526 -8.48573151 0.02788482 0 0 Z " fill="#FD72C4" transform="translate(343.0004119873047,-0.267425537109375)"/>
<path d="M0 0 C0.97103165 -0.00960754 1.94206329 -0.01921509 2.94252014 -0.02911377 C3.98427902 -0.03336365 5.0260379 -0.03761353 6.09936523 -0.04199219 C7.17419662 -0.04769226 8.24902802 -0.05339233 9.35643005 -0.05926514 C11.6267702 -0.06870355 13.89712398 -0.07524451 16.16748047 -0.07910156 C19.64827063 -0.08884008 23.12847841 -0.1198881 26.60913086 -0.15136719 C28.81420548 -0.15789419 31.01928431 -0.16314585 33.22436523 -0.16699219 C34.26814835 -0.17933899 35.31193146 -0.19168579 36.38734436 -0.20440674 C37.35522385 -0.20140564 38.32310333 -0.19840454 39.3203125 -0.1953125 C40.59794212 -0.20078094 40.59794212 -0.20078094 41.90138245 -0.20635986 C44.09545898 0.16113281 44.09545898 0.16113281 45.89390564 1.43341064 C47.09545898 3.16113281 47.09545898 3.16113281 47.09545898 7.16113281 C52.70545898 7.16113281 58.31545898 7.16113281 64.09545898 7.16113281 C64.75545898 5.51113281 65.41545898 3.86113281 66.09545898 2.16113281 C68.84655105 -0.58995925 70.42927662 -0.10384226 74.2824707 -0.12939453 C76.23623123 -0.14853409 76.23623123 -0.14853409 78.22946167 -0.1680603 C79.6613551 -0.17112037 81.09325052 -0.17334684 82.52514648 -0.17480469 C83.99569834 -0.18123446 85.46624891 -0.18796295 86.9367981 -0.19497681 C90.02877762 -0.20697367 93.12064532 -0.21065589 96.21264648 -0.20947266 C100.14418736 -0.20927095 104.07499319 -0.23640595 108.00636101 -0.27101707 C111.05047783 -0.29345543 114.09442367 -0.29730485 117.13861465 -0.2962532 C118.58566918 -0.29859023 120.03272982 -0.30730479 121.479702 -0.32291794 C134.338204 -0.4485066 145.27648133 1.38808974 155.09545898 10.16113281 C155.68842773 10.639375 156.28139648 11.11761719 156.89233398 11.61035156 C164.67965863 18.45010352 169.59738425 29.2370775 170.33374023 39.47363281 C170.61605964 53.50044942 167.64256314 64.54189396 158.09545898 75.16113281 C150.83582236 82.29909955 141.25008291 87.0559865 131.09545898 88.16113281 C128.30306014 88.03773364 125.53086101 87.8022328 122.74636841 87.5589447 C93.19816056 84.45745028 93.19816056 84.45745028 66.46130371 94.56568909 C57.21153077 102.48620119 49.34758275 111.88850764 42.24990845 121.75683594 C40.5420204 123.83434727 39.33111898 124.13798425 36.66967773 124.39941406 C28.86366876 124.60010983 28.86366876 124.60010983 25.03295898 122.41113281 C21.38710109 118.17723332 20.84934132 115.23407635 20.90014648 109.64550781 C20.9065918 108.39511719 20.91303711 107.14472656 20.91967773 105.85644531 C20.93643555 104.55449219 20.95319336 103.25253906 20.97045898 101.91113281 C20.97948242 100.59371094 20.98850586 99.27628906 20.99780273 97.91894531 C21.02137366 94.6661582 21.05427876 91.41373692 21.09545898 88.16113281 C20.48661865 88.17684326 19.87777832 88.19255371 19.25048828 88.20874023 C-3.32898202 88.71496807 -3.32898202 88.71496807 -11.90454102 85.16113281 C-12.5890332 84.90589844 -13.27352539 84.65066406 -13.97875977 84.38769531 C-24.5531241 79.85879271 -32.43918753 70.66823587 -36.71386719 60.17431641 C-38.74935621 54.6381242 -39.41841759 49.66472335 -39.34204102 43.78613281 C-39.33374268 42.9554126 -39.32544434 42.12469238 -39.31689453 41.26879883 C-38.98905856 29.31153593 -34.32084552 20.22538925 -26.31860352 11.41503906 C-19.32033337 4.8434927 -9.6437972 0.0772365 0 0 Z " fill="#BAEB6B" transform="translate(38.904541015625,387.8388671875)"/>
<path d="M0 0 C11.92496357 9.80314247 18.59464659 21.91109258 20.3828125 37.29296875 C20.956345 52.98864162 14.96706191 66.34421129 4.47265625 77.64453125 C1.30046957 80.66637732 -2.1116178 83.06184051 -5.76171875 85.46875 C-9.13940229 87.77948638 -12.14376984 90.28753969 -14 94 C-14.22950319 96.204364 -14.41075933 98.41392173 -14.5625 100.625 C-14.68818359 102.40777344 -14.68818359 102.40777344 -14.81640625 104.2265625 C-14.87699219 105.14179688 -14.93757813 106.05703125 -15 107 C-18.32824017 104.27944413 -21.44958033 101.69611899 -24.125 98.3125 C-28.31467384 93.1452356 -33.42010904 92.3334658 -39.625 91.1875 C-54.01606375 88.21876468 -65.36747587 81.15038065 -73.8125 68.875 C-80.82618194 56.95838875 -84.19216204 44.29616534 -81.265625 30.55078125 C-77.01594198 15.55497354 -68.65877971 3.81991205 -55 -4 C-54.030625 -4.556875 -53.06125 -5.11375 -52.0625 -5.6875 C-34.11281617 -13.38022164 -16.1506187 -10.78058864 0 0 Z " fill="#FD72C4" transform="translate(318,361)"/>
<path d="M0 0 C0.78503906 0.25652344 1.57007813 0.51304688 2.37890625 0.77734375 C8.90850509 3.10008654 13.8031982 6.46496322 19 11 C19.60585937 11.47695313 20.21171875 11.95390625 20.8359375 12.4453125 C29.61027189 20.02856078 35.15642653 33.62999831 36.30078125 44.984375 C36.36431655 59.97870662 31.6890229 74.02383773 21.17578125 84.97265625 C11.9597117 93.55998138 1.14533726 98.16089005 -11.3125 99.75 C-16.73754179 100.6722571 -19.85684114 103.93618348 -23.67578125 107.7109375 C-25.99709032 109.99713433 -28.42682054 112.00521663 -31 114 C-31.02578125 113.20335937 -31.0515625 112.40671875 -31.078125 111.5859375 C-31.13484375 110.52632813 -31.1915625 109.46671875 -31.25 108.375 C-31.29640625 107.33085938 -31.3428125 106.28671875 -31.390625 105.2109375 C-32.3890502 99.95000473 -34.72274454 96.96807855 -38.953125 93.76171875 C-40.04109375 93.07722656 -41.1290625 92.39273438 -42.25 91.6875 C-54.55114641 83.55151179 -62.06314504 72.3438686 -65.52734375 57.90625 C-68.22767839 41.30253951 -63.19414942 28.27735632 -53.8125 14.875 C-40.6977431 0.13134018 -18.78187799 -6.47650965 0 0 Z " fill="#BAEB6B" transform="translate(137,17)"/>
<path d="M0 0 C1.17874695 -0.00852997 2.3574939 -0.01705994 3.57196045 -0.02584839 C5.49136192 -0.02448883 5.49136192 -0.02448883 7.44953918 -0.02310181 C8.8217251 -0.02909159 10.19390765 -0.03589817 11.56608582 -0.04345703 C15.28331083 -0.06108254 19.00044368 -0.06581106 22.71770644 -0.0670886 C25.04454418 -0.06851318 27.37135873 -0.07278866 29.69819069 -0.07808304 C37.8287008 -0.09657475 45.95914546 -0.10475508 54.0896759 -0.10317993 C61.64686912 -0.10198007 69.20377603 -0.12305402 76.76089686 -0.15466726 C83.26560809 -0.18090005 89.77022624 -0.19154424 96.2749899 -0.19026911 C100.15253703 -0.18976136 104.02982979 -0.19533998 107.90732384 -0.21662521 C111.55922779 -0.23612521 115.21063793 -0.23605292 118.86256027 -0.22159195 C120.82492238 -0.2185354 122.78728516 -0.23509931 124.74957275 -0.25247192 C137.90799399 -0.15993216 148.01111776 4.01167851 157.74568176 12.85336304 C167.47484435 23.21428943 169.48528294 34.94973171 169.27693176 48.48226929 C168.82366728 60.04389614 163.03607101 69.69861001 154.74958801 77.51742554 C143.97528392 86.57722563 132.62631155 88.64351038 118.87458801 88.39242554 C117.43986145 88.37889038 117.43986145 88.37889038 115.97615051 88.36508179 C113.65035277 88.34182381 111.32511507 88.30914766 108.99958801 88.26742554 C109.02053528 89.08420776 109.04148254 89.90098999 109.06306458 90.74252319 C109.14643931 94.45903108 109.19831789 98.17534186 109.24958801 101.89242554 C109.28310364 103.17762085 109.31661926 104.46281616 109.35115051 105.78695679 C109.47439391 117.67994467 109.47439391 117.67994467 104.99958801 122.26742554 C101.80279338 124.39862196 100.54940521 124.66651675 96.81208801 124.82992554 C95.91103333 124.8930896 95.00997864 124.95625366 94.08161926 125.02133179 C87.28044623 123.35767349 83.30704837 117.81855611 79.38320923 112.32391357 C72.32008998 102.54057036 64.05584669 91.55923268 51.83161926 88.46572876 C37.50690705 86.19303844 22.59465558 86.93681267 8.18171692 88.04508972 C-4.9368669 88.92863824 -15.90266659 85.32845537 -26.12541199 77.14242554 C-34.77449923 69.16662054 -39.3998152 59.22744769 -40.27775574 47.59164429 C-40.61383478 34.21569833 -37.49843109 23.57769703 -28.50041199 13.45492554 C-27.67541199 12.73305054 -26.85041199 12.01117554 -26.00041199 11.26742554 C-25.07228699 10.42180054 -24.14416199 9.57617554 -23.18791199 8.70492554 C-16.62024606 3.33598526 -8.48573151 0.02788482 0 0 Z M-21.31681824 28.93148804 C-25.47904599 35.51563925 -24.7551245 43.81086588 -24.00041199 51.26742554 C-23.10119291 54.62573351 -21.86593061 57.34521454 -20.00041199 60.26742554 C-19.46416199 61.15430054 -18.92791199 62.04117554 -18.37541199 62.95492554 C-12.40729363 68.76598815 -5.51547294 72.38174832 2.81282043 72.40927124 C4.00803818 72.41630569 5.20325592 72.42334015 6.43469238 72.43058777 C7.72841263 72.43475204 9.02213287 72.43891632 10.35505676 72.44320679 C11.69924705 72.45363638 13.04342995 72.46505984 14.38760376 72.47743225 C20.09131973 72.52977078 25.79490489 72.57781558 31.49885559 72.59335327 C34.99094711 72.60348803 38.48243229 72.63295214 41.97428322 72.67467308 C43.93935985 72.69283074 45.90459263 72.69034544 47.86975098 72.68742371 C56.04355295 72.7987334 61.51324187 73.59908378 67.98664856 78.8921814 C68.44853577 79.4169104 68.91042297 79.9416394 69.38630676 80.48226929 C70.19612 81.37933594 70.19612 81.37933594 71.02229309 82.29452515 C71.57167542 82.92495728 72.12105774 83.5553894 72.68708801 84.20492554 C73.89079249 85.540087 75.09657226 86.87338003 76.30427551 88.20492554 C76.91110168 88.87781616 77.51792786 89.55070679 78.1431427 90.24398804 C81.1145265 93.4826557 84.20198711 96.60004658 87.31208801 99.70492554 C87.86920471 100.26623169 88.42632141 100.82753784 89.00032043 101.40585327 C91.14198426 104.06118171 91.14198426 104.06118171 93.99958801 105.26742554 C94.00893372 104.5362854 94.01827942 103.80514526 94.02790833 103.05184937 C94.08171466 99.72719835 94.16534305 96.40393876 94.24958801 93.07992554 C94.2637677 91.92943726 94.27794739 90.77894897 94.29255676 89.59359741 C94.32478333 88.48178101 94.35700989 87.3699646 94.39021301 86.22445679 C94.41116028 85.20327759 94.43210754 84.18209839 94.45368958 83.12997437 C95.26274565 78.88749561 97.34368741 76.42762739 100.84846497 73.97201538 C103.76071438 73.01812231 106.35441643 73.01005384 109.41755676 72.99398804 C110.67245911 72.97336304 111.92736145 72.95273804 113.22029114 72.93148804 C115.84522716 72.90563933 118.47024882 72.88729546 121.09529114 72.87680054 C130.96294236 72.69528013 138.9670491 71.09989172 146.35896301 64.20883179 C152.31831973 57.15692633 154.97888597 49.57802302 154.52693176 40.38461304 C153.68358481 35.39949551 151.72744778 31.4817712 148.99958801 27.26742554 C148.40146301 26.33930054 147.80333801 25.41117554 147.18708801 24.45492554 C141.15989321 18.42773074 133.82350213 15.03435096 125.25819397 14.99327087 C124.13690094 14.98329575 123.01560791 14.97332062 121.8603363 14.96304321 C120.03676102 14.9620462 120.03676102 14.9620462 118.17634583 14.96102905 C116.88455414 14.95270554 115.59276245 14.94438202 114.26182556 14.93580627 C110.72855545 14.91392649 107.19537186 14.90507103 103.66204166 14.89997983 C101.45045775 14.89632806 99.23889621 14.89008373 97.02732086 14.88297844 C89.29996757 14.85850511 81.57268119 14.84543695 73.84529114 14.84188843 C66.66177982 14.83825634 59.47869657 14.80837936 52.29531598 14.76648384 C46.11248491 14.7316983 39.92979513 14.71633855 33.74686694 14.71564239 C30.06098213 14.71485228 26.37553367 14.70623767 22.68975067 14.67764473 C18.5730001 14.64642098 14.4572585 14.65556294 10.34040833 14.6680603 C9.13278839 14.65322601 7.92516846 14.63839172 6.68095398 14.62310791 C-5.65982503 14.72949488 -13.76250512 19.38211893 -21.31681824 28.93148804 Z " fill="#010001" transform="translate(343.0004119873047,-0.267425537109375)"/>
<path d="M0 0 C0.97103165 -0.00960754 1.94206329 -0.01921509 2.94252014 -0.02911377 C3.98427902 -0.03336365 5.0260379 -0.03761353 6.09936523 -0.04199219 C7.17419662 -0.04769226 8.24902802 -0.05339233 9.35643005 -0.05926514 C11.6267702 -0.06870355 13.89712398 -0.07524451 16.16748047 -0.07910156 C19.64827063 -0.08884008 23.12847841 -0.1198881 26.60913086 -0.15136719 C28.81420548 -0.15789419 31.01928431 -0.16314585 33.22436523 -0.16699219 C34.26814835 -0.17933899 35.31193146 -0.19168579 36.38734436 -0.20440674 C37.35522385 -0.20140564 38.32310333 -0.19840454 39.3203125 -0.1953125 C40.59794212 -0.20078094 40.59794212 -0.20078094 41.90138245 -0.20635986 C44.61416253 0.24801208 45.48635149 0.95702221 47.09545898 3.16113281 C47.71781068 7.36200677 47.66484944 9.36287185 45.17431641 12.85449219 C40.86702393 16.08146065 37.57631488 15.80599365 32.33374023 15.69238281 C31.38790573 15.69564575 30.44207123 15.69890869 29.46757507 15.70227051 C25.43594275 15.71538805 21.40542711 15.67092529 17.37402344 15.63134766 C1.88172298 15.03981104 1.88172298 15.03981104 -11.90454102 21.16113281 C-12.8674707 21.81082031 -13.83040039 22.46050781 -14.82250977 23.12988281 C-20.27510116 28.44948417 -23.26566094 35.72157052 -23.52954102 43.28613281 C-23.07114788 51.25592261 -20.42456079 58.73113852 -14.77416992 64.5144043 C-6.83344045 71.50842627 1.67235187 71.84797541 11.84545898 71.78613281 C14.4027838 71.78613281 16.96014647 71.79869596 19.51733398 71.82519531 C20.63720703 71.81955566 21.75708008 71.81391602 22.91088867 71.80810547 C27.56565693 72.32411244 30.84120411 74.12784566 34.42358398 77.07910156 C37.08515841 81.98560207 36.77479076 86.97757242 36.84545898 92.47363281 C36.87510742 93.59576172 36.90475586 94.71789062 36.93530273 95.87402344 C37.00583315 98.63646488 37.05861392 101.39807055 37.09545898 104.16113281 C39.95391906 101.33210406 42.80640883 98.49712502 45.65795898 95.66113281 C46.45782227 94.86964844 47.25768555 94.07816406 48.08178711 93.26269531 C52.42242527 88.93977404 56.59757988 84.56356749 60.52978516 79.86401367 C64.34498323 75.71447265 68.91257091 72.3056284 74.69126892 72.04328918 C75.73207108 72.04584213 76.77287323 72.04839508 77.84521484 72.05102539 C79.02752182 72.05044632 80.2098288 72.04986725 81.42796326 72.04927063 C83.3497213 72.05243538 83.3497213 72.05243538 85.31030273 72.05566406 C88.02582214 72.04477894 90.74129691 72.02727752 93.45678711 72.01074219 C97.73565473 71.98652415 102.01404252 71.97059043 106.29296875 71.98608398 C109.7593184 71.99786172 113.22448032 71.98003769 116.69064522 71.94363976 C118.63121767 71.9310159 120.5719134 71.94893481 122.51243591 71.96772766 C131.80378213 71.84232716 140.30818308 69.89503734 147.12657166 63.15266418 C152.09894563 57.09208641 154.68197045 50.29984407 154.38452148 42.45800781 C153.24094968 33.37124807 148.99659339 26.60200358 142.26733398 20.55566406 C134.995557 15.88655546 128.14465728 15.73999459 119.70453644 15.78100777 C117.63578169 15.79020716 115.56791606 15.77979895 113.49920654 15.76438904 C107.62423849 15.72451067 101.74934863 15.72309456 95.87426758 15.7253418 C92.26627983 15.72539289 88.65878015 15.70624085 85.05092621 15.67600822 C83.01655879 15.66520096 80.98312848 15.67729473 78.9487915 15.68983459 C77.09601593 15.67478127 77.09601593 15.67478127 75.20581055 15.65942383 C74.1196344 15.65959 73.03345825 15.65975616 71.91436768 15.65992737 C68.41023267 15.03988477 67.25976478 13.93309095 65.09545898 11.16113281 C64.09545898 8.22363281 64.09545898 8.22363281 64.09545898 5.16113281 C65.69458008 2.50917053 65.69458008 2.50917053 68.09545898 0.16113281 C71.03930664 -0.46705627 71.03930664 -0.46705627 74.50952148 -0.4699707 C75.81187744 -0.48250381 77.1142334 -0.49503693 78.45605469 -0.50794983 C79.87753284 -0.49567122 81.29900151 -0.48224966 82.72045898 -0.46777344 C84.18815283 -0.46860296 85.65584657 -0.47106549 87.12353516 -0.4750824 C90.20381564 -0.47794159 93.28336965 -0.46324356 96.36352539 -0.43579102 C100.27943164 -0.40194698 104.19401875 -0.407644 108.10998535 -0.42645359 C111.14559559 -0.43712133 114.1809089 -0.42799434 117.2164917 -0.41306877 C118.65792961 -0.40794139 120.09939931 -0.4083014 121.54083252 -0.41461372 C134.35175674 -0.44961529 145.31503809 1.42253937 155.09545898 10.16113281 C155.68842773 10.639375 156.28139648 11.11761719 156.89233398 11.61035156 C164.67965863 18.45010352 169.59738425 29.2370775 170.33374023 39.47363281 C170.61605964 53.50044942 167.64256314 64.54189396 158.09545898 75.16113281 C150.83582236 82.29909955 141.25008291 87.0559865 131.09545898 88.16113281 C128.30306014 88.03773364 125.53086101 87.8022328 122.74636841 87.5589447 C93.19816056 84.45745028 93.19816056 84.45745028 66.46130371 94.56568909 C57.21153077 102.48620119 49.34758275 111.88850764 42.24990845 121.75683594 C40.5420204 123.83434727 39.33111898 124.13798425 36.66967773 124.39941406 C28.86366876 124.60010983 28.86366876 124.60010983 25.03295898 122.41113281 C21.38710109 118.17723332 20.84934132 115.23407635 20.90014648 109.64550781 C20.9065918 108.39511719 20.91303711 107.14472656 20.91967773 105.85644531 C20.93643555 104.55449219 20.95319336 103.25253906 20.97045898 101.91113281 C20.97948242 100.59371094 20.98850586 99.27628906 20.99780273 97.91894531 C21.02137366 94.6661582 21.05427876 91.41373692 21.09545898 88.16113281 C20.48661865 88.17684326 19.87777832 88.19255371 19.25048828 88.20874023 C-3.32898202 88.71496807 -3.32898202 88.71496807 -11.90454102 85.16113281 C-12.5890332 84.90589844 -13.27352539 84.65066406 -13.97875977 84.38769531 C-24.5531241 79.85879271 -32.43918753 70.66823587 -36.71386719 60.17431641 C-38.74935621 54.6381242 -39.41841759 49.66472335 -39.34204102 43.78613281 C-39.33374268 42.9554126 -39.32544434 42.12469238 -39.31689453 41.26879883 C-38.98905856 29.31153593 -34.32084552 20.22538925 -26.31860352 11.41503906 C-19.32033337 4.8434927 -9.6437972 0.0772365 0 0 Z " fill="#010100" transform="translate(38.904541015625,387.8388671875)"/>
<path d="M0 0 C3.24969769 -0.11638036 6.4988583 -0.18730581 9.75 -0.25 C10.67039062 -0.28351563 11.59078125 -0.31703125 12.5390625 -0.3515625 C13.42851562 -0.36445313 14.31796875 -0.37734375 15.234375 -0.390625 C16.05131836 -0.41157227 16.86826172 -0.43251953 17.70996094 -0.45410156 C20.97472486 0.19328233 21.97797391 1.36589739 24 4 C24.39294948 6.74068222 24.54094267 9.07992065 24.50793457 11.8190918 C24.51729451 13.00829869 24.51729451 13.00829869 24.52684355 14.22152996 C24.54281271 16.88106108 24.53015432 19.53968065 24.51757812 22.19921875 C24.52299751 24.10462988 24.53011913 26.01003682 24.53881836 27.91543579 C24.55707645 33.09309254 24.54997389 38.270431 24.53730202 43.44809341 C24.52718724 48.86213296 24.53656346 54.27614495 24.54284668 59.69018555 C24.55012752 68.78276471 24.5405239 77.87521399 24.52148438 86.96777344 C24.49971484 97.48566058 24.5067659 108.00323759 24.52879 118.52111721 C24.54693152 127.54541653 24.54950841 136.5696224 24.53903532 145.59393406 C24.53279354 150.98645169 24.53198359 156.37882348 24.54518127 161.77133179 C24.55672097 166.84065674 24.54874839 171.90958116 24.52560425 176.97886276 C24.5203071 178.84129546 24.52184806 180.70376177 24.53065491 182.56618118 C24.54155449 185.10488131 24.52791538 187.64229076 24.50793457 190.1809082 C24.5213189 191.29160439 24.5213189 191.29160439 24.53497362 192.42473888 C24.48217876 195.87291427 24.23882673 197.68887933 22.11138153 200.46031189 C19.58612166 202.30181355 18.33067677 202.47001735 15.234375 202.390625 C14.34492188 202.37773437 13.45546875 202.36484375 12.5390625 202.3515625 C11.15847656 202.30128906 11.15847656 202.30128906 9.75 202.25 C8.81414062 202.23195313 7.87828125 202.21390625 6.9140625 202.1953125 C4.60832985 202.14825673 2.30469055 202.08253713 0 202 C0.24357144 201.25190315 0.24357144 201.25190315 0.49206352 200.48869324 C1.19285441 197.05508761 1.13749287 193.66933347 1.12698364 190.1809082 C1.12854363 189.38810361 1.13010362 188.59529902 1.13171089 187.77847004 C1.13570275 185.11922159 1.13253824 182.46003013 1.12939453 179.80078125 C1.13074937 177.89537523 1.13252978 175.98996947 1.13470459 174.08456421 C1.13926903 168.90700515 1.13749341 163.72946599 1.1343255 158.55190659 C1.13179682 153.13787532 1.13414087 147.72384578 1.13571167 142.30981445 C1.13753187 133.21728204 1.13513096 124.12475774 1.13037109 115.03222656 C1.12492876 104.51443869 1.12669152 93.9966702 1.1321975 83.47888279 C1.13673287 74.45460882 1.13737709 65.43034069 1.13475883 56.40606594 C1.1331984 51.0135968 1.13299592 45.62113677 1.13629532 40.22866821 C1.13918016 35.15948197 1.13718699 30.09032077 1.13140106 25.02113724 C1.13007677 23.15869819 1.13046199 21.29625704 1.13266373 19.43381882 C1.13538816 16.89554786 1.13197815 14.35735759 1.12698364 11.8190918 C1.12921436 11.07862767 1.13144509 10.33816355 1.13374341 9.57526112 C1.12098136 6.24116668 1.03785719 3.18763843 0 0 Z " fill="#FEC243" transform="translate(431,154)"/>
<path d="M0 0 C12.4304278 -0.09265972 24.8607735 -0.16374477 37.29147625 -0.20724869 C43.06350079 -0.22812789 48.83528914 -0.25645208 54.60717773 -0.30175781 C60.17685583 -0.34520297 65.74630667 -0.3691346 71.31614113 -0.37950897 C73.44164419 -0.38690267 75.56713475 -0.40134075 77.69254112 -0.42292023 C80.66859236 -0.45193605 83.64370323 -0.4559567 86.61987305 -0.45410156 C87.93941483 -0.47567322 87.93941483 -0.47567322 89.28561401 -0.49768066 C90.10024612 -0.49218201 90.91487823 -0.48668335 91.75419617 -0.48101807 C92.45752421 -0.48470524 93.16085226 -0.48839241 93.88549328 -0.49219131 C97.07495571 0.25021621 98.7289039 1.675171 101 4 C101.6292057 6.65183258 101.6292057 6.65183258 101.63491821 9.7310791 C101.64901733 10.90036453 101.66311646 12.06964996 101.67764282 13.27436829 C101.66752167 14.55345566 101.65740051 15.83254303 101.64697266 17.15039062 C101.65374943 18.51394316 101.66265291 19.87748653 101.67352295 21.24101257 C101.6963167 24.94156776 101.68748031 28.64142597 101.67162752 32.34199333 C101.65896862 36.21454624 101.67070859 40.08703947 101.67855835 43.95959473 C101.687655 50.46291825 101.67566682 56.96595786 101.65185547 63.46923828 C101.62464386 70.98801439 101.63345803 78.50611262 101.6609875 86.0248723 C101.68367734 92.48022276 101.68687936 98.93536914 101.67379415 105.39074659 C101.66599883 109.24631328 101.6649599 113.10156133 101.68147659 116.95710754 C101.69592066 120.58204186 101.68590256 124.20610226 101.65700531 127.83094215 C101.64723995 129.79582645 101.66209539 131.76078466 101.67764282 133.72563171 C101.6635437 134.89491714 101.64944458 136.06420258 101.63491821 137.2689209 C101.63209052 138.79314793 101.63209052 138.79314793 101.6292057 140.34816742 C100.76786098 143.97836655 99.07834938 145.02617518 96 147 C93.68823242 147.45410156 93.68823242 147.45410156 91.35546875 147.390625 C90.51435547 147.37773437 89.67324219 147.36484375 88.80664062 147.3515625 C87.51016602 147.30128906 87.51016602 147.30128906 86.1875 147.25 C85.30384766 147.23195312 84.42019531 147.21390625 83.50976562 147.1953125 C81.33937457 147.14838513 79.16954481 147.07664731 77 147 C77.24357144 145.94276749 77.24357144 145.94276749 77.49206352 144.86417675 C78.01757376 141.90090422 78.12586122 139.18133249 78.12698364 136.173172 C78.12980347 135.00803574 78.13262329 133.84289948 78.13552856 132.64245605 C78.13350433 131.37317261 78.1314801 130.10388916 78.12939453 128.79614258 C78.13075029 127.43906101 78.1325312 126.0819798 78.13470459 124.72489929 C78.13925686 121.04748322 78.13749877 117.37009525 78.1343255 113.69267869 C78.13179207 109.8445721 78.13414204 105.99646789 78.13571167 102.14836121 C78.13752983 95.68980477 78.13513563 89.23125978 78.13037109 82.77270508 C78.12492224 75.30010145 78.12669707 67.82752509 78.1321975 60.35492212 C78.13673045 53.94040341 78.13737849 47.52589292 78.13475883 41.11137313 C78.13319795 37.27946792 78.13299728 33.44757555 78.13629532 29.61567116 C78.1391769 26.01648362 78.13719304 22.41733137 78.13140106 18.81814766 C78.12944137 16.86241835 78.13242446 14.90668607 78.13552856 12.95095825 C78.13129883 11.21594307 78.13129883 11.21594307 78.12698364 9.44587708 C78.12660662 8.4365553 78.12622959 7.42723352 78.12584114 6.38732624 C78.1585704 3.98421435 78.1585704 3.98421435 77 2 C51.59 1.67 26.18 1.34 0 1 C0 0.67 0 0.34 0 0 Z " fill="#02BEF7" transform="translate(178,100)"/>
<path d="M0 0 C15.82772499 -0.63217245 29.29553119 2.02225736 41.83203125 12.328125 C52.75485476 22.74329104 58.94257561 35.24515247 59.5 50.5 C58.94108664 66.30375704 52.28384295 79.25093634 41 90 C38.4723486 91.93423547 35.89475751 93.71704559 33.23828125 95.46875 C29.86059771 97.77948638 26.85623016 100.28753969 25 104 C24.77049681 106.204364 24.58924067 108.41392173 24.4375 110.625 C24.31181641 112.40777344 24.31181641 112.40777344 24.18359375 114.2265625 C24.09271484 115.59941406 24.09271484 115.59941406 24 117 C20.67175983 114.27944413 17.55041967 111.69611899 14.875 108.3125 C11.59838901 104.27134645 8.0856373 102.72651961 3 102 C3 101.67 3 101.34 3 101 C3.94875 100.835 4.8975 100.67 5.875 100.5 C15.78781677 97.59624559 22.93848906 88.52978396 28 80 C35.22170477 65.9722561 38.25361749 48.84259507 33.375 33.4375 C32.63466666 31.60343378 31.84330135 29.78905987 31 28 C30.57589844 27.07058594 30.15179688 26.14117187 29.71484375 25.18359375 C25.35152818 16.44480852 18.22319188 6.15141545 9 2 C5.99448439 1.36319734 3.06853539 1.07653943 0 1 C0 0.67 0 0.34 0 0 Z " fill="#FA29A5" transform="translate(279,351)"/>
<path d="M0 0 C17.115727 -0.37388724 17.115727 -0.37388724 24 2 C24.78503906 2.25652344 25.57007813 2.51304688 26.37890625 2.77734375 C32.90850509 5.10008654 37.8031982 8.46496322 43 13 C43.60585937 13.47695313 44.21171875 13.95390625 44.8359375 14.4453125 C53.61027189 22.02856078 59.15642653 35.62999831 60.30078125 46.984375 C60.36431655 61.97870662 55.6890229 76.02383773 45.17578125 86.97265625 C35.9597117 95.55998138 25.14533726 100.16089005 12.6875 101.75 C7.26245821 102.6722571 4.14315886 105.93618348 0.32421875 109.7109375 C-1.99709032 111.99713433 -4.42682054 114.00521663 -7 116 C-7 113.03 -7 110.06 -7 107 C-5.9378125 106.56429687 -4.875625 106.12859375 -3.78125 105.6796875 C7.33226819 101.05755731 7.33226819 101.05755731 17 94 C17.67289063 93.40574219 18.34578125 92.81148438 19.0390625 92.19921875 C29.57770222 82.35131384 35.42022127 69.30568516 36.15625 54.953125 C36.60132204 38.26292361 32.54821777 24.24504303 21.5 11.5 C14.57083472 4.31376619 10.18977544 1.22552823 0 1 C0 0.67 0 0.34 0 0 Z " fill="#95D429" transform="translate(113,15)"/>
<path d="M0 0 C10.27787758 -0.57994294 17.59088697 0.46327225 26.25 6.125 C33.4101531 13.6106146 36.49795255 21.16681481 36.40625 31.4375 C35.5696666 38.77369288 32.09904546 45.45512468 26.6875 50.5 C24.890625 51.8203125 24.890625 51.8203125 23 53 C22.35546875 53.40992188 21.7109375 53.81984375 21.046875 54.2421875 C14.31561504 57.85712341 7.46312566 57.38217998 0 57 C1.299375 55.63875 1.299375 55.63875 2.625 54.25 C10.28468617 45.09485129 13.02432475 36.67624965 12.38671875 24.9296875 C11.51899363 16.11219791 8.56494377 10.76778318 3 4 C1.99442223 2.67086828 0.99289376 1.33863355 0 0 Z " fill="#FB2AA6" transform="translate(461,15)"/>
<path d="M0 0 C10.72206492 -0.59659094 17.8036799 0.42415244 26.25 7.1875 C32.2176505 12.72633729 35.34298661 19.09765018 36.23828125 27.140625 C36.45431977 33.28066724 35.01016574 37.68014733 32 43 C31.61070312 43.70382812 31.22140625 44.40765625 30.8203125 45.1328125 C26.76970881 51.43641469 21.08594023 54.79584808 14 57 C9.27991982 57.44546941 4.72197889 57.3771995 0 57 C0.886875 56.071875 1.77375 55.14375 2.6875 54.1875 C10.17063348 45.49855355 12.38147992 35.76351613 12.27734375 24.609375 C11.6029698 15.83301537 7.39379184 9.67289105 2 3 C1.34 2.01 0.68 1.02 0 0 Z " fill="#95D428" transform="translate(158,403)"/>
<path d="M0 0 C6.93 0 13.86 0 21 0 C20.67 14.19 20.34 28.38 20 43 C12.125 36.25 12.125 36.25 8.59765625 32.6953125 C7.85322266 31.94765625 7.10878906 31.2 6.34179688 30.4296875 C5.21354492 29.28886719 5.21354492 29.28886719 4.0625 28.125 C3.28326172 27.34125 2.50402344 26.5575 1.70117188 25.75 C-0.20154085 23.83561419 -2.10186171 21.91891966 -4 20 C-3.34 19.67 -2.68 19.34 -2 19 C-2.02320313 17.79601562 -2.04640625 16.59203125 -2.0703125 15.3515625 C-2.08906863 13.77604785 -2.10726899 12.20052652 -2.125 10.625 C-2.14175781 9.8309375 -2.15851563 9.036875 -2.17578125 8.21875 C-2.19335473 6.14507985 -2.10335168 4.07116759 -2 2 C-1.34 1.34 -0.68 0.68 0 0 Z " fill="#FDC143" transform="translate(393,364)"/>
<path d="M0 0 C0.8046167 0.00749268 1.6092334 0.01498535 2.43823242 0.02270508 C3.45506104 0.05001709 4.47188965 0.0773291 5.51953125 0.10546875 C8.75765625 0.16734375 11.99578125 0.22921875 15.33203125 0.29296875 C15.33203125 8.54296875 15.33203125 16.79296875 15.33203125 25.29296875 C7.45703125 18.54296875 7.45703125 18.54296875 4.1484375 15.20703125 C3.44912109 14.50449219 2.74980469 13.80195312 2.02929688 13.078125 C1.32482422 12.36527344 0.62035156 11.65242188 -0.10546875 10.91796875 C-0.83701172 10.18191406 -1.56855469 9.44585937 -2.32226562 8.6875 C-4.10649598 6.89160801 -5.88832999 5.0934089 -7.66796875 3.29296875 C-5.25260353 0.33098623 -3.77606574 -0.07215412 0 0 Z " fill="#F528A2" transform="translate(421.66796875,79.70703125)"/>
</svg>
